<svg width="134" height="49" viewBox="0 0 134 49" fill="none" xmlns="http://www.w3.org/2000/svg">
<path d="M3.39205 32.256C2.36805 32.3413 1.53605 32.0427 0.896051 31.36C0.298718 30.6773 5.10216e-05 29.7173 5.10216e-05 28.48C5.10216e-05 27.328 0.277384 26.4747 0.832051 25.92C1.42938 25.3653 2.28272 25.0453 3.39205 24.96L16.5121 23.68C17.5787 23.5947 18.3894 23.872 18.9441 24.512C19.5414 25.1093 19.8401 26.0053 19.8401 27.2C19.8401 29.504 18.7307 30.7627 16.5121 30.976L3.39205 32.256ZM32.7711 48.32C31.7044 48.32 30.7657 48 29.9551 47.36C29.1444 46.72 28.7391 45.7173 28.7391 44.352L28.8031 43.648C29.2724 39.2533 29.8271 34.688 30.4671 29.952C31.1497 25.1733 31.7257 21.504 32.1951 18.944L27.2031 20.352L26.4351 20.48C25.6244 20.48 24.9844 20.16 24.5151 19.52C24.0457 18.88 23.8111 18.1547 23.8111 17.344L23.8751 16.768C23.9604 15.9573 24.2164 15.296 24.6431 14.784C25.0697 14.272 25.8804 13.76 27.0751 13.248C28.3124 12.736 30.1471 12.1813 32.5791 11.584L35.2671 10.944C36.2484 10.7307 37.0591 10.624 37.6991 10.624C38.9364 10.624 39.8537 10.944 40.4511 11.584C41.0911 12.224 41.4111 13.12 41.4111 14.272C41.4111 14.784 41.3471 15.3387 41.2191 15.936C40.5364 19.264 39.2351 28.736 37.3151 44.352C36.9737 46.9973 35.4591 48.32 32.7711 48.32ZM62.4656 17.472C61.2282 17.472 60.3322 17.4933 59.7776 17.536C59.2229 19.4133 58.6042 21.9733 57.9216 25.216C63.4256 25.5147 67.6069 26.6453 70.4656 28.608C73.3242 30.5707 74.7536 33.2373 74.7536 36.608C74.7536 38.8267 74.1776 40.832 73.0256 42.624C71.9162 44.3733 70.2736 45.76 68.0976 46.784C65.9216 47.808 63.3616 48.32 60.4176 48.32C56.4496 48.32 53.2496 47.552 50.8176 46.016C48.4282 44.48 47.2336 42.4107 47.2336 39.808C47.2336 38.4 47.5536 37.312 48.1936 36.544C48.8762 35.7333 49.8149 35.328 51.0096 35.328C51.9482 35.328 52.6736 35.584 53.1856 36.096C53.6976 36.5653 54.1242 37.3973 54.4656 38.592C55.1909 41.1947 57.3882 42.496 61.0576 42.496C62.6362 42.496 63.9376 42.0267 64.9616 41.088C65.9856 40.1067 66.4976 38.912 66.4976 37.504C66.4976 33.7493 62.5082 31.744 54.5296 31.488C52.8229 31.4453 51.5856 31.168 50.8176 30.656C50.0922 30.144 49.7296 29.3547 49.7296 28.288C49.7296 27.776 49.7936 27.2427 49.9216 26.688L50.6256 23.616C50.8816 22.3787 51.3082 20.48 51.9056 17.92H51.7776C50.9242 17.92 50.2416 17.728 49.7296 17.344C49.2176 16.9173 48.9616 16.3413 48.9616 15.616C48.9616 13.5253 49.9856 12.16 52.0336 11.52C53.9536 10.9227 57.4096 10.624 62.4016 10.624C65.9856 10.624 68.5882 10.688 70.2096 10.816C71.8309 10.9013 73.0896 11.0507 73.9856 11.264C74.8389 11.4773 75.4362 11.776 75.7776 12.16C76.1189 12.5013 76.2896 13.0347 76.2896 13.76C76.2896 15.2107 75.9909 16.256 75.3936 16.896C74.8389 17.4933 73.8789 17.792 72.5136 17.792C71.8309 17.792 70.5082 17.7493 68.5456 17.664C64.9616 17.536 62.9349 17.472 62.4656 17.472ZM122.279 3.776C122.279 4.75733 122.001 5.71733 121.447 6.656L98.2146 46.208C97.4039 47.5733 96.3159 48.256 94.9506 48.256C94.0546 48.256 93.2652 47.9147 92.5826 47.232C91.8999 46.5493 91.5586 45.6747 91.5586 44.608C91.5586 43.6267 91.8999 42.5387 92.5826 41.344L107.879 15.232C105.617 16.0853 103.356 16.5547 101.095 16.64C100.284 19.2427 98.9186 21.3333 96.9986 22.912C95.1212 24.448 93.0092 25.216 90.6626 25.216C88.5292 25.216 86.6946 24.704 85.1586 23.68C83.6226 22.6133 82.4706 21.2267 81.7026 19.52C80.9346 17.8133 80.5506 15.9787 80.5506 14.016C80.5506 11.2853 81.0626 8.87466 82.0866 6.784C83.1532 4.65067 84.5826 2.98667 86.3746 1.792C88.1666 0.597329 90.1719 -3.8147e-06 92.3906 -3.8147e-06C95.1212 -3.8147e-06 97.3186 0.959997 98.9826 2.88C100.647 4.75733 101.607 7.06133 101.863 9.792C104.721 9.62133 107.345 8.91733 109.735 7.68C112.167 6.4 114.001 4.77866 115.239 2.816C116.391 0.938663 117.671 -3.8147e-06 119.079 -3.8147e-06C119.975 -3.8147e-06 120.721 0.362663 121.319 1.088C121.959 1.81333 122.279 2.70933 122.279 3.776ZM91.3026 19.456C92.1986 19.456 93.0092 19.072 93.7346 18.304C94.4599 17.536 94.9719 16.4053 95.2706 14.912C94.3319 14.0587 93.6066 13.0133 93.0946 11.776C92.5826 10.496 92.3266 9.23733 92.3266 8C92.3266 7.31733 92.3906 6.592 92.5186 5.824C92.4332 5.78133 92.2626 5.76 92.0066 5.76C90.7266 5.76 89.6599 6.42133 88.8066 7.744C87.9959 9.024 87.5906 10.944 87.5906 13.504C87.5906 15.4667 87.9319 16.96 88.6146 17.984C89.3399 18.9653 90.2359 19.456 91.3026 19.456ZM123.623 23.04C125.841 23.04 127.719 23.5733 129.255 24.64C130.791 25.664 131.943 27.0293 132.711 28.736C133.479 30.4427 133.863 32.2773 133.863 34.24C133.863 36.928 133.329 39.3387 132.263 41.472C131.239 43.6053 129.809 45.2693 127.975 46.464C126.183 47.6587 124.177 48.256 121.959 48.256C119.74 48.256 117.863 47.744 116.327 46.72C114.833 45.6533 113.703 44.2667 112.935 42.56C112.167 40.8533 111.783 39.0187 111.783 37.056C111.783 34.3253 112.295 31.8933 113.319 29.76C114.343 27.6267 115.751 25.984 117.543 24.832C119.335 23.6373 121.361 23.04 123.623 23.04ZM122.535 42.496C123.729 42.496 124.732 41.8347 125.543 40.512C126.396 39.1893 126.823 37.2693 126.823 34.752C126.823 32.7893 126.46 31.3173 125.735 30.336C125.052 29.312 124.22 28.8 123.239 28.8C121.959 28.8 120.892 29.4613 120.039 30.784C119.228 32.064 118.823 33.984 118.823 36.544C118.823 38.592 119.164 40.1067 119.847 41.088C120.572 42.0267 121.468 42.496 122.535 42.496Z" fill="#115009"/>
</svg>
