<svg width="79" height="32" viewBox="0 0 79 32" fill="none" xmlns="http://www.w3.org/2000/svg">
<path d="M1.704 20.06C1.552 20.06 1.424 20.008 1.32 19.904C1.216 19.8 1.164 19.672 1.164 19.52V12.116C1.164 11.964 1.216 11.836 1.32 11.732C1.424 11.62 1.552 11.564 1.704 11.564C1.856 11.564 1.984 11.62 2.088 11.732C2.2 11.836 2.256 11.964 2.256 12.116V15.932L6.36 11.756C6.472 11.628 6.608 11.564 6.768 11.564C6.904 11.564 7.02 11.612 7.116 11.708C7.22 11.796 7.272 11.908 7.272 12.044C7.272 12.204 7.228 12.328 7.14 12.416L4.368 15.176L7.548 19.184C7.636 19.296 7.68 19.412 7.68 19.532C7.688 19.676 7.64 19.8 7.536 19.904C7.432 20.008 7.304 20.06 7.152 20.06C6.968 20.06 6.824 19.988 6.72 19.844L3.624 15.896L2.256 17.276V19.52C2.256 19.672 2.2 19.8 2.088 19.904C1.984 20.008 1.856 20.06 1.704 20.06ZM11.6871 20.12C11.0711 20.12 10.5311 19.988 10.0671 19.724C9.60306 19.46 9.24306 19.088 8.98706 18.608C8.73906 18.12 8.61506 17.564 8.61506 16.94C8.61506 16.316 8.73906 15.764 8.98706 15.284C9.24306 14.796 9.60306 14.42 10.0671 14.156C10.5311 13.892 11.0711 13.76 11.6871 13.76C12.2951 13.76 12.8311 13.892 13.2951 14.156C13.7591 14.42 14.1191 14.796 14.3751 15.284C14.6311 15.764 14.7591 16.316 14.7591 16.94C14.7591 17.564 14.6311 18.12 14.3751 18.608C14.1191 19.088 13.7591 19.46 13.2951 19.724C12.8311 19.988 12.2951 20.12 11.6871 20.12ZM11.6871 19.124C12.0151 19.124 12.3271 19.048 12.6231 18.896C12.9271 18.744 13.1751 18.504 13.3671 18.176C13.5671 17.848 13.6671 17.432 13.6671 16.928C13.6671 16.432 13.5671 16.02 13.3671 15.692C13.1751 15.364 12.9271 15.128 12.6231 14.984C12.3271 14.832 12.0151 14.756 11.6871 14.756C11.3511 14.756 11.0311 14.832 10.7271 14.984C10.4311 15.128 10.1871 15.364 9.99506 15.692C9.80306 16.02 9.70706 16.432 9.70706 16.928C9.70706 17.432 9.80306 17.848 9.99506 18.176C10.1871 18.504 10.4311 18.744 10.7271 18.896C11.0311 19.048 11.3511 19.124 11.6871 19.124ZM16.8278 20.06C16.6758 20.06 16.5478 20.008 16.4438 19.904C16.3398 19.8 16.2878 19.672 16.2878 19.52V14.372C16.2878 14.22 16.3398 14.092 16.4438 13.988C16.5478 13.876 16.6758 13.82 16.8278 13.82C16.9798 13.82 17.1078 13.876 17.2118 13.988C17.3238 14.092 17.3798 14.22 17.3798 14.372V14.864C17.6838 14.528 18.0118 14.26 18.3638 14.06C18.7158 13.86 19.1318 13.76 19.6118 13.76C20.0518 13.76 20.4318 13.864 20.7518 14.072C21.0798 14.28 21.3278 14.564 21.4958 14.924C21.6718 15.284 21.7598 15.68 21.7598 16.112V19.52C21.7598 19.672 21.7038 19.8 21.5918 19.904C21.4878 20.008 21.3598 20.06 21.2078 20.06C21.0558 20.06 20.9278 20.008 20.8238 19.904C20.7198 19.8 20.6678 19.672 20.6678 19.52V16.232C20.6678 15.256 20.2278 14.768 19.3478 14.768C18.9478 14.768 18.5878 14.872 18.2678 15.08C17.9558 15.288 17.6598 15.568 17.3798 15.92V19.52C17.3798 19.672 17.3238 19.8 17.2118 19.904C17.1078 20.008 16.9798 20.06 16.8278 20.06ZM25.5717 20.12C24.4037 20.12 23.8197 19.592 23.8197 18.536V14.816H22.9677C22.9037 14.816 22.8477 14.796 22.7997 14.756C22.7597 14.708 22.7397 14.652 22.7397 14.588C22.7397 14.508 22.7757 14.44 22.8477 14.384L24.4797 12.788C24.5517 12.716 24.6197 12.68 24.6837 12.68C24.7477 12.68 24.7997 12.704 24.8397 12.752C24.8877 12.8 24.9117 12.856 24.9117 12.92V13.88H26.2677C26.4037 13.88 26.5157 13.924 26.6037 14.012C26.6917 14.1 26.7357 14.212 26.7357 14.348C26.7357 14.476 26.6917 14.588 26.6037 14.684C26.5157 14.772 26.4037 14.816 26.2677 14.816H24.9117V18.44C24.9117 18.752 24.9837 18.952 25.1277 19.04C25.2797 19.12 25.4677 19.16 25.6917 19.16C25.8517 19.16 26.0117 19.136 26.1717 19.088C26.2037 19.08 26.2357 19.072 26.2677 19.064C26.3077 19.056 26.3557 19.052 26.4117 19.052C26.5237 19.052 26.6237 19.096 26.7117 19.184C26.7997 19.264 26.8437 19.364 26.8437 19.484C26.8437 19.668 26.7517 19.808 26.5677 19.904C26.2557 20.048 25.9237 20.12 25.5717 20.12ZM30.6597 20.12C30.0437 20.12 29.5037 19.988 29.0397 19.724C28.5757 19.46 28.2157 19.088 27.9597 18.608C27.7117 18.12 27.5877 17.564 27.5877 16.94C27.5877 16.316 27.7117 15.764 27.9597 15.284C28.2157 14.796 28.5757 14.42 29.0397 14.156C29.5037 13.892 30.0437 13.76 30.6597 13.76C31.2677 13.76 31.8037 13.892 32.2677 14.156C32.7317 14.42 33.0917 14.796 33.3477 15.284C33.6037 15.764 33.7317 16.316 33.7317 16.94C33.7317 17.564 33.6037 18.12 33.3477 18.608C33.0917 19.088 32.7317 19.46 32.2677 19.724C31.8037 19.988 31.2677 20.12 30.6597 20.12ZM30.6597 19.124C30.9877 19.124 31.2997 19.048 31.5957 18.896C31.8997 18.744 32.1477 18.504 32.3397 18.176C32.5397 17.848 32.6397 17.432 32.6397 16.928C32.6397 16.432 32.5397 16.02 32.3397 15.692C32.1477 15.364 31.8997 15.128 31.5957 14.984C31.2997 14.832 30.9877 14.756 30.6597 14.756C30.3237 14.756 30.0037 14.832 29.6997 14.984C29.4037 15.128 29.1597 15.364 28.9677 15.692C28.7757 16.02 28.6797 16.432 28.6797 16.928C28.6797 17.432 28.7757 17.848 28.9677 18.176C29.1597 18.504 29.4037 18.744 29.6997 18.896C30.0037 19.048 30.3237 19.124 30.6597 19.124Z" fill="#313131"/>
<path d="M63 8C62.0111 8 61.0444 8.29325 60.2222 8.84265C59.3999 9.39206 58.759 10.173 58.3806 11.0866C58.0022 12.0002 57.9031 13.0055 58.0961 13.9755C58.289 14.9454 58.7652 15.8363 59.4645 16.5355C60.1637 17.2348 61.0546 17.711 62.0246 17.9039C62.9945 18.0969 63.9998 17.9978 64.9134 17.6194C65.8271 17.241 66.6079 16.6001 67.1574 15.7779C67.7068 14.9556 68 13.9889 68 13C68 11.6739 67.4732 10.4021 66.5355 9.46447C65.5979 8.52678 64.3261 8 63 8ZM63 16C62.4067 16 61.8266 15.8241 61.3333 15.4944C60.8399 15.1648 60.4554 14.6962 60.2284 14.1481C60.0013 13.5999 59.9419 12.9967 60.0576 12.4147C60.1734 11.8328 60.4591 11.2982 60.8787 10.8787C61.2982 10.4591 61.8328 10.1734 62.4147 10.0576C62.9967 9.94189 63.5999 10.0013 64.1481 10.2284C64.6962 10.4554 65.1648 10.8399 65.4944 11.3333C65.8241 11.8266 66 12.4067 66 13C65.9992 13.7954 65.6829 14.558 65.1204 15.1204C64.558 15.6829 63.7954 15.9992 63 16Z" fill="#313131"/>
<path d="M63 2C60.2311 2 57.5243 2.82109 55.222 4.35943C52.9197 5.89777 51.1253 8.08427 50.0657 10.6424C49.0061 13.2006 48.7288 16.0155 49.269 18.7313C49.8092 21.447 51.1426 23.9416 53.1005 25.8995C55.0584 27.8574 57.553 29.1908 60.2687 29.731C62.9845 30.2712 65.7994 29.9939 68.3576 28.9343C70.9157 27.8747 73.1022 26.0803 74.6406 23.778C76.1789 21.4757 77 18.7689 77 16C76.9958 12.2883 75.5194 8.72977 72.8948 6.10518C70.2702 3.48059 66.7117 2.00423 63 2ZM57 26.377V25C57.0008 24.2046 57.3171 23.442 57.8796 22.8796C58.442 22.3171 59.2046 22.0008 60 22H66C66.7954 22.0008 67.558 22.3171 68.1204 22.8796C68.6829 23.442 68.9992 24.2046 69 25V26.377C67.1792 27.4402 65.1085 28.0005 63 28.0005C60.8915 28.0005 58.8208 27.4402 57 26.377ZM70.992 24.926C70.9721 23.6143 70.4377 22.363 69.5039 21.4416C68.5702 20.5202 67.3118 20.0025 66 20H60C58.6882 20.0025 57.4298 20.5202 56.4961 21.4416C55.5623 22.363 55.0279 23.6143 55.008 24.926C53.1946 23.3067 51.9157 21.1749 51.3408 18.8127C50.7659 16.4505 50.9221 13.9693 51.7886 11.6979C52.6552 9.42637 54.1912 7.47167 56.1934 6.09257C58.1955 4.71347 60.5693 3.97503 63.0005 3.97503C65.4317 3.97503 67.8055 4.71347 69.8076 6.09257C71.8098 7.47167 73.3458 9.42637 74.2124 11.6979C75.0789 13.9693 75.2351 16.4505 74.6602 18.8127C74.0853 21.1749 72.8054 23.3067 70.992 24.926Z" fill="#313131"/>
</svg>
