<svg width="117" height="32" viewBox="0 0 117 32" fill="none" xmlns="http://www.w3.org/2000/svg">
<path d="M3.768 21.12C2.712 21.12 1.904 20.732 1.344 19.956C0.792 19.18 0.516 18.132 0.516 16.812C0.516 15.492 0.792 14.444 1.344 13.668C1.904 12.892 2.712 12.504 3.768 12.504C4.816 12.504 5.62 12.892 6.18 13.668C6.74 14.444 7.02 15.492 7.02 16.812C7.02 18.132 6.74 19.18 6.18 19.956C5.62 20.732 4.816 21.12 3.768 21.12ZM3.768 20.112C4.464 20.112 4.996 19.82 5.364 19.236C5.74 18.652 5.928 17.844 5.928 16.812C5.928 15.788 5.74 14.984 5.364 14.4C4.996 13.816 4.464 13.524 3.768 13.524C3.072 13.524 2.536 13.816 2.16 14.4C1.792 14.984 1.608 15.788 1.608 16.812C1.608 17.844 1.792 18.652 2.16 19.236C2.536 19.82 3.072 20.112 3.768 20.112ZM12.1403 23.82C11.9883 23.82 11.8603 23.764 11.7563 23.652C11.6523 23.548 11.6003 23.42 11.6003 23.268V15.36C11.6003 15.208 11.6523 15.08 11.7563 14.976C11.8603 14.872 11.9883 14.82 12.1403 14.82C12.2923 14.82 12.4203 14.872 12.5243 14.976C12.6363 15.08 12.6923 15.208 12.6923 15.36V15.672C13.2763 15.064 13.9603 14.76 14.7443 14.76C15.2403 14.76 15.7083 14.888 16.1483 15.144C16.5963 15.392 16.9563 15.76 17.2283 16.248C17.5083 16.728 17.6483 17.292 17.6483 17.94C17.6483 18.588 17.5083 19.156 17.2283 19.644C16.9563 20.124 16.5963 20.492 16.1483 20.748C15.7083 20.996 15.2403 21.12 14.7443 21.12C13.9603 21.12 13.2763 20.816 12.6923 20.208V23.268C12.6923 23.428 12.6403 23.56 12.5363 23.664C12.4323 23.768 12.3003 23.82 12.1403 23.82ZM14.5883 20.1C15.1803 20.1 15.6563 19.912 16.0163 19.536C16.3763 19.16 16.5563 18.628 16.5563 17.94C16.5563 17.252 16.3763 16.72 16.0163 16.344C15.6563 15.968 15.1803 15.78 14.5883 15.78C14.2203 15.78 13.8723 15.864 13.5443 16.032C13.2243 16.192 12.9403 16.408 12.6923 16.68V19.2C12.9403 19.472 13.2243 19.692 13.5443 19.86C13.8723 20.02 14.2203 20.1 14.5883 20.1ZM19.7107 21.06C19.5587 21.06 19.4307 21.008 19.3267 20.904C19.2227 20.8 19.1707 20.672 19.1707 20.52V15.372C19.1707 15.22 19.2227 15.092 19.3267 14.988C19.4307 14.876 19.5587 14.82 19.7107 14.82C19.8627 14.82 19.9907 14.876 20.0947 14.988C20.2067 15.092 20.2627 15.22 20.2627 15.372V15.888C20.8227 15.136 21.4507 14.76 22.1467 14.76H22.2067C22.3587 14.76 22.4827 14.812 22.5787 14.916C22.6827 15.02 22.7347 15.148 22.7347 15.3C22.7347 15.452 22.6827 15.576 22.5787 15.672C22.4747 15.768 22.3427 15.816 22.1827 15.816H22.1227C21.7387 15.816 21.3867 15.912 21.0667 16.104C20.7467 16.288 20.4787 16.544 20.2627 16.872V20.52C20.2627 20.672 20.2067 20.8 20.0947 20.904C19.9907 21.008 19.8627 21.06 19.7107 21.06ZM26.2886 21.12C25.6726 21.12 25.1326 20.988 24.6686 20.724C24.2046 20.46 23.8446 20.088 23.5886 19.608C23.3406 19.12 23.2166 18.564 23.2166 17.94C23.2166 17.316 23.3406 16.764 23.5886 16.284C23.8446 15.796 24.2046 15.42 24.6686 15.156C25.1326 14.892 25.6726 14.76 26.2886 14.76C26.8966 14.76 27.4326 14.892 27.8966 15.156C28.3606 15.42 28.7206 15.796 28.9766 16.284C29.2326 16.764 29.3606 17.316 29.3606 17.94C29.3606 18.564 29.2326 19.12 28.9766 19.608C28.7206 20.088 28.3606 20.46 27.8966 20.724C27.4326 20.988 26.8966 21.12 26.2886 21.12ZM26.2886 20.124C26.6166 20.124 26.9286 20.048 27.2246 19.896C27.5286 19.744 27.7766 19.504 27.9686 19.176C28.1686 18.848 28.2686 18.432 28.2686 17.928C28.2686 17.432 28.1686 17.02 27.9686 16.692C27.7766 16.364 27.5286 16.128 27.2246 15.984C26.9286 15.832 26.6166 15.756 26.2886 15.756C25.9526 15.756 25.6326 15.832 25.3286 15.984C25.0326 16.128 24.7886 16.364 24.5966 16.692C24.4046 17.02 24.3086 17.432 24.3086 17.928C24.3086 18.432 24.4046 18.848 24.5966 19.176C24.7886 19.504 25.0326 19.744 25.3286 19.896C25.6326 20.048 25.9526 20.124 26.2886 20.124ZM33.4214 21.12C32.9254 21.12 32.4534 20.996 32.0054 20.748C31.5654 20.492 31.2054 20.124 30.9254 19.644C30.6534 19.156 30.5174 18.588 30.5174 17.94C30.5174 17.292 30.6534 16.728 30.9254 16.248C31.2054 15.76 31.5654 15.392 32.0054 15.144C32.4534 14.888 32.9254 14.76 33.4214 14.76C34.2054 14.76 34.8894 15.064 35.4734 15.672V12.732C35.4734 12.572 35.5254 12.44 35.6294 12.336C35.7414 12.232 35.8734 12.18 36.0254 12.18C36.1774 12.18 36.3054 12.236 36.4094 12.348C36.5134 12.452 36.5654 12.58 36.5654 12.732V20.52C36.5654 20.672 36.5134 20.8 36.4094 20.904C36.3054 21.008 36.1774 21.06 36.0254 21.06C35.8734 21.06 35.7414 21.008 35.6294 20.904C35.5254 20.8 35.4734 20.672 35.4734 20.52V20.208C34.8894 20.816 34.2054 21.12 33.4214 21.12ZM33.5774 20.1C33.9454 20.1 34.2894 20.02 34.6094 19.86C34.9374 19.692 35.2254 19.472 35.4734 19.2V16.68C35.2254 16.408 34.9374 16.192 34.6094 16.032C34.2894 15.864 33.9454 15.78 33.5774 15.78C32.9854 15.78 32.5094 15.968 32.1494 16.344C31.7894 16.72 31.6094 17.252 31.6094 17.94C31.6094 18.628 31.7894 19.16 32.1494 19.536C32.5094 19.912 32.9854 20.1 33.5774 20.1ZM40.5477 21.12C40.1077 21.12 39.7237 21.016 39.3957 20.808C39.0757 20.6 38.8277 20.316 38.6517 19.956C38.4837 19.596 38.3997 19.2 38.3997 18.768V15.36C38.3997 15.208 38.4517 15.08 38.5557 14.976C38.6677 14.872 38.7997 14.82 38.9517 14.82C39.1037 14.82 39.2317 14.872 39.3357 14.976C39.4397 15.08 39.4917 15.208 39.4917 15.36V18.648C39.4917 19.624 39.9317 20.112 40.8117 20.112C41.2117 20.112 41.5677 20.008 41.8797 19.8C42.1997 19.592 42.4997 19.312 42.7797 18.96V15.36C42.7797 15.208 42.8317 15.08 42.9357 14.976C43.0477 14.872 43.1797 14.82 43.3317 14.82C43.4837 14.82 43.6117 14.872 43.7157 14.976C43.8197 15.08 43.8717 15.208 43.8717 15.36V20.508C43.8717 20.66 43.8197 20.792 43.7157 20.904C43.6117 21.008 43.4837 21.06 43.3317 21.06C43.1797 21.06 43.0477 21.008 42.9357 20.904C42.8317 20.792 42.7797 20.66 42.7797 20.508V20.016C42.4757 20.352 42.1477 20.62 41.7957 20.82C41.4437 21.02 41.0277 21.12 40.5477 21.12ZM46.3122 21.06C46.1602 21.06 46.0322 21.008 45.9282 20.904C45.8242 20.8 45.7722 20.672 45.7722 20.52V12.732C45.7722 12.58 45.8242 12.452 45.9282 12.348C46.0322 12.236 46.1602 12.18 46.3122 12.18C46.4642 12.18 46.5922 12.236 46.6962 12.348C46.8082 12.452 46.8642 12.58 46.8642 12.732V17.64L49.7202 15C49.8402 14.896 49.9602 14.844 50.0802 14.844C50.2642 14.844 50.3962 14.896 50.4762 15C50.5642 15.104 50.6082 15.228 50.6082 15.372C50.6082 15.508 50.5402 15.644 50.4042 15.78L48.6762 17.328L50.8482 20.208C50.9282 20.312 50.9682 20.42 50.9682 20.532C50.9682 20.692 50.9162 20.82 50.8122 20.916C50.7082 21.012 50.5762 21.06 50.4162 21.06C50.3362 21.06 50.2562 21.04 50.1762 21C50.0962 20.96 50.0282 20.904 49.9722 20.832L47.9082 18.024L46.8642 18.972V20.52C46.8642 20.672 46.8082 20.8 46.6962 20.904C46.5922 21.008 46.4642 21.06 46.3122 21.06ZM54.4233 21.12C53.2553 21.12 52.6713 20.592 52.6713 19.536V15.816H51.8193C51.7553 15.816 51.6993 15.796 51.6513 15.756C51.6113 15.708 51.5913 15.652 51.5913 15.588C51.5913 15.508 51.6273 15.44 51.6993 15.384L53.3313 13.788C53.4033 13.716 53.4713 13.68 53.5353 13.68C53.5993 13.68 53.6513 13.704 53.6913 13.752C53.7393 13.8 53.7633 13.856 53.7633 13.92V14.88H55.1193C55.2553 14.88 55.3673 14.924 55.4553 15.012C55.5433 15.1 55.5873 15.212 55.5873 15.348C55.5873 15.476 55.5433 15.588 55.4553 15.684C55.3673 15.772 55.2553 15.816 55.1193 15.816H53.7633V19.44C53.7633 19.752 53.8353 19.952 53.9793 20.04C54.1313 20.12 54.3193 20.16 54.5433 20.16C54.7033 20.16 54.8633 20.136 55.0233 20.088C55.0553 20.08 55.0873 20.072 55.1193 20.064C55.1593 20.056 55.2073 20.052 55.2633 20.052C55.3753 20.052 55.4753 20.096 55.5633 20.184C55.6513 20.264 55.6953 20.364 55.6953 20.484C55.6953 20.668 55.6033 20.808 55.4193 20.904C55.1073 21.048 54.7753 21.12 54.4233 21.12ZM59.5113 21.12C58.8953 21.12 58.3553 20.988 57.8913 20.724C57.4273 20.46 57.0673 20.088 56.8113 19.608C56.5633 19.12 56.4393 18.564 56.4393 17.94C56.4393 17.316 56.5633 16.764 56.8113 16.284C57.0673 15.796 57.4273 15.42 57.8913 15.156C58.3553 14.892 58.8953 14.76 59.5113 14.76C60.1193 14.76 60.6553 14.892 61.1193 15.156C61.5833 15.42 61.9433 15.796 62.1993 16.284C62.4553 16.764 62.5833 17.316 62.5833 17.94C62.5833 18.564 62.4553 19.12 62.1993 19.608C61.9433 20.088 61.5833 20.46 61.1193 20.724C60.6553 20.988 60.1193 21.12 59.5113 21.12ZM59.5113 20.124C59.8393 20.124 60.1513 20.048 60.4473 19.896C60.7513 19.744 60.9993 19.504 61.1913 19.176C61.3913 18.848 61.4913 18.432 61.4913 17.928C61.4913 17.432 61.3913 17.02 61.1913 16.692C60.9993 16.364 60.7513 16.128 60.4473 15.984C60.1513 15.832 59.8393 15.756 59.5113 15.756C59.1753 15.756 58.8553 15.832 58.5513 15.984C58.2553 16.128 58.0113 16.364 57.8193 16.692C57.6273 17.02 57.5313 17.432 57.5313 17.928C57.5313 18.432 57.6273 18.848 57.8193 19.176C58.0113 19.504 58.2553 19.744 58.5513 19.896C58.8553 20.048 59.1753 20.124 59.5113 20.124ZM59.5113 14.196C59.4153 14.196 59.3353 14.168 59.2713 14.112C59.2153 14.048 59.1873 13.968 59.1873 13.872C59.1873 13.8 59.2153 13.724 59.2713 13.644L59.8833 12.564C59.9633 12.412 60.0953 12.336 60.2793 12.336C60.4073 12.336 60.5113 12.376 60.5913 12.456C60.6793 12.536 60.7233 12.644 60.7233 12.78C60.7233 12.892 60.6833 12.992 60.6033 13.08L59.7753 14.064C59.7033 14.152 59.6153 14.196 59.5113 14.196ZM65.854 21.06C65.694 21.06 65.55 21.012 65.422 20.916C65.294 20.82 65.206 20.7 65.158 20.556L63.454 15.564C63.43 15.492 63.418 15.424 63.418 15.36C63.418 15.208 63.47 15.08 63.574 14.976C63.678 14.872 63.806 14.82 63.958 14.82C64.07 14.82 64.17 14.852 64.258 14.916C64.354 14.972 64.418 15.048 64.45 15.144L65.854 19.764L67.246 15.252C67.286 15.124 67.358 15.02 67.462 14.94C67.574 14.86 67.698 14.82 67.834 14.82C67.97 14.82 68.09 14.86 68.194 14.94C68.306 15.02 68.382 15.124 68.422 15.252L69.814 19.764L71.218 15.144C71.25 15.048 71.31 14.972 71.398 14.916C71.494 14.852 71.598 14.82 71.71 14.82C71.862 14.82 71.99 14.872 72.094 14.976C72.198 15.08 72.25 15.208 72.25 15.36C72.25 15.424 72.238 15.492 72.214 15.564L70.51 20.556C70.462 20.7 70.374 20.82 70.246 20.916C70.118 21.012 69.974 21.06 69.814 21.06C69.654 21.06 69.51 21.012 69.382 20.916C69.254 20.82 69.162 20.696 69.106 20.544L67.834 16.572L66.562 20.544C66.506 20.696 66.414 20.82 66.286 20.916C66.158 21.012 66.014 21.06 65.854 21.06Z" fill="#313131"/>
<path d="M95 30C96.1046 30 97 29.1046 97 28C97 26.8954 96.1046 26 95 26C93.8954 26 93 26.8954 93 28C93 29.1046 93.8954 30 95 30Z" fill="#313131"/>
<path d="M109 30C110.105 30 111 29.1046 111 28C111 26.8954 110.105 26 109 26C107.895 26 107 26.8954 107 28C107 29.1046 107.895 30 109 30Z" fill="#313131"/>
<path d="M113 6.99996H90.82L90 2.79996C89.9532 2.57068 89.8276 2.36506 89.6449 2.21889C89.4621 2.07271 89.2339 1.99524 89 1.99996H85V3.99996H88.18L92 23.2C92.0468 23.4292 92.1724 23.6349 92.3551 23.781C92.5379 23.9272 92.7661 24.0047 93 24H111V22H93.82L93 18H111C111.231 18.0056 111.457 17.931 111.639 17.7888C111.822 17.6465 111.949 17.4455 112 17.22L114 8.21996C114.034 8.07158 114.033 7.91752 113.998 7.76949C113.963 7.62146 113.894 7.48337 113.798 7.36573C113.702 7.24809 113.58 7.15399 113.441 7.09061C113.303 7.02723 113.152 6.99622 113 6.99996ZM110.2 16H92.62L91.22 8.99996H111.75L110.2 16Z" fill="#313131"/>
</svg>
