<svg width="129" height="16" viewBox="0 0 129 16" fill="none" xmlns="http://www.w3.org/2000/svg">
<path d="M25.488 12.06C25.336 12.06 25.208 12.008 25.104 11.904C25 11.8 24.948 11.672 24.948 11.52V6.372C24.948 6.22 25 6.092 25.104 5.988C25.208 5.876 25.336 5.82 25.488 5.82C25.64 5.82 25.768 5.876 25.872 5.988C25.984 6.092 26.04 6.22 26.04 6.372V6.864C26.152 6.704 26.292 6.54 26.46 6.372C26.636 6.204 26.856 6.06 27.12 5.94C27.384 5.82 27.704 5.76 28.08 5.76C28.56 5.76 28.952 5.888 29.256 6.144C29.568 6.4 29.788 6.684 29.916 6.996C30.012 6.844 30.148 6.672 30.324 6.48C30.5 6.288 30.732 6.12 31.02 5.976C31.316 5.832 31.684 5.76 32.124 5.76C32.596 5.76 32.98 5.88 33.276 6.12C33.572 6.352 33.788 6.644 33.924 6.996C34.06 7.348 34.128 7.704 34.128 8.064V11.52C34.128 11.672 34.072 11.8 33.96 11.904C33.856 12.008 33.728 12.06 33.576 12.06C33.424 12.06 33.296 12.008 33.192 11.904C33.088 11.8 33.036 11.672 33.036 11.52V8.28C33.036 7.776 32.944 7.4 32.76 7.152C32.584 6.896 32.268 6.768 31.812 6.768C31.508 6.768 31.248 6.828 31.032 6.948C30.816 7.06 30.632 7.204 30.48 7.38C30.328 7.556 30.196 7.736 30.084 7.92V11.52C30.084 11.672 30.028 11.8 29.916 11.904C29.812 12.008 29.684 12.06 29.532 12.06C29.38 12.06 29.252 12.008 29.148 11.904C29.044 11.8 28.992 11.672 28.992 11.52V8.28C28.992 7.776 28.9 7.4 28.716 7.152C28.54 6.896 28.224 6.768 27.768 6.768C27.464 6.768 27.204 6.828 26.988 6.948C26.772 7.06 26.588 7.204 26.436 7.38C26.284 7.556 26.152 7.736 26.04 7.92V11.52C26.04 11.672 25.984 11.8 25.872 11.904C25.768 12.008 25.64 12.06 25.488 12.06ZM36.4796 4.632C36.3116 4.632 36.1676 4.572 36.0476 4.452C35.9276 4.332 35.8676 4.188 35.8676 4.02V3.972C35.8676 3.804 35.9276 3.66 36.0476 3.54C36.1676 3.42 36.3116 3.36 36.4796 3.36H36.5516C36.7196 3.36 36.8636 3.42 36.9836 3.54C37.1036 3.66 37.1636 3.804 37.1636 3.972V4.02C37.1636 4.188 37.1036 4.332 36.9836 4.452C36.8636 4.572 36.7196 4.632 36.5516 4.632H36.4796ZM36.5036 12.06C36.3516 12.06 36.2236 12.008 36.1196 11.904C36.0156 11.8 35.9636 11.672 35.9636 11.52V6.372C35.9636 6.212 36.0156 6.08 36.1196 5.976C36.2236 5.872 36.3516 5.82 36.5036 5.82C36.6636 5.82 36.7956 5.872 36.8996 5.976C37.0036 6.08 37.0556 6.212 37.0556 6.372V11.52C37.0556 11.672 37.0036 11.8 36.8996 11.904C36.7956 12.008 36.6636 12.06 36.5036 12.06ZM41.7839 12.12C41.2159 12.12 40.6879 11.996 40.1999 11.748C39.7119 11.492 39.3199 11.128 39.0239 10.656C38.7279 10.176 38.5799 9.604 38.5799 8.94C38.5799 8.268 38.7279 7.696 39.0239 7.224C39.3199 6.752 39.7119 6.392 40.1999 6.144C40.6879 5.888 41.2159 5.76 41.7839 5.76C42.2559 5.76 42.6479 5.824 42.9599 5.952C43.2799 6.072 43.5399 6.2 43.7399 6.336C43.8999 6.44 43.9799 6.58 43.9799 6.756C43.9799 6.868 43.9359 6.976 43.8479 7.08C43.7599 7.184 43.6519 7.236 43.5239 7.236C43.4359 7.236 43.3479 7.212 43.2599 7.164C43.0519 7.052 42.8479 6.96 42.6479 6.888C42.4479 6.816 42.1919 6.78 41.8799 6.78C41.1839 6.78 40.6399 6.98 40.2479 7.38C39.8639 7.78 39.6719 8.3 39.6719 8.94C39.6719 9.58 39.8639 10.1 40.2479 10.5C40.6399 10.9 41.1839 11.1 41.8799 11.1C42.1919 11.1 42.4479 11.064 42.6479 10.992C42.8479 10.912 43.0519 10.82 43.2599 10.716C43.3479 10.668 43.4359 10.644 43.5239 10.644C43.6519 10.644 43.7599 10.696 43.8479 10.8C43.9359 10.904 43.9799 11.012 43.9799 11.124C43.9799 11.3 43.8999 11.44 43.7399 11.544C43.5399 11.672 43.2799 11.8 42.9599 11.928C42.6479 12.056 42.2559 12.12 41.7839 12.12ZM45.8903 12.06C45.7383 12.06 45.6103 12.008 45.5063 11.904C45.4023 11.8 45.3503 11.672 45.3503 11.52V3.732C45.3503 3.572 45.4023 3.44 45.5063 3.336C45.6103 3.232 45.7383 3.18 45.8903 3.18C46.0423 3.18 46.1703 3.232 46.2743 3.336C46.3863 3.44 46.4423 3.572 46.4423 3.732V6.864C46.6983 6.584 46.9983 6.332 47.3423 6.108C47.6943 5.876 48.1383 5.76 48.6743 5.76C49.1303 5.76 49.5183 5.868 49.8383 6.084C50.1583 6.292 50.4023 6.576 50.5703 6.936C50.7383 7.288 50.8223 7.68 50.8223 8.112V11.52C50.8223 11.672 50.7663 11.8 50.6543 11.904C50.5503 12.008 50.4223 12.06 50.2703 12.06C50.1183 12.06 49.9903 12.008 49.8863 11.904C49.7823 11.8 49.7303 11.672 49.7303 11.52V8.232C49.7303 7.776 49.6263 7.42 49.4183 7.164C49.2183 6.9 48.8823 6.768 48.4103 6.768C47.9783 6.768 47.6023 6.884 47.2823 7.116C46.9623 7.348 46.6823 7.616 46.4423 7.92V11.52C46.4423 11.672 46.3863 11.8 46.2743 11.904C46.1703 12.008 46.0423 12.06 45.8903 12.06ZM54.2228 12.12C53.8788 12.12 53.5548 12.048 53.2508 11.904C52.9548 11.76 52.7148 11.556 52.5308 11.292C52.3548 11.02 52.2668 10.696 52.2668 10.32C52.2668 9.752 52.4908 9.288 52.9388 8.928C53.3948 8.56 54.0908 8.376 55.0268 8.376H56.4788V8.28C56.4788 7.744 56.3468 7.364 56.0828 7.14C55.8188 6.908 55.4148 6.792 54.8708 6.792C54.5348 6.792 54.2388 6.824 53.9828 6.888C53.7348 6.944 53.4988 7.008 53.2748 7.08C53.2108 7.096 53.1588 7.104 53.1188 7.104C52.9988 7.104 52.8948 7.06 52.8068 6.972C52.7188 6.884 52.6748 6.776 52.6748 6.648C52.6748 6.432 52.7788 6.28 52.9868 6.192C53.2668 6.072 53.5748 5.972 53.9108 5.892C54.2548 5.804 54.6388 5.76 55.0628 5.76C55.6468 5.76 56.1228 5.876 56.4908 6.108C56.8588 6.34 57.1308 6.636 57.3068 6.996C57.4828 7.356 57.5708 7.732 57.5708 8.124V11.52C57.5708 11.672 57.5148 11.8 57.4028 11.904C57.2988 12.008 57.1708 12.06 57.0188 12.06C56.8668 12.06 56.7388 12.008 56.6348 11.904C56.5308 11.8 56.4788 11.672 56.4788 11.52V11.208C56.2628 11.432 55.9748 11.64 55.6148 11.832C55.2548 12.024 54.7908 12.12 54.2228 12.12ZM54.6308 11.16C55.0068 11.16 55.3588 11.068 55.6868 10.884C56.0148 10.7 56.2788 10.492 56.4788 10.26V9.252H55.1708C54.6108 9.252 54.1668 9.324 53.8388 9.468C53.5188 9.612 53.3588 9.856 53.3588 10.2C53.3588 10.456 53.4468 10.68 53.6228 10.872C53.8068 11.064 54.1428 11.16 54.6308 11.16ZM59.9411 12.06C59.7891 12.06 59.6611 12.008 59.5571 11.904C59.4531 11.8 59.4011 11.672 59.4011 11.52V3.732C59.4011 3.572 59.4531 3.44 59.5571 3.336C59.6611 3.232 59.7891 3.18 59.9411 3.18C60.1011 3.18 60.2331 3.232 60.3371 3.336C60.4411 3.44 60.4931 3.572 60.4931 3.732V11.52C60.4931 11.672 60.4411 11.8 60.3371 11.904C60.2331 12.008 60.1011 12.06 59.9411 12.06ZM66.2414 12.996C65.6014 12.996 65.0214 12.884 64.5014 12.66C63.9814 12.436 63.5374 12.132 63.1694 11.748C62.8014 11.356 62.5174 10.912 62.3174 10.416C62.1254 9.92 62.0294 9.4 62.0294 8.856C62.0294 8.168 62.1614 7.516 62.4254 6.9C62.6974 6.284 63.0654 5.74 63.5294 5.268C64.0014 4.796 64.5414 4.424 65.1494 4.152C65.7654 3.88 66.4214 3.744 67.1174 3.744C67.7334 3.744 68.3174 3.848 68.8694 4.056C69.4214 4.256 69.9094 4.54 70.3334 4.908C70.7574 5.268 71.0894 5.704 71.3294 6.216C71.5694 6.72 71.6894 7.28 71.6894 7.896C71.6894 8.248 71.6494 8.6 71.5694 8.952C71.4894 9.296 71.3614 9.612 71.1854 9.9C71.0094 10.188 70.7774 10.42 70.4894 10.596C70.2094 10.772 69.8654 10.86 69.4574 10.86C69.0254 10.86 68.7014 10.764 68.4854 10.572C68.2774 10.38 68.1534 10.18 68.1134 9.972C67.8574 10.284 67.5574 10.512 67.2134 10.656C66.8694 10.8 66.5094 10.872 66.1334 10.872C65.4774 10.872 64.9734 10.672 64.6214 10.272C64.2694 9.864 64.0934 9.36 64.0934 8.76C64.0934 8.136 64.2294 7.608 64.5014 7.176C64.7814 6.736 65.1374 6.404 65.5694 6.18C66.0094 5.956 66.4654 5.844 66.9374 5.844C67.3054 5.844 67.6134 5.912 67.8614 6.048C68.1174 6.176 68.3214 6.312 68.4734 6.456L68.5094 6.252C68.5254 6.14 68.5774 6.052 68.6654 5.988C68.7534 5.916 68.8494 5.88 68.9534 5.88C69.0734 5.88 69.1734 5.924 69.2534 6.012C69.3414 6.092 69.3854 6.196 69.3854 6.324C69.3854 6.332 69.3854 6.348 69.3854 6.372C69.3854 6.388 69.3814 6.416 69.3734 6.456L68.9774 8.736C68.9614 8.832 68.9414 8.952 68.9174 9.096C68.9014 9.232 68.8934 9.372 68.8934 9.516C68.8934 9.716 68.9374 9.896 69.0254 10.056C69.1214 10.216 69.2774 10.296 69.4934 10.296C69.9974 10.296 70.3814 10.076 70.6454 9.636C70.9094 9.196 71.0414 8.616 71.0414 7.896C71.0414 7.32 70.9254 6.812 70.6934 6.372C70.4694 5.932 70.1694 5.564 69.7934 5.268C69.4174 4.972 68.9974 4.752 68.5334 4.608C68.0694 4.456 67.5974 4.38 67.1174 4.38C66.5094 4.38 65.9374 4.5 65.4014 4.74C64.8654 4.972 64.3894 5.296 63.9734 5.712C63.5654 6.12 63.2414 6.596 63.0014 7.14C62.7694 7.676 62.6534 8.248 62.6534 8.856C62.6534 9.288 62.7294 9.712 62.8814 10.128C63.0414 10.544 63.2734 10.924 63.5774 11.268C63.8814 11.604 64.2534 11.872 64.6934 12.072C65.1414 12.272 65.6574 12.372 66.2414 12.372C66.7854 12.372 67.2454 12.316 67.6214 12.204C68.0054 12.1 68.3814 11.972 68.7494 11.82C68.7974 11.804 68.8414 11.796 68.8814 11.796C68.9694 11.796 69.0414 11.824 69.0974 11.88C69.1534 11.928 69.1814 11.996 69.1814 12.084C69.1814 12.212 69.1254 12.304 69.0134 12.36C68.6774 12.528 68.2774 12.676 67.8134 12.804C67.3574 12.932 66.8334 12.996 66.2414 12.996ZM66.3974 10.044C66.6534 10.044 66.9014 10 67.1414 9.912C67.3814 9.816 67.5894 9.648 67.7654 9.408C67.9494 9.16 68.0774 8.812 68.1494 8.364L68.3414 7.248C68.2054 7.104 68.0254 6.976 67.8014 6.864C67.5854 6.752 67.3134 6.696 66.9854 6.696C66.6494 6.696 66.3294 6.772 66.0254 6.924C65.7294 7.068 65.4854 7.284 65.2934 7.572C65.1094 7.86 65.0174 8.216 65.0174 8.64C65.0174 9.128 65.1534 9.484 65.4254 9.708C65.6974 9.932 66.0214 10.044 66.3974 10.044ZM73.7107 14.82C73.5587 14.82 73.4307 14.764 73.3267 14.652C73.2227 14.548 73.1707 14.42 73.1707 14.268V6.36C73.1707 6.208 73.2227 6.08 73.3267 5.976C73.4307 5.872 73.5587 5.82 73.7107 5.82C73.8707 5.82 74.0027 5.872 74.1067 5.976C74.2107 6.08 74.2627 6.208 74.2627 6.36V6.672C74.5427 6.384 74.8507 6.16 75.1867 6C75.5227 5.84 75.8987 5.76 76.3147 5.76C76.8027 5.76 77.2667 5.884 77.7067 6.132C78.1467 6.38 78.5067 6.74 78.7867 7.212C79.0747 7.684 79.2187 8.26 79.2187 8.94C79.2187 9.62 79.0747 10.196 78.7867 10.668C78.5067 11.14 78.1467 11.5 77.7067 11.748C77.2667 11.996 76.8027 12.12 76.3147 12.12C75.8987 12.12 75.5227 12.04 75.1867 11.88C74.8507 11.72 74.5427 11.496 74.2627 11.208V14.268C74.2627 14.42 74.2107 14.548 74.1067 14.652C74.0027 14.764 73.8707 14.82 73.7107 14.82ZM76.1587 11.1C76.7267 11.1 77.1947 10.916 77.5627 10.548C77.9387 10.18 78.1267 9.644 78.1267 8.94C78.1267 8.228 77.9387 7.692 77.5627 7.332C77.1947 6.964 76.7267 6.78 76.1587 6.78C75.7667 6.78 75.4107 6.868 75.0907 7.044C74.7707 7.212 74.4947 7.424 74.2627 7.68V10.2C74.4947 10.456 74.7707 10.672 75.0907 10.848C75.4107 11.016 75.7667 11.1 76.1587 11.1ZM82.301 12.12C81.957 12.12 81.633 12.048 81.329 11.904C81.033 11.76 80.793 11.556 80.609 11.292C80.433 11.02 80.345 10.696 80.345 10.32C80.345 9.752 80.569 9.288 81.017 8.928C81.473 8.56 82.169 8.376 83.105 8.376H84.557V8.28C84.557 7.744 84.425 7.364 84.161 7.14C83.897 6.908 83.493 6.792 82.949 6.792C82.613 6.792 82.317 6.824 82.061 6.888C81.813 6.944 81.577 7.008 81.353 7.08C81.289 7.096 81.237 7.104 81.197 7.104C81.077 7.104 80.973 7.06 80.885 6.972C80.797 6.884 80.753 6.776 80.753 6.648C80.753 6.432 80.857 6.28 81.065 6.192C81.345 6.072 81.653 5.972 81.989 5.892C82.333 5.804 82.717 5.76 83.141 5.76C83.725 5.76 84.201 5.876 84.569 6.108C84.937 6.34 85.209 6.636 85.385 6.996C85.561 7.356 85.649 7.732 85.649 8.124V11.52C85.649 11.672 85.593 11.8 85.481 11.904C85.377 12.008 85.249 12.06 85.097 12.06C84.945 12.06 84.817 12.008 84.713 11.904C84.609 11.8 84.557 11.672 84.557 11.52V11.208C84.341 11.432 84.053 11.64 83.693 11.832C83.333 12.024 82.869 12.12 82.301 12.12ZM82.709 11.16C83.085 11.16 83.437 11.068 83.765 10.884C84.093 10.7 84.357 10.492 84.557 10.26V9.252H83.249C82.689 9.252 82.245 9.324 81.917 9.468C81.597 9.612 81.437 9.856 81.437 10.2C81.437 10.456 81.525 10.68 81.701 10.872C81.885 11.064 82.221 11.16 82.709 11.16ZM88.0193 14.82C87.8673 14.82 87.7393 14.764 87.6353 14.652C87.5313 14.548 87.4793 14.42 87.4793 14.268V6.36C87.4793 6.208 87.5313 6.08 87.6353 5.976C87.7393 5.872 87.8673 5.82 88.0193 5.82C88.1793 5.82 88.3113 5.872 88.4153 5.976C88.5193 6.08 88.5713 6.208 88.5713 6.36V6.672C88.8513 6.384 89.1593 6.16 89.4953 6C89.8313 5.84 90.2073 5.76 90.6233 5.76C91.1113 5.76 91.5753 5.884 92.0153 6.132C92.4553 6.38 92.8153 6.74 93.0953 7.212C93.3833 7.684 93.5273 8.26 93.5273 8.94C93.5273 9.62 93.3833 10.196 93.0953 10.668C92.8153 11.14 92.4553 11.5 92.0153 11.748C91.5753 11.996 91.1113 12.12 90.6233 12.12C90.2073 12.12 89.8313 12.04 89.4953 11.88C89.1593 11.72 88.8513 11.496 88.5713 11.208V14.268C88.5713 14.42 88.5193 14.548 88.4153 14.652C88.3113 14.764 88.1793 14.82 88.0193 14.82ZM90.4673 11.1C91.0353 11.1 91.5033 10.916 91.8713 10.548C92.2473 10.18 92.4353 9.644 92.4353 8.94C92.4353 8.228 92.2473 7.692 91.8713 7.332C91.5033 6.964 91.0353 6.78 90.4673 6.78C90.0753 6.78 89.7193 6.868 89.3993 7.044C89.0793 7.212 88.8033 7.424 88.5713 7.68V10.2C88.8033 10.456 89.0793 10.672 89.3993 10.848C89.7193 11.016 90.0753 11.1 90.4673 11.1ZM95.5656 4.632C95.3976 4.632 95.2536 4.572 95.1336 4.452C95.0136 4.332 94.9536 4.188 94.9536 4.02V3.972C94.9536 3.804 95.0136 3.66 95.1336 3.54C95.2536 3.42 95.3976 3.36 95.5656 3.36H95.6376C95.8056 3.36 95.9496 3.42 96.0696 3.54C96.1896 3.66 96.2496 3.804 96.2496 3.972V4.02C96.2496 4.188 96.1896 4.332 96.0696 4.452C95.9496 4.572 95.8056 4.632 95.6376 4.632H95.5656ZM95.5896 12.06C95.4376 12.06 95.3096 12.008 95.2056 11.904C95.1016 11.8 95.0496 11.672 95.0496 11.52V6.372C95.0496 6.212 95.1016 6.08 95.2056 5.976C95.3096 5.872 95.4376 5.82 95.5896 5.82C95.7496 5.82 95.8816 5.872 95.9856 5.976C96.0896 6.08 96.1416 6.212 96.1416 6.372V11.52C96.1416 11.672 96.0896 11.8 95.9856 11.904C95.8816 12.008 95.7496 12.06 95.5896 12.06ZM98.5778 12.06C98.4258 12.06 98.2978 12.008 98.1938 11.904C98.0898 11.8 98.0378 11.672 98.0378 11.52V6.372C98.0378 6.212 98.0898 6.08 98.1938 5.976C98.2978 5.872 98.4258 5.82 98.5778 5.82C98.7298 5.82 98.8578 5.872 98.9618 5.976C99.0738 6.08 99.1298 6.212 99.1298 6.372V6.864C99.3858 6.584 99.6858 6.332 100.03 6.108C100.382 5.876 100.826 5.76 101.362 5.76C101.818 5.76 102.206 5.868 102.526 6.084C102.846 6.292 103.09 6.576 103.258 6.936C103.426 7.288 103.51 7.68 103.51 8.112V11.52C103.51 11.672 103.454 11.8 103.342 11.904C103.238 12.008 103.11 12.06 102.958 12.06C102.806 12.06 102.678 12.008 102.574 11.904C102.47 11.8 102.418 11.672 102.418 11.52V8.232C102.418 7.776 102.314 7.42 102.106 7.164C101.906 6.9 101.57 6.768 101.098 6.768C100.666 6.768 100.29 6.884 99.9698 7.116C99.6498 7.348 99.3698 7.616 99.1298 7.92V11.52C99.1298 11.672 99.0738 11.8 98.9618 11.904C98.8578 12.008 98.7298 12.06 98.5778 12.06ZM105.866 4.632C105.698 4.632 105.554 4.572 105.434 4.452C105.314 4.332 105.254 4.188 105.254 4.02V3.972C105.254 3.804 105.314 3.66 105.434 3.54C105.554 3.42 105.698 3.36 105.866 3.36H105.938C106.106 3.36 106.25 3.42 106.37 3.54C106.49 3.66 106.55 3.804 106.55 3.972V4.02C106.55 4.188 106.49 4.332 106.37 4.452C106.25 4.572 106.106 4.632 105.938 4.632H105.866ZM105.89 12.06C105.738 12.06 105.61 12.008 105.506 11.904C105.402 11.8 105.35 11.672 105.35 11.52V6.372C105.35 6.212 105.402 6.08 105.506 5.976C105.61 5.872 105.738 5.82 105.89 5.82C106.05 5.82 106.182 5.872 106.286 5.976C106.39 6.08 106.442 6.212 106.442 6.372V11.52C106.442 11.672 106.39 11.8 106.286 11.904C106.182 12.008 106.05 12.06 105.89 12.06ZM111.039 12.12C110.423 12.12 109.883 11.988 109.419 11.724C108.955 11.452 108.595 11.08 108.339 10.608C108.091 10.128 107.967 9.572 107.967 8.94C107.967 8.308 108.091 7.756 108.339 7.284C108.595 6.804 108.955 6.432 109.419 6.168C109.883 5.896 110.423 5.76 111.039 5.76C111.655 5.76 112.191 5.896 112.647 6.168C113.111 6.432 113.471 6.804 113.727 7.284C113.983 7.756 114.111 8.308 114.111 8.94C114.111 9.572 113.983 10.128 113.727 10.608C113.471 11.08 113.111 11.452 112.647 11.724C112.191 11.988 111.655 12.12 111.039 12.12ZM111.039 11.124C111.343 11.124 111.647 11.052 111.951 10.908C112.255 10.764 112.507 10.532 112.707 10.212C112.915 9.884 113.019 9.456 113.019 8.928C113.019 8.4 112.915 7.976 112.707 7.656C112.507 7.336 112.255 7.108 111.951 6.972C111.647 6.828 111.343 6.756 111.039 6.756C110.735 6.756 110.427 6.828 110.115 6.972C109.811 7.108 109.559 7.336 109.359 7.656C109.159 7.976 109.059 8.4 109.059 8.928C109.059 9.456 109.159 9.884 109.359 10.212C109.559 10.532 109.811 10.764 110.115 10.908C110.427 11.052 110.735 11.124 111.039 11.124ZM116.074 12.036C115.89 12.036 115.73 11.972 115.594 11.844C115.466 11.708 115.402 11.548 115.402 11.364V11.292C115.402 11.108 115.466 10.952 115.594 10.824C115.73 10.688 115.89 10.62 116.074 10.62H116.194C116.378 10.62 116.534 10.688 116.662 10.824C116.798 10.952 116.866 11.108 116.866 11.292V11.364C116.866 11.548 116.798 11.708 116.662 11.844C116.534 11.972 116.378 12.036 116.194 12.036H116.074ZM119.179 14.82C119.027 14.82 118.899 14.764 118.795 14.652C118.691 14.548 118.639 14.42 118.639 14.268V6.36C118.639 6.208 118.691 6.08 118.795 5.976C118.899 5.872 119.027 5.82 119.179 5.82C119.339 5.82 119.471 5.872 119.575 5.976C119.679 6.08 119.731 6.208 119.731 6.36V6.672C120.011 6.384 120.319 6.16 120.655 6C120.991 5.84 121.367 5.76 121.783 5.76C122.271 5.76 122.735 5.884 123.175 6.132C123.615 6.38 123.975 6.74 124.255 7.212C124.543 7.684 124.687 8.26 124.687 8.94C124.687 9.62 124.543 10.196 124.255 10.668C123.975 11.14 123.615 11.5 123.175 11.748C122.735 11.996 122.271 12.12 121.783 12.12C121.367 12.12 120.991 12.04 120.655 11.88C120.319 11.72 120.011 11.496 119.731 11.208V14.268C119.731 14.42 119.679 14.548 119.575 14.652C119.471 14.764 119.339 14.82 119.179 14.82ZM121.627 11.1C122.195 11.1 122.663 10.916 123.031 10.548C123.407 10.18 123.595 9.644 123.595 8.94C123.595 8.228 123.407 7.692 123.031 7.332C122.663 6.964 122.195 6.78 121.627 6.78C121.235 6.78 120.879 6.868 120.559 7.044C120.239 7.212 119.963 7.424 119.731 7.68V10.2C119.963 10.456 120.239 10.672 120.559 10.848C120.879 11.016 121.235 11.1 121.627 11.1ZM126.75 12.06C126.598 12.06 126.47 12.008 126.366 11.904C126.262 11.8 126.21 11.672 126.21 11.52V3.732C126.21 3.572 126.262 3.44 126.366 3.336C126.47 3.232 126.598 3.18 126.75 3.18C126.91 3.18 127.042 3.232 127.146 3.336C127.25 3.44 127.302 3.572 127.302 3.732V11.52C127.302 11.672 127.25 11.8 127.146 11.904C127.042 12.008 126.91 12.06 126.75 12.06Z" fill="#313131"/>
<path d="M14 3H2C1.73478 3 1.48043 3.10536 1.29289 3.29289C1.10536 3.48043 1 3.73478 1 4V12C1 12.2652 1.10536 12.5196 1.29289 12.7071C1.48043 12.8946 1.73478 13 2 13H14C14.2652 13 14.5196 12.8946 14.7071 12.7071C14.8946 12.5196 15 12.2652 15 12V4C15 3.73478 14.8946 3.48043 14.7071 3.29289C14.5196 3.10536 14.2652 3 14 3ZM12.9 4L8 7.39L3.1 4H12.9ZM2 12V4.455L7.715 8.41C7.7987 8.46806 7.89813 8.49918 8 8.49918C8.10187 8.49918 8.2013 8.46806 8.285 8.41L14 4.455V12H2Z" fill="#313131"/>
</svg>
