<svg width="99" height="16" viewBox="0 0 99 16" fill="none" xmlns="http://www.w3.org/2000/svg">
<path d="M27.996 12.12C27.404 12.12 26.908 12.028 26.508 11.844C26.116 11.652 25.8 11.4 25.56 11.088C25.32 10.768 25.136 10.42 25.008 10.044C24.888 9.668 24.808 9.288 24.768 8.904C24.728 8.512 24.708 8.152 24.708 7.824C24.708 7.352 24.764 6.868 24.876 6.372C24.996 5.868 25.188 5.4 25.452 4.968C25.724 4.528 26.084 4.176 26.532 3.912C26.98 3.64 27.532 3.504 28.188 3.504C28.684 3.504 29.1 3.56 29.436 3.672C29.78 3.776 30.072 3.892 30.312 4.02C30.48 4.1 30.564 4.244 30.564 4.452C30.564 4.58 30.52 4.696 30.432 4.8C30.344 4.896 30.224 4.944 30.072 4.944C30 4.944 29.932 4.932 29.868 4.908C29.668 4.812 29.432 4.732 29.16 4.668C28.896 4.596 28.6 4.56 28.272 4.56C27.76 4.56 27.34 4.668 27.012 4.884C26.692 5.092 26.44 5.36 26.256 5.688C26.08 6.016 25.956 6.356 25.884 6.708C25.812 7.052 25.768 7.36 25.752 7.632C25.952 7.376 26.248 7.136 26.64 6.912C27.032 6.688 27.556 6.576 28.212 6.576C28.756 6.576 29.232 6.692 29.64 6.924C30.056 7.156 30.38 7.484 30.612 7.908C30.844 8.324 30.96 8.82 30.96 9.396C30.96 9.9 30.84 10.36 30.6 10.776C30.36 11.184 30.02 11.512 29.58 11.76C29.14 12 28.612 12.12 27.996 12.12ZM28.008 11.1C28.392 11.1 28.72 11.02 28.992 10.86C29.272 10.7 29.488 10.488 29.64 10.224C29.792 9.96 29.868 9.676 29.868 9.372C29.868 8.844 29.72 8.412 29.424 8.076C29.128 7.74 28.68 7.572 28.08 7.572C27.608 7.572 27.22 7.652 26.916 7.812C26.612 7.964 26.372 8.144 26.196 8.352C26.028 8.552 25.9 8.732 25.812 8.892C25.868 9.276 25.972 9.636 26.124 9.972C26.276 10.308 26.504 10.58 26.808 10.788C27.112 10.996 27.512 11.1 28.008 11.1ZM35.3032 12.12C34.5832 12.12 33.9792 11.94 33.4912 11.58C33.0112 11.22 32.6512 10.716 32.4112 10.068C32.1712 9.42 32.0512 8.668 32.0512 7.812C32.0512 6.956 32.1712 6.204 32.4112 5.556C32.6512 4.908 33.0112 4.404 33.4912 4.044C33.9792 3.684 34.5832 3.504 35.3032 3.504C36.0232 3.504 36.6232 3.684 37.1032 4.044C37.5832 4.404 37.9432 4.908 38.1832 5.556C38.4312 6.204 38.5552 6.956 38.5552 7.812C38.5552 8.668 38.4312 9.42 38.1832 10.068C37.9432 10.716 37.5832 11.22 37.1032 11.58C36.6232 11.94 36.0232 12.12 35.3032 12.12ZM35.3032 11.112C36.0152 11.112 36.5512 10.816 36.9112 10.224C37.2792 9.632 37.4632 8.828 37.4632 7.812C37.4632 6.804 37.2792 6.004 36.9112 5.412C36.5512 4.82 36.0152 4.524 35.3032 4.524C34.5992 4.524 34.0632 4.82 33.6952 5.412C33.3272 6.004 33.1432 6.804 33.1432 7.812C33.1432 8.828 33.3272 9.632 33.6952 10.224C34.0632 10.816 34.5992 11.112 35.3032 11.112ZM42.8383 12.12C42.2383 12.12 41.7343 12.052 41.3263 11.916C40.9183 11.772 40.5903 11.584 40.3423 11.352C40.0943 11.12 39.9143 10.868 39.8023 10.596C39.6903 10.316 39.6343 10.044 39.6343 9.78C39.6343 9.164 39.7983 8.676 40.1263 8.316C40.4543 7.956 40.8863 7.688 41.4223 7.512C41.0543 7.384 40.7303 7.172 40.4503 6.876C40.1703 6.572 40.0303 6.176 40.0303 5.688C40.0303 5.456 40.0783 5.212 40.1743 4.956C40.2703 4.7 40.4263 4.464 40.6423 4.248C40.8663 4.024 41.1543 3.844 41.5063 3.708C41.8663 3.572 42.3103 3.504 42.8383 3.504C43.3663 3.504 43.8063 3.572 44.1583 3.708C44.5183 3.844 44.8063 4.024 45.0223 4.248C45.2463 4.464 45.4063 4.7 45.5023 4.956C45.5983 5.212 45.6463 5.456 45.6463 5.688C45.6463 6.176 45.5063 6.572 45.2263 6.876C44.9543 7.172 44.6303 7.384 44.2543 7.512C44.7903 7.688 45.2223 7.956 45.5503 8.316C45.8783 8.676 46.0423 9.164 46.0423 9.78C46.0423 10.044 45.9863 10.316 45.8743 10.596C45.7623 10.868 45.5823 11.12 45.3343 11.352C45.0863 11.584 44.7583 11.772 44.3503 11.916C43.9423 12.052 43.4383 12.12 42.8383 12.12ZM42.8383 7.056C43.2783 7.056 43.6223 6.988 43.8703 6.852C44.1183 6.708 44.2943 6.536 44.3983 6.336C44.5023 6.136 44.5543 5.944 44.5543 5.76C44.5543 5.408 44.4143 5.104 44.1343 4.848C43.8543 4.592 43.4223 4.464 42.8383 4.464C42.2543 4.464 41.8223 4.592 41.5423 4.848C41.2623 5.104 41.1223 5.408 41.1223 5.76C41.1223 5.944 41.1743 6.136 41.2783 6.336C41.3823 6.536 41.5583 6.708 41.8063 6.852C42.0623 6.988 42.4063 7.056 42.8383 7.056ZM42.8383 11.16C43.3743 11.16 43.7943 11.072 44.0983 10.896C44.4103 10.72 44.6303 10.516 44.7583 10.284C44.8863 10.044 44.9503 9.836 44.9503 9.66C44.9503 9.3 44.8503 9 44.6503 8.76C44.4503 8.52 44.1903 8.34 43.8703 8.22C43.5503 8.1 43.2063 8.04 42.8383 8.04C42.4703 8.04 42.1263 8.1 41.8063 8.22C41.4863 8.34 41.2263 8.52 41.0263 8.76C40.8263 9 40.7263 9.3 40.7263 9.66C40.7263 9.836 40.7903 10.044 40.9183 10.284C41.0463 10.516 41.2623 10.72 41.5663 10.896C41.8783 11.072 42.3023 11.16 42.8383 11.16ZM51.8467 12C51.7027 12 51.5827 11.952 51.4867 11.856C51.3907 11.76 51.3427 11.64 51.3427 11.496C51.3427 11.352 51.3907 11.232 51.4867 11.136C51.5827 11.032 51.7027 10.98 51.8467 10.98H53.2747V4.896L52.0507 5.496C52.0107 5.512 51.9707 5.528 51.9307 5.544C51.8907 5.56 51.8387 5.568 51.7747 5.568C51.6227 5.568 51.4987 5.52 51.4027 5.424C51.3067 5.328 51.2587 5.204 51.2587 5.052C51.2587 4.828 51.3627 4.664 51.5707 4.56L53.2027 3.708C53.3147 3.652 53.4267 3.624 53.5387 3.624H53.7907C53.9507 3.624 54.0867 3.68 54.1987 3.792C54.3107 3.904 54.3667 4.04 54.3667 4.2V10.98H55.5547C55.6987 10.98 55.8187 11.032 55.9147 11.136C56.0187 11.232 56.0707 11.352 56.0707 11.496C56.0707 11.64 56.0187 11.76 55.9147 11.856C55.8187 11.952 55.6987 12 55.5547 12H51.8467ZM61.2538 12.12C60.6618 12.12 60.1658 12.028 59.7658 11.844C59.3738 11.652 59.0578 11.4 58.8178 11.088C58.5778 10.768 58.3938 10.42 58.2658 10.044C58.1458 9.668 58.0658 9.288 58.0258 8.904C57.9858 8.512 57.9658 8.152 57.9658 7.824C57.9658 7.352 58.0218 6.868 58.1338 6.372C58.2538 5.868 58.4458 5.4 58.7098 4.968C58.9818 4.528 59.3418 4.176 59.7898 3.912C60.2378 3.64 60.7898 3.504 61.4458 3.504C61.9418 3.504 62.3578 3.56 62.6938 3.672C63.0378 3.776 63.3298 3.892 63.5698 4.02C63.7378 4.1 63.8218 4.244 63.8218 4.452C63.8218 4.58 63.7778 4.696 63.6898 4.8C63.6018 4.896 63.4818 4.944 63.3298 4.944C63.2578 4.944 63.1898 4.932 63.1258 4.908C62.9258 4.812 62.6898 4.732 62.4178 4.668C62.1538 4.596 61.8578 4.56 61.5298 4.56C61.0178 4.56 60.5978 4.668 60.2698 4.884C59.9498 5.092 59.6978 5.36 59.5138 5.688C59.3378 6.016 59.2138 6.356 59.1418 6.708C59.0698 7.052 59.0258 7.36 59.0098 7.632C59.2098 7.376 59.5058 7.136 59.8978 6.912C60.2898 6.688 60.8138 6.576 61.4698 6.576C62.0138 6.576 62.4898 6.692 62.8978 6.924C63.3138 7.156 63.6378 7.484 63.8698 7.908C64.1018 8.324 64.2178 8.82 64.2178 9.396C64.2178 9.9 64.0978 10.36 63.8578 10.776C63.6178 11.184 63.2778 11.512 62.8378 11.76C62.3978 12 61.8698 12.12 61.2538 12.12ZM61.2658 11.1C61.6498 11.1 61.9778 11.02 62.2498 10.86C62.5298 10.7 62.7458 10.488 62.8978 10.224C63.0498 9.96 63.1258 9.676 63.1258 9.372C63.1258 8.844 62.9778 8.412 62.6818 8.076C62.3858 7.74 61.9378 7.572 61.3378 7.572C60.8658 7.572 60.4778 7.652 60.1738 7.812C59.8698 7.964 59.6298 8.144 59.4538 8.352C59.2858 8.552 59.1578 8.732 59.0698 8.892C59.1258 9.276 59.2298 9.636 59.3818 9.972C59.5338 10.308 59.7618 10.58 60.0658 10.788C60.3698 10.996 60.7698 11.1 61.2658 11.1ZM67.553 12.06C67.401 12.06 67.273 12.008 67.169 11.904C67.065 11.8 67.013 11.672 67.013 11.52C67.013 11.424 67.037 11.328 67.085 11.232L70.385 4.668H66.029C65.885 4.668 65.761 4.62 65.657 4.524C65.561 4.42 65.513 4.296 65.513 4.152C65.513 4.008 65.561 3.884 65.657 3.78C65.761 3.676 65.885 3.624 66.029 3.624H70.925C71.117 3.624 71.277 3.684 71.405 3.804C71.533 3.924 71.597 4.076 71.597 4.26C71.597 4.436 71.557 4.612 71.477 4.788L68.069 11.76C67.965 11.96 67.793 12.06 67.553 12.06ZM76.8613 12C76.6773 12 76.5253 11.944 76.4053 11.832C76.2853 11.712 76.2253 11.56 76.2253 11.376C76.2253 10.952 76.3413 10.572 76.5733 10.236C76.8053 9.892 77.1013 9.58 77.4613 9.3C77.8293 9.012 78.2173 8.74 78.6253 8.484C79.0333 8.228 79.4173 7.976 79.7773 7.728C80.1453 7.472 80.4453 7.208 80.6773 6.936C80.9093 6.656 81.0253 6.352 81.0253 6.024C81.0253 5.6 80.8813 5.248 80.5933 4.968C80.3133 4.68 79.8253 4.536 79.1293 4.536C78.7213 4.536 78.3453 4.58 78.0013 4.668C77.6573 4.748 77.3493 4.848 77.0773 4.968C77.0693 4.976 77.0413 4.988 76.9933 5.004C76.9453 5.02 76.8973 5.028 76.8493 5.028C76.7213 5.028 76.6133 4.984 76.5253 4.896C76.4373 4.8 76.3933 4.688 76.3933 4.56C76.3933 4.36 76.4813 4.212 76.6573 4.116C76.9933 3.948 77.3813 3.804 77.8213 3.684C78.2693 3.564 78.7693 3.504 79.3213 3.504C79.8333 3.504 80.2973 3.608 80.7133 3.816C81.1293 4.016 81.4613 4.3 81.7093 4.668C81.9573 5.028 82.0813 5.452 82.0813 5.94C82.0813 6.348 81.9813 6.728 81.7813 7.08C81.5813 7.424 81.3173 7.744 80.9893 8.04C80.6693 8.328 80.3213 8.604 79.9453 8.868C79.5693 9.124 79.2013 9.368 78.8413 9.6C78.4813 9.832 78.1653 10.064 77.8933 10.296C77.6213 10.52 77.4293 10.748 77.3173 10.98H81.4933C81.6373 10.98 81.7573 11.032 81.8533 11.136C81.9573 11.232 82.0093 11.352 82.0093 11.496C82.0093 11.64 81.9573 11.76 81.8533 11.856C81.7573 11.952 81.6373 12 81.4933 12H76.8613ZM85.7405 12.06C85.5885 12.06 85.4605 12.008 85.3565 11.904C85.2525 11.8 85.2005 11.672 85.2005 11.52C85.2005 11.424 85.2245 11.328 85.2725 11.232L88.5725 4.668H84.2165C84.0725 4.668 83.9485 4.62 83.8445 4.524C83.7485 4.42 83.7005 4.296 83.7005 4.152C83.7005 4.008 83.7485 3.884 83.8445 3.78C83.9485 3.676 84.0725 3.624 84.2165 3.624H89.1125C89.3045 3.624 89.4645 3.684 89.5925 3.804C89.7205 3.924 89.7845 4.076 89.7845 4.26C89.7845 4.436 89.7445 4.612 89.6645 4.788L86.2565 11.76C86.1525 11.96 85.9805 12.06 85.7405 12.06ZM93.2756 12.06C93.1236 12.06 92.9956 12.008 92.8916 11.904C92.7876 11.8 92.7356 11.672 92.7356 11.52C92.7356 11.424 92.7596 11.328 92.8076 11.232L96.1076 4.668H91.7516C91.6076 4.668 91.4836 4.62 91.3796 4.524C91.2836 4.42 91.2356 4.296 91.2356 4.152C91.2356 4.008 91.2836 3.884 91.3796 3.78C91.4836 3.676 91.6076 3.624 91.7516 3.624H96.6476C96.8396 3.624 96.9996 3.684 97.1276 3.804C97.2556 3.924 97.3196 4.076 97.3196 4.26C97.3196 4.436 97.2796 4.612 97.1996 4.788L93.7916 11.76C93.6876 11.96 93.5156 12.06 93.2756 12.06Z" fill="#313131"/>
<path d="M12.9999 14.5H12.9149C3.08988 13.935 1.69488 5.645 1.49988 3.115C1.48417 2.91829 1.50742 2.72041 1.56832 2.53271C1.62921 2.345 1.72654 2.17115 1.85474 2.02113C1.98293 1.8711 2.13947 1.74784 2.31538 1.65842C2.4913 1.569 2.68313 1.51516 2.87988 1.5H5.63488C5.83516 1.49981 6.03088 1.55976 6.1967 1.67208C6.36251 1.78441 6.49078 1.94394 6.56488 2.13L7.32488 4C7.39806 4.18177 7.41621 4.38104 7.3771 4.57305C7.33799 4.76505 7.24333 4.94134 7.10488 5.08L6.03988 6.155C6.20624 7.10037 6.65897 7.97183 7.33683 8.65148C8.01468 9.33112 8.88495 9.78615 9.82988 9.955L10.9149 8.88C11.0556 8.74308 11.2336 8.65063 11.4265 8.61417C11.6195 8.57771 11.8189 8.59887 11.9999 8.675L13.8849 9.43C14.0681 9.50644 14.2245 9.63571 14.334 9.80134C14.4435 9.96696 14.5013 10.1614 14.4999 10.36V13C14.4999 13.3978 14.3418 13.7794 14.0605 14.0607C13.7792 14.342 13.3977 14.5 12.9999 14.5ZM2.99988 2.5C2.86727 2.5 2.74009 2.55268 2.64633 2.64645C2.55256 2.74022 2.49988 2.86739 2.49988 3V3.04C2.72988 6 4.20488 13 12.9699 13.5C13.0356 13.5041 13.1014 13.4951 13.1636 13.4737C13.2259 13.4522 13.2832 13.4187 13.3325 13.375C13.3817 13.3314 13.4218 13.2784 13.4506 13.2192C13.4793 13.16 13.4961 13.0957 13.4999 13.03V10.36L11.6149 9.605L10.1799 11.03L9.93988 11C5.58988 10.455 4.99988 6.105 4.99988 6.06L4.96988 5.82L6.38988 4.385L5.63988 2.5H2.99988Z" fill="#313131"/>
</svg>
