<svg width="282" height="32" viewBox="0 0 282 32" fill="none" xmlns="http://www.w3.org/2000/svg">
<path d="M1.44 23.68C1.03466 23.68 0.69333 23.5414 0.415996 23.264C0.138663 22.9867 -3.8147e-06 22.6454 -3.8147e-06 22.24V2.65602C-3.8147e-06 2.25069 0.138663 1.90935 0.415996 1.63202C0.69333 1.33335 1.03466 1.18402 1.44 1.18402H8.736C10.3573 1.18402 11.712 1.39735 12.8 1.82402C13.9093 2.22935 14.784 2.78402 15.424 3.48802C16.0853 4.17068 16.5547 4.92802 16.832 5.76002C17.1307 6.59202 17.28 7.43469 17.28 8.28802C17.28 9.14135 17.1307 9.98402 16.832 10.816C16.5547 11.648 16.0853 12.416 15.424 13.12C14.784 13.8027 13.9093 14.3574 12.8 14.784C11.712 15.1894 10.3573 15.392 8.736 15.392H2.912V22.24C2.912 22.6454 2.76266 22.9867 2.464 23.264C2.18666 23.5414 1.84533 23.68 1.44 23.68ZM2.912 12.64H8.448C10.048 12.64 11.2747 12.4267 12.128 12C12.9813 11.552 13.568 10.9974 13.888 10.336C14.208 9.65335 14.368 8.97069 14.368 8.28802C14.368 7.58402 14.208 6.90135 13.888 6.24002C13.568 5.57869 12.9813 5.03469 12.128 4.60802C11.2747 4.16002 10.048 3.93602 8.448 3.93602H2.912V12.64ZM27.6865 23.84C26.0438 23.84 24.6038 23.488 23.3665 22.784C22.1292 22.0587 21.1692 21.0667 20.4865 19.808C19.8252 18.528 19.4945 17.0454 19.4945 15.36C19.4945 13.6747 19.8252 12.2027 20.4865 10.944C21.1692 9.66402 22.1292 8.67202 23.3665 7.96802C24.6038 7.24269 26.0438 6.88002 27.6865 6.88002C29.3292 6.88002 30.7585 7.24269 31.9745 7.96802C33.2118 8.67202 34.1718 9.66402 34.8545 10.944C35.5372 12.2027 35.8785 13.6747 35.8785 15.36C35.8785 17.0454 35.5372 18.528 34.8545 19.808C34.1718 21.0667 33.2118 22.0587 31.9745 22.784C30.7585 23.488 29.3292 23.84 27.6865 23.84ZM27.6865 21.184C28.4972 21.184 29.3078 20.992 30.1185 20.608C30.9292 20.224 31.6012 19.6054 32.1345 18.752C32.6892 17.8774 32.9665 16.736 32.9665 15.328C32.9665 13.92 32.6892 12.7894 32.1345 11.936C31.6012 11.0827 30.9292 10.4747 30.1185 10.112C29.3078 9.72802 28.4972 9.53602 27.6865 9.53602C26.8758 9.53602 26.0545 9.72802 25.2225 10.112C24.4118 10.4747 23.7398 11.0827 23.2065 11.936C22.6732 12.7894 22.4065 13.92 22.4065 15.328C22.4065 16.736 22.6732 17.8774 23.2065 18.752C23.7398 19.6054 24.4118 20.224 25.2225 20.608C26.0545 20.992 26.8758 21.184 27.6865 21.184ZM41.3952 23.68C40.9899 23.68 40.6486 23.5414 40.3712 23.264C40.0939 22.9867 39.9552 22.6454 39.9552 22.24V1.47202C39.9552 1.04535 40.0939 0.693351 40.3712 0.416018C40.6486 0.138685 40.9899 1.90735e-05 41.3952 1.90735e-05C41.8219 1.90735e-05 42.1739 0.138685 42.4512 0.416018C42.7286 0.693351 42.8672 1.04535 42.8672 1.47202V22.24C42.8672 22.6454 42.7286 22.9867 42.4512 23.264C42.1739 23.5414 41.8219 23.68 41.3952 23.68ZM55.22 23.84C52.6173 23.84 50.58 23.104 49.108 21.632C47.6573 20.1387 46.932 18.048 46.932 15.36C46.932 13.9094 47.1987 12.544 47.732 11.264C48.2653 9.96269 49.0973 8.90669 50.228 8.09602C51.3587 7.28535 52.8093 6.88002 54.58 6.88002C56.2227 6.88002 57.6093 7.26402 58.74 8.03202C59.8707 8.77869 60.724 9.76002 61.3 10.976C61.8973 12.192 62.196 13.5147 62.196 14.944C62.196 15.3494 62.0573 15.6907 61.78 15.968C61.524 16.2454 61.172 16.384 60.724 16.384H49.876C50.0467 17.8134 50.5907 18.9654 51.508 19.84C52.4253 20.6934 53.748 21.12 55.476 21.12C56.436 21.12 57.2467 21.0347 57.908 20.864C58.5693 20.672 59.1987 20.4267 59.796 20.128C59.9667 20.0427 60.1587 20 60.372 20C60.7133 20 61.012 20.1174 61.268 20.352C61.524 20.5867 61.652 20.8854 61.652 21.248C61.652 21.504 61.5667 21.7387 61.396 21.952C61.2467 22.144 61.0547 22.304 60.82 22.432C60.116 22.8374 59.348 23.1787 58.516 23.456C57.7053 23.712 56.6067 23.84 55.22 23.84ZM49.876 14.016H59.316C59.252 12.9067 58.964 12.0107 58.452 11.328C57.9613 10.6454 57.364 10.144 56.66 9.82402C55.956 9.50402 55.2627 9.34402 54.58 9.34402C53.8973 9.34402 53.204 9.50402 52.5 9.82402C51.796 10.144 51.1987 10.6454 50.708 11.328C50.2173 12.0107 49.94 12.9067 49.876 14.016ZM73.601 23.84C72.0863 23.84 70.6783 23.5094 69.377 22.848C68.0757 22.1654 67.0303 21.1947 66.241 19.936C65.4517 18.656 65.057 17.1307 65.057 15.36C65.057 13.568 65.4517 12.0427 66.241 10.784C67.0303 9.52535 68.0757 8.56535 69.377 7.90402C70.6783 7.22135 72.0863 6.88002 73.601 6.88002C74.8597 6.88002 75.905 7.05069 76.737 7.39202C77.5903 7.71202 78.2837 8.05335 78.817 8.41602C79.2437 8.69335 79.457 9.06669 79.457 9.53602C79.457 9.83469 79.3397 10.1227 79.105 10.4C78.8703 10.6774 78.5823 10.816 78.241 10.816C78.0063 10.816 77.7717 10.752 77.537 10.624C76.9823 10.3254 76.4383 10.08 75.905 9.88802C75.3717 9.69602 74.689 9.60002 73.857 9.60002C72.001 9.60002 70.5503 10.1334 69.505 11.2C68.481 12.2667 67.969 13.6534 67.969 15.36C67.969 17.0667 68.481 18.4534 69.505 19.52C70.5503 20.5867 72.001 21.12 73.857 21.12C74.689 21.12 75.3717 21.024 75.905 20.832C76.4383 20.6187 76.9823 20.3734 77.537 20.096C77.7717 19.968 78.0063 19.904 78.241 19.904C78.5823 19.904 78.8703 20.0427 79.105 20.32C79.3397 20.5974 79.457 20.8854 79.457 21.184C79.457 21.6534 79.2437 22.0267 78.817 22.304C78.2837 22.6454 77.5903 22.9867 76.737 23.328C75.905 23.6694 74.8597 23.84 73.601 23.84ZM87.2715 23.84C86.3542 23.84 85.4902 23.648 84.6795 23.264C83.8902 22.88 83.2502 22.336 82.7595 21.632C82.2902 20.9067 82.0555 20.0427 82.0555 19.04C82.0555 17.5254 82.6528 16.288 83.8475 15.328C85.0635 14.3467 86.9195 13.856 89.4155 13.856H93.2875V13.6C93.2875 12.1707 92.9355 11.1574 92.2315 10.56C91.5275 9.94135 90.4502 9.63202 88.9995 9.63202C88.1035 9.63202 87.3142 9.71735 86.6315 9.88802C85.9702 10.0374 85.3408 10.208 84.7435 10.4C84.5728 10.4427 84.4342 10.464 84.3275 10.464C84.0075 10.464 83.7302 10.3467 83.4955 10.112C83.2608 9.87735 83.1435 9.58935 83.1435 9.24802C83.1435 8.67202 83.4208 8.26669 83.9755 8.03202C84.7222 7.71202 85.5435 7.44535 86.4395 7.23202C87.3568 6.99735 88.3808 6.88002 89.5115 6.88002C91.0688 6.88002 92.3382 7.18935 93.3195 7.80802C94.3008 8.42669 95.0262 9.21602 95.4955 10.176C95.9648 11.136 96.1995 12.1387 96.1995 13.184V22.24C96.1995 22.6454 96.0502 22.9867 95.7515 23.264C95.4742 23.5414 95.1328 23.68 94.7275 23.68C94.3222 23.68 93.9808 23.5414 93.7035 23.264C93.4262 22.9867 93.2875 22.6454 93.2875 22.24V21.408C92.7115 22.0054 91.9435 22.56 90.9835 23.072C90.0235 23.584 88.7862 23.84 87.2715 23.84ZM88.3595 21.28C89.3622 21.28 90.3008 21.0347 91.1755 20.544C92.0502 20.0534 92.7542 19.4987 93.2875 18.88V16.192H89.7995C88.3062 16.192 87.1222 16.384 86.2475 16.768C85.3942 17.152 84.9675 17.8027 84.9675 18.72C84.9675 19.4027 85.2022 20 85.6715 20.512C86.1622 21.024 87.0582 21.28 88.3595 21.28ZM102.52 23.68C102.115 23.68 101.774 23.5414 101.496 23.264C101.219 22.9867 101.08 22.6454 101.08 22.24V8.51202C101.08 8.08535 101.219 7.73335 101.496 7.45602C101.774 7.17868 102.115 7.04002 102.52 7.04002C102.926 7.04002 103.267 7.17868 103.544 7.45602C103.843 7.73335 103.992 8.08535 103.992 8.51202V9.82402C104.675 9.07735 105.475 8.40535 106.392 7.80802C107.331 7.18935 108.515 6.88002 109.944 6.88002C111.16 6.88002 112.195 7.16802 113.048 7.74402C113.902 8.29869 114.552 9.05602 115 10.016C115.448 10.9547 115.672 12 115.672 13.152V22.24C115.672 22.6454 115.523 22.9867 115.224 23.264C114.947 23.5414 114.606 23.68 114.2 23.68C113.795 23.68 113.454 23.5414 113.176 23.264C112.899 22.9867 112.76 22.6454 112.76 22.24V13.472C112.76 12.256 112.483 11.3067 111.928 10.624C111.395 9.92002 110.499 9.56802 109.24 9.56802C108.088 9.56802 107.086 9.87735 106.232 10.496C105.379 11.1147 104.632 11.8294 103.992 12.64V22.24C103.992 22.6454 103.843 22.9867 103.544 23.264C103.267 23.5414 102.926 23.68 102.52 23.68ZM127.876 23.84C125.274 23.84 123.236 23.104 121.764 21.632C120.314 20.1387 119.588 18.048 119.588 15.36C119.588 13.9094 119.855 12.544 120.388 11.264C120.922 9.96269 121.754 8.90669 122.884 8.09602C124.015 7.28535 125.466 6.88002 127.236 6.88002C128.879 6.88002 130.266 7.26402 131.396 8.03202C132.527 8.77869 133.38 9.76002 133.956 10.976C134.554 12.192 134.852 13.5147 134.852 14.944C134.852 15.3494 134.714 15.6907 134.436 15.968C134.18 16.2454 133.828 16.384 133.38 16.384H122.532C122.703 17.8134 123.247 18.9654 124.164 19.84C125.082 20.6934 126.404 21.12 128.132 21.12C129.092 21.12 129.903 21.0347 130.564 20.864C131.226 20.672 131.855 20.4267 132.452 20.128C132.623 20.0427 132.815 20 133.028 20C133.37 20 133.668 20.1174 133.924 20.352C134.18 20.5867 134.308 20.8854 134.308 21.248C134.308 21.504 134.223 21.7387 134.052 21.952C133.903 22.144 133.711 22.304 133.476 22.432C132.772 22.8374 132.004 23.1787 131.172 23.456C130.362 23.712 129.263 23.84 127.876 23.84ZM122.532 14.016H131.972C131.908 12.9067 131.62 12.0107 131.108 11.328C130.618 10.6454 130.02 10.144 129.316 9.82402C128.612 9.50402 127.919 9.34402 127.236 9.34402C126.554 9.34402 125.86 9.50402 125.156 9.82402C124.452 10.144 123.855 10.6454 123.364 11.328C122.874 12.0107 122.596 12.9067 122.532 14.016ZM148.458 31.04C148.052 31.04 147.711 30.8907 147.434 30.592C147.156 30.3147 147.018 29.9734 147.018 29.568V8.48002C147.018 8.07469 147.156 7.73335 147.434 7.45602C147.711 7.17868 148.052 7.04002 148.458 7.04002C148.884 7.04002 149.236 7.17868 149.514 7.45602C149.791 7.73335 149.93 8.07469 149.93 8.48002V9.31202C150.676 8.54402 151.498 7.94669 152.394 7.52002C153.29 7.09335 154.292 6.88002 155.402 6.88002C156.703 6.88002 157.94 7.21069 159.114 7.87202C160.287 8.53335 161.247 9.49335 161.994 10.752C162.762 12.0107 163.146 13.5467 163.146 15.36C163.146 17.1734 162.762 18.7094 161.994 19.968C161.247 21.2267 160.287 22.1867 159.114 22.848C157.94 23.5094 156.703 23.84 155.402 23.84C154.292 23.84 153.29 23.6267 152.394 23.2C151.498 22.7734 150.676 22.176 149.93 21.408V29.568C149.93 29.9734 149.791 30.3147 149.514 30.592C149.236 30.8907 148.884 31.04 148.458 31.04ZM154.986 21.12C156.5 21.12 157.748 20.6294 158.73 19.648C159.732 18.6667 160.234 17.2374 160.234 15.36C160.234 13.4614 159.732 12.032 158.73 11.072C157.748 10.0907 156.5 9.60002 154.986 9.60002C153.94 9.60002 152.991 9.83469 152.138 10.304C151.284 10.752 150.548 11.3174 149.93 12V18.72C150.548 19.4027 151.284 19.9787 152.138 20.448C152.991 20.896 153.94 21.12 154.986 21.12ZM168.645 23.68C168.24 23.68 167.899 23.5414 167.621 23.264C167.344 22.9867 167.205 22.6454 167.205 22.24V8.51202C167.205 8.10669 167.344 7.76535 167.621 7.48802C167.899 7.18935 168.24 7.04002 168.645 7.04002C169.051 7.04002 169.392 7.18935 169.669 7.48802C169.968 7.76535 170.117 8.10669 170.117 8.51202V9.88802C170.693 9.12002 171.397 8.42669 172.229 7.80802C173.061 7.18935 174.032 6.88002 175.141 6.88002H175.301C175.707 6.88002 176.037 7.01869 176.293 7.29602C176.571 7.57335 176.709 7.91469 176.709 8.32002C176.709 8.72535 176.571 9.05602 176.293 9.31202C176.016 9.56802 175.664 9.69602 175.237 9.69602H175.077C174.032 9.69602 173.083 9.96269 172.229 10.496C171.376 11.008 170.672 11.68 170.117 12.512V22.24C170.117 22.6454 169.968 22.9867 169.669 23.264C169.392 23.5414 169.051 23.68 168.645 23.68ZM186.186 23.84C184.544 23.84 183.104 23.488 181.866 22.784C180.629 22.0587 179.669 21.0667 178.986 19.808C178.325 18.528 177.994 17.0454 177.994 15.36C177.994 13.6747 178.325 12.2027 178.986 10.944C179.669 9.66402 180.629 8.67202 181.866 7.96802C183.104 7.24269 184.544 6.88002 186.186 6.88002C187.829 6.88002 189.258 7.24269 190.474 7.96802C191.712 8.67202 192.672 9.66402 193.354 10.944C194.037 12.2027 194.378 13.6747 194.378 15.36C194.378 17.0454 194.037 18.528 193.354 19.808C192.672 21.0667 191.712 22.0587 190.474 22.784C189.258 23.488 187.829 23.84 186.186 23.84ZM186.186 21.184C186.997 21.184 187.808 20.992 188.618 20.608C189.429 20.224 190.101 19.6054 190.634 18.752C191.189 17.8774 191.466 16.736 191.466 15.328C191.466 13.92 191.189 12.7894 190.634 11.936C190.101 11.0827 189.429 10.4747 188.618 10.112C187.808 9.72802 186.997 9.53602 186.186 9.53602C185.376 9.53602 184.554 9.72802 183.722 10.112C182.912 10.4747 182.24 11.0827 181.706 11.936C181.173 12.7894 180.906 13.92 180.906 15.328C180.906 16.736 181.173 17.8774 181.706 18.752C182.24 19.6054 182.912 20.224 183.722 20.608C184.554 20.992 185.376 21.184 186.186 21.184ZM205.207 23.84C203.927 23.84 202.69 23.5094 201.495 22.848C200.322 22.1867 199.351 21.2267 198.583 19.968C197.837 18.7094 197.463 17.1734 197.463 15.36C197.463 13.5467 197.837 12.0107 198.583 10.752C199.351 9.49335 200.322 8.53335 201.495 7.87202C202.69 7.21069 203.927 6.88002 205.207 6.88002C206.338 6.88002 207.351 7.09335 208.247 7.52002C209.143 7.94669 209.954 8.54402 210.679 9.31202V1.47202C210.679 1.04535 210.818 0.693351 211.095 0.416018C211.394 0.138685 211.746 1.90735e-05 212.151 1.90735e-05C212.557 1.90735e-05 212.898 0.138685 213.175 0.416018C213.453 0.693351 213.591 1.04535 213.591 1.47202V22.24C213.591 22.6454 213.453 22.9867 213.175 23.264C212.898 23.5414 212.557 23.68 212.151 23.68C211.746 23.68 211.394 23.5414 211.095 23.264C210.818 22.9867 210.679 22.6454 210.679 22.24V21.408C209.954 22.176 209.143 22.7734 208.247 23.2C207.351 23.6267 206.338 23.84 205.207 23.84ZM205.623 21.12C206.669 21.12 207.618 20.896 208.471 20.448C209.325 19.9787 210.061 19.4027 210.679 18.72V12C210.061 11.3174 209.325 10.752 208.471 10.304C207.618 9.83469 206.669 9.60002 205.623 9.60002C204.109 9.60002 202.85 10.0907 201.847 11.072C200.866 12.032 200.375 13.4614 200.375 15.36C200.375 17.2374 200.866 18.6667 201.847 19.648C202.85 20.6294 204.109 21.12 205.623 21.12ZM224.211 23.84C222.995 23.84 221.96 23.5627 221.107 23.008C220.253 22.432 219.603 21.664 219.155 20.704C218.707 19.744 218.483 18.6987 218.483 17.568V8.48002C218.483 8.07469 218.621 7.73335 218.899 7.45602C219.197 7.17868 219.549 7.04002 219.955 7.04002C220.36 7.04002 220.701 7.17868 220.979 7.45602C221.256 7.73335 221.395 8.07469 221.395 8.48002V17.248C221.395 18.464 221.672 19.424 222.227 20.128C222.781 20.8107 223.677 21.152 224.915 21.152C226.067 21.152 227.069 20.8427 227.923 20.224C228.776 19.584 229.523 18.8694 230.163 18.08V8.48002C230.163 8.07469 230.301 7.73335 230.579 7.45602C230.877 7.17868 231.229 7.04002 231.635 7.04002C232.04 7.04002 232.381 7.17868 232.659 7.45602C232.936 7.73335 233.075 8.07469 233.075 8.48002V22.208C233.075 22.6134 232.936 22.9654 232.659 23.264C232.381 23.5414 232.04 23.68 231.635 23.68C231.229 23.68 230.877 23.5414 230.579 23.264C230.301 22.9654 230.163 22.6134 230.163 22.208V20.896C229.501 21.6214 228.701 22.2934 227.763 22.912C226.824 23.5307 225.64 23.84 224.211 23.84ZM239.583 23.68C239.177 23.68 238.836 23.5414 238.559 23.264C238.281 22.9867 238.143 22.6454 238.143 22.24V1.47202C238.143 1.06669 238.281 0.725353 238.559 0.448019C238.836 0.149352 239.177 1.90735e-05 239.583 1.90735e-05C239.988 1.90735e-05 240.329 0.149352 240.607 0.448019C240.905 0.725353 241.055 1.06669 241.055 1.47202V14.56L248.671 7.52002C248.799 7.41335 248.937 7.31735 249.087 7.23202C249.257 7.14669 249.439 7.10402 249.631 7.10402C250.185 7.10402 250.559 7.26402 250.751 7.58402C250.943 7.88269 251.039 8.19202 251.039 8.51202C251.039 8.64002 251.007 8.80002 250.943 8.99202C250.879 9.16269 250.729 9.36535 250.495 9.60002L245.887 13.728L251.679 21.408C251.892 21.6854 251.999 21.9734 251.999 22.272C251.999 22.6987 251.86 23.04 251.583 23.296C251.305 23.552 250.953 23.68 250.527 23.68C250.079 23.68 249.684 23.4774 249.343 23.072L243.839 15.584L241.055 18.112V22.24C241.055 22.6454 240.905 22.9867 240.607 23.264C240.329 23.5414 239.988 23.68 239.583 23.68ZM261.212 23.84C260.828 23.84 260.37 23.7974 259.836 23.712C259.324 23.648 258.812 23.488 258.3 23.232C257.81 22.9547 257.394 22.528 257.052 21.952C256.711 21.376 256.54 20.5974 256.54 19.616V9.69602H254.268C253.863 9.69602 253.66 9.49335 253.66 9.08802C253.66 8.87469 253.756 8.69335 253.948 8.54402L258.3 4.28802C258.343 4.24535 258.407 4.19202 258.492 4.12802C258.599 4.04269 258.716 4.00002 258.844 4.00002C259.015 4.00002 259.154 4.06402 259.26 4.19202C259.388 4.32002 259.452 4.46935 259.452 4.64002V7.20002H263.068C263.431 7.20002 263.73 7.31735 263.964 7.55202C264.199 7.78669 264.316 8.08535 264.316 8.44802C264.316 8.78935 264.199 9.08802 263.964 9.34402C263.73 9.57869 263.431 9.69602 263.068 9.69602H259.452V19.36C259.452 19.9787 259.57 20.4267 259.804 20.704C260.039 20.9814 260.316 21.152 260.636 21.216C260.978 21.2587 261.276 21.28 261.532 21.28C262.044 21.28 262.418 21.2374 262.652 21.152C262.908 21.0454 263.175 20.992 263.452 20.992C263.751 20.992 264.018 21.0987 264.252 21.312C264.487 21.5254 264.604 21.8027 264.604 22.144C264.604 22.6347 264.359 23.008 263.868 23.264C263.484 23.4347 263.068 23.5734 262.62 23.68C262.194 23.7867 261.724 23.84 261.212 23.84ZM271.291 31.04C270.907 31.04 270.576 30.9014 270.299 30.624C270.043 30.3467 269.915 30.016 269.915 29.632C269.915 29.44 269.947 29.2694 270.011 29.12L272.091 23.776L266.075 9.12002C266.053 9.03469 266.021 8.93869 265.979 8.83202C265.957 8.72535 265.947 8.61869 265.947 8.51202C265.947 8.10669 266.085 7.76535 266.363 7.48802C266.64 7.18935 266.981 7.04002 267.387 7.04002C267.685 7.04002 267.952 7.12535 268.187 7.29602C268.443 7.46669 268.624 7.68002 268.731 7.93602L273.659 20.16L278.683 8.00002C278.811 7.70135 278.981 7.46669 279.195 7.29602C279.429 7.12535 279.707 7.04002 280.027 7.04002C280.432 7.04002 280.773 7.18935 281.051 7.48802C281.328 7.76535 281.467 8.10669 281.467 8.51202C281.467 8.70402 281.435 8.88535 281.371 9.05602L272.635 30.048C272.507 30.3254 272.336 30.56 272.123 30.752C271.909 30.944 271.632 31.04 271.291 31.04Z" fill="#313131"/>
</svg>
