<svg width="580" height="40" viewBox="0 0 580 40" fill="none" xmlns="http://www.w3.org/2000/svg">
<rect x="0.5" y="0.5" width="579" height="39" fill="#F9F9F9" stroke="#D9D9D9"/>
<path d="M564.75 29.6895L559.086 24.0255C560.447 22.3914 561.126 20.2956 560.981 18.1739C560.836 16.0522 559.879 14.068 558.308 12.6341C556.738 11.2002 554.675 10.427 552.549 10.4753C550.423 10.5236 548.397 11.3897 546.893 12.8935C545.39 14.3972 544.524 16.4228 544.475 18.5489C544.427 20.675 545.2 22.7379 546.634 24.3084C548.068 25.8789 550.052 26.8361 552.174 26.981C554.296 27.1258 556.391 26.4471 558.025 25.086L563.689 30.75L564.75 29.6895ZM546 18.75C546 17.4149 546.396 16.1099 547.138 14.9999C547.879 13.8898 548.933 13.0247 550.167 12.5138C551.4 12.0029 552.757 11.8692 554.067 12.1297C555.376 12.3901 556.579 13.033 557.523 13.977C558.467 14.921 559.11 16.1237 559.37 17.4331C559.631 18.7425 559.497 20.0997 558.986 21.3331C558.475 22.5665 557.61 23.6207 556.5 24.3624C555.39 25.1041 554.085 25.5 552.75 25.5C550.96 25.498 549.245 24.7862 547.979 23.5207C546.714 22.2553 546.002 20.5396 546 18.75Z" fill="#313131"/>
<path d="M29.072 26.16C28.272 26.16 27.552 26.0853 26.912 25.936C26.2827 25.776 25.7333 25.5947 25.264 25.392C25.1467 25.3387 25.04 25.2533 24.944 25.136C24.8587 25.008 24.816 24.8747 24.816 24.736C24.816 24.5547 24.8747 24.4 24.992 24.272C25.1093 24.1333 25.2693 24.064 25.472 24.064C25.5787 24.064 25.68 24.0853 25.776 24.128C26.1387 24.288 26.5813 24.4373 27.104 24.576C27.6373 24.7147 28.2453 24.784 28.928 24.784C29.4613 24.784 29.936 24.7307 30.352 24.624C30.7787 24.5067 31.1147 24.3147 31.36 24.048C31.6053 23.7707 31.728 23.4027 31.728 22.944C31.728 22.6027 31.6053 22.3307 31.36 22.128C31.1147 21.9147 30.7893 21.7387 30.384 21.6C29.9787 21.4613 29.5307 21.3333 29.04 21.216C28.56 21.0987 28.08 20.9707 27.6 20.832C27.12 20.6827 26.6773 20.4907 26.272 20.256C25.8667 20.0213 25.5413 19.7227 25.296 19.36C25.0507 18.9867 24.928 18.5173 24.928 17.952C24.928 17.3547 25.0827 16.8107 25.392 16.32C25.712 15.8187 26.1813 15.4187 26.8 15.12C27.4187 14.8213 28.176 14.672 29.072 14.672C29.7013 14.672 30.2827 14.72 30.816 14.816C31.3493 14.912 31.8293 15.04 32.256 15.2C32.3733 15.2427 32.4747 15.312 32.56 15.408C32.656 15.504 32.704 15.648 32.704 15.84C32.704 16 32.6453 16.1547 32.528 16.304C32.4213 16.4427 32.2667 16.512 32.064 16.512C32.0213 16.512 31.9787 16.5067 31.936 16.496C31.8933 16.4747 31.8507 16.4587 31.808 16.448C31.4453 16.32 31.0453 16.2187 30.608 16.144C30.1813 16.0587 29.7227 16.016 29.232 16.016C28.4213 16.016 27.744 16.1707 27.2 16.48C26.656 16.7893 26.384 17.2427 26.384 17.84C26.384 18.2347 26.5067 18.5493 26.752 18.784C26.9973 19.0187 27.3227 19.2053 27.728 19.344C28.1333 19.4827 28.576 19.6107 29.056 19.728C29.536 19.8347 30.016 19.9573 30.496 20.096C30.976 20.2347 31.4187 20.4213 31.824 20.656C32.2293 20.88 32.5547 21.184 32.8 21.568C33.0453 21.9413 33.168 22.432 33.168 23.04C33.168 23.6373 32.9973 24.176 32.656 24.656C32.3253 25.1253 31.8507 25.4933 31.232 25.76C30.624 26.0267 29.904 26.16 29.072 26.16ZM35.5074 26C35.23 26 34.99 25.9307 34.7874 25.792C34.5954 25.6427 34.4994 25.4293 34.4994 25.152C34.4994 24.9067 34.5847 24.688 34.7554 24.496L39.3634 19.2H35.3154C35.1234 19.2 34.9634 19.136 34.8354 19.008C34.7074 18.88 34.6434 18.72 34.6434 18.528C34.6434 18.336 34.7074 18.176 34.8354 18.048C34.9634 17.9093 35.1234 17.84 35.3154 17.84H40.1634C40.4407 17.84 40.6647 17.9253 40.8354 18.096C41.006 18.256 41.0914 18.4747 41.0914 18.752C41.0914 18.9973 41.0167 19.2107 40.8674 19.392L36.3874 24.64H40.4994C40.6914 24.64 40.8514 24.7093 40.9794 24.848C41.118 24.976 41.1874 25.136 41.1874 25.328C41.1874 25.52 41.118 25.68 40.9794 25.808C40.8514 25.936 40.6914 26 40.4994 26H35.5074ZM45.8761 26.16C45.2681 26.16 44.7508 26.0213 44.3241 25.744C43.8975 25.456 43.5721 25.072 43.3481 24.592C43.1241 24.112 43.0121 23.5893 43.0121 23.024V18.48C43.0121 18.2773 43.0815 18.1067 43.2201 17.968C43.3695 17.8293 43.5455 17.76 43.7481 17.76C43.9508 17.76 44.1215 17.8293 44.2601 17.968C44.3988 18.1067 44.4681 18.2773 44.4681 18.48V22.864C44.4681 23.472 44.6068 23.952 44.8841 24.304C45.1615 24.6453 45.6095 24.816 46.2281 24.816C46.8041 24.816 47.3055 24.6613 47.7321 24.352C48.1588 24.032 48.5321 23.6747 48.8521 23.28V18.48C48.8521 18.2773 48.9215 18.1067 49.0601 17.968C49.2095 17.8293 49.3855 17.76 49.5881 17.76C49.7908 17.76 49.9615 17.8293 50.1001 17.968C50.2388 18.1067 50.3081 18.2773 50.3081 18.48V25.344C50.3081 25.5467 50.2388 25.7227 50.1001 25.872C49.9615 26.0107 49.7908 26.08 49.5881 26.08C49.3855 26.08 49.2095 26.0107 49.0601 25.872C48.9215 25.7227 48.8521 25.5467 48.8521 25.344V24.688C48.5215 25.0507 48.1215 25.3867 47.6521 25.696C47.1828 26.0053 46.5908 26.16 45.8761 26.16ZM53.5621 26.08C53.3595 26.08 53.1888 26.0107 53.0501 25.872C52.9115 25.7333 52.8421 25.5627 52.8421 25.36V14.976C52.8421 14.7733 52.9115 14.6027 53.0501 14.464C53.1888 14.3147 53.3595 14.24 53.5621 14.24C53.7648 14.24 53.9355 14.3147 54.0741 14.464C54.2235 14.6027 54.2981 14.7733 54.2981 14.976V21.52L58.1061 18C58.1701 17.9467 58.2395 17.8987 58.3141 17.856C58.3995 17.8133 58.4901 17.792 58.5861 17.792C58.8635 17.792 59.0501 17.872 59.1461 18.032C59.2421 18.1813 59.2901 18.336 59.2901 18.496C59.2901 18.56 59.2741 18.64 59.2421 18.736C59.2101 18.8213 59.1355 18.9227 59.0181 19.04L56.7141 21.104L59.6101 24.944C59.7168 25.0827 59.7701 25.2267 59.7701 25.376C59.7701 25.5893 59.7008 25.76 59.5621 25.888C59.4235 26.016 59.2475 26.08 59.0341 26.08C58.8101 26.08 58.6128 25.9787 58.4421 25.776L55.6901 22.032L54.2981 23.296V25.36C54.2981 25.5627 54.2235 25.7333 54.0741 25.872C53.9355 26.0107 53.7648 26.08 53.5621 26.08ZM63.4846 26.16C63.026 26.16 62.594 26.064 62.1886 25.872C61.794 25.68 61.474 25.408 61.2286 25.056C60.994 24.6933 60.8766 24.2613 60.8766 23.76C60.8766 23.0027 61.1753 22.384 61.7726 21.904C62.3806 21.4133 63.3086 21.168 64.5566 21.168H66.4926V21.04C66.4926 20.3253 66.3166 19.8187 65.9646 19.52C65.6126 19.2107 65.074 19.056 64.3486 19.056C63.9006 19.056 63.506 19.0987 63.1646 19.184C62.834 19.2587 62.5193 19.344 62.2206 19.44C62.1353 19.4613 62.066 19.472 62.0126 19.472C61.8526 19.472 61.714 19.4133 61.5966 19.296C61.4793 19.1787 61.4206 19.0347 61.4206 18.864C61.4206 18.576 61.5593 18.3733 61.8366 18.256C62.21 18.096 62.6206 17.9627 63.0686 17.856C63.5273 17.7387 64.0393 17.68 64.6046 17.68C65.3833 17.68 66.018 17.8347 66.5086 18.144C66.9993 18.4533 67.362 18.848 67.5966 19.328C67.8313 19.808 67.9486 20.3093 67.9486 20.832V25.36C67.9486 25.5627 67.874 25.7333 67.7246 25.872C67.586 26.0107 67.4153 26.08 67.2126 26.08C67.01 26.08 66.8393 26.0107 66.7006 25.872C66.562 25.7333 66.4926 25.5627 66.4926 25.36V24.944C66.2046 25.2427 65.8206 25.52 65.3406 25.776C64.8606 26.032 64.242 26.16 63.4846 26.16ZM64.0286 24.88C64.53 24.88 64.9993 24.7573 65.4366 24.512C65.874 24.2667 66.226 23.9893 66.4926 23.68V22.336H64.7486C64.002 22.336 63.41 22.432 62.9726 22.624C62.546 22.816 62.3326 23.1413 62.3326 23.6C62.3326 23.9413 62.45 24.24 62.6846 24.496C62.93 24.752 63.378 24.88 64.0286 24.88ZM71.157 16.176C70.933 16.176 70.741 16.096 70.581 15.936C70.421 15.776 70.341 15.584 70.341 15.36V15.296C70.341 15.072 70.421 14.88 70.581 14.72C70.741 14.56 70.933 14.48 71.157 14.48H71.253C71.477 14.48 71.669 14.56 71.829 14.72C71.989 14.88 72.069 15.072 72.069 15.296V15.36C72.069 15.584 71.989 15.776 71.829 15.936C71.669 16.096 71.477 16.176 71.253 16.176H71.157ZM69.829 29.84C69.445 29.84 69.109 29.792 68.821 29.696C68.5437 29.6107 68.405 29.4187 68.405 29.12C68.405 28.96 68.4637 28.816 68.581 28.688C68.6983 28.5707 68.8423 28.512 69.013 28.512C69.0877 28.512 69.1623 28.5173 69.237 28.528C69.3117 28.5493 69.397 28.56 69.493 28.56C69.7703 28.56 69.9997 28.5067 70.181 28.4C70.373 28.304 70.469 28.0427 70.469 27.616V18.512C70.469 18.2987 70.5383 18.1227 70.677 17.984C70.8157 17.8453 70.9863 17.776 71.189 17.776C71.4023 17.776 71.5783 17.8453 71.717 17.984C71.8557 18.1227 71.925 18.2987 71.925 18.512V27.648C71.925 28.2667 71.765 28.784 71.445 29.2C71.1357 29.6267 70.597 29.84 69.829 29.84Z" fill="#A6A6A6"/>
</svg>
