<svg width="223" height="23" viewBox="0 0 223 23" fill="none" xmlns="http://www.w3.org/2000/svg">
<path d="M1.08 17.76C0.775997 17.76 0.519997 17.656 0.311997 17.448C0.103997 17.24 -2.86102e-06 16.984 -2.86102e-06 16.68V2.35201C-2.86102e-06 1.92001 0.151997 1.55201 0.455997 1.24801C0.759997 0.928014 1.128 0.768014 1.56 0.768014H1.872C2.384 0.768014 2.824 1.00801 3.192 1.48801L12.432 14.832V1.87201C12.432 1.56801 12.536 1.31201 12.744 1.10401C12.952 0.880014 13.208 0.768014 13.512 0.768014C13.816 0.768014 14.072 0.880014 14.28 1.10401C14.504 1.31201 14.616 1.56801 14.616 1.87201V16.2C14.616 16.632 14.456 17 14.136 17.304C13.832 17.608 13.464 17.76 13.032 17.76H12.744C12.488 17.76 12.248 17.704 12.024 17.592C11.8 17.464 11.616 17.304 11.472 17.112L2.184 3.69601V16.68C2.184 16.984 2.072 17.24 1.848 17.448C1.64 17.656 1.384 17.76 1.08 17.76ZM21.9536 17.88C21.2496 17.88 20.5936 17.736 19.9856 17.448C19.3936 17.16 18.9216 16.744 18.5696 16.2C18.2176 15.64 18.0416 15 18.0416 14.28C18.0416 13.096 18.5056 12.152 19.4336 11.448C20.3776 10.744 21.7536 10.392 23.5616 10.392H26.4656V10.2C26.4656 9.14401 26.2016 8.38401 25.6736 7.92001C25.1616 7.45601 24.3536 7.22401 23.2496 7.22401C22.6416 7.22401 22.0976 7.27201 21.6176 7.36801C21.1536 7.46401 20.6336 7.60801 20.0576 7.80001C19.9296 7.83201 19.8256 7.84801 19.7456 7.84801C19.5056 7.84801 19.2976 7.76001 19.1216 7.58401C18.9456 7.40801 18.8576 7.19201 18.8576 6.93601C18.8576 6.50401 19.0656 6.20001 19.4816 6.02401C20.8416 5.44801 22.2256 5.16001 23.6336 5.16001C24.7376 5.16001 25.6656 5.38401 26.4176 5.83201C27.1856 6.28001 27.7456 6.86401 28.0976 7.58401C28.4656 8.28801 28.6496 9.05601 28.6496 9.88801V16.68C28.6496 16.984 28.5376 17.24 28.3136 17.448C28.1056 17.656 27.8496 17.76 27.5456 17.76C27.2416 17.76 26.9856 17.656 26.7776 17.448C26.5696 17.24 26.4656 16.984 26.4656 16.68V16.056C25.2816 17.272 23.7776 17.88 21.9536 17.88ZM22.7696 15.96C23.4736 15.96 24.1536 15.792 24.8096 15.456C25.4656 15.104 26.0176 14.672 26.4656 14.16V12.144H23.8496C21.4336 12.144 20.2256 12.776 20.2256 14.04C20.2256 14.616 20.4176 15.08 20.8016 15.432C21.2016 15.784 21.8576 15.96 22.7696 15.96ZM39.6246 17.76C39.3206 17.76 39.0646 17.656 38.8566 17.448C38.6486 17.24 38.5446 16.984 38.5446 16.68V1.10401C38.5446 0.800014 38.6486 0.544014 38.8566 0.336014C39.0646 0.112014 39.3206 1.43051e-05 39.6246 1.43051e-05C39.9286 1.43051e-05 40.1846 0.112014 40.3926 0.336014C40.6166 0.544014 40.7286 0.800014 40.7286 1.10401V10.92L46.4406 5.64001C46.6806 5.43201 46.9206 5.32801 47.1606 5.32801C47.5286 5.32801 47.7926 5.43201 47.9526 5.64001C48.1286 5.84801 48.2166 6.09601 48.2166 6.38401C48.2166 6.65601 48.0806 6.92801 47.8086 7.20001L44.3526 10.296L48.6966 16.056C48.8566 16.264 48.9366 16.48 48.9366 16.704C48.9366 17.024 48.8326 17.28 48.6246 17.472C48.4166 17.664 48.1526 17.76 47.8326 17.76C47.6726 17.76 47.5126 17.72 47.3526 17.64C47.1926 17.56 47.0566 17.448 46.9446 17.304L42.8166 11.688L40.7286 13.584V16.68C40.7286 16.984 40.6166 17.24 40.3926 17.448C40.1846 17.656 39.9286 17.76 39.6246 17.76ZM55.4655 17.88C53.8655 17.88 52.4095 17.52 51.0975 16.8C50.8255 16.608 50.6895 16.344 50.6895 16.008C50.6895 15.752 50.7775 15.528 50.9535 15.336C51.1295 15.144 51.3535 15.048 51.6255 15.048C51.7695 15.048 51.9135 15.08 52.0575 15.144C52.5695 15.368 53.0815 15.544 53.5935 15.672C54.1055 15.8 54.6815 15.864 55.3215 15.864C57.0975 15.864 57.9855 15.296 57.9855 14.16C57.9855 13.792 57.7775 13.512 57.3615 13.32C56.9615 13.128 56.2975 12.912 55.3695 12.672C54.4255 12.448 53.6415 12.216 53.0175 11.976C52.4095 11.736 51.8815 11.376 51.4335 10.896C51.0015 10.4 50.7855 9.75201 50.7855 8.95201C50.7855 7.83201 51.1855 6.92001 51.9855 6.21601C52.8015 5.51201 53.9615 5.16001 55.4655 5.16001C56.6975 5.16001 57.8575 5.36001 58.9455 5.76001C59.1695 5.82401 59.3375 5.94401 59.4495 6.12001C59.5775 6.29601 59.6415 6.48001 59.6415 6.67201C59.6415 6.92801 59.5455 7.15201 59.3535 7.34401C59.1775 7.53601 58.9535 7.63201 58.6815 7.63201C58.6015 7.63201 58.4975 7.61601 58.3695 7.58401C57.4415 7.29601 56.5295 7.15201 55.6335 7.15201C54.7695 7.15201 54.0895 7.31201 53.5935 7.63201C53.1135 7.93601 52.8735 8.33601 52.8735 8.83201C52.8735 9.31201 53.0975 9.66401 53.5455 9.88801C53.9935 10.112 54.6895 10.328 55.6335 10.536C56.5775 10.776 57.3455 11.016 57.9375 11.256C58.5295 11.48 59.0335 11.84 59.4495 12.336C59.8815 12.832 60.0975 13.496 60.0975 14.328C60.0975 15.352 59.6895 16.2 58.8735 16.872C58.0735 17.544 56.9375 17.88 55.4655 17.88ZM64.0687 2.90401C63.7327 2.90401 63.4447 2.78401 63.2047 2.54401C62.9647 2.30401 62.8447 2.01601 62.8447 1.68001V1.58401C62.8447 1.24801 62.9647 0.960013 63.2047 0.720014C63.4447 0.480014 63.7327 0.360014 64.0687 0.360014H64.2127C64.5487 0.360014 64.8367 0.480014 65.0767 0.720014C65.3167 0.960013 65.4367 1.24801 65.4367 1.58401V1.68001C65.4367 2.01601 65.3167 2.30401 65.0767 2.54401C64.8367 2.78401 64.5487 2.90401 64.2127 2.90401H64.0687ZM64.1167 17.76C63.8127 17.76 63.5567 17.656 63.3487 17.448C63.1407 17.24 63.0367 16.984 63.0367 16.68V6.38401C63.0367 6.08001 63.1407 5.82401 63.3487 5.61601C63.5567 5.39201 63.8127 5.28001 64.1167 5.28001C64.4367 5.28001 64.7007 5.38401 64.9087 5.59201C65.1167 5.80001 65.2207 6.06401 65.2207 6.38401V16.68C65.2207 16.984 65.1087 17.24 64.8847 17.448C64.6767 17.656 64.4207 17.76 64.1167 17.76ZM76.1173 22.512C75.5093 22.512 74.9813 22.328 74.5333 21.96C74.1013 21.592 73.8853 21.104 73.8853 20.496C73.8853 19.248 74.7413 18.176 76.4533 17.28V16.056C75.2693 17.272 73.7653 17.88 71.9413 17.88C71.2373 17.88 70.5813 17.736 69.9733 17.448C69.3813 17.16 68.9093 16.744 68.5573 16.2C68.2053 15.64 68.0293 15 68.0293 14.28C68.0293 13.096 68.4933 12.152 69.4213 11.448C70.3653 10.744 71.7413 10.392 73.5493 10.392H76.4533V10.2C76.4533 9.14401 76.1893 8.38401 75.6613 7.92001C75.1493 7.45601 74.3413 7.22401 73.2373 7.22401C72.6293 7.22401 72.0853 7.27201 71.6053 7.36801C71.1413 7.46401 70.6213 7.60801 70.0453 7.80001C69.9173 7.83201 69.8133 7.84801 69.7333 7.84801C69.4933 7.84801 69.2853 7.76001 69.1093 7.58401C68.9333 7.40801 68.8453 7.19201 68.8453 6.93601C68.8453 6.50401 69.0533 6.20001 69.4693 6.02401C70.8293 5.44801 72.2133 5.16001 73.6213 5.16001C74.7253 5.16001 75.6533 5.38401 76.4053 5.83201C77.1733 6.28001 77.7333 6.86401 78.0853 7.58401C78.4533 8.28801 78.6373 9.05601 78.6373 9.88801V16.68C78.6373 16.92 78.5653 17.136 78.4213 17.328C78.2773 17.504 78.0773 17.64 77.8213 17.736C77.1333 18.008 76.5973 18.352 76.2133 18.768C75.8293 19.2 75.6373 19.624 75.6373 20.04C75.6373 20.792 76.0453 21.168 76.8613 21.168C77.1013 21.168 77.3813 21.12 77.7013 21.024C77.7973 20.992 77.8693 20.976 77.9173 20.976C78.0773 20.976 78.2053 21.024 78.3013 21.12C78.3973 21.216 78.4453 21.344 78.4453 21.504C78.4453 21.664 78.3573 21.808 78.1813 21.936C77.6373 22.32 76.9493 22.512 76.1173 22.512ZM72.7573 15.96C73.4613 15.96 74.1413 15.792 74.7973 15.456C75.4533 15.104 76.0053 14.672 76.4533 14.16V12.144H73.8373C71.4213 12.144 70.2133 12.776 70.2133 14.04C70.2133 14.616 70.4053 15.08 70.7893 15.432C71.1893 15.784 71.8453 15.96 72.7573 15.96ZM82.8784 17.64C82.4464 17.64 82.0864 17.528 81.7984 17.304C81.5104 17.08 81.3664 16.768 81.3664 16.368C81.3664 16 81.4944 15.672 81.7504 15.384L88.6624 7.44001H82.5904C82.3024 7.44001 82.0624 7.34401 81.8704 7.15201C81.6784 6.96001 81.5824 6.72001 81.5824 6.43201C81.5824 6.14401 81.6784 5.90401 81.8704 5.71201C82.0624 5.50401 82.3024 5.40001 82.5904 5.40001H89.8624C90.2784 5.40001 90.6144 5.52801 90.8704 5.78401C91.1264 6.04001 91.2544 6.36801 91.2544 6.76801C91.2544 7.13601 91.1424 7.45601 90.9184 7.72801L84.1984 15.6H90.3664C90.6544 15.6 90.8944 15.704 91.0864 15.912C91.2944 16.104 91.3984 16.344 91.3984 16.632C91.3984 16.92 91.2944 17.16 91.0864 17.352C90.8944 17.544 90.6544 17.64 90.3664 17.64H82.8784ZM86.4304 3.84001C86.0944 3.84001 85.8064 3.72001 85.5664 3.48001C85.3264 3.24001 85.2064 2.95201 85.2064 2.61601C85.2064 2.28001 85.3264 1.99201 85.5664 1.75201C85.8064 1.51201 86.0944 1.39201 86.4304 1.39201C86.7664 1.39201 87.0544 1.51201 87.2944 1.75201C87.5344 1.99201 87.6544 2.28001 87.6544 2.61601C87.6544 2.95201 87.5344 3.24001 87.2944 3.48001C87.0544 3.72001 86.7664 3.84001 86.4304 3.84001ZM95.3355 17.76C95.0315 17.76 94.7755 17.656 94.5675 17.448C94.3595 17.24 94.2555 16.984 94.2555 16.68V1.10401C94.2555 0.800014 94.3595 0.544014 94.5675 0.336014C94.7755 0.112014 95.0315 1.43051e-05 95.3355 1.43051e-05C95.6395 1.43051e-05 95.8955 0.112014 96.1035 0.336014C96.3275 0.544014 96.4395 0.800014 96.4395 1.10401V10.92L102.151 5.64001C102.391 5.43201 102.631 5.32801 102.871 5.32801C103.239 5.32801 103.503 5.43201 103.663 5.64001C103.839 5.84801 103.927 6.09601 103.927 6.38401C103.927 6.65601 103.791 6.92801 103.519 7.20001L100.063 10.296L104.407 16.056C104.567 16.264 104.647 16.48 104.647 16.704C104.647 17.024 104.543 17.28 104.335 17.472C104.127 17.664 103.863 17.76 103.543 17.76C103.383 17.76 103.223 17.72 103.063 17.64C102.903 17.56 102.767 17.448 102.655 17.304L98.5275 11.688L96.4395 13.584V16.68C96.4395 16.984 96.3275 17.24 96.1035 17.448C95.8955 17.656 95.6395 17.76 95.3355 17.76ZM108.366 2.90401C108.03 2.90401 107.742 2.78401 107.502 2.54401C107.262 2.30401 107.142 2.01601 107.142 1.68001V1.58401C107.142 1.24801 107.262 0.960013 107.502 0.720014C107.742 0.480014 108.03 0.360014 108.366 0.360014H108.51C108.846 0.360014 109.134 0.480014 109.374 0.720014C109.614 0.960013 109.734 1.24801 109.734 1.58401V1.68001C109.734 2.01601 109.614 2.30401 109.374 2.54401C109.134 2.78401 108.846 2.90401 108.51 2.90401H108.366ZM108.414 17.76C108.11 17.76 107.854 17.656 107.646 17.448C107.438 17.24 107.334 16.984 107.334 16.68V6.38401C107.334 6.08001 107.438 5.82401 107.646 5.61601C107.854 5.39201 108.11 5.28001 108.414 5.28001C108.734 5.28001 108.998 5.38401 109.206 5.59201C109.414 5.80001 109.518 6.06401 109.518 6.38401V16.68C109.518 16.984 109.406 17.24 109.182 17.448C108.974 17.656 108.718 17.76 108.414 17.76ZM124.609 17.88C123.617 17.88 122.673 17.632 121.777 17.136C120.897 16.624 120.177 15.888 119.617 14.928C119.073 13.952 118.801 12.816 118.801 11.52C118.801 10.224 119.073 9.09601 119.617 8.13601C120.177 7.16001 120.897 6.42401 121.777 5.92801C122.673 5.41601 123.617 5.16001 124.609 5.16001C126.177 5.16001 127.545 5.76801 128.713 6.98401V1.10401C128.713 0.784014 128.817 0.520013 129.025 0.312013C129.249 0.104014 129.513 1.43051e-05 129.817 1.43051e-05C130.121 1.43051e-05 130.377 0.112014 130.585 0.336014C130.793 0.544014 130.897 0.800014 130.897 1.10401V16.68C130.897 16.984 130.793 17.24 130.585 17.448C130.377 17.656 130.121 17.76 129.817 17.76C129.513 17.76 129.249 17.656 129.025 17.448C128.817 17.24 128.713 16.984 128.713 16.68V16.056C127.545 17.272 126.177 17.88 124.609 17.88ZM124.921 15.84C125.657 15.84 126.345 15.68 126.985 15.36C127.641 15.024 128.217 14.584 128.713 14.04V9.00001C128.217 8.45601 127.641 8.02401 126.985 7.70401C126.345 7.36801 125.657 7.20001 124.921 7.20001C123.737 7.20001 122.785 7.57601 122.065 8.32801C121.345 9.08001 120.985 10.144 120.985 11.52C120.985 12.896 121.345 13.96 122.065 14.712C122.785 15.464 123.737 15.84 124.921 15.84ZM135.765 17.76C135.461 17.76 135.205 17.656 134.997 17.448C134.789 17.24 134.685 16.984 134.685 16.68V1.10401C134.685 0.800014 134.789 0.544014 134.997 0.336014C135.205 0.112014 135.461 1.43051e-05 135.765 1.43051e-05C136.085 1.43051e-05 136.349 0.104014 136.557 0.312013C136.765 0.520013 136.869 0.784014 136.869 1.10401V16.68C136.869 16.984 136.757 17.24 136.533 17.448C136.325 17.656 136.069 17.76 135.765 17.76ZM143.782 17.88C143.078 17.88 142.422 17.736 141.814 17.448C141.222 17.16 140.75 16.744 140.398 16.2C140.046 15.64 139.87 15 139.87 14.28C139.87 13.096 140.334 12.152 141.262 11.448C142.206 10.744 143.582 10.392 145.39 10.392H148.294V10.2C148.294 9.14401 148.03 8.38401 147.502 7.92001C146.99 7.45601 146.182 7.22401 145.078 7.22401C144.47 7.22401 143.926 7.27201 143.446 7.36801C142.982 7.46401 142.462 7.60801 141.886 7.80001C141.758 7.83201 141.654 7.84801 141.574 7.84801C141.334 7.84801 141.126 7.76001 140.95 7.58401C140.774 7.40801 140.686 7.19201 140.686 6.93601C140.686 6.50401 140.894 6.20001 141.31 6.02401C142.67 5.44801 144.054 5.16001 145.462 5.16001C146.566 5.16001 147.494 5.38401 148.246 5.83201C149.014 6.28001 149.574 6.86401 149.926 7.58401C150.294 8.28801 150.478 9.05601 150.478 9.88801V16.68C150.478 16.984 150.366 17.24 150.142 17.448C149.934 17.656 149.678 17.76 149.374 17.76C149.07 17.76 148.814 17.656 148.606 17.448C148.398 17.24 148.294 16.984 148.294 16.68V16.056C147.11 17.272 145.606 17.88 143.782 17.88ZM144.598 15.96C145.302 15.96 145.982 15.792 146.638 15.456C147.294 15.104 147.846 14.672 148.294 14.16V12.144H145.678C143.262 12.144 142.054 12.776 142.054 14.04C142.054 14.616 142.246 15.08 142.63 15.432C143.03 15.784 143.686 15.96 144.598 15.96ZM165.437 17.88C164.445 17.88 163.501 17.632 162.605 17.136C161.725 16.624 161.005 15.888 160.445 14.928C159.901 13.952 159.629 12.816 159.629 11.52C159.629 10.224 159.901 9.09601 160.445 8.13601C161.005 7.16001 161.725 6.42401 162.605 5.92801C163.501 5.41601 164.445 5.16001 165.437 5.16001C167.005 5.16001 168.373 5.76801 169.541 6.98401V1.10401C169.541 0.784014 169.645 0.520013 169.853 0.312013C170.077 0.104014 170.341 1.43051e-05 170.645 1.43051e-05C170.949 1.43051e-05 171.205 0.112014 171.413 0.336014C171.621 0.544014 171.725 0.800014 171.725 1.10401V16.68C171.725 16.984 171.621 17.24 171.413 17.448C171.205 17.656 170.949 17.76 170.645 17.76C170.341 17.76 170.077 17.656 169.853 17.448C169.645 17.24 169.541 16.984 169.541 16.68V16.056C168.373 17.272 167.005 17.88 165.437 17.88ZM165.749 15.84C166.485 15.84 167.173 15.68 167.813 15.36C168.469 15.024 169.045 14.584 169.541 14.04V9.00001C169.045 8.45601 168.469 8.02401 167.813 7.70401C167.173 7.36801 166.485 7.20001 165.749 7.20001C164.565 7.20001 163.613 7.57601 162.893 8.32801C162.173 9.08001 161.813 10.144 161.813 11.52C161.813 12.896 162.173 13.96 162.893 14.712C163.613 15.464 164.565 15.84 165.749 15.84ZM176.089 17.64C175.657 17.64 175.297 17.528 175.009 17.304C174.721 17.08 174.577 16.768 174.577 16.368C174.577 16 174.705 15.672 174.961 15.384L181.873 7.44001H175.801C175.513 7.44001 175.273 7.34401 175.081 7.15201C174.889 6.96001 174.793 6.72001 174.793 6.43201C174.793 6.14401 174.889 5.90401 175.081 5.71201C175.273 5.50401 175.513 5.40001 175.801 5.40001H183.073C183.489 5.40001 183.825 5.52801 184.081 5.78401C184.337 6.04001 184.465 6.36801 184.465 6.76801C184.465 7.13601 184.353 7.45601 184.129 7.72801L177.409 15.6H183.577C183.865 15.6 184.105 15.704 184.297 15.912C184.505 16.104 184.609 16.344 184.609 16.632C184.609 16.92 184.505 17.16 184.297 17.352C184.105 17.544 183.865 17.64 183.577 17.64H176.089ZM188.498 2.90401C188.162 2.90401 187.874 2.78401 187.634 2.54401C187.394 2.30401 187.274 2.01601 187.274 1.68001V1.58401C187.274 1.24801 187.394 0.960013 187.634 0.720014C187.874 0.480014 188.162 0.360014 188.498 0.360014H188.642C188.978 0.360014 189.266 0.480014 189.506 0.720014C189.746 0.960013 189.866 1.24801 189.866 1.58401V1.68001C189.866 2.01601 189.746 2.30401 189.506 2.54401C189.266 2.78401 188.978 2.90401 188.642 2.90401H188.498ZM188.546 17.76C188.242 17.76 187.986 17.656 187.778 17.448C187.57 17.24 187.466 16.984 187.466 16.68V6.38401C187.466 6.08001 187.57 5.82401 187.778 5.61601C187.986 5.39201 188.242 5.28001 188.546 5.28001C188.866 5.28001 189.13 5.38401 189.338 5.59201C189.546 5.80001 189.65 6.06401 189.65 6.38401V16.68C189.65 16.984 189.538 17.24 189.314 17.448C189.106 17.656 188.85 17.76 188.546 17.76ZM198.915 17.88C196.963 17.88 195.435 17.328 194.331 16.224C193.243 15.104 192.699 13.536 192.699 11.52C192.699 10.384 192.907 9.33601 193.323 8.37601C193.739 7.41601 194.379 6.64001 195.243 6.04801C196.107 5.45601 197.171 5.16001 198.435 5.16001C199.619 5.16001 200.643 5.44001 201.507 6.00001C202.371 6.54401 203.027 7.28001 203.475 8.20801C203.923 9.12001 204.147 10.12 204.147 11.208C204.147 11.512 204.043 11.768 203.835 11.976C203.643 12.184 203.379 12.288 203.043 12.288H194.907C195.035 13.408 195.451 14.28 196.155 14.904C196.859 15.528 197.843 15.84 199.107 15.84C199.779 15.84 200.363 15.776 200.859 15.648C201.371 15.52 201.867 15.336 202.347 15.096C202.475 15.032 202.619 15 202.779 15C203.035 15 203.259 15.088 203.451 15.264C203.643 15.44 203.739 15.664 203.739 15.936C203.739 16.288 203.531 16.584 203.115 16.824C202.491 17.176 201.875 17.44 201.267 17.616C200.659 17.792 199.875 17.88 198.915 17.88ZM201.987 10.512C201.939 9.72801 201.731 9.07201 201.363 8.54401C201.011 8.01601 200.571 7.63201 200.043 7.39201C199.515 7.13601 198.979 7.00801 198.435 7.00801C197.891 7.00801 197.355 7.13601 196.827 7.39201C196.299 7.63201 195.859 8.01601 195.507 8.54401C195.155 9.07201 194.955 9.72801 194.907 10.512H201.987ZM212.701 17.88C211.549 17.88 210.485 17.624 209.509 17.112C208.533 16.6 207.749 15.864 207.157 14.904C206.581 13.944 206.293 12.816 206.293 11.52C206.293 10.224 206.581 9.09601 207.157 8.13601C207.749 7.17601 208.533 6.44001 209.509 5.92801C210.485 5.41601 211.549 5.16001 212.701 5.16001C213.549 5.16001 214.277 5.27201 214.885 5.49601C215.509 5.70401 216.085 5.97601 216.613 6.31201C216.933 6.52001 217.093 6.80001 217.093 7.15201C217.093 7.39201 216.997 7.61601 216.805 7.82401C216.629 8.01601 216.421 8.11201 216.181 8.11201C216.005 8.11201 215.829 8.06401 215.653 7.96801C215.125 7.69601 214.669 7.50401 214.285 7.39201C213.917 7.26401 213.453 7.20001 212.893 7.20001C211.517 7.20001 210.437 7.60001 209.653 8.40001C208.869 9.18401 208.477 10.224 208.477 11.52C208.477 12.816 208.869 13.864 209.653 14.664C210.437 15.448 211.517 15.84 212.893 15.84C213.453 15.84 213.917 15.784 214.285 15.672C214.669 15.544 215.125 15.344 215.653 15.072C215.829 14.976 216.005 14.928 216.181 14.928C216.421 14.928 216.629 15.032 216.805 15.24C216.997 15.432 217.093 15.648 217.093 15.888C217.093 16.24 216.933 16.52 216.613 16.728C216.085 17.064 215.509 17.344 214.885 17.568C214.277 17.776 213.549 17.88 212.701 17.88ZM220.866 2.90401C220.53 2.90401 220.242 2.78401 220.002 2.54401C219.762 2.30401 219.642 2.01601 219.642 1.68001V1.58401C219.642 1.24801 219.762 0.960013 220.002 0.720014C220.242 0.480014 220.53 0.360014 220.866 0.360014H221.01C221.346 0.360014 221.634 0.480014 221.874 0.720014C222.114 0.960013 222.234 1.24801 222.234 1.58401V1.68001C222.234 2.01601 222.114 2.30401 221.874 2.54401C221.634 2.78401 221.346 2.90401 221.01 2.90401H220.866ZM220.914 17.76C220.61 17.76 220.354 17.656 220.146 17.448C219.938 17.24 219.834 16.984 219.834 16.68V6.38401C219.834 6.08001 219.938 5.82401 220.146 5.61601C220.354 5.39201 220.61 5.28001 220.914 5.28001C221.234 5.28001 221.498 5.38401 221.706 5.59201C221.914 5.80001 222.018 6.06401 222.018 6.38401V16.68C222.018 16.984 221.906 17.24 221.682 17.448C221.474 17.656 221.218 17.76 220.914 17.76Z" fill="#313131"/>
</svg>
