<svg width="1440" height="160" viewBox="0 0 1440 160" fill="none" xmlns="http://www.w3.org/2000/svg">
<rect width="1440" height="160" fill="#6AD3EA"/>
<path d="M232.272 85.08C232.069 85.08 231.899 85.0107 231.76 84.872C231.621 84.7333 231.552 84.5627 231.552 84.36V74.568C231.552 74.3653 231.621 74.1947 231.76 74.056C231.899 73.9067 232.069 73.832 232.272 73.832H235.92C236.731 73.832 237.408 73.9387 237.952 74.152C238.507 74.3547 238.944 74.632 239.264 74.984C239.595 75.3253 239.829 75.704 239.968 76.12C240.117 76.536 240.192 76.9573 240.192 77.384C240.192 77.8107 240.117 78.232 239.968 78.648C239.829 79.064 239.595 79.448 239.264 79.8C238.944 80.1413 238.507 80.4187 237.952 80.632C237.408 80.8347 236.731 80.936 235.92 80.936H233.008V84.36C233.008 84.5627 232.933 84.7333 232.784 84.872C232.645 85.0107 232.475 85.08 232.272 85.08ZM233.008 79.56H235.776C236.576 79.56 237.189 79.4533 237.616 79.24C238.043 79.016 238.336 78.7387 238.496 78.408C238.656 78.0667 238.736 77.7253 238.736 77.384C238.736 77.032 238.656 76.6907 238.496 76.36C238.336 76.0293 238.043 75.7573 237.616 75.544C237.189 75.32 236.576 75.208 235.776 75.208H233.008V79.56ZM245.443 85.16C244.142 85.16 243.123 84.792 242.387 84.056C241.662 83.3093 241.299 82.264 241.299 80.92C241.299 80.1947 241.433 79.512 241.699 78.872C241.966 78.2213 242.382 77.6933 242.947 77.288C243.513 76.8827 244.238 76.68 245.123 76.68C245.945 76.68 246.638 76.872 247.203 77.256C247.769 77.6293 248.195 78.12 248.483 78.728C248.782 79.336 248.931 79.9973 248.931 80.712C248.931 80.9147 248.862 81.0853 248.723 81.224C248.595 81.3627 248.419 81.432 248.195 81.432H242.771C242.857 82.1467 243.129 82.7227 243.587 83.16C244.046 83.5867 244.707 83.8 245.571 83.8C246.051 83.8 246.457 83.7573 246.787 83.672C247.118 83.576 247.433 83.4533 247.731 83.304C247.817 83.2613 247.913 83.24 248.019 83.24C248.19 83.24 248.339 83.2987 248.467 83.416C248.595 83.5333 248.659 83.6827 248.659 83.864C248.659 83.992 248.617 84.1093 248.531 84.216C248.457 84.312 248.361 84.392 248.243 84.456C247.891 84.6587 247.507 84.8293 247.091 84.968C246.686 85.096 246.137 85.16 245.443 85.16ZM242.771 80.248H247.491C247.459 79.6933 247.315 79.2453 247.059 78.904C246.814 78.5627 246.515 78.312 246.163 78.152C245.811 77.992 245.465 77.912 245.123 77.912C244.782 77.912 244.435 77.992 244.083 78.152C243.731 78.312 243.433 78.5627 243.187 78.904C242.942 79.2453 242.803 79.6933 242.771 80.248ZM251.578 85.08C251.375 85.08 251.204 85.0107 251.066 84.872C250.927 84.7333 250.858 84.5627 250.858 84.36V77.496C250.858 77.2933 250.927 77.1227 251.066 76.984C251.204 76.8347 251.375 76.76 251.578 76.76C251.78 76.76 251.951 76.8347 252.09 76.984C252.239 77.1227 252.314 77.2933 252.314 77.496V78.184C252.602 77.8 252.954 77.4533 253.37 77.144C253.786 76.8347 254.271 76.68 254.826 76.68H254.906C255.108 76.68 255.274 76.7493 255.402 76.888C255.54 77.0267 255.61 77.1973 255.61 77.4C255.61 77.6027 255.54 77.768 255.402 77.896C255.263 78.024 255.087 78.088 254.874 78.088H254.794C254.271 78.088 253.796 78.2213 253.37 78.488C252.943 78.744 252.591 79.08 252.314 79.496V84.36C252.314 84.5627 252.239 84.7333 252.09 84.872C251.951 85.0107 251.78 85.08 251.578 85.08ZM258.311 85.08C258.108 85.08 257.937 85.0107 257.799 84.872C257.66 84.7333 257.591 84.5627 257.591 84.36V78.088H256.647C256.476 78.088 256.327 78.0293 256.199 77.912C256.081 77.784 256.023 77.6347 256.023 77.464C256.023 77.2827 256.081 77.1333 256.199 77.016C256.327 76.8987 256.476 76.84 256.647 76.84H257.591V75.912C257.591 75.24 257.708 74.7013 257.943 74.296C258.188 73.8907 258.497 73.6027 258.871 73.432C259.244 73.2507 259.617 73.16 259.991 73.16C260.257 73.16 260.508 73.192 260.743 73.256C260.977 73.3093 261.191 73.384 261.383 73.48C261.479 73.5227 261.564 73.5973 261.639 73.704C261.713 73.8 261.751 73.912 261.751 74.04C261.751 74.1893 261.692 74.328 261.575 74.456C261.468 74.584 261.329 74.648 261.159 74.648C261.031 74.648 260.903 74.632 260.775 74.6C260.647 74.568 260.508 74.552 260.359 74.552C259.964 74.552 259.644 74.648 259.399 74.84C259.164 75.0213 259.047 75.3947 259.047 75.96V76.84H261.047C261.228 76.84 261.377 76.8987 261.495 77.016C261.612 77.1333 261.671 77.2827 261.671 77.464C261.671 77.6347 261.612 77.784 261.495 77.912C261.377 78.0293 261.228 78.088 261.047 78.088H259.047V84.36C259.047 84.5627 258.977 84.7333 258.839 84.872C258.7 85.0107 258.524 85.08 258.311 85.08ZM266.271 85.16C264.97 85.16 263.951 84.792 263.215 84.056C262.49 83.3093 262.127 82.264 262.127 80.92C262.127 80.1947 262.261 79.512 262.527 78.872C262.794 78.2213 263.21 77.6933 263.775 77.288C264.341 76.8827 265.066 76.68 265.951 76.68C266.773 76.68 267.466 76.872 268.031 77.256C268.597 77.6293 269.023 78.12 269.311 78.728C269.61 79.336 269.759 79.9973 269.759 80.712C269.759 80.9147 269.69 81.0853 269.551 81.224C269.423 81.3627 269.247 81.432 269.023 81.432H263.599C263.685 82.1467 263.957 82.7227 264.415 83.16C264.874 83.5867 265.535 83.8 266.399 83.8C266.879 83.8 267.285 83.7573 267.615 83.672C267.946 83.576 268.261 83.4533 268.559 83.304C268.645 83.2613 268.741 83.24 268.847 83.24C269.018 83.24 269.167 83.2987 269.295 83.416C269.423 83.5333 269.487 83.6827 269.487 83.864C269.487 83.992 269.445 84.1093 269.359 84.216C269.285 84.312 269.189 84.392 269.071 84.456C268.719 84.6587 268.335 84.8293 267.919 84.968C267.514 85.096 266.965 85.16 266.271 85.16ZM263.599 80.248H268.319C268.287 79.6933 268.143 79.2453 267.887 78.904C267.642 78.5627 267.343 78.312 266.991 78.152C266.639 77.992 266.293 77.912 265.951 77.912C265.61 77.912 265.263 77.992 264.911 78.152C264.559 78.312 264.261 78.5627 264.015 78.904C263.77 79.2453 263.631 79.6933 263.599 80.248ZM272.406 85.08C272.203 85.08 272.033 85.0107 271.894 84.872C271.755 84.7333 271.686 84.5627 271.686 84.36V73.976C271.686 73.7733 271.755 73.6027 271.894 73.464C272.033 73.3147 272.203 73.24 272.406 73.24C272.609 73.24 272.779 73.3147 272.918 73.464C273.067 73.6027 273.142 73.7733 273.142 73.976V80.52L276.95 77C277.014 76.9467 277.083 76.8987 277.158 76.856C277.243 76.8133 277.334 76.792 277.43 76.792C277.707 76.792 277.894 76.872 277.99 77.032C278.086 77.1813 278.134 77.336 278.134 77.496C278.134 77.56 278.118 77.64 278.086 77.736C278.054 77.8213 277.979 77.9227 277.862 78.04L275.558 80.104L278.454 83.944C278.561 84.0827 278.614 84.2267 278.614 84.376C278.614 84.5893 278.545 84.76 278.406 84.888C278.267 85.016 278.091 85.08 277.878 85.08C277.654 85.08 277.457 84.9787 277.286 84.776L274.534 81.032L273.142 82.296V84.36C273.142 84.5627 273.067 84.7333 272.918 84.872C272.779 85.0107 272.609 85.08 272.406 85.08ZM284.04 85.16C283.283 85.16 282.579 84.9947 281.928 84.664C281.277 84.3227 280.755 83.8373 280.36 83.208C279.965 82.568 279.768 81.8053 279.768 80.92C279.768 80.024 279.965 79.2613 280.36 78.632C280.755 78.0027 281.277 77.5227 281.928 77.192C282.579 76.8507 283.283 76.68 284.04 76.68C284.669 76.68 285.192 76.7653 285.608 76.936C286.035 77.096 286.381 77.2667 286.648 77.448C286.861 77.5867 286.968 77.7733 286.968 78.008C286.968 78.1573 286.909 78.3013 286.792 78.44C286.675 78.5787 286.531 78.648 286.36 78.648C286.243 78.648 286.125 78.616 286.008 78.552C285.731 78.4027 285.459 78.28 285.192 78.184C284.925 78.088 284.584 78.04 284.168 78.04C283.24 78.04 282.515 78.3067 281.992 78.84C281.48 79.3733 281.224 80.0667 281.224 80.92C281.224 81.7733 281.48 82.4667 281.992 83C282.515 83.5333 283.24 83.8 284.168 83.8C284.584 83.8 284.925 83.752 285.192 83.656C285.459 83.5493 285.731 83.4267 286.008 83.288C286.125 83.224 286.243 83.192 286.36 83.192C286.531 83.192 286.675 83.2613 286.792 83.4C286.909 83.5387 286.968 83.6827 286.968 83.832C286.968 84.0667 286.861 84.2533 286.648 84.392C286.381 84.5627 286.035 84.7333 285.608 84.904C285.192 85.0747 284.669 85.16 284.04 85.16ZM290.619 88.76C290.427 88.76 290.262 88.6907 290.123 88.552C289.995 88.4133 289.931 88.248 289.931 88.056C289.931 87.96 289.947 87.8747 289.979 87.8L291.019 85.128L288.011 77.8C288.001 77.7573 287.985 77.7093 287.963 77.656C287.953 77.6027 287.947 77.5493 287.947 77.496C287.947 77.2933 288.017 77.1227 288.155 76.984C288.294 76.8347 288.465 76.76 288.667 76.76C288.817 76.76 288.95 76.8027 289.067 76.888C289.195 76.9733 289.286 77.08 289.339 77.208L291.803 83.32L294.315 77.24C294.379 77.0907 294.465 76.9733 294.571 76.888C294.689 76.8027 294.827 76.76 294.987 76.76C295.19 76.76 295.361 76.8347 295.499 76.984C295.638 77.1227 295.707 77.2933 295.707 77.496C295.707 77.592 295.691 77.6827 295.659 77.768L291.291 88.264C291.227 88.4027 291.142 88.52 291.035 88.616C290.929 88.712 290.79 88.76 290.619 88.76ZM298.157 75.176C297.933 75.176 297.741 75.096 297.581 74.936C297.421 74.776 297.341 74.584 297.341 74.36V74.296C297.341 74.072 297.421 73.88 297.581 73.72C297.741 73.56 297.933 73.48 298.157 73.48H298.253C298.477 73.48 298.669 73.56 298.829 73.72C298.989 73.88 299.069 74.072 299.069 74.296V74.36C299.069 74.584 298.989 74.776 298.829 74.936C298.669 75.096 298.477 75.176 298.253 75.176H298.157ZM296.829 88.84C296.445 88.84 296.109 88.792 295.821 88.696C295.544 88.6107 295.405 88.4187 295.405 88.12C295.405 87.96 295.464 87.816 295.581 87.688C295.698 87.5707 295.842 87.512 296.013 87.512C296.088 87.512 296.162 87.5173 296.237 87.528C296.312 87.5493 296.397 87.56 296.493 87.56C296.77 87.56 297 87.5067 297.181 87.4C297.373 87.304 297.469 87.0427 297.469 86.616V77.512C297.469 77.2987 297.538 77.1227 297.677 76.984C297.816 76.8453 297.986 76.776 298.189 76.776C298.402 76.776 298.578 76.8453 298.717 76.984C298.856 77.1227 298.925 77.2987 298.925 77.512V86.648C298.925 87.2667 298.765 87.784 298.445 88.2C298.136 88.6267 297.597 88.84 296.829 88.84ZM302.172 85.08C301.969 85.08 301.798 85.0107 301.66 84.872C301.521 84.7333 301.452 84.5627 301.452 84.36V77.496C301.452 77.2827 301.521 77.1067 301.66 76.968C301.798 76.8293 301.969 76.76 302.172 76.76C302.374 76.76 302.545 76.8293 302.684 76.968C302.833 77.1067 302.908 77.2827 302.908 77.496V78.152C303.249 77.7787 303.649 77.4427 304.108 77.144C304.577 76.8347 305.169 76.68 305.884 76.68C306.492 76.68 307.009 76.824 307.436 77.112C307.862 77.3893 308.188 77.768 308.411 78.248C308.636 78.7173 308.748 79.24 308.748 79.816V84.36C308.748 84.5627 308.673 84.7333 308.524 84.872C308.385 85.0107 308.214 85.08 308.012 85.08C307.809 85.08 307.638 85.0107 307.5 84.872C307.361 84.7333 307.292 84.5627 307.292 84.36V79.976C307.292 79.368 307.153 78.8933 306.876 78.552C306.609 78.2 306.161 78.024 305.532 78.024C304.956 78.024 304.454 78.1787 304.028 78.488C303.601 78.7973 303.228 79.1547 302.908 79.56V84.36C302.908 84.5627 302.833 84.7333 302.684 84.872C302.545 85.0107 302.374 85.08 302.172 85.08ZM312.885 88.76C312.693 88.76 312.528 88.6907 312.389 88.552C312.261 88.4133 312.197 88.248 312.197 88.056C312.197 87.96 312.213 87.8747 312.245 87.8L313.285 85.128L310.277 77.8C310.266 77.7573 310.25 77.7093 310.229 77.656C310.218 77.6027 310.213 77.5493 310.213 77.496C310.213 77.2933 310.282 77.1227 310.421 76.984C310.56 76.8347 310.73 76.76 310.933 76.76C311.082 76.76 311.216 76.8027 311.333 76.888C311.461 76.9733 311.552 77.08 311.605 77.208L314.069 83.32L316.581 77.24C316.645 77.0907 316.73 76.9733 316.837 76.888C316.954 76.8027 317.093 76.76 317.253 76.76C317.456 76.76 317.626 76.8347 317.765 76.984C317.904 77.1227 317.973 77.2933 317.973 77.496C317.973 77.592 317.957 77.6827 317.925 77.768L313.557 88.264C313.493 88.4027 313.408 88.52 313.301 88.616C313.194 88.712 313.056 88.76 312.885 88.76ZM324.531 85.08C324.328 85.08 324.158 85.0107 324.019 84.872C323.88 84.7333 323.811 84.5627 323.811 84.36V73.976C323.811 73.7733 323.88 73.6027 324.019 73.464C324.158 73.3147 324.328 73.24 324.531 73.24C324.734 73.24 324.904 73.3147 325.043 73.464C325.192 73.6027 325.267 73.7733 325.267 73.976V80.52L329.075 77C329.139 76.9467 329.208 76.8987 329.283 76.856C329.368 76.8133 329.459 76.792 329.555 76.792C329.832 76.792 330.019 76.872 330.115 77.032C330.211 77.1813 330.259 77.336 330.259 77.496C330.259 77.56 330.243 77.64 330.211 77.736C330.179 77.8213 330.104 77.9227 329.987 78.04L327.683 80.104L330.579 83.944C330.686 84.0827 330.739 84.2267 330.739 84.376C330.739 84.5893 330.67 84.76 330.531 84.888C330.392 85.016 330.216 85.08 330.003 85.08C329.779 85.08 329.582 84.9787 329.411 84.776L326.659 81.032L325.267 82.296V84.36C325.267 84.5627 325.192 84.7333 325.043 84.872C324.904 85.0107 324.734 85.08 324.531 85.08ZM335.989 85.16C335.168 85.16 334.448 84.984 333.829 84.632C333.21 84.2693 332.73 83.7733 332.389 83.144C332.058 82.504 331.893 81.7627 331.893 80.92C331.893 80.0773 332.058 79.3413 332.389 78.712C332.73 78.072 333.21 77.576 333.829 77.224C334.448 76.8613 335.168 76.68 335.989 76.68C336.81 76.68 337.525 76.8613 338.133 77.224C338.752 77.576 339.232 78.072 339.573 78.712C339.914 79.3413 340.085 80.0773 340.085 80.92C340.085 81.7627 339.914 82.504 339.573 83.144C339.232 83.7733 338.752 84.2693 338.133 84.632C337.525 84.984 336.81 85.16 335.989 85.16ZM335.989 83.832C336.394 83.832 336.8 83.736 337.205 83.544C337.61 83.352 337.946 83.0427 338.213 82.616C338.49 82.1787 338.629 81.608 338.629 80.904C338.629 80.2 338.49 79.6347 338.213 79.208C337.946 78.7813 337.61 78.4773 337.205 78.296C336.8 78.104 336.394 78.008 335.989 78.008C335.584 78.008 335.173 78.104 334.757 78.296C334.352 78.4773 334.016 78.7813 333.749 79.208C333.482 79.6347 333.349 80.2 333.349 80.904C333.349 81.608 333.482 82.1787 333.749 82.616C334.016 83.0427 334.352 83.352 334.757 83.544C335.173 83.736 335.584 83.832 335.989 83.832ZM342.843 85.08C342.641 85.08 342.47 85.0107 342.331 84.872C342.193 84.7333 342.123 84.5627 342.123 84.36V77.496C342.123 77.2827 342.193 77.1067 342.331 76.968C342.47 76.8293 342.641 76.76 342.843 76.76C343.046 76.76 343.217 76.8293 343.355 76.968C343.505 77.1067 343.579 77.2827 343.579 77.496V78.152C343.921 77.7787 344.321 77.4427 344.779 77.144C345.249 76.8347 345.841 76.68 346.555 76.68C347.163 76.68 347.681 76.824 348.107 77.112C348.534 77.3893 348.859 77.768 349.083 78.248C349.307 78.7173 349.419 79.24 349.419 79.816V84.36C349.419 84.5627 349.345 84.7333 349.195 84.872C349.057 85.0107 348.886 85.08 348.683 85.08C348.481 85.08 348.31 85.0107 348.171 84.872C348.033 84.7333 347.963 84.5627 347.963 84.36V79.976C347.963 79.368 347.825 78.8933 347.547 78.552C347.281 78.2 346.833 78.024 346.203 78.024C345.627 78.024 345.126 78.1787 344.699 78.488C344.273 78.7973 343.899 79.1547 343.579 79.56V84.36C343.579 84.5627 343.505 84.7333 343.355 84.872C343.217 85.0107 343.046 85.08 342.843 85.08ZM354.502 85.16C354.31 85.16 354.081 85.1387 353.814 85.096C353.558 85.064 353.302 84.984 353.046 84.856C352.801 84.7173 352.593 84.504 352.422 84.216C352.251 83.928 352.166 83.5387 352.166 83.048V78.088H351.03C350.827 78.088 350.726 77.9867 350.726 77.784C350.726 77.6773 350.774 77.5867 350.87 77.512L353.046 75.384C353.067 75.3627 353.099 75.336 353.142 75.304C353.195 75.2613 353.254 75.24 353.318 75.24C353.403 75.24 353.473 75.272 353.526 75.336C353.59 75.4 353.622 75.4747 353.622 75.56V76.84H355.43C355.611 76.84 355.761 76.8987 355.878 77.016C355.995 77.1333 356.054 77.2827 356.054 77.464C356.054 77.6347 355.995 77.784 355.878 77.912C355.761 78.0293 355.611 78.088 355.43 78.088H353.622V82.92C353.622 83.2293 353.681 83.4533 353.798 83.592C353.915 83.7307 354.054 83.816 354.214 83.848C354.385 83.8693 354.534 83.88 354.662 83.88C354.918 83.88 355.105 83.8587 355.222 83.816C355.35 83.7627 355.483 83.736 355.622 83.736C355.771 83.736 355.905 83.7893 356.022 83.896C356.139 84.0027 356.198 84.1413 356.198 84.312C356.198 84.5573 356.075 84.744 355.83 84.872C355.638 84.9573 355.43 85.0267 355.206 85.08C354.993 85.1333 354.758 85.16 354.502 85.16ZM359.875 85.16C359.417 85.16 358.985 85.064 358.579 84.872C358.185 84.68 357.865 84.408 357.619 84.056C357.385 83.6933 357.267 83.2613 357.267 82.76C357.267 82.0027 357.566 81.384 358.163 80.904C358.771 80.4133 359.699 80.168 360.947 80.168H362.883V80.04C362.883 79.3253 362.707 78.8187 362.355 78.52C362.003 78.2107 361.465 78.056 360.739 78.056C360.291 78.056 359.897 78.0987 359.555 78.184C359.225 78.2587 358.91 78.344 358.611 78.44C358.526 78.4613 358.457 78.472 358.403 78.472C358.243 78.472 358.105 78.4133 357.987 78.296C357.87 78.1787 357.811 78.0347 357.811 77.864C357.811 77.576 357.95 77.3733 358.227 77.256C358.601 77.096 359.011 76.9627 359.459 76.856C359.918 76.7387 360.43 76.68 360.995 76.68C361.774 76.68 362.409 76.8347 362.899 77.144C363.39 77.4533 363.753 77.848 363.987 78.328C364.222 78.808 364.339 79.3093 364.339 79.832V84.36C364.339 84.5627 364.265 84.7333 364.115 84.872C363.977 85.0107 363.806 85.08 363.603 85.08C363.401 85.08 363.23 85.0107 363.091 84.872C362.953 84.7333 362.883 84.5627 362.883 84.36V83.944C362.595 84.2427 362.211 84.52 361.731 84.776C361.251 85.032 360.633 85.16 359.875 85.16ZM360.419 83.88C360.921 83.88 361.39 83.7573 361.827 83.512C362.265 83.2667 362.617 82.9893 362.883 82.68V81.336H361.139C360.393 81.336 359.801 81.432 359.363 81.624C358.937 81.816 358.723 82.1413 358.723 82.6C358.723 82.9413 358.841 83.24 359.075 83.496C359.321 83.752 359.769 83.88 360.419 83.88ZM367.5 85.08C367.297 85.08 367.126 85.0107 366.988 84.872C366.849 84.7333 366.78 84.5627 366.78 84.36V73.976C366.78 73.7733 366.849 73.6027 366.988 73.464C367.126 73.3147 367.297 73.24 367.5 73.24C367.702 73.24 367.873 73.3147 368.012 73.464C368.161 73.6027 368.236 73.7733 368.236 73.976V80.52L372.044 77C372.108 76.9467 372.177 76.8987 372.252 76.856C372.337 76.8133 372.428 76.792 372.524 76.792C372.801 76.792 372.988 76.872 373.084 77.032C373.18 77.1813 373.228 77.336 373.228 77.496C373.228 77.56 373.212 77.64 373.18 77.736C373.148 77.8213 373.073 77.9227 372.956 78.04L370.652 80.104L373.548 83.944C373.654 84.0827 373.708 84.2267 373.708 84.376C373.708 84.5893 373.638 84.76 373.5 84.888C373.361 85.016 373.185 85.08 372.972 85.08C372.748 85.08 372.55 84.9787 372.38 84.776L369.628 81.032L368.236 82.296V84.36C368.236 84.5627 368.161 84.7333 368.012 84.872C367.873 85.0107 367.702 85.08 367.5 85.08ZM378.314 85.16C378.122 85.16 377.893 85.1387 377.626 85.096C377.37 85.064 377.114 84.984 376.858 84.856C376.613 84.7173 376.405 84.504 376.234 84.216C376.064 83.928 375.978 83.5387 375.978 83.048V78.088H374.842C374.64 78.088 374.538 77.9867 374.538 77.784C374.538 77.6773 374.586 77.5867 374.682 77.512L376.858 75.384C376.88 75.3627 376.912 75.336 376.954 75.304C377.008 75.2613 377.066 75.24 377.13 75.24C377.216 75.24 377.285 75.272 377.338 75.336C377.402 75.4 377.434 75.4747 377.434 75.56V76.84H379.242C379.424 76.84 379.573 76.8987 379.69 77.016C379.808 77.1333 379.866 77.2827 379.866 77.464C379.866 77.6347 379.808 77.784 379.69 77.912C379.573 78.0293 379.424 78.088 379.242 78.088H377.434V82.92C377.434 83.2293 377.493 83.4533 377.61 83.592C377.728 83.7307 377.866 83.816 378.026 83.848C378.197 83.8693 378.346 83.88 378.474 83.88C378.73 83.88 378.917 83.8587 379.034 83.816C379.162 83.7627 379.296 83.736 379.434 83.736C379.584 83.736 379.717 83.7893 379.834 83.896C379.952 84.0027 380.01 84.1413 380.01 84.312C380.01 84.5573 379.888 84.744 379.642 84.872C379.45 84.9573 379.242 85.0267 379.018 85.08C378.805 85.1333 378.57 85.16 378.314 85.16ZM386.148 85C385.871 85 385.631 84.9307 385.428 84.792C385.236 84.6427 385.14 84.4293 385.14 84.152C385.14 83.9067 385.225 83.688 385.396 83.496L390.004 78.2H385.956C385.764 78.2 385.604 78.136 385.476 78.008C385.348 77.88 385.284 77.72 385.284 77.528C385.284 77.336 385.348 77.176 385.476 77.048C385.604 76.9093 385.764 76.84 385.956 76.84H390.804C391.081 76.84 391.305 76.9253 391.476 77.096C391.647 77.256 391.732 77.4747 391.732 77.752C391.732 77.9973 391.657 78.2107 391.508 78.392L387.028 83.64H391.14C391.332 83.64 391.492 83.7093 391.62 83.848C391.759 83.976 391.828 84.136 391.828 84.328C391.828 84.52 391.759 84.68 391.62 84.808C391.492 84.936 391.332 85 391.14 85H386.148ZM398.609 85.08C398.406 85.08 398.236 85.0107 398.097 84.872C397.958 84.7333 397.889 84.5627 397.889 84.36V73.976C397.889 73.7733 397.958 73.6027 398.097 73.464C398.236 73.3147 398.406 73.24 398.609 73.24C398.812 73.24 398.982 73.3147 399.121 73.464C399.27 73.6027 399.345 73.7733 399.345 73.976V80.52L403.153 77C403.217 76.9467 403.286 76.8987 403.361 76.856C403.446 76.8133 403.537 76.792 403.633 76.792C403.91 76.792 404.097 76.872 404.193 77.032C404.289 77.1813 404.337 77.336 404.337 77.496C404.337 77.56 404.321 77.64 404.289 77.736C404.257 77.8213 404.182 77.9227 404.065 78.04L401.761 80.104L404.657 83.944C404.764 84.0827 404.817 84.2267 404.817 84.376C404.817 84.5893 404.748 84.76 404.609 84.888C404.47 85.016 404.294 85.08 404.081 85.08C403.857 85.08 403.66 84.9787 403.489 84.776L400.737 81.032L399.345 82.296V84.36C399.345 84.5627 399.27 84.7333 399.121 84.872C398.982 85.0107 398.812 85.08 398.609 85.08ZM407.328 85.08C407.125 85.08 406.954 85.0107 406.816 84.872C406.677 84.7333 406.608 84.5627 406.608 84.36V73.976C406.608 73.7627 406.677 73.5867 406.816 73.448C406.954 73.3093 407.125 73.24 407.328 73.24C407.541 73.24 407.717 73.3093 407.856 73.448C407.994 73.5867 408.064 73.7627 408.064 73.976V84.36C408.064 84.5627 407.994 84.7333 407.856 84.872C407.717 85.0107 407.541 85.08 407.328 85.08ZM411.28 75.176C411.056 75.176 410.864 75.096 410.704 74.936C410.544 74.776 410.464 74.584 410.464 74.36V74.296C410.464 74.072 410.544 73.88 410.704 73.72C410.864 73.56 411.056 73.48 411.28 73.48H411.376C411.6 73.48 411.792 73.56 411.952 73.72C412.112 73.88 412.192 74.072 412.192 74.296V74.36C412.192 74.584 412.112 74.776 411.952 74.936C411.792 75.096 411.6 75.176 411.376 75.176H411.28ZM411.312 85.08C411.109 85.08 410.939 85.0107 410.8 84.872C410.661 84.7333 410.592 84.5627 410.592 84.36V77.496C410.592 77.2827 410.661 77.1067 410.8 76.968C410.939 76.8293 411.109 76.76 411.312 76.76C411.525 76.76 411.701 76.8293 411.84 76.968C411.979 77.1067 412.048 77.2827 412.048 77.496V84.36C412.048 84.5627 411.979 84.7333 411.84 84.872C411.701 85.0107 411.525 85.08 411.312 85.08ZM418.225 85.16C416.923 85.16 415.905 84.792 415.169 84.056C414.443 83.3093 414.081 82.264 414.081 80.92C414.081 80.1947 414.214 79.512 414.481 78.872C414.747 78.2213 415.163 77.6933 415.729 77.288C416.294 76.8827 417.019 76.68 417.905 76.68C418.726 76.68 419.419 76.872 419.985 77.256C420.55 77.6293 420.977 78.12 421.265 78.728C421.563 79.336 421.713 79.9973 421.713 80.712C421.713 80.9147 421.643 81.0853 421.505 81.224C421.377 81.3627 421.201 81.432 420.977 81.432H415.553C415.638 82.1467 415.91 82.7227 416.369 83.16C416.827 83.5867 417.489 83.8 418.353 83.8C418.833 83.8 419.238 83.7573 419.569 83.672C419.899 83.576 420.214 83.4533 420.513 83.304C420.598 83.2613 420.694 83.24 420.801 83.24C420.971 83.24 421.121 83.2987 421.249 83.416C421.377 83.5333 421.441 83.6827 421.441 83.864C421.441 83.992 421.398 84.1093 421.312 84.216C421.238 84.312 421.142 84.392 421.025 84.456C420.673 84.6587 420.289 84.8293 419.873 84.968C419.467 85.096 418.918 85.16 418.225 85.16ZM415.553 80.248H420.273C420.241 79.6933 420.097 79.2453 419.841 78.904C419.595 78.5627 419.297 78.312 418.945 78.152C418.593 77.992 418.246 77.912 417.905 77.912C417.563 77.912 417.217 77.992 416.865 78.152C416.513 78.312 416.214 78.5627 415.969 78.904C415.723 79.2453 415.585 79.6933 415.553 80.248ZM424.359 85.08C424.156 85.08 423.986 85.0107 423.847 84.872C423.708 84.7333 423.639 84.5627 423.639 84.36V77.496C423.639 77.2827 423.708 77.1067 423.847 76.968C423.986 76.8293 424.156 76.76 424.359 76.76C424.562 76.76 424.732 76.8293 424.871 76.968C425.02 77.1067 425.095 77.2827 425.095 77.496V78.152C425.436 77.7787 425.836 77.4427 426.295 77.144C426.764 76.8347 427.356 76.68 428.071 76.68C428.679 76.68 429.196 76.824 429.623 77.112C430.05 77.3893 430.375 77.768 430.599 78.248C430.823 78.7173 430.935 79.24 430.935 79.816V84.36C430.935 84.5627 430.86 84.7333 430.711 84.872C430.572 85.0107 430.402 85.08 430.199 85.08C429.996 85.08 429.826 85.0107 429.687 84.872C429.548 84.7333 429.479 84.5627 429.479 84.36V79.976C429.479 79.368 429.34 78.8933 429.063 78.552C428.796 78.2 428.348 78.024 427.719 78.024C427.143 78.024 426.642 78.1787 426.215 78.488C425.788 78.7973 425.415 79.1547 425.095 79.56V84.36C425.095 84.5627 425.02 84.7333 424.871 84.872C424.732 85.0107 424.562 85.08 424.359 85.08ZM436.018 85.16C435.826 85.16 435.596 85.1387 435.33 85.096C435.074 85.064 434.818 84.984 434.562 84.856C434.316 84.7173 434.108 84.504 433.938 84.216C433.767 83.928 433.682 83.5387 433.682 83.048V78.088H432.546C432.343 78.088 432.242 77.9867 432.242 77.784C432.242 77.6773 432.29 77.5867 432.386 77.512L434.562 75.384C434.583 75.3627 434.615 75.336 434.658 75.304C434.711 75.2613 434.77 75.24 434.834 75.24C434.919 75.24 434.988 75.272 435.042 75.336C435.106 75.4 435.138 75.4747 435.138 75.56V76.84H436.946C437.127 76.84 437.276 76.8987 437.394 77.016C437.511 77.1333 437.57 77.2827 437.57 77.464C437.57 77.6347 437.511 77.784 437.394 77.912C437.276 78.0293 437.127 78.088 436.946 78.088H435.138V82.92C435.138 83.2293 435.196 83.4533 435.314 83.592C435.431 83.7307 435.57 83.816 435.73 83.848C435.9 83.8693 436.05 83.88 436.178 83.88C436.434 83.88 436.62 83.8587 436.738 83.816C436.866 83.7627 436.999 83.736 437.138 83.736C437.287 83.736 437.42 83.7893 437.538 83.896C437.655 84.0027 437.714 84.1413 437.714 84.312C437.714 84.5573 437.591 84.744 437.346 84.872C437.154 84.9573 436.946 85.0267 436.722 85.08C436.508 85.1333 436.274 85.16 436.018 85.16ZM442.85 85.16C441.548 85.16 440.53 84.792 439.794 84.056C439.068 83.3093 438.706 82.264 438.706 80.92C438.706 80.1947 438.839 79.512 439.106 78.872C439.372 78.2213 439.788 77.6933 440.354 77.288C440.919 76.8827 441.644 76.68 442.53 76.68C443.351 76.68 444.044 76.872 444.61 77.256C445.175 77.6293 445.602 78.12 445.89 78.728C446.188 79.336 446.338 79.9973 446.338 80.712C446.338 80.9147 446.268 81.0853 446.13 81.224C446.002 81.3627 445.826 81.432 445.602 81.432H440.178C440.263 82.1467 440.535 82.7227 440.994 83.16C441.452 83.5867 442.114 83.8 442.978 83.8C443.458 83.8 443.863 83.7573 444.194 83.672C444.524 83.576 444.839 83.4533 445.138 83.304C445.223 83.2613 445.319 83.24 445.426 83.24C445.596 83.24 445.746 83.2987 445.874 83.416C446.002 83.5333 446.066 83.6827 446.066 83.864C446.066 83.992 446.023 84.1093 445.938 84.216C445.863 84.312 445.767 84.392 445.65 84.456C445.298 84.6587 444.914 84.8293 444.498 84.968C444.092 85.096 443.543 85.16 442.85 85.16ZM440.178 80.248H444.898C444.866 79.6933 444.722 79.2453 444.466 78.904C444.22 78.5627 443.922 78.312 443.57 78.152C443.218 77.992 442.871 77.912 442.53 77.912C442.188 77.912 441.842 77.992 441.49 78.152C441.138 78.312 440.839 78.5627 440.594 78.904C440.348 79.2453 440.21 79.6933 440.178 80.248ZM448.984 85.08C448.781 85.08 448.611 85.0107 448.472 84.872C448.333 84.7333 448.264 84.5627 448.264 84.36V77.496C448.264 77.2933 448.333 77.1227 448.472 76.984C448.611 76.8347 448.781 76.76 448.984 76.76C449.187 76.76 449.357 76.8347 449.496 76.984C449.645 77.1227 449.72 77.2933 449.72 77.496V78.152C449.869 77.9387 450.056 77.72 450.28 77.496C450.515 77.272 450.808 77.08 451.16 76.92C451.512 76.76 451.939 76.68 452.44 76.68C453.08 76.68 453.603 76.8507 454.008 77.192C454.424 77.5333 454.717 77.912 454.888 78.328C455.016 78.1253 455.197 77.896 455.432 77.64C455.667 77.384 455.976 77.16 456.36 76.968C456.755 76.776 457.245 76.68 457.832 76.68C458.461 76.68 458.973 76.84 459.368 77.16C459.763 77.4693 460.051 77.8587 460.232 78.328C460.413 78.7973 460.504 79.272 460.504 79.752V84.36C460.504 84.5627 460.429 84.7333 460.28 84.872C460.141 85.0107 459.971 85.08 459.768 85.08C459.565 85.08 459.395 85.0107 459.256 84.872C459.117 84.7333 459.048 84.5627 459.048 84.36V80.04C459.048 79.368 458.925 78.8667 458.68 78.536C458.445 78.1947 458.024 78.024 457.416 78.024C457.011 78.024 456.664 78.104 456.376 78.264C456.088 78.4133 455.843 78.6053 455.64 78.84C455.437 79.0747 455.261 79.3147 455.112 79.56V84.36C455.112 84.5627 455.037 84.7333 454.888 84.872C454.749 85.0107 454.579 85.08 454.376 85.08C454.173 85.08 454.003 85.0107 453.864 84.872C453.725 84.7333 453.656 84.5627 453.656 84.36V80.04C453.656 79.368 453.533 78.8667 453.288 78.536C453.053 78.1947 452.632 78.024 452.024 78.024C451.619 78.024 451.272 78.104 450.984 78.264C450.696 78.4133 450.451 78.6053 450.248 78.84C450.045 79.0747 449.869 79.3147 449.72 79.56V84.36C449.72 84.5627 449.645 84.7333 449.496 84.872C449.357 85.0107 449.187 85.08 448.984 85.08Z" fill="#F9F9F9"/>
<path d="M1032.27 85.08C1032.07 85.08 1031.9 85.0107 1031.76 84.872C1031.62 84.7333 1031.55 84.5627 1031.55 84.36V74.808C1031.55 74.52 1031.65 74.2747 1031.86 74.072C1032.06 73.8587 1032.3 73.752 1032.59 73.752H1033.12C1033.33 73.752 1033.53 73.816 1033.71 73.944C1033.89 74.072 1034.02 74.232 1034.1 74.424L1037.73 83.48L1041.36 74.424C1041.45 74.232 1041.57 74.072 1041.74 73.944C1041.93 73.816 1042.12 73.752 1042.34 73.752H1042.86C1043.15 73.752 1043.4 73.8587 1043.6 74.072C1043.8 74.2747 1043.9 74.52 1043.9 74.808V84.36C1043.9 84.5627 1043.83 84.7333 1043.7 84.872C1043.56 85.0107 1043.39 85.08 1043.18 85.08C1042.98 85.08 1042.81 85.0107 1042.66 84.872C1042.52 84.7333 1042.45 84.5627 1042.45 84.36V75.272L1038.75 84.408C1038.67 84.6107 1038.53 84.776 1038.35 84.904C1038.17 85.0213 1037.96 85.08 1037.73 85.08C1037.49 85.08 1037.29 85.0213 1037.1 84.904C1036.92 84.776 1036.79 84.6107 1036.7 84.408L1033.01 75.272V84.36C1033.01 84.5627 1032.93 84.7333 1032.78 84.872C1032.65 85.0107 1032.47 85.08 1032.27 85.08ZM1047.28 85.08C1047.08 85.08 1046.91 85.0107 1046.77 84.872C1046.63 84.7333 1046.56 84.5627 1046.56 84.36V77.496C1046.56 77.2827 1046.63 77.1067 1046.77 76.968C1046.91 76.8293 1047.08 76.76 1047.28 76.76C1047.48 76.76 1047.65 76.8293 1047.79 76.968C1047.94 77.1067 1048.02 77.2827 1048.02 77.496V78.152C1048.36 77.7787 1048.76 77.4427 1049.22 77.144C1049.69 76.8347 1050.28 76.68 1050.99 76.68C1051.6 76.68 1052.12 76.824 1052.54 77.112C1052.97 77.3893 1053.3 77.768 1053.52 78.248C1053.74 78.7173 1053.86 79.24 1053.86 79.816V84.36C1053.86 84.5627 1053.78 84.7333 1053.63 84.872C1053.49 85.0107 1053.32 85.08 1053.12 85.08C1052.92 85.08 1052.75 85.0107 1052.61 84.872C1052.47 84.7333 1052.4 84.5627 1052.4 84.36V79.976C1052.4 79.368 1052.26 78.8933 1051.98 78.552C1051.72 78.2 1051.27 78.024 1050.64 78.024C1050.06 78.024 1049.56 78.1787 1049.14 78.488C1048.71 78.7973 1048.34 79.1547 1048.02 79.56V84.36C1048.02 84.5627 1047.94 84.7333 1047.79 84.872C1047.65 85.0107 1047.48 85.08 1047.28 85.08ZM1059.91 85.16C1059.09 85.16 1058.37 84.984 1057.75 84.632C1057.13 84.2693 1056.65 83.7733 1056.31 83.144C1055.98 82.504 1055.81 81.7627 1055.81 80.92C1055.81 80.0773 1055.98 79.3413 1056.31 78.712C1056.65 78.072 1057.13 77.576 1057.75 77.224C1058.37 76.8613 1059.09 76.68 1059.91 76.68C1060.73 76.68 1061.45 76.8613 1062.05 77.224C1062.67 77.576 1063.15 78.072 1063.49 78.712C1063.84 79.3413 1064.01 80.0773 1064.01 80.92C1064.01 81.7627 1063.84 82.504 1063.49 83.144C1063.15 83.7733 1062.67 84.2693 1062.05 84.632C1061.45 84.984 1060.73 85.16 1059.91 85.16ZM1059.91 83.832C1060.32 83.832 1060.72 83.736 1061.13 83.544C1061.53 83.352 1061.87 83.0427 1062.13 82.616C1062.41 82.1787 1062.55 81.608 1062.55 80.904C1062.55 80.2 1062.41 79.6347 1062.13 79.208C1061.87 78.7813 1061.53 78.4773 1061.13 78.296C1060.72 78.104 1060.32 78.008 1059.91 78.008C1059.51 78.008 1059.09 78.104 1058.68 78.296C1058.27 78.4773 1057.94 78.7813 1057.67 79.208C1057.4 79.6347 1057.27 80.2 1057.27 80.904C1057.27 81.608 1057.4 82.1787 1057.67 82.616C1057.94 83.0427 1058.27 83.352 1058.68 83.544C1059.09 83.736 1059.51 83.832 1059.91 83.832ZM1059.91 75.928C1059.78 75.928 1059.68 75.8907 1059.59 75.816C1059.52 75.7307 1059.48 75.624 1059.48 75.496C1059.48 75.432 1059.49 75.3733 1059.53 75.32C1059.56 75.256 1059.58 75.2133 1059.59 75.192L1060.41 73.752C1060.46 73.6667 1060.52 73.5973 1060.6 73.544C1060.68 73.48 1060.8 73.448 1060.93 73.448C1061.12 73.448 1061.26 73.5013 1061.37 73.608C1061.47 73.7147 1061.53 73.8587 1061.53 74.04C1061.53 74.1893 1061.47 74.3227 1061.37 74.44L1060.26 75.752C1060.17 75.8693 1060.05 75.928 1059.91 75.928ZM1068.69 85.16C1068.1 85.16 1067.57 85.096 1067.09 84.968C1066.62 84.84 1066.18 84.664 1065.77 84.44C1065.59 84.312 1065.5 84.136 1065.5 83.912C1065.5 83.752 1065.56 83.608 1065.68 83.48C1065.79 83.3413 1065.94 83.272 1066.13 83.272C1066.22 83.272 1066.32 83.2933 1066.41 83.336C1066.7 83.464 1067.02 83.576 1067.36 83.672C1067.71 83.768 1068.12 83.816 1068.59 83.816C1069.21 83.816 1069.66 83.72 1069.93 83.528C1070.22 83.3253 1070.37 83.0427 1070.37 82.68C1070.37 82.4453 1070.25 82.264 1070.01 82.136C1069.79 82.008 1069.49 81.9013 1069.12 81.816C1068.75 81.72 1068.37 81.624 1067.97 81.528C1067.56 81.4213 1067.17 81.2827 1066.8 81.112C1066.43 80.9307 1066.14 80.6907 1065.9 80.392C1065.68 80.0827 1065.57 79.688 1065.57 79.208C1065.57 78.4827 1065.83 77.88 1066.35 77.4C1066.87 76.92 1067.65 76.68 1068.69 76.68C1069.12 76.68 1069.53 76.7173 1069.92 76.792C1070.31 76.8667 1070.67 76.9627 1071.01 77.08C1071.15 77.1227 1071.27 77.208 1071.34 77.336C1071.43 77.4533 1071.47 77.5707 1071.47 77.688C1071.47 77.8587 1071.41 78.008 1071.28 78.136C1071.16 78.264 1071.01 78.328 1070.83 78.328C1070.79 78.328 1070.75 78.328 1070.72 78.328C1070.69 78.3173 1070.65 78.3067 1070.62 78.296C1070.37 78.2107 1070.08 78.1413 1069.77 78.088C1069.47 78.0347 1069.15 78.008 1068.8 78.008C1068.21 78.008 1067.76 78.1147 1067.44 78.328C1067.12 78.5413 1066.96 78.808 1066.96 79.128C1066.96 79.4053 1067.07 79.6187 1067.29 79.768C1067.53 79.9173 1067.83 80.04 1068.19 80.136C1068.56 80.2213 1068.95 80.312 1069.36 80.408C1069.77 80.504 1070.16 80.6427 1070.53 80.824C1070.9 80.9947 1071.2 81.2347 1071.42 81.544C1071.66 81.8533 1071.77 82.2693 1071.77 82.792C1071.77 83.4427 1071.51 84.0027 1070.99 84.472C1070.48 84.9307 1069.71 85.16 1068.69 85.16ZM1076.49 85.16C1076.29 85.16 1076.06 85.1387 1075.8 85.096C1075.54 85.064 1075.29 84.984 1075.03 84.856C1074.78 84.7173 1074.58 84.504 1074.41 84.216C1074.24 83.928 1074.15 83.5387 1074.15 83.048V78.088H1073.01C1072.81 78.088 1072.71 77.9867 1072.71 77.784C1072.71 77.6773 1072.76 77.5867 1072.85 77.512L1075.03 75.384C1075.05 75.3627 1075.08 75.336 1075.13 75.304C1075.18 75.2613 1075.24 75.24 1075.3 75.24C1075.39 75.24 1075.46 75.272 1075.51 75.336C1075.57 75.4 1075.61 75.4747 1075.61 75.56V76.84H1077.41C1077.6 76.84 1077.74 76.8987 1077.86 77.016C1077.98 77.1333 1078.04 77.2827 1078.04 77.464C1078.04 77.6347 1077.98 77.784 1077.86 77.912C1077.74 78.0293 1077.6 78.088 1077.41 78.088H1075.61V82.92C1075.61 83.2293 1075.66 83.4533 1075.78 83.592C1075.9 83.7307 1076.04 83.816 1076.2 83.848C1076.37 83.8693 1076.52 83.88 1076.65 83.88C1076.9 83.88 1077.09 83.8587 1077.21 83.816C1077.33 83.7627 1077.47 83.736 1077.61 83.736C1077.76 83.736 1077.89 83.7893 1078.01 83.896C1078.12 84.0027 1078.18 84.1413 1078.18 84.312C1078.18 84.5573 1078.06 84.744 1077.81 84.872C1077.62 84.9573 1077.41 85.0267 1077.19 85.08C1076.98 85.1333 1076.74 85.16 1076.49 85.16ZM1082.13 85.08C1081.92 85.08 1081.73 85.016 1081.56 84.888C1081.39 84.7493 1081.27 84.5893 1081.21 84.408L1078.93 77.752C1078.9 77.656 1078.89 77.5653 1078.89 77.48C1078.89 77.2773 1078.95 77.1067 1079.09 76.968C1079.23 76.8293 1079.4 76.76 1079.61 76.76C1079.75 76.76 1079.89 76.7973 1080.01 76.872C1080.13 76.9467 1080.22 77.0533 1080.26 77.192L1082.13 83.352L1083.99 77.336C1084.04 77.1653 1084.14 77.0267 1084.28 76.92C1084.43 76.8133 1084.59 76.76 1084.77 76.76C1084.95 76.76 1085.12 76.8133 1085.27 76.92C1085.42 77.0267 1085.51 77.1653 1085.56 77.336L1087.41 83.352L1089.29 77.192C1089.33 77.0533 1089.41 76.9467 1089.54 76.872C1089.67 76.7973 1089.8 76.76 1089.94 76.76C1090.14 76.76 1090.31 76.8293 1090.45 76.968C1090.59 77.1067 1090.66 77.2773 1090.66 77.48C1090.66 77.5653 1090.65 77.656 1090.61 77.752L1088.34 84.408C1088.28 84.5893 1088.16 84.7493 1087.99 84.888C1087.82 85.016 1087.63 85.08 1087.41 85.08C1087.2 85.08 1087.01 85.016 1086.84 84.888C1086.67 84.7493 1086.54 84.584 1086.47 84.392L1084.77 79.096L1083.08 84.392C1083 84.584 1082.88 84.7493 1082.71 84.888C1082.54 85.016 1082.35 85.08 1082.13 85.08ZM1095.86 85.16C1095.04 85.16 1094.32 84.984 1093.7 84.632C1093.09 84.2693 1092.61 83.7733 1092.26 83.144C1091.93 82.504 1091.77 81.7627 1091.77 80.92C1091.77 80.0773 1091.93 79.3413 1092.26 78.712C1092.61 78.072 1093.09 77.576 1093.7 77.224C1094.32 76.8613 1095.04 76.68 1095.86 76.68C1096.69 76.68 1097.4 76.8613 1098.01 77.224C1098.63 77.576 1099.11 78.072 1099.45 78.712C1099.79 79.3413 1099.96 80.0773 1099.96 80.92C1099.96 81.7627 1099.79 82.504 1099.45 83.144C1099.11 83.7733 1098.63 84.2693 1098.01 84.632C1097.4 84.984 1096.69 85.16 1095.86 85.16ZM1095.86 83.832C1096.27 83.832 1096.67 83.736 1097.08 83.544C1097.49 83.352 1097.82 83.0427 1098.09 82.616C1098.37 82.1787 1098.5 81.608 1098.5 80.904C1098.5 80.2 1098.37 79.6347 1098.09 79.208C1097.82 78.7813 1097.49 78.4773 1097.08 78.296C1096.67 78.104 1096.27 78.008 1095.86 78.008C1095.46 78.008 1095.05 78.104 1094.63 78.296C1094.23 78.4773 1093.89 78.7813 1093.62 79.208C1093.36 79.6347 1093.22 80.2 1093.22 80.904C1093.22 81.608 1093.36 82.1787 1093.62 82.616C1093.89 83.0427 1094.23 83.352 1094.63 83.544C1095.05 83.736 1095.46 83.832 1095.86 83.832ZM1106.87 88.76C1106.67 88.76 1106.5 88.6853 1106.36 88.536C1106.22 88.3973 1106.15 88.2267 1106.15 88.024V77.48C1106.15 77.2773 1106.22 77.1067 1106.36 76.968C1106.5 76.8293 1106.67 76.76 1106.87 76.76C1107.09 76.76 1107.26 76.8293 1107.4 76.968C1107.54 77.1067 1107.61 77.2773 1107.61 77.48V77.896C1107.98 77.512 1108.39 77.2133 1108.84 77C1109.29 76.7867 1109.79 76.68 1110.35 76.68C1111 76.68 1111.62 76.8453 1112.2 77.176C1112.79 77.5067 1113.27 77.9867 1113.64 78.616C1114.03 79.2453 1114.22 80.0133 1114.22 80.92C1114.22 81.8267 1114.03 82.5947 1113.64 83.224C1113.27 83.8533 1112.79 84.3333 1112.2 84.664C1111.62 84.9947 1111 85.16 1110.35 85.16C1109.79 85.16 1109.29 85.0533 1108.84 84.84C1108.39 84.6267 1107.98 84.328 1107.61 83.944V88.024C1107.61 88.2267 1107.54 88.3973 1107.4 88.536C1107.26 88.6853 1107.09 88.76 1106.87 88.76ZM1110.14 83.8C1110.9 83.8 1111.52 83.5547 1112.01 83.064C1112.51 82.5733 1112.76 81.8587 1112.76 80.92C1112.76 79.9707 1112.51 79.256 1112.01 78.776C1111.52 78.2853 1110.9 78.04 1110.14 78.04C1109.62 78.04 1109.14 78.1573 1108.71 78.392C1108.29 78.616 1107.92 78.8987 1107.61 79.24V82.6C1107.92 82.9413 1108.29 83.2293 1108.71 83.464C1109.14 83.688 1109.62 83.8 1110.14 83.8ZM1116.97 85.08C1116.77 85.08 1116.6 85.0107 1116.46 84.872C1116.32 84.7333 1116.25 84.5627 1116.25 84.36V77.496C1116.25 77.2933 1116.32 77.1227 1116.46 76.984C1116.6 76.8347 1116.77 76.76 1116.97 76.76C1117.17 76.76 1117.34 76.8347 1117.48 76.984C1117.63 77.1227 1117.7 77.2933 1117.7 77.496V78.184C1117.99 77.8 1118.34 77.4533 1118.76 77.144C1119.18 76.8347 1119.66 76.68 1120.22 76.68H1120.3C1120.5 76.68 1120.66 76.7493 1120.79 76.888C1120.93 77.0267 1121 77.1973 1121 77.4C1121 77.6027 1120.93 77.768 1120.79 77.896C1120.65 78.024 1120.48 78.088 1120.26 78.088H1120.18C1119.66 78.088 1119.19 78.2213 1118.76 78.488C1118.33 78.744 1117.98 79.08 1117.7 79.496V84.36C1117.7 84.5627 1117.63 84.7333 1117.48 84.872C1117.34 85.0107 1117.17 85.08 1116.97 85.08ZM1125.74 85.16C1124.92 85.16 1124.2 84.984 1123.58 84.632C1122.96 84.2693 1122.48 83.7733 1122.14 83.144C1121.81 82.504 1121.64 81.7627 1121.64 80.92C1121.64 80.0773 1121.81 79.3413 1122.14 78.712C1122.48 78.072 1122.96 77.576 1123.58 77.224C1124.2 76.8613 1124.92 76.68 1125.74 76.68C1126.56 76.68 1127.28 76.8613 1127.88 77.224C1128.5 77.576 1128.98 78.072 1129.32 78.712C1129.66 79.3413 1129.84 80.0773 1129.84 80.92C1129.84 81.7627 1129.66 82.504 1129.32 83.144C1128.98 83.7733 1128.5 84.2693 1127.88 84.632C1127.28 84.984 1126.56 85.16 1125.74 85.16ZM1125.74 83.832C1126.14 83.832 1126.55 83.736 1126.96 83.544C1127.36 83.352 1127.7 83.0427 1127.96 82.616C1128.24 82.1787 1128.38 81.608 1128.38 80.904C1128.38 80.2 1128.24 79.6347 1127.96 79.208C1127.7 78.7813 1127.36 78.4773 1126.96 78.296C1126.55 78.104 1126.14 78.008 1125.74 78.008C1125.33 78.008 1124.92 78.104 1124.51 78.296C1124.1 78.4773 1123.77 78.7813 1123.5 79.208C1123.23 79.6347 1123.1 80.2 1123.1 80.904C1123.1 81.608 1123.23 82.1787 1123.5 82.616C1123.77 83.0427 1124.1 83.352 1124.51 83.544C1124.92 83.736 1125.33 83.832 1125.74 83.832ZM1132.59 85.08C1132.39 85.08 1132.22 85.0107 1132.08 84.872C1131.94 84.7333 1131.87 84.5627 1131.87 84.36V77.496C1131.87 77.2933 1131.94 77.1227 1132.08 76.984C1132.22 76.8347 1132.39 76.76 1132.59 76.76C1132.8 76.76 1132.97 76.8347 1133.11 76.984C1133.25 77.1227 1133.33 77.2933 1133.33 77.496V78.152C1133.48 77.9387 1133.67 77.72 1133.89 77.496C1134.12 77.272 1134.42 77.08 1134.77 76.92C1135.12 76.76 1135.55 76.68 1136.05 76.68C1136.69 76.68 1137.21 76.8507 1137.62 77.192C1138.03 77.5333 1138.33 77.912 1138.5 78.328C1138.63 78.1253 1138.81 77.896 1139.04 77.64C1139.28 77.384 1139.59 77.16 1139.97 76.968C1140.36 76.776 1140.85 76.68 1141.44 76.68C1142.07 76.68 1142.58 76.84 1142.98 77.16C1143.37 77.4693 1143.66 77.8587 1143.84 78.328C1144.02 78.7973 1144.11 79.272 1144.11 79.752V84.36C1144.11 84.5627 1144.04 84.7333 1143.89 84.872C1143.75 85.0107 1143.58 85.08 1143.38 85.08C1143.17 85.08 1143 85.0107 1142.87 84.872C1142.73 84.7333 1142.66 84.5627 1142.66 84.36V80.04C1142.66 79.368 1142.53 78.8667 1142.29 78.536C1142.05 78.1947 1141.63 78.024 1141.03 78.024C1140.62 78.024 1140.27 78.104 1139.99 78.264C1139.7 78.4133 1139.45 78.6053 1139.25 78.84C1139.05 79.0747 1138.87 79.3147 1138.72 79.56V84.36C1138.72 84.5627 1138.65 84.7333 1138.5 84.872C1138.36 85.0107 1138.19 85.08 1137.99 85.08C1137.78 85.08 1137.61 85.0107 1137.47 84.872C1137.33 84.7333 1137.27 84.5627 1137.27 84.36V80.04C1137.27 79.368 1137.14 78.8667 1136.9 78.536C1136.66 78.1947 1136.24 78.024 1135.63 78.024C1135.23 78.024 1134.88 78.104 1134.59 78.264C1134.31 78.4133 1134.06 78.6053 1133.86 78.84C1133.65 79.0747 1133.48 79.3147 1133.33 79.56V84.36C1133.33 84.5627 1133.25 84.7333 1133.11 84.872C1132.97 85.0107 1132.8 85.08 1132.59 85.08ZM1150.16 85.16C1149.34 85.16 1148.62 84.984 1148 84.632C1147.38 84.2693 1146.9 83.7733 1146.56 83.144C1146.23 82.504 1146.06 81.7627 1146.06 80.92C1146.06 80.0773 1146.23 79.3413 1146.56 78.712C1146.9 78.072 1147.38 77.576 1148 77.224C1148.62 76.8613 1149.34 76.68 1150.16 76.68C1150.98 76.68 1151.7 76.8613 1152.3 77.224C1152.92 77.576 1153.4 78.072 1153.74 78.712C1154.09 79.3413 1154.26 80.0773 1154.26 80.92C1154.26 81.7627 1154.09 82.504 1153.74 83.144C1153.4 83.7733 1152.92 84.2693 1152.3 84.632C1151.7 84.984 1150.98 85.16 1150.16 85.16ZM1150.16 83.832C1150.57 83.832 1150.97 83.736 1151.38 83.544C1151.78 83.352 1152.12 83.0427 1152.38 82.616C1152.66 82.1787 1152.8 81.608 1152.8 80.904C1152.8 80.2 1152.66 79.6347 1152.38 79.208C1152.12 78.7813 1151.78 78.4773 1151.38 78.296C1150.97 78.104 1150.57 78.008 1150.16 78.008C1149.76 78.008 1149.34 78.104 1148.93 78.296C1148.52 78.4773 1148.19 78.7813 1147.92 79.208C1147.65 79.6347 1147.52 80.2 1147.52 80.904C1147.52 81.608 1147.65 82.1787 1147.92 82.616C1148.19 83.0427 1148.52 83.352 1148.93 83.544C1149.34 83.736 1149.76 83.832 1150.16 83.832ZM1160.07 85.16C1159.31 85.16 1158.61 84.9947 1157.96 84.664C1157.31 84.3227 1156.79 83.8373 1156.39 83.208C1156 82.568 1155.8 81.8053 1155.8 80.92C1155.8 80.024 1156 79.2613 1156.39 78.632C1156.79 78.0027 1157.31 77.5227 1157.96 77.192C1158.61 76.8507 1159.31 76.68 1160.07 76.68C1160.7 76.68 1161.22 76.7653 1161.64 76.936C1162.07 77.096 1162.41 77.2667 1162.68 77.448C1162.89 77.5867 1163 77.7733 1163 78.008C1163 78.1573 1162.94 78.3013 1162.82 78.44C1162.71 78.5787 1162.56 78.648 1162.39 78.648C1162.27 78.648 1162.16 78.616 1162.04 78.552C1161.76 78.4027 1161.49 78.28 1161.22 78.184C1160.96 78.088 1160.62 78.04 1160.2 78.04C1159.27 78.04 1158.55 78.3067 1158.02 78.84C1157.51 79.3733 1157.26 80.0667 1157.26 80.92C1157.26 81.7733 1157.51 82.4667 1158.02 83C1158.55 83.5333 1159.27 83.8 1160.2 83.8C1160.62 83.8 1160.96 83.752 1161.22 83.656C1161.49 83.5493 1161.76 83.4267 1162.04 83.288C1162.16 83.224 1162.27 83.192 1162.39 83.192C1162.56 83.192 1162.71 83.2613 1162.82 83.4C1162.94 83.5387 1163 83.6827 1163 83.832C1163 84.0667 1162.89 84.2533 1162.68 84.392C1162.41 84.5627 1162.07 84.7333 1161.64 84.904C1161.22 85.0747 1160.7 85.16 1160.07 85.16ZM1165.59 75.176C1165.37 75.176 1165.18 75.096 1165.02 74.936C1164.86 74.776 1164.78 74.584 1164.78 74.36V74.296C1164.78 74.072 1164.86 73.88 1165.02 73.72C1165.18 73.56 1165.37 73.48 1165.59 73.48H1165.69C1165.91 73.48 1166.11 73.56 1166.27 73.72C1166.43 73.88 1166.51 74.072 1166.51 74.296V74.36C1166.51 74.584 1166.43 74.776 1166.27 74.936C1166.11 75.096 1165.91 75.176 1165.69 75.176H1165.59ZM1164.27 88.84C1163.88 88.84 1163.55 88.792 1163.26 88.696C1162.98 88.6107 1162.84 88.4187 1162.84 88.12C1162.84 87.96 1162.9 87.816 1163.02 87.688C1163.14 87.5707 1163.28 87.512 1163.45 87.512C1163.53 87.512 1163.6 87.5173 1163.67 87.528C1163.75 87.5493 1163.83 87.56 1163.93 87.56C1164.21 87.56 1164.44 87.5067 1164.62 87.4C1164.81 87.304 1164.91 87.0427 1164.91 86.616V77.512C1164.91 77.2987 1164.98 77.1227 1165.11 76.984C1165.25 76.8453 1165.42 76.776 1165.63 76.776C1165.84 76.776 1166.02 76.8453 1166.15 76.984C1166.29 77.1227 1166.36 77.2987 1166.36 77.512V86.648C1166.36 87.2667 1166.2 87.784 1165.88 88.2C1165.57 88.6267 1165.03 88.84 1164.27 88.84ZM1169.58 75.176C1169.35 75.176 1169.16 75.096 1169 74.936C1168.84 74.776 1168.76 74.584 1168.76 74.36V74.296C1168.76 74.072 1168.84 73.88 1169 73.72C1169.16 73.56 1169.35 73.48 1169.58 73.48H1169.67C1169.9 73.48 1170.09 73.56 1170.25 73.72C1170.41 73.88 1170.49 74.072 1170.49 74.296V74.36C1170.49 74.584 1170.41 74.776 1170.25 74.936C1170.09 75.096 1169.9 75.176 1169.67 75.176H1169.58ZM1169.61 85.08C1169.41 85.08 1169.24 85.0107 1169.1 84.872C1168.96 84.7333 1168.89 84.5627 1168.89 84.36V77.496C1168.89 77.2827 1168.96 77.1067 1169.1 76.968C1169.24 76.8293 1169.41 76.76 1169.61 76.76C1169.82 76.76 1170 76.8293 1170.14 76.968C1170.28 77.1067 1170.35 77.2827 1170.35 77.496V84.36C1170.35 84.5627 1170.28 84.7333 1170.14 84.872C1170 85.0107 1169.82 85.08 1169.61 85.08ZM1177.72 75.176C1177.49 75.176 1177.3 75.096 1177.14 74.936C1176.98 74.776 1176.9 74.584 1176.9 74.36V74.296C1176.9 74.072 1176.98 73.88 1177.14 73.72C1177.3 73.56 1177.49 73.48 1177.72 73.48H1177.81C1178.04 73.48 1178.23 73.56 1178.39 73.72C1178.55 73.88 1178.63 74.072 1178.63 74.296V74.36C1178.63 74.584 1178.55 74.776 1178.39 74.936C1178.23 75.096 1178.04 75.176 1177.81 75.176H1177.72ZM1177.75 85.08C1177.55 85.08 1177.38 85.0107 1177.24 84.872C1177.1 84.7333 1177.03 84.5627 1177.03 84.36V77.496C1177.03 77.2827 1177.1 77.1067 1177.24 76.968C1177.38 76.8293 1177.55 76.76 1177.75 76.76C1177.96 76.76 1178.14 76.8293 1178.28 76.968C1178.42 77.1067 1178.49 77.2827 1178.49 77.496V84.36C1178.49 84.5627 1178.42 84.7333 1178.28 84.872C1178.14 85.0107 1177.96 85.08 1177.75 85.08ZM1185.89 85.08C1185.69 85.08 1185.52 85.0107 1185.38 84.872C1185.24 84.7333 1185.17 84.5627 1185.17 84.36V73.976C1185.17 73.7733 1185.24 73.6027 1185.38 73.464C1185.52 73.3147 1185.69 73.24 1185.89 73.24C1186.09 73.24 1186.26 73.3147 1186.4 73.464C1186.55 73.6027 1186.63 73.7733 1186.63 73.976V80.52L1190.43 77C1190.5 76.9467 1190.57 76.8987 1190.64 76.856C1190.73 76.8133 1190.82 76.792 1190.91 76.792C1191.19 76.792 1191.38 76.872 1191.47 77.032C1191.57 77.1813 1191.62 77.336 1191.62 77.496C1191.62 77.56 1191.6 77.64 1191.57 77.736C1191.54 77.8213 1191.46 77.9227 1191.35 78.04L1189.04 80.104L1191.94 83.944C1192.04 84.0827 1192.1 84.2267 1192.1 84.376C1192.1 84.5893 1192.03 84.76 1191.89 84.888C1191.75 85.016 1191.58 85.08 1191.36 85.08C1191.14 85.08 1190.94 84.9787 1190.77 84.776L1188.02 81.032L1186.63 82.296V84.36C1186.63 84.5627 1186.55 84.7333 1186.4 84.872C1186.26 85.0107 1186.09 85.08 1185.89 85.08ZM1197.35 85.16C1196.53 85.16 1195.81 84.984 1195.19 84.632C1194.57 84.2693 1194.09 83.7733 1193.75 83.144C1193.42 82.504 1193.25 81.7627 1193.25 80.92C1193.25 80.0773 1193.42 79.3413 1193.75 78.712C1194.09 78.072 1194.57 77.576 1195.19 77.224C1195.81 76.8613 1196.53 76.68 1197.35 76.68C1198.17 76.68 1198.88 76.8613 1199.49 77.224C1200.11 77.576 1200.59 78.072 1200.93 78.712C1201.27 79.3413 1201.44 80.0773 1201.44 80.92C1201.44 81.7627 1201.27 82.504 1200.93 83.144C1200.59 83.7733 1200.11 84.2693 1199.49 84.632C1198.88 84.984 1198.17 85.16 1197.35 85.16ZM1197.35 83.832C1197.75 83.832 1198.16 83.736 1198.56 83.544C1198.97 83.352 1199.31 83.0427 1199.57 82.616C1199.85 82.1787 1199.99 81.608 1199.99 80.904C1199.99 80.2 1199.85 79.6347 1199.57 79.208C1199.31 78.7813 1198.97 78.4773 1198.56 78.296C1198.16 78.104 1197.75 78.008 1197.35 78.008C1196.94 78.008 1196.53 78.104 1196.12 78.296C1195.71 78.4773 1195.38 78.7813 1195.11 79.208C1194.84 79.6347 1194.71 80.2 1194.71 80.904C1194.71 81.608 1194.84 82.1787 1195.11 82.616C1195.38 83.0427 1195.71 83.352 1196.12 83.544C1196.53 83.736 1196.94 83.832 1197.35 83.832ZM1204.2 85.08C1204 85.08 1203.83 85.0107 1203.69 84.872C1203.55 84.7333 1203.48 84.5627 1203.48 84.36V77.496C1203.48 77.2933 1203.55 77.1227 1203.69 76.984C1203.83 76.8347 1204 76.76 1204.2 76.76C1204.41 76.76 1204.58 76.8347 1204.71 76.984C1204.86 77.1227 1204.94 77.2933 1204.94 77.496V78.184C1205.23 77.8 1205.58 77.4533 1205.99 77.144C1206.41 76.8347 1206.9 76.68 1207.45 76.68H1207.53C1207.73 76.68 1207.9 76.7493 1208.03 76.888C1208.17 77.0267 1208.23 77.1973 1208.23 77.4C1208.23 77.6027 1208.17 77.768 1208.03 77.896C1207.89 78.024 1207.71 78.088 1207.5 78.088H1207.42C1206.9 78.088 1206.42 78.2213 1205.99 78.488C1205.57 78.744 1205.22 79.08 1204.94 79.496V84.36C1204.94 84.5627 1204.86 84.7333 1204.71 84.872C1204.58 85.0107 1204.41 85.08 1204.2 85.08ZM1209.99 85C1209.71 85 1209.47 84.9307 1209.27 84.792C1209.08 84.6427 1208.98 84.4293 1208.98 84.152C1208.98 83.9067 1209.07 83.688 1209.24 83.496L1213.85 78.2H1209.8C1209.61 78.2 1209.45 78.136 1209.32 78.008C1209.19 77.88 1209.13 77.72 1209.13 77.528C1209.13 77.336 1209.19 77.176 1209.32 77.048C1209.45 76.9093 1209.61 76.84 1209.8 76.84H1214.65C1214.93 76.84 1215.15 76.9253 1215.32 77.096C1215.49 77.256 1215.58 77.4747 1215.58 77.752C1215.58 77.9973 1215.5 78.2107 1215.35 78.392L1210.87 83.64H1214.98C1215.18 83.64 1215.34 83.7093 1215.46 83.848C1215.6 83.976 1215.67 84.136 1215.67 84.328C1215.67 84.52 1215.6 84.68 1215.46 84.808C1215.34 84.936 1215.18 85 1214.98 85H1209.99ZM1219.4 88.76C1219.21 88.76 1219.04 88.6907 1218.9 88.552C1218.78 88.4133 1218.71 88.248 1218.71 88.056C1218.71 87.96 1218.73 87.8747 1218.76 87.8L1219.8 85.128L1216.79 77.8C1216.78 77.7573 1216.77 77.7093 1216.74 77.656C1216.73 77.6027 1216.73 77.5493 1216.73 77.496C1216.73 77.2933 1216.8 77.1227 1216.94 76.984C1217.08 76.8347 1217.25 76.76 1217.45 76.76C1217.6 76.76 1217.73 76.8027 1217.85 76.888C1217.98 76.9733 1218.07 77.08 1218.12 77.208L1220.58 83.32L1223.1 77.24C1223.16 77.0907 1223.25 76.9733 1223.35 76.888C1223.47 76.8027 1223.61 76.76 1223.77 76.76C1223.97 76.76 1224.14 76.8347 1224.28 76.984C1224.42 77.1227 1224.49 77.2933 1224.49 77.496C1224.49 77.592 1224.47 77.6827 1224.44 77.768L1220.07 88.264C1220.01 88.4027 1219.92 88.52 1219.82 88.616C1219.71 88.712 1219.57 88.76 1219.4 88.76ZM1228.81 85.16C1228.22 85.16 1227.69 85.096 1227.21 84.968C1226.74 84.84 1226.3 84.664 1225.9 84.44C1225.72 84.312 1225.63 84.136 1225.63 83.912C1225.63 83.752 1225.68 83.608 1225.8 83.48C1225.92 83.3413 1226.07 83.272 1226.25 83.272C1226.35 83.272 1226.44 83.2933 1226.54 83.336C1226.83 83.464 1227.14 83.576 1227.48 83.672C1227.83 83.768 1228.24 83.816 1228.71 83.816C1229.33 83.816 1229.78 83.72 1230.06 83.528C1230.35 83.3253 1230.49 83.0427 1230.49 82.68C1230.49 82.4453 1230.37 82.264 1230.14 82.136C1229.91 82.008 1229.62 81.9013 1229.24 81.816C1228.88 81.72 1228.5 81.624 1228.09 81.528C1227.68 81.4213 1227.3 81.2827 1226.92 81.112C1226.56 80.9307 1226.26 80.6907 1226.03 80.392C1225.8 80.0827 1225.69 79.688 1225.69 79.208C1225.69 78.4827 1225.95 77.88 1226.47 77.4C1227 76.92 1227.78 76.68 1228.81 76.68C1229.25 76.68 1229.66 76.7173 1230.04 76.792C1230.44 76.8667 1230.8 76.9627 1231.13 77.08C1231.28 77.1227 1231.39 77.208 1231.47 77.336C1231.55 77.4533 1231.59 77.5707 1231.59 77.688C1231.59 77.8587 1231.53 78.008 1231.4 78.136C1231.28 78.264 1231.14 78.328 1230.95 78.328C1230.91 78.328 1230.87 78.328 1230.84 78.328C1230.81 78.3173 1230.78 78.3067 1230.75 78.296C1230.49 78.2107 1230.21 78.1413 1229.9 78.088C1229.6 78.0347 1229.27 78.008 1228.92 78.008C1228.34 78.008 1227.88 78.1147 1227.56 78.328C1227.24 78.5413 1227.08 78.808 1227.08 79.128C1227.08 79.4053 1227.19 79.6187 1227.42 79.768C1227.65 79.9173 1227.95 80.04 1228.31 80.136C1228.69 80.2213 1229.08 80.312 1229.48 80.408C1229.9 80.504 1230.29 80.6427 1230.65 80.824C1231.02 80.9947 1231.32 81.2347 1231.55 81.544C1231.78 81.8533 1231.9 82.2693 1231.9 82.792C1231.9 83.4427 1231.64 84.0027 1231.11 84.472C1230.6 84.9307 1229.83 85.16 1228.81 85.16ZM1236.61 85.16C1236.42 85.16 1236.19 85.1387 1235.92 85.096C1235.67 85.064 1235.41 84.984 1235.16 84.856C1234.91 84.7173 1234.7 84.504 1234.53 84.216C1234.36 83.928 1234.28 83.5387 1234.28 83.048V78.088H1233.14C1232.94 78.088 1232.84 77.9867 1232.84 77.784C1232.84 77.6773 1232.88 77.5867 1232.98 77.512L1235.16 75.384C1235.18 75.3627 1235.21 75.336 1235.25 75.304C1235.3 75.2613 1235.36 75.24 1235.43 75.24C1235.51 75.24 1235.58 75.272 1235.64 75.336C1235.7 75.4 1235.73 75.4747 1235.73 75.56V76.84H1237.54C1237.72 76.84 1237.87 76.8987 1237.99 77.016C1238.1 77.1333 1238.16 77.2827 1238.16 77.464C1238.16 77.6347 1238.1 77.784 1237.99 77.912C1237.87 78.0293 1237.72 78.088 1237.54 78.088H1235.73V82.92C1235.73 83.2293 1235.79 83.4533 1235.91 83.592C1236.02 83.7307 1236.16 83.816 1236.32 83.848C1236.49 83.8693 1236.64 83.88 1236.77 83.88C1237.03 83.88 1237.21 83.8587 1237.33 83.816C1237.46 83.7627 1237.59 83.736 1237.73 83.736C1237.88 83.736 1238.01 83.7893 1238.13 83.896C1238.25 84.0027 1238.31 84.1413 1238.31 84.312C1238.31 84.5573 1238.18 84.744 1237.94 84.872C1237.75 84.9573 1237.54 85.0267 1237.32 85.08C1237.1 85.1333 1236.87 85.16 1236.61 85.16ZM1240.62 85.08C1240.42 85.08 1240.25 85.0107 1240.11 84.872C1239.97 84.7333 1239.9 84.5627 1239.9 84.36V77.496C1239.9 77.2827 1239.97 77.1067 1240.11 76.968C1240.25 76.8293 1240.42 76.76 1240.62 76.76C1240.83 76.76 1241 76.8293 1241.14 76.968C1241.29 77.1067 1241.36 77.2827 1241.36 77.496V78.152C1241.7 77.7787 1242.1 77.4427 1242.56 77.144C1243.03 76.8347 1243.62 76.68 1244.34 76.68C1244.94 76.68 1245.46 76.824 1245.89 77.112C1246.32 77.3893 1246.64 77.768 1246.86 78.248C1247.09 78.7173 1247.2 79.24 1247.2 79.816V84.36C1247.2 84.5627 1247.13 84.7333 1246.98 84.872C1246.84 85.0107 1246.67 85.08 1246.46 85.08C1246.26 85.08 1246.09 85.0107 1245.95 84.872C1245.81 84.7333 1245.74 84.5627 1245.74 84.36V79.976C1245.74 79.368 1245.61 78.8933 1245.33 78.552C1245.06 78.2 1244.61 78.024 1243.98 78.024C1243.41 78.024 1242.91 78.1787 1242.48 78.488C1242.05 78.7973 1241.68 79.1547 1241.36 79.56V84.36C1241.36 84.5627 1241.29 84.7333 1241.14 84.872C1241 85.0107 1240.83 85.08 1240.62 85.08ZM1253.3 85.16C1252 85.16 1250.98 84.792 1250.25 84.056C1249.52 83.3093 1249.16 82.264 1249.16 80.92C1249.16 80.1947 1249.29 79.512 1249.56 78.872C1249.83 78.2213 1250.24 77.6933 1250.81 77.288C1251.37 76.8827 1252.1 76.68 1252.98 76.68C1253.8 76.68 1254.5 76.872 1255.06 77.256C1255.63 77.6293 1256.05 78.12 1256.34 78.728C1256.64 79.336 1256.79 79.9973 1256.79 80.712C1256.79 80.9147 1256.72 81.0853 1256.58 81.224C1256.45 81.3627 1256.28 81.432 1256.05 81.432H1250.63C1250.72 82.1467 1250.99 82.7227 1251.45 83.16C1251.91 83.5867 1252.57 83.8 1253.43 83.8C1253.91 83.8 1254.32 83.7573 1254.65 83.672C1254.98 83.576 1255.29 83.4533 1255.59 83.304C1255.68 83.2613 1255.77 83.24 1255.88 83.24C1256.05 83.24 1256.2 83.2987 1256.33 83.416C1256.45 83.5333 1256.52 83.6827 1256.52 83.864C1256.52 83.992 1256.48 84.1093 1256.39 84.216C1256.32 84.312 1256.22 84.392 1256.1 84.456C1255.75 84.6587 1255.37 84.8293 1254.95 84.968C1254.55 85.096 1254 85.16 1253.3 85.16ZM1250.63 80.248H1255.35C1255.32 79.6933 1255.17 79.2453 1254.92 78.904C1254.67 78.5627 1254.37 78.312 1254.02 78.152C1253.67 77.992 1253.32 77.912 1252.98 77.912C1252.64 77.912 1252.29 77.992 1251.94 78.152C1251.59 78.312 1251.29 78.5627 1251.05 78.904C1250.8 79.2453 1250.66 79.6933 1250.63 80.248ZM1266.65 85.16C1265.89 85.16 1265.19 84.9947 1264.54 84.664C1263.89 84.3227 1263.36 83.8373 1262.97 83.208C1262.57 82.568 1262.38 81.8053 1262.38 80.92C1262.38 80.024 1262.57 79.2613 1262.97 78.632C1263.36 78.0027 1263.89 77.5227 1264.54 77.192C1265.19 76.8507 1265.89 76.68 1266.65 76.68C1267.28 76.68 1267.8 76.7653 1268.22 76.936C1268.64 77.096 1268.99 77.2667 1269.26 77.448C1269.47 77.5867 1269.58 77.7733 1269.58 78.008C1269.58 78.1573 1269.52 78.3013 1269.4 78.44C1269.28 78.5787 1269.14 78.648 1268.97 78.648C1268.85 78.648 1268.73 78.616 1268.62 78.552C1268.34 78.4027 1268.07 78.28 1267.8 78.184C1267.53 78.088 1267.19 78.04 1266.78 78.04C1265.85 78.04 1265.12 78.3067 1264.6 78.84C1264.09 79.3733 1263.83 80.0667 1263.83 80.92C1263.83 81.7733 1264.09 82.4667 1264.6 83C1265.12 83.5333 1265.85 83.8 1266.78 83.8C1267.19 83.8 1267.53 83.752 1267.8 83.656C1268.07 83.5493 1268.34 83.4267 1268.62 83.288C1268.73 83.224 1268.85 83.192 1268.97 83.192C1269.14 83.192 1269.28 83.2613 1269.4 83.4C1269.52 83.5387 1269.58 83.6827 1269.58 83.832C1269.58 84.0667 1269.47 84.2533 1269.26 84.392C1268.99 84.5627 1268.64 84.7333 1268.22 84.904C1267.8 85.0747 1267.28 85.16 1266.65 85.16ZM1274.99 85.16C1273.69 85.16 1272.67 84.792 1271.93 84.056C1271.21 83.3093 1270.85 82.264 1270.85 80.92C1270.85 80.1947 1270.98 79.512 1271.25 78.872C1271.51 78.2213 1271.93 77.6933 1272.49 77.288C1273.06 76.8827 1273.78 76.68 1274.67 76.68C1275.49 76.68 1276.18 76.872 1276.75 77.256C1277.32 77.6293 1277.74 78.12 1278.03 78.728C1278.33 79.336 1278.48 79.9973 1278.48 80.712C1278.48 80.9147 1278.41 81.0853 1278.27 81.224C1278.14 81.3627 1277.97 81.432 1277.74 81.432H1272.32C1272.4 82.1467 1272.68 82.7227 1273.13 83.16C1273.59 83.5867 1274.25 83.8 1275.12 83.8C1275.6 83.8 1276 83.7573 1276.33 83.672C1276.66 83.576 1276.98 83.4533 1277.28 83.304C1277.36 83.2613 1277.46 83.24 1277.57 83.24C1277.74 83.24 1277.89 83.2987 1278.01 83.416C1278.14 83.5333 1278.21 83.6827 1278.21 83.864C1278.21 83.992 1278.16 84.1093 1278.08 84.216C1278 84.312 1277.91 84.392 1277.79 84.456C1277.44 84.6587 1277.05 84.8293 1276.64 84.968C1276.23 85.096 1275.68 85.16 1274.99 85.16ZM1272.32 80.248H1277.04C1277.01 79.6933 1276.86 79.2453 1276.61 78.904C1276.36 78.5627 1276.06 78.312 1275.71 78.152C1275.36 77.992 1275.01 77.912 1274.67 77.912C1274.33 77.912 1273.98 77.992 1273.63 78.152C1273.28 78.312 1272.98 78.5627 1272.73 78.904C1272.49 79.2453 1272.35 79.6933 1272.32 80.248ZM1281.12 85.08C1280.92 85.08 1280.75 85.0107 1280.61 84.872C1280.47 84.7333 1280.4 84.5627 1280.4 84.36V77.496C1280.4 77.2827 1280.47 77.1067 1280.61 76.968C1280.75 76.8293 1280.92 76.76 1281.12 76.76C1281.33 76.76 1281.5 76.8293 1281.64 76.968C1281.79 77.1067 1281.86 77.2827 1281.86 77.496V78.152C1282.2 77.7787 1282.6 77.4427 1283.06 77.144C1283.53 76.8347 1284.12 76.68 1284.84 76.68C1285.44 76.68 1285.96 76.824 1286.39 77.112C1286.82 77.3893 1287.14 77.768 1287.36 78.248C1287.59 78.7173 1287.7 79.24 1287.7 79.816V84.36C1287.7 84.5627 1287.63 84.7333 1287.48 84.872C1287.34 85.0107 1287.17 85.08 1286.96 85.08C1286.76 85.08 1286.59 85.0107 1286.45 84.872C1286.31 84.7333 1286.24 84.5627 1286.24 84.36V79.976C1286.24 79.368 1286.11 78.8933 1285.83 78.552C1285.56 78.2 1285.11 78.024 1284.48 78.024C1283.91 78.024 1283.41 78.1787 1282.98 78.488C1282.55 78.7973 1282.18 79.1547 1281.86 79.56V84.36C1281.86 84.5627 1281.79 84.7333 1281.64 84.872C1281.5 85.0107 1281.33 85.08 1281.12 85.08ZM1291.84 88.76C1291.65 88.76 1291.48 88.6907 1291.34 88.552C1291.21 88.4133 1291.15 88.248 1291.15 88.056C1291.15 87.96 1291.17 87.8747 1291.2 87.8L1292.24 85.128L1289.23 77.8C1289.22 77.7573 1289.2 77.7093 1289.18 77.656C1289.17 77.6027 1289.17 77.5493 1289.17 77.496C1289.17 77.2933 1289.24 77.1227 1289.37 76.984C1289.51 76.8347 1289.68 76.76 1289.89 76.76C1290.04 76.76 1290.17 76.8027 1290.29 76.888C1290.41 76.9733 1290.5 77.08 1290.56 77.208L1293.02 83.32L1295.53 77.24C1295.6 77.0907 1295.68 76.9733 1295.79 76.888C1295.91 76.8027 1296.05 76.76 1296.21 76.76C1296.41 76.76 1296.58 76.8347 1296.72 76.984C1296.86 77.1227 1296.93 77.2933 1296.93 77.496C1296.93 77.592 1296.91 77.6827 1296.88 77.768L1292.51 88.264C1292.45 88.4027 1292.36 88.52 1292.25 88.616C1292.15 88.712 1292.01 88.76 1291.84 88.76Z" fill="#F9F9F9"/>
<g clip-path="url(#clip0_116_261)">
<path d="M192.018 79.9972L188.605 75.0065L189.064 68.9811L183.614 66.364L180.997 60.914L174.971 61.3732L169.981 57.9649L164.99 61.3732L158.964 60.914L156.347 66.364L150.897 68.9811L151.357 75.0065L147.948 79.9972L151.357 84.988L150.897 91.0134L156.347 93.6305L158.964 99.0805L164.99 98.6213L169.981 102.03L174.971 98.6213L180.997 99.0805L183.614 93.6305L189.064 91.0134L188.605 84.988L192.018 79.9972ZM163.883 86.3436C163.883 87.5608 162.898 88.5457 161.681 88.5457C160.464 88.5457 159.479 87.5608 159.479 86.3436V76.9541C159.479 75.7368 160.464 74.752 161.681 74.752C162.898 74.752 163.883 75.7368 163.883 76.9541V86.3436ZM179.414 86.1886C179.414 87.9094 178.413 88.5236 176.687 88.5236H168.769C167.048 88.5236 165.654 87.1293 165.654 85.4085V77.6181C165.654 77.6181 165.499 76.3233 166.932 75.1061C167.745 74.4145 168.946 73.1031 169.787 71.5041C171.458 68.3337 172.459 67.4152 173.223 67.6587C176.039 68.5716 174.628 72.7546 173.721 74.4975H176.294C178.014 74.4975 179.409 75.8918 179.409 77.6125V86.1831L179.414 86.1886Z" fill="white"/>
<path d="M169.997 48C152.325 48 138 62.3249 138 79.9972C138 97.6696 152.325 112 169.997 112C187.67 112 201.994 97.6696 201.994 79.9972C201.994 62.3249 187.67 48 169.997 48ZM185.766 95.9046L182.712 102.262L175.68 101.725L169.859 105.703L164.038 101.725L157.006 102.262L153.952 95.9046L147.594 92.8559L148.131 85.8235L144.147 80.0028L148.125 74.1821L147.589 67.1497L153.946 64.0954L157 57.738L164.033 58.2747L169.853 54.2965L175.674 58.2747L182.706 57.738L185.761 64.0954L192.118 67.1497L191.581 74.1821L195.56 80.0028L191.581 85.8235L192.118 92.8559L185.761 95.9046H185.766Z" fill="white"/>
</g>
<path d="M632.272 85C632.069 85 631.899 84.9307 631.76 84.792C631.621 84.6533 631.552 84.4827 631.552 84.28V74.568C631.552 74.3653 631.621 74.1947 631.76 74.056C631.899 73.9067 632.069 73.832 632.272 73.832H635.488C636.448 73.832 637.28 73.9973 637.984 74.328C638.688 74.648 639.275 75.08 639.744 75.624C640.213 76.1573 640.56 76.7547 640.784 77.416C641.019 78.0773 641.136 78.744 641.136 79.416C641.136 80.088 641.019 80.7547 640.784 81.416C640.56 82.0773 640.213 82.68 639.744 83.224C639.275 83.7573 638.688 84.1893 637.984 84.52C637.28 84.84 636.448 85 635.488 85H632.272ZM633.008 83.64H635.312C636.208 83.64 636.981 83.464 637.632 83.112C638.293 82.7493 638.8 82.2533 639.152 81.624C639.515 80.984 639.696 80.248 639.696 79.416C639.696 78.584 639.515 77.8533 639.152 77.224C638.8 76.584 638.293 76.088 637.632 75.736C636.981 75.3733 636.208 75.192 635.312 75.192H633.008V83.64ZM645.203 85.16C644.745 85.16 644.313 85.064 643.907 84.872C643.513 84.68 643.193 84.408 642.947 84.056C642.713 83.6933 642.595 83.2613 642.595 82.76C642.595 82.0027 642.894 81.384 643.491 80.904C644.099 80.4133 645.027 80.168 646.275 80.168H648.211V80.04C648.211 79.3253 648.035 78.8187 647.683 78.52C647.331 78.2107 646.793 78.056 646.067 78.056C645.619 78.056 645.225 78.0987 644.883 78.184C644.553 78.2587 644.238 78.344 643.939 78.44C643.854 78.4613 643.785 78.472 643.731 78.472C643.571 78.472 643.433 78.4133 643.315 78.296C643.198 78.1787 643.139 78.0347 643.139 77.864C643.139 77.576 643.278 77.3733 643.555 77.256C643.929 77.096 644.339 76.9627 644.787 76.856C645.246 76.7387 645.758 76.68 646.323 76.68C647.102 76.68 647.737 76.8347 648.227 77.144C648.718 77.4533 649.081 77.848 649.315 78.328C649.55 78.808 649.667 79.3093 649.667 79.832V84.36C649.667 84.5627 649.593 84.7333 649.443 84.872C649.305 85.0107 649.134 85.08 648.931 85.08C648.729 85.08 648.558 85.0107 648.419 84.872C648.281 84.7333 648.211 84.5627 648.211 84.36V83.944C647.923 84.2427 647.539 84.52 647.059 84.776C646.579 85.032 645.961 85.16 645.203 85.16ZM645.747 83.88C646.249 83.88 646.718 83.7573 647.155 83.512C647.593 83.2667 647.945 82.9893 648.211 82.68V81.336H646.467C645.721 81.336 645.129 81.432 644.691 81.624C644.265 81.816 644.051 82.1413 644.051 82.6C644.051 82.9413 644.169 83.24 644.403 83.496C644.649 83.752 645.097 83.88 645.747 83.88ZM652.828 85.08C652.625 85.08 652.454 85.0107 652.316 84.872C652.177 84.7333 652.108 84.5627 652.108 84.36V77.496C652.108 77.2933 652.177 77.1227 652.316 76.984C652.454 76.8347 652.625 76.76 652.828 76.76C653.03 76.76 653.201 76.8347 653.34 76.984C653.489 77.1227 653.564 77.2933 653.564 77.496V78.184C653.852 77.8 654.204 77.4533 654.62 77.144C655.036 76.8347 655.521 76.68 656.076 76.68H656.156C656.358 76.68 656.524 76.7493 656.652 76.888C656.79 77.0267 656.86 77.1973 656.86 77.4C656.86 77.6027 656.79 77.768 656.652 77.896C656.513 78.024 656.337 78.088 656.124 78.088H656.044C655.521 78.088 655.046 78.2213 654.62 78.488C654.193 78.744 653.841 79.08 653.564 79.496V84.36C653.564 84.5627 653.489 84.7333 653.34 84.872C653.201 85.0107 653.03 85.08 652.828 85.08ZM658.953 85.08C658.75 85.08 658.579 85.0107 658.441 84.872C658.302 84.7333 658.233 84.5627 658.233 84.36V77.496C658.233 77.2933 658.302 77.1227 658.441 76.984C658.579 76.8347 658.75 76.76 658.953 76.76C659.155 76.76 659.326 76.8347 659.465 76.984C659.614 77.1227 659.689 77.2933 659.689 77.496V78.152C659.838 77.9387 660.025 77.72 660.249 77.496C660.483 77.272 660.777 77.08 661.129 76.92C661.481 76.76 661.907 76.68 662.409 76.68C663.049 76.68 663.571 76.8507 663.977 77.192C664.393 77.5333 664.686 77.912 664.857 78.328C664.985 78.1253 665.166 77.896 665.401 77.64C665.635 77.384 665.945 77.16 666.329 76.968C666.723 76.776 667.214 76.68 667.801 76.68C668.43 76.68 668.942 76.84 669.337 77.16C669.731 77.4693 670.019 77.8587 670.201 78.328C670.382 78.7973 670.473 79.272 670.473 79.752V84.36C670.473 84.5627 670.398 84.7333 670.249 84.872C670.11 85.0107 669.939 85.08 669.737 85.08C669.534 85.08 669.363 85.0107 669.225 84.872C669.086 84.7333 669.017 84.5627 669.017 84.36V80.04C669.017 79.368 668.894 78.8667 668.649 78.536C668.414 78.1947 667.993 78.024 667.385 78.024C666.979 78.024 666.633 78.104 666.345 78.264C666.057 78.4133 665.811 78.6053 665.609 78.84C665.406 79.0747 665.23 79.3147 665.081 79.56V84.36C665.081 84.5627 665.006 84.7333 664.857 84.872C664.718 85.0107 664.547 85.08 664.345 85.08C664.142 85.08 663.971 85.0107 663.833 84.872C663.694 84.7333 663.625 84.5627 663.625 84.36V80.04C663.625 79.368 663.502 78.8667 663.257 78.536C663.022 78.1947 662.601 78.024 661.993 78.024C661.587 78.024 661.241 78.104 660.953 78.264C660.665 78.4133 660.419 78.6053 660.217 78.84C660.014 79.0747 659.838 79.3147 659.689 79.56V84.36C659.689 84.5627 659.614 84.7333 659.465 84.872C659.326 85.0107 659.155 85.08 658.953 85.08ZM676.52 85.16C675.699 85.16 674.979 84.984 674.36 84.632C673.742 84.2693 673.262 83.7733 672.92 83.144C672.59 82.504 672.424 81.7627 672.424 80.92C672.424 80.0773 672.59 79.3413 672.92 78.712C673.262 78.072 673.742 77.576 674.36 77.224C674.979 76.8613 675.699 76.68 676.52 76.68C677.342 76.68 678.056 76.8613 678.664 77.224C679.283 77.576 679.763 78.072 680.104 78.712C680.446 79.3413 680.616 80.0773 680.616 80.92C680.616 81.7627 680.446 82.504 680.104 83.144C679.763 83.7733 679.283 84.2693 678.664 84.632C678.056 84.984 677.342 85.16 676.52 85.16ZM676.52 83.832C676.926 83.832 677.331 83.736 677.736 83.544C678.142 83.352 678.478 83.0427 678.744 82.616C679.022 82.1787 679.16 81.608 679.16 80.904C679.16 80.2 679.022 79.6347 678.744 79.208C678.478 78.7813 678.142 78.4773 677.736 78.296C677.331 78.104 676.926 78.008 676.52 78.008C676.115 78.008 675.704 78.104 675.288 78.296C674.883 78.4773 674.547 78.7813 674.28 79.208C674.014 79.6347 673.88 80.2 673.88 80.904C673.88 81.608 674.014 82.1787 674.28 82.616C674.547 83.0427 674.883 83.352 675.288 83.544C675.704 83.736 676.115 83.832 676.52 83.832ZM684.977 85.08C684.764 85.08 684.572 85.016 684.401 84.888C684.231 84.7493 684.113 84.5893 684.049 84.408L681.777 77.752C681.745 77.656 681.729 77.5653 681.729 77.48C681.729 77.2773 681.799 77.1067 681.937 76.968C682.076 76.8293 682.247 76.76 682.449 76.76C682.599 76.76 682.732 76.7973 682.849 76.872C682.977 76.9467 683.063 77.0533 683.105 77.192L684.977 83.352L686.833 77.336C686.887 77.1653 686.983 77.0267 687.121 76.92C687.271 76.8133 687.436 76.76 687.617 76.76C687.799 76.76 687.964 76.8133 688.113 76.92C688.263 77.0267 688.359 77.1653 688.401 77.336L690.257 83.352L692.129 77.192C692.172 77.0533 692.257 76.9467 692.385 76.872C692.513 76.7973 692.647 76.76 692.785 76.76C692.988 76.76 693.159 76.8293 693.297 76.968C693.436 77.1067 693.505 77.2773 693.505 77.48C693.505 77.5653 693.489 77.656 693.457 77.752L691.185 84.408C691.121 84.5893 691.004 84.7493 690.833 84.888C690.663 85.016 690.471 85.08 690.257 85.08C690.044 85.08 689.852 85.016 689.681 84.888C689.511 84.7493 689.388 84.584 689.313 84.392L687.617 79.096L685.921 84.392C685.847 84.584 685.724 84.7493 685.553 84.888C685.383 85.016 685.191 85.08 684.977 85.08ZM697.203 85.16C696.745 85.16 696.313 85.064 695.907 84.872C695.513 84.68 695.193 84.408 694.947 84.056C694.713 83.6933 694.595 83.2613 694.595 82.76C694.595 82.0027 694.894 81.384 695.491 80.904C696.099 80.4133 697.027 80.168 698.275 80.168H700.211V80.04C700.211 79.3253 700.035 78.8187 699.683 78.52C699.331 78.2107 698.793 78.056 698.067 78.056C697.619 78.056 697.225 78.0987 696.883 78.184C696.553 78.2587 696.238 78.344 695.939 78.44C695.854 78.4613 695.785 78.472 695.731 78.472C695.571 78.472 695.433 78.4133 695.315 78.296C695.198 78.1787 695.139 78.0347 695.139 77.864C695.139 77.576 695.278 77.3733 695.555 77.256C695.929 77.096 696.339 76.9627 696.787 76.856C697.246 76.7387 697.758 76.68 698.323 76.68C699.102 76.68 699.737 76.8347 700.227 77.144C700.718 77.4533 701.081 77.848 701.315 78.328C701.55 78.808 701.667 79.3093 701.667 79.832V84.36C701.667 84.5627 701.593 84.7333 701.443 84.872C701.305 85.0107 701.134 85.08 700.931 85.08C700.729 85.08 700.558 85.0107 700.419 84.872C700.281 84.7333 700.211 84.5627 700.211 84.36V83.944C699.923 84.2427 699.539 84.52 699.059 84.776C698.579 85.032 697.961 85.16 697.203 85.16ZM697.747 83.88C698.249 83.88 698.718 83.7573 699.155 83.512C699.593 83.2667 699.945 82.9893 700.211 82.68V81.336H698.467C697.721 81.336 697.129 81.432 696.691 81.624C696.265 81.816 696.051 82.1413 696.051 82.6C696.051 82.9413 696.169 83.24 696.403 83.496C696.649 83.752 697.097 83.88 697.747 83.88ZM711.64 85.16C711 85.16 710.381 84.9947 709.784 84.664C709.197 84.3333 708.712 83.8533 708.328 83.224C707.955 82.5947 707.768 81.8267 707.768 80.92C707.768 80.0133 707.955 79.2453 708.328 78.616C708.712 77.9867 709.197 77.5067 709.784 77.176C710.381 76.8453 711 76.68 711.64 76.68C712.205 76.68 712.712 76.7867 713.16 77C713.608 77.2133 714.013 77.512 714.376 77.896V73.976C714.376 73.7627 714.445 73.5867 714.584 73.448C714.733 73.3093 714.909 73.24 715.112 73.24C715.315 73.24 715.485 73.3093 715.624 73.448C715.763 73.5867 715.832 73.7627 715.832 73.976V84.36C715.832 84.5627 715.763 84.7333 715.624 84.872C715.485 85.0107 715.315 85.08 715.112 85.08C714.909 85.08 714.733 85.0107 714.584 84.872C714.445 84.7333 714.376 84.5627 714.376 84.36V83.944C714.013 84.328 713.608 84.6267 713.16 84.84C712.712 85.0533 712.205 85.16 711.64 85.16ZM711.848 83.8C712.371 83.8 712.845 83.688 713.272 83.464C713.699 83.2293 714.067 82.9413 714.376 82.6V79.24C714.067 78.8987 713.699 78.616 713.272 78.392C712.845 78.1573 712.371 78.04 711.848 78.04C711.091 78.04 710.461 78.2853 709.96 78.776C709.469 79.256 709.224 79.9707 709.224 80.92C709.224 81.8587 709.469 82.5733 709.96 83.064C710.461 83.5547 711.091 83.8 711.848 83.8ZM721.958 85.16C721.136 85.16 720.416 84.984 719.798 84.632C719.179 84.2693 718.699 83.7733 718.358 83.144C718.027 82.504 717.862 81.7627 717.862 80.92C717.862 80.0773 718.027 79.3413 718.358 78.712C718.699 78.072 719.179 77.576 719.798 77.224C720.416 76.8613 721.136 76.68 721.958 76.68C722.779 76.68 723.494 76.8613 724.102 77.224C724.72 77.576 725.2 78.072 725.542 78.712C725.883 79.3413 726.054 80.0773 726.054 80.92C726.054 81.7627 725.883 82.504 725.542 83.144C725.2 83.7733 724.72 84.2693 724.102 84.632C723.494 84.984 722.779 85.16 721.958 85.16ZM721.958 83.832C722.363 83.832 722.768 83.736 723.174 83.544C723.579 83.352 723.915 83.0427 724.182 82.616C724.459 82.1787 724.598 81.608 724.598 80.904C724.598 80.2 724.459 79.6347 724.182 79.208C723.915 78.7813 723.579 78.4773 723.174 78.296C722.768 78.104 722.363 78.008 721.958 78.008C721.552 78.008 721.142 78.104 720.726 78.296C720.32 78.4773 719.984 78.7813 719.718 79.208C719.451 79.6347 719.318 80.2 719.318 80.904C719.318 81.608 719.451 82.1787 719.718 82.616C719.984 83.0427 720.32 83.352 720.726 83.544C721.142 83.736 721.552 83.832 721.958 83.832ZM730.732 85.16C730.145 85.16 729.612 85.096 729.132 84.968C728.663 84.84 728.225 84.664 727.82 84.44C727.639 84.312 727.548 84.136 727.548 83.912C727.548 83.752 727.607 83.608 727.724 83.48C727.841 83.3413 727.991 83.272 728.172 83.272C728.268 83.272 728.364 83.2933 728.46 83.336C728.748 83.464 729.063 83.576 729.404 83.672C729.756 83.768 730.167 83.816 730.636 83.816C731.255 83.816 731.703 83.72 731.98 83.528C732.268 83.3253 732.412 83.0427 732.412 82.68C732.412 82.4453 732.295 82.264 732.06 82.136C731.836 82.008 731.537 81.9013 731.164 81.816C730.801 81.72 730.417 81.624 730.012 81.528C729.607 81.4213 729.217 81.2827 728.844 81.112C728.481 80.9307 728.183 80.6907 727.948 80.392C727.724 80.0827 727.612 79.688 727.612 79.208C727.612 78.4827 727.873 77.88 728.396 77.4C728.919 76.92 729.697 76.68 730.732 76.68C731.169 76.68 731.58 76.7173 731.964 76.792C732.359 76.8667 732.721 76.9627 733.052 77.08C733.201 77.1227 733.313 77.208 733.388 77.336C733.473 77.4533 733.516 77.5707 733.516 77.688C733.516 77.8587 733.452 78.008 733.324 78.136C733.207 78.264 733.057 78.328 732.876 78.328C732.833 78.328 732.796 78.328 732.764 78.328C732.732 78.3173 732.7 78.3067 732.668 78.296C732.412 78.2107 732.129 78.1413 731.82 78.088C731.521 78.0347 731.196 78.008 730.844 78.008C730.257 78.008 729.804 78.1147 729.484 78.328C729.164 78.5413 729.004 78.808 729.004 79.128C729.004 79.4053 729.116 79.6187 729.34 79.768C729.575 79.9173 729.873 80.04 730.236 80.136C730.609 80.2213 730.999 80.312 731.404 80.408C731.82 80.504 732.209 80.6427 732.572 80.824C732.945 80.9947 733.244 81.2347 733.468 81.544C733.703 81.8533 733.82 82.2693 733.82 82.792C733.82 83.4427 733.559 84.0027 733.036 84.472C732.524 84.9307 731.756 85.16 730.732 85.16ZM738.533 85.16C738.341 85.16 738.112 85.1387 737.845 85.096C737.589 85.064 737.333 84.984 737.077 84.856C736.832 84.7173 736.624 84.504 736.453 84.216C736.282 83.928 736.197 83.5387 736.197 83.048V78.088H735.061C734.858 78.088 734.757 77.9867 734.757 77.784C734.757 77.6773 734.805 77.5867 734.901 77.512L737.077 75.384C737.098 75.3627 737.13 75.336 737.173 75.304C737.226 75.2613 737.285 75.24 737.349 75.24C737.434 75.24 737.504 75.272 737.557 75.336C737.621 75.4 737.653 75.4747 737.653 75.56V76.84H739.461C739.642 76.84 739.792 76.8987 739.909 77.016C740.026 77.1333 740.085 77.2827 740.085 77.464C740.085 77.6347 740.026 77.784 739.909 77.912C739.792 78.0293 739.642 78.088 739.461 78.088H737.653V82.92C737.653 83.2293 737.712 83.4533 737.829 83.592C737.946 83.7307 738.085 83.816 738.245 83.848C738.416 83.8693 738.565 83.88 738.693 83.88C738.949 83.88 739.136 83.8587 739.253 83.816C739.381 83.7627 739.514 83.736 739.653 83.736C739.802 83.736 739.936 83.7893 740.053 83.896C740.17 84.0027 740.229 84.1413 740.229 84.312C740.229 84.5573 740.106 84.744 739.861 84.872C739.669 84.9573 739.461 85.0267 739.237 85.08C739.024 85.1333 738.789 85.16 738.533 85.16ZM743.907 85.16C743.448 85.16 743.016 85.064 742.611 84.872C742.216 84.68 741.896 84.408 741.651 84.056C741.416 83.6933 741.299 83.2613 741.299 82.76C741.299 82.0027 741.597 81.384 742.195 80.904C742.803 80.4133 743.731 80.168 744.979 80.168H746.915V80.04C746.915 79.3253 746.739 78.8187 746.387 78.52C746.035 78.2107 745.496 78.056 744.771 78.056C744.323 78.056 743.928 78.0987 743.587 78.184C743.256 78.2587 742.941 78.344 742.643 78.44C742.557 78.4613 742.488 78.472 742.435 78.472C742.275 78.472 742.136 78.4133 742.019 78.296C741.901 78.1787 741.843 78.0347 741.843 77.864C741.843 77.576 741.981 77.3733 742.259 77.256C742.632 77.096 743.043 76.9627 743.491 76.856C743.949 76.7387 744.461 76.68 745.027 76.68C745.805 76.68 746.44 76.8347 746.931 77.144C747.421 77.4533 747.784 77.848 748.019 78.328C748.253 78.808 748.371 79.3093 748.371 79.832V84.36C748.371 84.5627 748.296 84.7333 748.147 84.872C748.008 85.0107 747.837 85.08 747.635 85.08C747.432 85.08 747.261 85.0107 747.123 84.872C746.984 84.7333 746.915 84.5627 746.915 84.36V83.944C746.627 84.2427 746.243 84.52 745.763 84.776C745.283 85.032 744.664 85.16 743.907 85.16ZM744.451 83.88C744.952 83.88 745.421 83.7573 745.859 83.512C746.296 83.2667 746.648 82.9893 746.915 82.68V81.336H745.171C744.424 81.336 743.832 81.432 743.395 81.624C742.968 81.816 742.755 82.1413 742.755 82.6C742.755 82.9413 742.872 83.24 743.107 83.496C743.352 83.752 743.8 83.88 744.451 83.88ZM753.102 85.08C752.889 85.08 752.697 85.016 752.526 84.888C752.356 84.7493 752.238 84.5893 752.174 84.408L749.902 77.752C749.87 77.656 749.854 77.5653 749.854 77.48C749.854 77.2773 749.924 77.1067 750.062 76.968C750.201 76.8293 750.372 76.76 750.574 76.76C750.724 76.76 750.857 76.7973 750.974 76.872C751.102 76.9467 751.188 77.0533 751.23 77.192L753.102 83.352L754.958 77.336C755.012 77.1653 755.108 77.0267 755.246 76.92C755.396 76.8133 755.561 76.76 755.742 76.76C755.924 76.76 756.089 76.8133 756.238 76.92C756.388 77.0267 756.484 77.1653 756.526 77.336L758.382 83.352L760.254 77.192C760.297 77.0533 760.382 76.9467 760.51 76.872C760.638 76.7973 760.772 76.76 760.91 76.76C761.113 76.76 761.284 76.8293 761.422 76.968C761.561 77.1067 761.63 77.2773 761.63 77.48C761.63 77.5653 761.614 77.656 761.582 77.752L759.31 84.408C759.246 84.5893 759.129 84.7493 758.958 84.888C758.788 85.016 758.596 85.08 758.382 85.08C758.169 85.08 757.977 85.016 757.806 84.888C757.636 84.7493 757.513 84.584 757.438 84.392L755.742 79.096L754.046 84.392C753.972 84.584 753.849 84.7493 753.678 84.888C753.508 85.016 753.316 85.08 753.102 85.08ZM765.328 85.16C764.87 85.16 764.438 85.064 764.032 84.872C763.638 84.68 763.318 84.408 763.072 84.056C762.838 83.6933 762.72 83.2613 762.72 82.76C762.72 82.0027 763.019 81.384 763.616 80.904C764.224 80.4133 765.152 80.168 766.4 80.168H768.336V80.04C768.336 79.3253 768.16 78.8187 767.808 78.52C767.456 78.2107 766.918 78.056 766.192 78.056C765.744 78.056 765.35 78.0987 765.008 78.184C764.678 78.2587 764.363 78.344 764.064 78.44C763.979 78.4613 763.91 78.472 763.856 78.472C763.696 78.472 763.558 78.4133 763.44 78.296C763.323 78.1787 763.264 78.0347 763.264 77.864C763.264 77.576 763.403 77.3733 763.68 77.256C764.054 77.096 764.464 76.9627 764.912 76.856C765.371 76.7387 765.883 76.68 766.448 76.68C767.227 76.68 767.862 76.8347 768.352 77.144C768.843 77.4533 769.206 77.848 769.44 78.328C769.675 78.808 769.792 79.3093 769.792 79.832V84.36C769.792 84.5627 769.718 84.7333 769.568 84.872C769.43 85.0107 769.259 85.08 769.056 85.08C768.854 85.08 768.683 85.0107 768.544 84.872C768.406 84.7333 768.336 84.5627 768.336 84.36V83.944C768.048 84.2427 767.664 84.52 767.184 84.776C766.704 85.032 766.086 85.16 765.328 85.16ZM765.872 83.88C766.374 83.88 766.843 83.7573 767.28 83.512C767.718 83.2667 768.07 82.9893 768.336 82.68V81.336H766.592C765.846 81.336 765.254 81.432 764.816 81.624C764.39 81.816 764.176 82.1413 764.176 82.6C764.176 82.9413 764.294 83.24 764.528 83.496C764.774 83.752 765.222 83.88 765.872 83.88ZM779.989 85.16C779.168 85.16 778.448 84.984 777.829 84.632C777.21 84.2693 776.73 83.7733 776.389 83.144C776.058 82.504 775.893 81.7627 775.893 80.92C775.893 80.0773 776.058 79.3413 776.389 78.712C776.73 78.072 777.21 77.576 777.829 77.224C778.448 76.8613 779.168 76.68 779.989 76.68C780.81 76.68 781.525 76.8613 782.133 77.224C782.752 77.576 783.232 78.072 783.573 78.712C783.914 79.3413 784.085 80.0773 784.085 80.92C784.085 81.7627 783.914 82.504 783.573 83.144C783.232 83.7733 782.752 84.2693 782.133 84.632C781.525 84.984 780.81 85.16 779.989 85.16ZM779.989 83.832C780.394 83.832 780.8 83.736 781.205 83.544C781.61 83.352 781.946 83.0427 782.213 82.616C782.49 82.1787 782.629 81.608 782.629 80.904C782.629 80.2 782.49 79.6347 782.213 79.208C781.946 78.7813 781.61 78.4773 781.205 78.296C780.8 78.104 780.394 78.008 779.989 78.008C779.584 78.008 779.173 78.104 778.757 78.296C778.352 78.4773 778.016 78.7813 777.749 79.208C777.482 79.6347 777.349 80.2 777.349 80.904C777.349 81.608 777.482 82.1787 777.749 82.616C778.016 83.0427 778.352 83.352 778.757 83.544C779.173 83.736 779.584 83.832 779.989 83.832ZM789.499 85.16C788.859 85.16 788.241 84.9947 787.643 84.664C787.057 84.3333 786.571 83.8533 786.187 83.224C785.814 82.5947 785.627 81.8267 785.627 80.92C785.627 80.0133 785.814 79.2453 786.187 78.616C786.571 77.9867 787.057 77.5067 787.643 77.176C788.241 76.8453 788.859 76.68 789.499 76.68C790.065 76.68 790.571 76.7867 791.019 77C791.467 77.2133 791.873 77.512 792.235 77.896V73.976C792.235 73.7627 792.305 73.5867 792.443 73.448C792.593 73.3093 792.769 73.24 792.971 73.24C793.174 73.24 793.345 73.3093 793.483 73.448C793.622 73.5867 793.691 73.7627 793.691 73.976V84.36C793.691 84.5627 793.622 84.7333 793.483 84.872C793.345 85.0107 793.174 85.08 792.971 85.08C792.769 85.08 792.593 85.0107 792.443 84.872C792.305 84.7333 792.235 84.5627 792.235 84.36V83.944C791.873 84.328 791.467 84.6267 791.019 84.84C790.571 85.0533 790.065 85.16 789.499 85.16ZM789.707 83.8C790.23 83.8 790.705 83.688 791.131 83.464C791.558 83.2293 791.926 82.9413 792.235 82.6V79.24C791.926 78.8987 791.558 78.616 791.131 78.392C790.705 78.1573 790.23 78.04 789.707 78.04C788.95 78.04 788.321 78.2853 787.819 78.776C787.329 79.256 787.083 79.9707 787.083 80.92C787.083 81.8587 787.329 82.5733 787.819 83.064C788.321 83.5547 788.95 83.8 789.707 83.8ZM801.093 85.08C800.891 85.08 800.72 85.0107 800.581 84.872C800.443 84.7333 800.373 84.5627 800.373 84.36V73.976C800.373 73.7733 800.443 73.6027 800.581 73.464C800.72 73.3147 800.891 73.24 801.093 73.24C801.296 73.24 801.467 73.3147 801.605 73.464C801.755 73.6027 801.829 73.7733 801.829 73.976V80.52L805.637 77C805.701 76.9467 805.771 76.8987 805.845 76.856C805.931 76.8133 806.021 76.792 806.117 76.792C806.395 76.792 806.581 76.872 806.677 77.032C806.773 77.1813 806.821 77.336 806.821 77.496C806.821 77.56 806.805 77.64 806.773 77.736C806.741 77.8213 806.667 77.9227 806.549 78.04L804.245 80.104L807.141 83.944C807.248 84.0827 807.301 84.2267 807.301 84.376C807.301 84.5893 807.232 84.76 807.093 84.888C806.955 85.016 806.779 85.08 806.565 85.08C806.341 85.08 806.144 84.9787 805.973 84.776L803.221 81.032L801.829 82.296V84.36C801.829 84.5627 801.755 84.7333 801.605 84.872C801.467 85.0107 801.296 85.08 801.093 85.08ZM811.524 85.08C811.311 85.08 811.119 85.016 810.948 84.888C810.777 84.7493 810.66 84.5893 810.596 84.408L808.324 77.752C808.292 77.656 808.276 77.5653 808.276 77.48C808.276 77.2773 808.345 77.1067 808.484 76.968C808.623 76.8293 808.793 76.76 808.996 76.76C809.145 76.76 809.279 76.7973 809.396 76.872C809.524 76.9467 809.609 77.0533 809.652 77.192L811.524 83.352L813.38 77.336C813.433 77.1653 813.529 77.0267 813.668 76.92C813.817 76.8133 813.983 76.76 814.164 76.76C814.345 76.76 814.511 76.8133 814.66 76.92C814.809 77.0267 814.905 77.1653 814.948 77.336L816.804 83.352L818.676 77.192C818.719 77.0533 818.804 76.9467 818.932 76.872C819.06 76.7973 819.193 76.76 819.332 76.76C819.535 76.76 819.705 76.8293 819.844 76.968C819.983 77.1067 820.052 77.2773 820.052 77.48C820.052 77.5653 820.036 77.656 820.004 77.752L817.732 84.408C817.668 84.5893 817.551 84.7493 817.38 84.888C817.209 85.016 817.017 85.08 816.804 85.08C816.591 85.08 816.399 85.016 816.228 84.888C816.057 84.7493 815.935 84.584 815.86 84.392L814.164 79.096L812.468 84.392C812.393 84.584 812.271 84.7493 812.1 84.888C811.929 85.016 811.737 85.08 811.524 85.08ZM825.255 85.16C824.433 85.16 823.713 84.984 823.095 84.632C822.476 84.2693 821.996 83.7733 821.655 83.144C821.324 82.504 821.159 81.7627 821.159 80.92C821.159 80.0773 821.324 79.3413 821.655 78.712C821.996 78.072 822.476 77.576 823.095 77.224C823.713 76.8613 824.433 76.68 825.255 76.68C826.076 76.68 826.791 76.8613 827.399 77.224C828.017 77.576 828.497 78.072 828.839 78.712C829.18 79.3413 829.351 80.0773 829.351 80.92C829.351 81.7627 829.18 82.504 828.839 83.144C828.497 83.7733 828.017 84.2693 827.399 84.632C826.791 84.984 826.076 85.16 825.255 85.16ZM825.255 83.832C825.66 83.832 826.065 83.736 826.471 83.544C826.876 83.352 827.212 83.0427 827.479 82.616C827.756 82.1787 827.895 81.608 827.895 80.904C827.895 80.2 827.756 79.6347 827.479 79.208C827.212 78.7813 826.876 78.4773 826.471 78.296C826.065 78.104 825.66 78.008 825.255 78.008C824.849 78.008 824.439 78.104 824.023 78.296C823.617 78.4773 823.281 78.7813 823.015 79.208C822.748 79.6347 822.615 80.2 822.615 80.904C822.615 81.608 822.748 82.1787 823.015 82.616C823.281 83.0427 823.617 83.352 824.023 83.544C824.439 83.736 824.849 83.832 825.255 83.832ZM834.143 85.16C833.951 85.16 833.721 85.1387 833.455 85.096C833.199 85.064 832.943 84.984 832.687 84.856C832.441 84.7173 832.233 84.504 832.062 84.216C831.892 83.928 831.807 83.5387 831.807 83.048V78.088H830.671C830.468 78.088 830.367 77.9867 830.367 77.784C830.367 77.6773 830.415 77.5867 830.511 77.512L832.687 75.384C832.708 75.3627 832.74 75.336 832.783 75.304C832.836 75.2613 832.895 75.24 832.959 75.24C833.044 75.24 833.113 75.272 833.167 75.336C833.231 75.4 833.263 75.4747 833.263 75.56V76.84H835.071C835.252 76.84 835.401 76.8987 835.519 77.016C835.636 77.1333 835.695 77.2827 835.695 77.464C835.695 77.6347 835.636 77.784 835.519 77.912C835.401 78.0293 835.252 78.088 835.071 78.088H833.263V82.92C833.263 83.2293 833.321 83.4533 833.439 83.592C833.556 83.7307 833.695 83.816 833.855 83.848C834.025 83.8693 834.175 83.88 834.303 83.88C834.559 83.88 834.745 83.8587 834.863 83.816C834.991 83.7627 835.124 83.736 835.263 83.736C835.412 83.736 835.545 83.7893 835.663 83.896C835.78 84.0027 835.839 84.1413 835.839 84.312C835.839 84.5573 835.716 84.744 835.471 84.872C835.279 84.9573 835.071 85.0267 834.847 85.08C834.633 85.1333 834.399 85.16 834.143 85.16ZM839.182 88.76C838.99 88.76 838.824 88.6907 838.686 88.552C838.558 88.4133 838.494 88.248 838.494 88.056C838.494 87.96 838.51 87.8747 838.542 87.8L839.582 85.128L836.574 77.8C836.563 77.7573 836.547 77.7093 836.526 77.656C836.515 77.6027 836.51 77.5493 836.51 77.496C836.51 77.2933 836.579 77.1227 836.718 76.984C836.856 76.8347 837.027 76.76 837.23 76.76C837.379 76.76 837.512 76.8027 837.63 76.888C837.758 76.9733 837.848 77.08 837.902 77.208L840.366 83.32L842.878 77.24C842.942 77.0907 843.027 76.9733 843.134 76.888C843.251 76.8027 843.39 76.76 843.55 76.76C843.752 76.76 843.923 76.8347 844.062 76.984C844.2 77.1227 844.27 77.2933 844.27 77.496C844.27 77.592 844.254 77.6827 844.222 77.768L839.854 88.264C839.79 88.4027 839.704 88.52 839.598 88.616C839.491 88.712 839.352 88.76 839.182 88.76ZM851.676 85C851.484 85 851.324 84.936 851.196 84.808C851.068 84.68 851.004 84.52 851.004 84.328C851.004 84.136 851.068 83.976 851.196 83.848C851.324 83.7093 851.484 83.64 851.676 83.64H853.58V75.528L851.948 76.328C851.894 76.3493 851.841 76.3707 851.788 76.392C851.734 76.4133 851.665 76.424 851.58 76.424C851.377 76.424 851.212 76.36 851.084 76.232C850.956 76.104 850.892 75.9387 850.892 75.736C850.892 75.4373 851.03 75.2187 851.308 75.08L853.484 73.944C853.633 73.8693 853.782 73.832 853.932 73.832H854.268C854.481 73.832 854.662 73.9067 854.812 74.056C854.961 74.2053 855.036 74.3867 855.036 74.6V83.64H856.62C856.812 83.64 856.972 83.7093 857.1 83.848C857.238 83.976 857.308 84.136 857.308 84.328C857.308 84.52 857.238 84.68 857.1 84.808C856.972 84.936 856.812 85 856.62 85H851.676ZM863.643 85.16C862.896 85.16 862.24 85.0693 861.675 84.888C861.12 84.7067 860.64 84.488 860.235 84.232C860.16 84.1787 860.085 84.1147 860.011 84.04C859.947 83.9547 859.915 83.8267 859.915 83.656C859.915 83.4747 859.973 83.3147 860.091 83.176C860.208 83.0373 860.363 82.968 860.555 82.968C860.672 82.968 860.784 82.9947 860.891 83.048C861.232 83.2293 861.616 83.3893 862.043 83.528C862.48 83.656 862.949 83.72 863.451 83.72C864.08 83.72 864.629 83.6507 865.099 83.512C865.568 83.3733 865.931 83.144 866.187 82.824C866.443 82.4933 866.571 82.04 866.571 81.464C866.571 80.8027 866.347 80.28 865.899 79.896C865.461 79.512 864.859 79.32 864.091 79.32C863.547 79.32 863.067 79.3947 862.651 79.544C862.235 79.6933 861.893 79.848 861.627 80.008C861.552 80.0507 861.472 80.0933 861.387 80.136C861.301 80.1787 861.195 80.2 861.067 80.2C860.768 80.2 860.517 80.12 860.315 79.96C860.112 79.7893 860.011 79.56 860.011 79.272C860.011 79.144 860.021 79.016 860.043 78.888L860.763 74.632C860.795 74.3867 860.885 74.1947 861.035 74.056C861.195 73.9067 861.387 73.832 861.611 73.832H866.747C866.939 73.832 867.099 73.9013 867.227 74.04C867.365 74.168 867.435 74.328 867.435 74.52C867.435 74.712 867.365 74.872 867.227 75C867.099 75.128 866.939 75.192 866.747 75.192H862.107L861.595 78.584C861.925 78.4027 862.309 78.248 862.747 78.12C863.195 77.992 863.712 77.928 864.299 77.928C865.109 77.928 865.787 78.088 866.331 78.408C866.885 78.7173 867.307 79.144 867.595 79.688C867.883 80.232 868.027 80.8507 868.027 81.544C868.027 82.2267 867.872 82.84 867.563 83.384C867.253 83.928 866.773 84.36 866.123 84.68C865.483 85 864.656 85.16 863.643 85.16ZM873.962 85.16C873.002 85.16 872.196 84.92 871.546 84.44C870.906 83.96 870.426 83.288 870.106 82.424C869.786 81.56 869.626 80.5573 869.626 79.416C869.626 78.2747 869.786 77.272 870.106 76.408C870.426 75.544 870.906 74.872 871.546 74.392C872.196 73.912 873.002 73.672 873.962 73.672C874.922 73.672 875.722 73.912 876.362 74.392C877.002 74.872 877.482 75.544 877.802 76.408C878.132 77.272 878.298 78.2747 878.298 79.416C878.298 80.5573 878.132 81.56 877.802 82.424C877.482 83.288 877.002 83.96 876.362 84.44C875.722 84.92 874.922 85.16 873.962 85.16ZM873.962 83.816C874.911 83.816 875.626 83.4213 876.106 82.632C876.596 81.8427 876.842 80.7707 876.842 79.416C876.842 78.072 876.596 77.0053 876.106 76.216C875.626 75.4267 874.911 75.032 873.962 75.032C873.023 75.032 872.308 75.4267 871.818 76.216C871.327 77.0053 871.082 78.072 871.082 79.416C871.082 80.7707 871.327 81.8427 871.818 82.632C872.308 83.4213 873.023 83.816 873.962 83.816ZM880.632 85C880.355 85 880.115 84.9307 879.912 84.792C879.72 84.6427 879.624 84.4293 879.624 84.152C879.624 83.9067 879.71 83.688 879.88 83.496L884.488 78.2H880.44C880.248 78.2 880.088 78.136 879.96 78.008C879.832 77.88 879.768 77.72 879.768 77.528C879.768 77.336 879.832 77.176 879.96 77.048C880.088 76.9093 880.248 76.84 880.44 76.84H885.288C885.566 76.84 885.79 76.9253 885.96 77.096C886.131 77.256 886.216 77.4747 886.216 77.752C886.216 77.9973 886.142 78.2107 885.992 78.392L881.512 83.64H885.624C885.816 83.64 885.976 83.7093 886.104 83.848C886.243 83.976 886.312 84.136 886.312 84.328C886.312 84.52 886.243 84.68 886.104 84.808C885.976 84.936 885.816 85 885.624 85H880.632ZM889.017 85.08C888.814 85.08 888.644 85.0107 888.505 84.872C888.366 84.7333 888.297 84.5627 888.297 84.36V80.184L887.929 80.552C887.822 80.6587 887.7 80.712 887.561 80.712C887.422 80.712 887.294 80.6533 887.177 80.536C887.07 80.4187 887.017 80.2907 887.017 80.152C887.017 80.0133 887.07 79.8907 887.177 79.784L888.297 78.664V73.976C888.297 73.7627 888.366 73.5867 888.505 73.448C888.644 73.3093 888.814 73.24 889.017 73.24C889.23 73.24 889.406 73.3093 889.545 73.448C889.684 73.5867 889.753 73.7627 889.753 73.976V77.192L890.089 76.856C890.196 76.7493 890.318 76.696 890.457 76.696C890.606 76.696 890.74 76.7493 890.857 76.856C890.974 76.9627 891.033 77.0907 891.033 77.24C891.033 77.3787 890.974 77.5067 890.857 77.624L889.753 78.728V84.36C889.753 84.5627 889.684 84.7333 889.545 84.872C889.406 85.0107 889.23 85.08 889.017 85.08Z" fill="#F9F9F9"/>
<g clip-path="url(#clip1_116_261)">
<path d="M580.421 88.8666C579.165 88.8666 578.142 89.8902 578.142 91.1462C578.142 92.4022 579.165 93.4258 580.421 93.4258C581.677 93.4258 582.701 92.4022 582.701 91.1462C582.701 89.8902 581.677 88.8666 580.421 88.8666Z" fill="white"/>
<path d="M578.762 73.8003C578.762 73.0921 578.186 72.5167 577.478 72.5167H557.786C557.078 72.5167 556.502 73.0921 556.502 73.8003V86.7641C556.502 87.4723 557.078 88.0477 557.786 88.0477H558.206C559.208 86.5372 560.923 85.5413 562.865 85.5413C564.807 85.5413 566.523 86.5372 567.524 88.0477H575.757C576.46 86.9854 577.517 86.1831 578.756 85.7958V73.8003H578.762Z" fill="white"/>
<path d="M562.871 88.8666C561.615 88.8666 560.591 89.8902 560.591 91.1462C560.591 92.4022 561.615 93.4258 562.871 93.4258C564.127 93.4258 565.15 92.4022 565.15 91.1462C565.15 89.8902 564.127 88.8666 562.871 88.8666Z" fill="white"/>
<path d="M582.126 76.4617V85.8179C583.348 86.2108 584.383 87.0075 585.08 88.0533H589.717V83.0017L585.307 76.4617H582.12H582.126Z" fill="white"/>
<path d="M569.997 48C552.325 48 538 62.3249 538 79.9972C538 97.6696 552.325 112 569.997 112C587.67 112 602 97.6696 602 79.9972C602 62.3249 587.67 48 569.997 48ZM591.382 91.373H586.01C585.888 94.3553 583.431 96.7456 580.421 96.7456C577.411 96.7456 574.955 94.3553 574.833 91.373H568.454C568.332 94.3553 565.875 96.7456 562.865 96.7456C559.855 96.7456 557.382 94.3387 557.277 91.3454C555.042 91.1019 553.288 89.2484 553.188 86.9743H550.095V83.6545H553.183V81.6793H545.519V78.3595H553.183V76.3842H541.425V73.0644H553.249C553.609 70.8789 555.501 69.2024 557.786 69.2024H577.478C579.791 69.2024 581.711 70.9176 582.031 73.1474H586.198C586.751 73.1474 587.266 73.4241 587.576 73.8778L592.765 81.5686C592.948 81.8452 593.048 82.1662 593.048 82.4981V89.7187C593.048 90.6372 592.306 91.3786 591.388 91.3786L591.382 91.373Z" fill="white"/>
</g>
<g clip-path="url(#clip2_116_261)">
<path d="M977.672 74.4587C976.654 74.4587 975.829 75.2832 975.829 76.3012C975.829 77.3193 976.654 78.1437 977.672 78.1437C978.69 78.1437 979.514 77.3193 979.514 76.3012C979.514 75.2832 978.69 74.4587 977.672 74.4587Z" fill="white"/>
<path d="M972.072 68.2618H964.326V71.5816H972.072V68.2618Z" fill="white"/>
<path d="M969.997 48C952.325 48 938 62.3249 938 79.9972C938 97.6696 952.325 112 969.997 112C987.67 112 1001.99 97.6696 1001.99 79.9972C1001.99 62.3249 987.67 48 969.997 48ZM987.144 85.2204H985.191C984.289 87.6549 982.751 89.8072 980.72 91.4948L982.186 92.961C983.487 94.2613 983.487 96.3749 982.186 97.6751C980.886 98.9754 978.773 98.9754 977.472 97.6751L974.501 94.7039C972.913 95.141 971.209 95.3789 969.405 95.3789C967.961 95.3789 966.578 95.224 965.272 94.9418L962.533 97.6806C961.233 98.9809 959.119 98.9809 957.819 97.6806C956.519 96.3804 956.519 94.2668 957.819 92.9665L958.76 92.0259C954.992 89.2262 952.701 84.9271 952.701 80.1079C952.701 77.9888 953.144 75.9637 953.963 74.1267C950.123 73.8612 948.574 71.2219 948.297 69.7889C948.12 68.887 948.706 68.0183 949.608 67.8413C950.493 67.6642 951.357 68.2396 951.55 69.1194C951.628 69.4182 952.115 70.8291 954.599 70.8291C955.014 70.8291 955.385 70.984 955.672 71.233C958.605 67.3544 963.502 64.8258 969.405 64.8258C970.468 64.8258 971.497 64.9143 972.487 65.0748L981.03 61.8103L979.32 67.6698C982.054 69.468 984.101 72.0131 985.196 74.9844H987.149C988.616 74.9844 989.805 76.1739 989.805 77.6402V82.5645C989.805 84.0308 988.616 85.2204 987.149 85.2204H987.144Z" fill="white"/>
</g>
<defs>
<clipPath id="clip0_116_261">
<rect width="64" height="64" fill="white" transform="translate(138 48)"/>
</clipPath>
<clipPath id="clip1_116_261">
<rect width="64" height="64" fill="white" transform="translate(538 48)"/>
</clipPath>
<clipPath id="clip2_116_261">
<rect width="64" height="64" fill="white" transform="translate(938 48)"/>
</clipPath>
</defs>
</svg>
