<svg width="184" height="40" viewBox="0 0 184 40" fill="none" xmlns="http://www.w3.org/2000/svg">
<rect width="184" height="40" rx="8" fill="#24781A"/>
<path d="M26.5421 24.736H31.9821V26H24.8141V24.848L30.2221 16.112H24.8781V14.848H31.9501V16L26.5421 24.736ZM37.7904 26.144C36.969 26.144 36.2224 25.9573 35.5504 25.584C34.889 25.2107 34.3664 24.6827 33.9824 24C33.609 23.3067 33.4224 22.5067 33.4224 21.6C33.4224 20.704 33.6144 19.9147 33.9984 19.232C34.393 18.5387 34.9264 18.0107 35.5984 17.648C36.2704 17.2747 37.0224 17.088 37.8544 17.088C38.6864 17.088 39.4384 17.2747 40.1104 17.648C40.7824 18.0107 41.3104 18.5333 41.6944 19.216C42.089 19.8987 42.2864 20.6933 42.2864 21.6C42.2864 22.5067 42.0837 23.3067 41.6784 24C41.2837 24.6827 40.745 25.2107 40.0624 25.584C39.3797 25.9573 38.6224 26.144 37.7904 26.144ZM37.7904 24.864C38.313 24.864 38.8037 24.7413 39.2624 24.496C39.721 24.2507 40.089 23.8827 40.3664 23.392C40.6544 22.9013 40.7984 22.304 40.7984 21.6C40.7984 20.896 40.6597 20.2987 40.3824 19.808C40.105 19.3173 39.7424 18.9547 39.2944 18.72C38.8464 18.4747 38.361 18.352 37.8384 18.352C37.305 18.352 36.8144 18.4747 36.3664 18.72C35.929 18.9547 35.577 19.3173 35.3104 19.808C35.0437 20.2987 34.9104 20.896 34.9104 21.6C34.9104 22.3147 35.0384 22.9173 35.2944 23.408C35.561 23.8987 35.913 24.2667 36.3504 24.512C36.7877 24.7467 37.2677 24.864 37.7904 24.864ZM45.6568 18.864C45.9554 18.3413 46.3928 17.9147 46.9688 17.584C47.5448 17.2533 48.2008 17.088 48.9368 17.088C49.7261 17.088 50.4354 17.2747 51.0648 17.648C51.6941 18.0213 52.1901 18.5493 52.5528 19.232C52.9154 19.904 53.0968 20.688 53.0968 21.584C53.0968 22.4693 52.9154 23.2587 52.5528 23.952C52.1901 24.6453 51.6887 25.184 51.0487 25.568C50.4194 25.952 49.7154 26.144 48.9368 26.144C48.1794 26.144 47.5128 25.9787 46.9368 25.648C46.3714 25.3173 45.9448 24.896 45.6568 24.384V26H44.2008V14.16H45.6568V18.864ZM51.6088 21.584C51.6088 20.9227 51.4754 20.3467 51.2088 19.856C50.9421 19.3653 50.5794 18.992 50.1208 18.736C49.6728 18.48 49.1768 18.352 48.6328 18.352C48.0994 18.352 47.6034 18.4853 47.1448 18.752C46.6968 19.008 46.3341 19.3867 46.0568 19.888C45.7901 20.3787 45.6568 20.9493 45.6568 21.6C45.6568 22.2613 45.7901 22.8427 46.0568 23.344C46.3341 23.8347 46.6968 24.2133 47.1448 24.48C47.6034 24.736 48.0994 24.864 48.6328 24.864C49.1768 24.864 49.6728 24.736 50.1208 24.48C50.5794 24.2133 50.9421 23.8347 51.2088 23.344C51.4754 22.8427 51.6088 22.256 51.6088 21.584ZM54.4693 21.584C54.4693 20.688 54.6506 19.904 55.0133 19.232C55.3759 18.5493 55.8719 18.0213 56.5013 17.648C57.1413 17.2747 57.8506 17.088 58.6293 17.088C59.3973 17.088 60.0639 17.2533 60.6293 17.584C61.1946 17.9147 61.6159 18.3307 61.8933 18.832V17.232H63.3653V26H61.8933V24.368C61.6053 24.88 61.1733 25.3067 60.5973 25.648C60.0319 25.9787 59.3706 26.144 58.6133 26.144C57.8346 26.144 57.1306 25.952 56.5013 25.568C55.8719 25.184 55.3759 24.6453 55.0133 23.952C54.6506 23.2587 54.4693 22.4693 54.4693 21.584ZM61.8933 21.6C61.8933 20.9387 61.7599 20.3627 61.4933 19.872C61.2266 19.3813 60.8639 19.008 60.4053 18.752C59.9573 18.4853 59.4613 18.352 58.9173 18.352C58.3733 18.352 57.8773 18.48 57.4293 18.736C56.9813 18.992 56.6239 19.3653 56.3573 19.856C56.0906 20.3467 55.9573 20.9227 55.9573 21.584C55.9573 22.256 56.0906 22.8427 56.3573 23.344C56.6239 23.8347 56.9813 24.2133 57.4293 24.48C57.8773 24.736 58.3733 24.864 58.9173 24.864C59.4613 24.864 59.9573 24.736 60.4053 24.48C60.8639 24.2133 61.2266 23.8347 61.4933 23.344C61.7599 22.8427 61.8933 22.2613 61.8933 21.6ZM65.2818 21.6C65.2818 20.6933 65.4631 19.904 65.8258 19.232C66.1884 18.5493 66.6898 18.0213 67.3298 17.648C67.9804 17.2747 68.7218 17.088 69.5538 17.088C70.6311 17.088 71.5164 17.3493 72.2098 17.872C72.9138 18.3947 73.3778 19.12 73.6018 20.048H72.0338C71.8844 19.5147 71.5911 19.0933 71.1538 18.784C70.7271 18.4747 70.1938 18.32 69.5538 18.32C68.7218 18.32 68.0498 18.608 67.5378 19.184C67.0258 19.7493 66.7698 20.5547 66.7698 21.6C66.7698 22.656 67.0258 23.472 67.5378 24.048C68.0498 24.624 68.7218 24.912 69.5538 24.912C70.1938 24.912 70.7271 24.7627 71.1538 24.464C71.5804 24.1653 71.8738 23.7387 72.0338 23.184H73.6018C73.3671 24.08 72.8978 24.8 72.1938 25.344C71.4898 25.8773 70.6098 26.144 69.5538 26.144C68.7218 26.144 67.9804 25.9573 67.3298 25.584C66.6898 25.2107 66.1884 24.6827 65.8258 24C65.4631 23.3173 65.2818 22.5173 65.2818 21.6ZM76.6325 24.8H80.9365V26H74.9685V24.8L79.2245 18.416H75.0005V17.232H80.9045V18.416L76.6325 24.8ZM98.7714 17.232L96.0354 26H94.5314L92.4194 19.04L90.3074 26H88.8034L86.0514 17.232H87.5394L89.5554 24.592L91.7314 17.232H93.2194L95.3474 24.608L97.3314 17.232H98.7714ZM103.32 26.144C102.648 26.144 102.046 26.032 101.512 25.808C100.979 25.5733 100.558 25.2533 100.248 24.848C99.939 24.432 99.7684 23.9573 99.7364 23.424H101.24C101.283 23.8613 101.486 24.2187 101.848 24.496C102.222 24.7733 102.707 24.912 103.304 24.912C103.859 24.912 104.296 24.7893 104.616 24.544C104.936 24.2987 105.096 23.9893 105.096 23.616C105.096 23.232 104.926 22.9493 104.584 22.768C104.243 22.576 103.715 22.3893 103 22.208C102.35 22.0373 101.816 21.8667 101.4 21.696C100.995 21.5147 100.643 21.2533 100.344 20.912C100.056 20.56 99.9124 20.1013 99.9124 19.536C99.9124 19.088 100.046 18.6773 100.312 18.304C100.579 17.9307 100.958 17.6373 101.448 17.424C101.939 17.2 102.499 17.088 103.128 17.088C104.099 17.088 104.883 17.3333 105.48 17.824C106.078 18.3147 106.398 18.9867 106.44 19.84H104.984C104.952 19.3813 104.766 19.0133 104.424 18.736C104.094 18.4587 103.646 18.32 103.08 18.32C102.558 18.32 102.142 18.432 101.832 18.656C101.523 18.88 101.368 19.1733 101.368 19.536C101.368 19.824 101.459 20.064 101.64 20.256C101.832 20.4373 102.067 20.5867 102.344 20.704C102.632 20.8107 103.027 20.9333 103.528 21.072C104.158 21.2427 104.67 21.4133 105.064 21.584C105.459 21.744 105.795 21.9893 106.072 22.32C106.36 22.6507 106.51 23.0827 106.52 23.616C106.52 24.096 106.387 24.528 106.12 24.912C105.854 25.296 105.475 25.6 104.984 25.824C104.504 26.0373 103.95 26.144 103.32 26.144ZM109.664 24.8H113.968V26H108V24.8L112.256 18.416H108.032V17.232H113.936V18.416L109.664 24.8ZM123.409 17.232L118.129 30.128H116.625L118.353 25.904L114.817 17.232H116.433L119.185 24.336L121.905 17.232H123.409ZM127.977 26.144C127.305 26.144 126.702 26.032 126.169 25.808C125.635 25.5733 125.214 25.2533 124.905 24.848C124.595 24.432 124.425 23.9573 124.393 23.424H125.897C125.939 23.8613 126.142 24.2187 126.505 24.496C126.878 24.7733 127.363 24.912 127.961 24.912C128.515 24.912 128.953 24.7893 129.273 24.544C129.593 24.2987 129.753 23.9893 129.753 23.616C129.753 23.232 129.582 22.9493 129.241 22.768C128.899 22.576 128.371 22.3893 127.657 22.208C127.006 22.0373 126.473 21.8667 126.057 21.696C125.651 21.5147 125.299 21.2533 125.001 20.912C124.713 20.56 124.569 20.1013 124.569 19.536C124.569 19.088 124.702 18.6773 124.969 18.304C125.235 17.9307 125.614 17.6373 126.105 17.424C126.595 17.2 127.155 17.088 127.785 17.088C128.755 17.088 129.539 17.3333 130.137 17.824C130.734 18.3147 131.054 18.9867 131.097 19.84H129.641C129.609 19.3813 129.422 19.0133 129.081 18.736C128.75 18.4587 128.302 18.32 127.737 18.32C127.214 18.32 126.798 18.432 126.489 18.656C126.179 18.88 126.025 19.1733 126.025 19.536C126.025 19.824 126.115 20.064 126.297 20.256C126.489 20.4373 126.723 20.5867 127.001 20.704C127.289 20.8107 127.683 20.9333 128.185 21.072C128.814 21.2427 129.326 21.4133 129.721 21.584C130.115 21.744 130.451 21.9893 130.729 22.32C131.017 22.6507 131.166 23.0827 131.177 23.616C131.177 24.096 131.043 24.528 130.777 24.912C130.51 25.296 130.131 25.6 129.641 25.824C129.161 26.0373 128.606 26.144 127.977 26.144ZM135.008 18.432V23.6C135.008 24.0267 135.099 24.3307 135.28 24.512C135.461 24.6827 135.776 24.768 136.224 24.768H137.296V26H135.984C135.173 26 134.565 25.8133 134.16 25.44C133.755 25.0667 133.552 24.4533 133.552 23.6V18.432H132.416V17.232H133.552V15.024H135.008V17.232H137.296V18.432H135.008ZM143.956 26L140.516 22.128V26H139.06V14.16H140.516V21.12L143.892 17.232H145.924L141.796 21.6L145.94 26H143.956ZM148.047 15.808C147.769 15.808 147.535 15.712 147.343 15.52C147.151 15.328 147.055 15.0933 147.055 14.816C147.055 14.5387 147.151 14.304 147.343 14.112C147.535 13.92 147.769 13.824 148.047 13.824C148.313 13.824 148.537 13.92 148.719 14.112C148.911 14.304 149.007 14.5387 149.007 14.816C149.007 15.0933 148.911 15.328 148.719 15.52C148.537 15.712 148.313 15.808 148.047 15.808ZM148.751 17.232V26H147.295V17.232H148.751ZM159.232 21.28C159.232 21.5573 159.216 21.8507 159.184 22.16H152.176C152.229 23.024 152.523 23.7013 153.056 24.192C153.6 24.672 154.256 24.912 155.024 24.912C155.653 24.912 156.176 24.768 156.592 24.48C157.019 24.1813 157.317 23.7867 157.488 23.296H159.056C158.821 24.1387 158.352 24.8267 157.648 25.36C156.944 25.8827 156.069 26.144 155.024 26.144C154.192 26.144 153.445 25.9573 152.784 25.584C152.133 25.2107 151.621 24.6827 151.248 24C150.875 23.3067 150.688 22.5067 150.688 21.6C150.688 20.6933 150.869 19.8987 151.232 19.216C151.595 18.5333 152.101 18.0107 152.752 17.648C153.413 17.2747 154.171 17.088 155.024 17.088C155.856 17.088 156.592 17.2693 157.232 17.632C157.872 17.9947 158.363 18.496 158.704 19.136C159.056 19.7653 159.232 20.48 159.232 21.28ZM157.728 20.976C157.728 20.4213 157.605 19.9467 157.36 19.552C157.115 19.1467 156.779 18.8427 156.352 18.64C155.936 18.4267 155.472 18.32 154.96 18.32C154.224 18.32 153.595 18.5547 153.072 19.024C152.56 19.4933 152.267 20.144 152.192 20.976H157.728Z" fill="white"/>
</svg>
