<svg width="1056" height="24" viewBox="0 0 1056 24" fill="none" xmlns="http://www.w3.org/2000/svg">
<path fill-rule="evenodd" clip-rule="evenodd" d="M20.5 12C20.5 16.5 16.5 20.5 12 20.5C7.5 20.5 3.5 16.5 3.5 12C3.5 7.5 7.5 3.5 12 3.5C16.5 3.5 20.5 7.5 20.5 12ZM22 12C22 17.5228 17.5228 22 12 22C6.47715 22 2 17.5228 2 12C2 6.47715 6.47715 2 12 2C17.5228 2 22 6.47715 22 12ZM12.75 17V10H11.25V17H12.75ZM12 9C12.5523 9 13 8.55228 13 8C13 7.44772 12.5523 7 12 7C11.4477 7 11 7.44772 11 8C11 8.55228 11.4477 9 12 9Z" fill="#313131"/>
<path d="M38.496 17.66C37.3547 17.66 36.368 17.4147 35.536 16.924C34.704 16.4333 34.0587 15.756 33.6 14.892C33.1413 14.028 32.9013 13.036 32.88 11.916C32.9013 10.796 33.1413 9.804 33.6 8.94C34.0587 8.076 34.704 7.39867 35.536 6.908C36.368 6.41733 37.3547 6.172 38.496 6.172C39.6373 6.172 40.624 6.41733 41.456 6.908C42.288 7.39867 42.9333 8.076 43.392 8.94C43.8507 9.804 44.0907 10.796 44.112 11.916C44.0907 13.036 43.8507 14.028 43.392 14.892C42.9333 15.756 42.288 16.4333 41.456 16.924C40.624 17.4147 39.6373 17.66 38.496 17.66ZM38.496 16.3C39.3813 16.3 40.1333 16.108 40.752 15.724C41.3707 15.3293 41.84 14.8013 42.16 14.14C42.4907 13.4787 42.656 12.7373 42.656 11.916C42.656 11.0947 42.4907 10.3533 42.16 9.692C41.84 9.03067 41.3707 8.508 40.752 8.124C40.1333 7.72933 39.3813 7.532 38.496 7.532C37.6107 7.532 36.8587 7.72933 36.24 8.124C35.6213 8.508 35.1467 9.03067 34.816 9.692C34.496 10.3533 34.336 11.0947 34.336 11.916C34.336 12.7373 34.496 13.4787 34.816 14.14C35.1467 14.8013 35.6213 15.3293 36.24 15.724C36.8587 16.108 37.6107 16.3 38.496 16.3ZM51.1246 17.58C50.922 17.58 50.7513 17.5107 50.6126 17.372C50.474 17.2333 50.4046 17.0627 50.4046 16.86V9.996C50.4046 9.78267 50.474 9.60667 50.6126 9.468C50.7513 9.32933 50.922 9.26 51.1246 9.26C51.3273 9.26 51.498 9.32933 51.6366 9.468C51.786 9.60667 51.8606 9.78267 51.8606 9.996V10.652C52.202 10.2787 52.602 9.94267 53.0606 9.644C53.53 9.33467 54.122 9.18 54.8366 9.18C55.4446 9.18 55.962 9.324 56.3886 9.612C56.8153 9.88933 57.1406 10.268 57.3646 10.748C57.5886 11.2173 57.7006 11.74 57.7006 12.316V16.86C57.7006 17.0627 57.626 17.2333 57.4766 17.372C57.338 17.5107 57.1673 17.58 56.9646 17.58C56.762 17.58 56.5913 17.5107 56.4526 17.372C56.314 17.2333 56.2446 17.0627 56.2446 16.86V12.476C56.2446 11.868 56.106 11.3933 55.8286 11.052C55.562 10.7 55.114 10.524 54.4846 10.524C53.9086 10.524 53.4073 10.6787 52.9806 10.988C52.554 11.2973 52.1806 11.6547 51.8606 12.06V16.86C51.8606 17.0627 51.786 17.2333 51.6366 17.372C51.498 17.5107 51.3273 17.58 51.1246 17.58ZM62.2346 17.66C61.776 17.66 61.344 17.564 60.9386 17.372C60.544 17.18 60.224 16.908 59.9786 16.556C59.744 16.1933 59.6266 15.7613 59.6266 15.26C59.6266 14.5027 59.9253 13.884 60.5226 13.404C61.1306 12.9133 62.0586 12.668 63.3066 12.668H65.2426V12.54C65.2426 11.8253 65.0666 11.3187 64.7146 11.02C64.3626 10.7107 63.824 10.556 63.0986 10.556C62.6506 10.556 62.256 10.5987 61.9146 10.684C61.584 10.7587 61.2693 10.844 60.9706 10.94C60.8853 10.9613 60.816 10.972 60.7626 10.972C60.6026 10.972 60.464 10.9133 60.3466 10.796C60.2293 10.6787 60.1706 10.5347 60.1706 10.364C60.1706 10.076 60.3093 9.87333 60.5866 9.756C60.96 9.596 61.3706 9.46267 61.8186 9.356C62.2773 9.23867 62.7893 9.18 63.3546 9.18C64.1333 9.18 64.768 9.33467 65.2586 9.644C65.7493 9.95333 66.112 10.348 66.3466 10.828C66.5813 11.308 66.6986 11.8093 66.6986 12.332V16.86C66.6986 17.0627 66.624 17.2333 66.4746 17.372C66.336 17.5107 66.1653 17.58 65.9626 17.58C65.76 17.58 65.5893 17.5107 65.4506 17.372C65.312 17.2333 65.2426 17.0627 65.2426 16.86V16.444C64.9546 16.7427 64.5706 17.02 64.0906 17.276C63.6106 17.532 62.992 17.66 62.2346 17.66ZM62.7786 16.38C63.28 16.38 63.7493 16.2573 64.1866 16.012C64.624 15.7667 64.976 15.4893 65.2426 15.18V13.836H63.4986C62.752 13.836 62.16 13.932 61.7226 14.124C61.296 14.316 61.0826 14.6413 61.0826 15.1C61.0826 15.4413 61.2 15.74 61.4346 15.996C61.68 16.252 62.128 16.38 62.7786 16.38ZM71.779 17.66C71.1923 17.66 70.659 17.596 70.179 17.468C69.7097 17.34 69.2723 17.164 68.867 16.94C68.6857 16.812 68.595 16.636 68.595 16.412C68.595 16.252 68.6537 16.108 68.771 15.98C68.8883 15.8413 69.0377 15.772 69.219 15.772C69.315 15.772 69.411 15.7933 69.507 15.836C69.795 15.964 70.1097 16.076 70.451 16.172C70.803 16.268 71.2137 16.316 71.683 16.316C72.3017 16.316 72.7497 16.22 73.027 16.028C73.315 15.8253 73.459 15.5427 73.459 15.18C73.459 14.9453 73.3417 14.764 73.107 14.636C72.883 14.508 72.5843 14.4013 72.211 14.316C71.8483 14.22 71.4643 14.124 71.059 14.028C70.6537 13.9213 70.2643 13.7827 69.891 13.612C69.5283 13.4307 69.2297 13.1907 68.995 12.892C68.771 12.5827 68.659 12.188 68.659 11.708C68.659 10.9827 68.9203 10.38 69.443 9.9C69.9657 9.42 70.7443 9.18 71.779 9.18C72.2163 9.18 72.627 9.21733 73.011 9.292C73.4057 9.36667 73.7683 9.46267 74.099 9.58C74.2483 9.62267 74.3603 9.708 74.435 9.836C74.5203 9.95333 74.563 10.0707 74.563 10.188C74.563 10.3587 74.499 10.508 74.371 10.636C74.2537 10.764 74.1043 10.828 73.923 10.828C73.8803 10.828 73.843 10.828 73.811 10.828C73.779 10.8173 73.747 10.8067 73.715 10.796C73.459 10.7107 73.1763 10.6413 72.867 10.588C72.5683 10.5347 72.243 10.508 71.891 10.508C71.3043 10.508 70.851 10.6147 70.531 10.828C70.211 11.0413 70.051 11.308 70.051 11.628C70.051 11.9053 70.163 12.1187 70.387 12.268C70.6217 12.4173 70.9203 12.54 71.283 12.636C71.6563 12.7213 72.0457 12.812 72.451 12.908C72.867 13.004 73.2563 13.1427 73.619 13.324C73.9923 13.4947 74.291 13.7347 74.515 14.044C74.7497 14.3533 74.867 14.7693 74.867 15.292C74.867 15.9427 74.6057 16.5027 74.083 16.972C73.571 17.4307 72.803 17.66 71.779 17.66Z" fill="#313131"/>
<path fill-rule="evenodd" clip-rule="evenodd" d="M126.09 11.5078L120.59 10.5078L120 10.4014V13H118V17H120V19.417L120.41 19.4922L125.91 20.4922L126.5 20.5986V11.583L126.09 11.5078ZM121 17V18.582L125.5 19.4004V12.417L121 11.5986V13C122.105 13 123 13.8954 123 15C123 16.1046 122.105 17 121 17ZM121 14C121.552 14 122 14.4477 122 15C122 15.5523 121.552 16 121 16H119V14H121Z" fill="black"/>
<path fill-rule="evenodd" clip-rule="evenodd" d="M135.41 10.5078L129.953 11.5H125.5V19.5C125.5 20.3284 126.172 21 127 21H129C129.452 21 129.857 20.8004 130.132 20.4846L135.59 19.4922L136 19.417V17H138V13H136V10.4014L135.41 10.5078ZM135 13C133.895 13 133 13.8954 133 15C133 16.1046 133.895 17 135 17V18.582L130.5 19.4004V12.417L135 11.5986V13ZM129.5 19.5V12.5H126.5V19.5C126.5 19.7762 126.724 20 127 20H129C129.276 20 129.5 19.7762 129.5 19.5ZM135 14C134.448 14 134 14.4477 134 15C134 15.5523 134.448 16 135 16H137V14H135Z" fill="black"/>
<path d="M128 2C130.761 2 133 4.23858 133 7V11.5" stroke="black"/>
<path d="M128 2C125.239 2 123 4.23858 123 7V11.5" stroke="black"/>
<path d="M123 8.5C124.667 8.66667 128 8.3 128 5.5C128 6.5 129 8.5 133 8.5" stroke="black"/>
<path d="M124.5 8.5C124.5 9.33333 124.8 11.2 126 12" stroke="black"/>
<path d="M131.5 8.5C131.5 9.33333 131.2 11.2 130 12" stroke="black"/>
<path d="M150.272 17.58C150.069 17.58 149.899 17.5107 149.76 17.372C149.621 17.2333 149.552 17.0627 149.552 16.86V6.988C149.552 6.78533 149.621 6.61467 149.76 6.476C149.899 6.32667 150.069 6.252 150.272 6.252C150.475 6.252 150.645 6.32667 150.784 6.476C150.933 6.61467 151.008 6.78533 151.008 6.988V12.076L156.48 6.508C156.533 6.444 156.608 6.38533 156.704 6.332C156.8 6.27867 156.907 6.252 157.024 6.252C157.216 6.252 157.381 6.32133 157.52 6.46C157.659 6.588 157.717 6.748 157.696 6.94C157.675 7.14267 157.616 7.292 157.52 7.388L153.824 11.068L158.064 16.412C158.181 16.5613 158.24 16.716 158.24 16.876C158.251 17.068 158.187 17.2333 158.048 17.372C157.909 17.5107 157.739 17.58 157.536 17.58C157.291 17.58 157.099 17.484 156.96 17.292L152.832 12.028L151.008 13.868V16.86C151.008 17.0627 150.933 17.2333 150.784 17.372C150.645 17.5107 150.475 17.58 150.272 17.58ZM162.623 17.66C162.036 17.66 161.503 17.596 161.023 17.468C160.553 17.34 160.116 17.164 159.711 16.94C159.529 16.812 159.439 16.636 159.439 16.412C159.439 16.252 159.497 16.108 159.615 15.98C159.732 15.8413 159.881 15.772 160.063 15.772C160.159 15.772 160.255 15.7933 160.351 15.836C160.639 15.964 160.953 16.076 161.295 16.172C161.647 16.268 162.057 16.316 162.527 16.316C163.145 16.316 163.593 16.22 163.871 16.028C164.159 15.8253 164.303 15.5427 164.303 15.18C164.303 14.9453 164.185 14.764 163.951 14.636C163.727 14.508 163.428 14.4013 163.055 14.316C162.692 14.22 162.308 14.124 161.903 14.028C161.497 13.9213 161.108 13.7827 160.735 13.612C160.372 13.4307 160.073 13.1907 159.839 12.892C159.615 12.5827 159.503 12.188 159.503 11.708C159.503 10.9827 159.764 10.38 160.287 9.9C160.809 9.42 161.588 9.18 162.623 9.18C163.06 9.18 163.471 9.21733 163.855 9.292C164.249 9.36667 164.612 9.46267 164.943 9.58C165.092 9.62267 165.204 9.708 165.279 9.836C165.364 9.95333 165.407 10.0707 165.407 10.188C165.407 10.3587 165.343 10.508 165.215 10.636C165.097 10.764 164.948 10.828 164.767 10.828C164.724 10.828 164.687 10.828 164.655 10.828C164.623 10.8173 164.591 10.8067 164.559 10.796C164.303 10.7107 164.02 10.6413 163.711 10.588C163.412 10.5347 163.087 10.508 162.735 10.508C162.148 10.508 161.695 10.6147 161.375 10.828C161.055 11.0413 160.895 11.308 160.895 11.628C160.895 11.9053 161.007 12.1187 161.231 12.268C161.465 12.4173 161.764 12.54 162.127 12.636C162.5 12.7213 162.889 12.812 163.295 12.908C163.711 13.004 164.1 13.1427 164.463 13.324C164.836 13.4947 165.135 13.7347 165.359 14.044C165.593 14.3533 165.711 14.7693 165.711 15.292C165.711 15.9427 165.449 16.5027 164.927 16.972C164.415 17.4307 163.647 17.66 162.623 17.66ZM168.358 7.676C168.134 7.676 167.942 7.596 167.782 7.436C167.622 7.276 167.542 7.084 167.542 6.86V6.796C167.542 6.572 167.622 6.38 167.782 6.22C167.942 6.06 168.134 5.98 168.358 5.98H168.454C168.678 5.98 168.87 6.06 169.03 6.22C169.19 6.38 169.27 6.572 169.27 6.796V6.86C169.27 7.084 169.19 7.276 169.03 7.436C168.87 7.596 168.678 7.676 168.454 7.676H168.358ZM168.39 17.58C168.188 17.58 168.017 17.5107 167.878 17.372C167.74 17.2333 167.67 17.0627 167.67 16.86V9.996C167.67 9.78267 167.74 9.60667 167.878 9.468C168.017 9.32933 168.188 9.26 168.39 9.26C168.604 9.26 168.78 9.32933 168.918 9.468C169.057 9.60667 169.126 9.78267 169.126 9.996V16.86C169.126 17.0627 169.057 17.2333 168.918 17.372C168.78 17.5107 168.604 17.58 168.39 17.58ZM176.391 20.748C176.007 20.748 175.66 20.6307 175.351 20.396C175.052 20.1613 174.903 19.8307 174.903 19.404C174.903 18.9133 175.073 18.492 175.415 18.14C175.756 17.788 176.156 17.4947 176.615 17.26V16.444C176.327 16.7427 175.943 17.02 175.463 17.276C174.983 17.532 174.364 17.66 173.607 17.66C173.148 17.66 172.716 17.564 172.311 17.372C171.916 17.18 171.596 16.908 171.351 16.556C171.116 16.1933 170.999 15.7613 170.999 15.26C170.999 14.5027 171.297 13.884 171.895 13.404C172.503 12.9133 173.431 12.668 174.679 12.668H176.615V12.54C176.615 11.8253 176.439 11.3187 176.087 11.02C175.735 10.7107 175.196 10.556 174.471 10.556C174.023 10.556 173.628 10.5987 173.287 10.684C172.956 10.7587 172.641 10.844 172.343 10.94C172.257 10.9613 172.188 10.972 172.135 10.972C171.975 10.972 171.836 10.9133 171.719 10.796C171.601 10.6787 171.543 10.5347 171.543 10.364C171.543 10.076 171.681 9.87333 171.959 9.756C172.332 9.596 172.743 9.46267 173.191 9.356C173.649 9.23867 174.161 9.18 174.727 9.18C175.505 9.18 176.14 9.33467 176.631 9.644C177.121 9.95333 177.484 10.348 177.719 10.828C177.953 11.308 178.071 11.8093 178.071 12.332V16.86C178.071 17.1907 177.889 17.4253 177.527 17.564C177.057 17.7453 176.695 17.9747 176.439 18.252C176.193 18.54 176.071 18.8227 176.071 19.1C176.071 19.3347 176.135 19.516 176.263 19.644C176.391 19.7827 176.599 19.852 176.887 19.852C177.004 19.852 177.105 19.8413 177.191 19.82C177.287 19.7987 177.372 19.7773 177.447 19.756C177.511 19.7347 177.559 19.724 177.591 19.724C177.825 19.724 177.943 19.8413 177.943 20.076C177.943 20.1827 177.884 20.2787 177.767 20.364C177.596 20.4813 177.399 20.572 177.175 20.636C176.951 20.7107 176.689 20.748 176.391 20.748ZM174.151 16.38C174.652 16.38 175.121 16.2573 175.559 16.012C175.996 15.7667 176.348 15.4893 176.615 15.18V13.836H174.871C174.124 13.836 173.532 13.932 173.095 14.124C172.668 14.316 172.455 14.6413 172.455 15.1C172.455 15.4413 172.572 15.74 172.807 15.996C173.052 16.252 173.5 16.38 174.151 16.38ZM180.898 17.5C180.621 17.5 180.381 17.4307 180.178 17.292C179.986 17.1427 179.89 16.9293 179.89 16.652C179.89 16.4067 179.975 16.188 180.146 15.996L184.754 10.7H180.706C180.514 10.7 180.354 10.636 180.226 10.508C180.098 10.38 180.034 10.22 180.034 10.028C180.034 9.836 180.098 9.676 180.226 9.548C180.354 9.40933 180.514 9.34 180.706 9.34H185.554C185.831 9.34 186.055 9.42533 186.226 9.596C186.397 9.756 186.482 9.97467 186.482 10.252C186.482 10.4973 186.407 10.7107 186.258 10.892L181.778 16.14H185.89C186.082 16.14 186.242 16.2093 186.37 16.348C186.509 16.476 186.578 16.636 186.578 16.828C186.578 17.02 186.509 17.18 186.37 17.308C186.242 17.436 186.082 17.5 185.89 17.5H180.898ZM183.266 8.3C183.042 8.3 182.85 8.22 182.69 8.06C182.53 7.9 182.45 7.708 182.45 7.484C182.45 7.26 182.53 7.068 182.69 6.908C182.85 6.748 183.042 6.668 183.266 6.668C183.49 6.668 183.682 6.748 183.842 6.908C184.002 7.068 184.082 7.26 184.082 7.484C184.082 7.708 184.002 7.9 183.842 8.06C183.682 8.22 183.49 8.3 183.266 8.3ZM189.203 17.58C189 17.58 188.829 17.5107 188.691 17.372C188.552 17.2333 188.483 17.0627 188.483 16.86V6.476C188.483 6.27333 188.552 6.10267 188.691 5.964C188.829 5.81467 189 5.74 189.203 5.74C189.405 5.74 189.576 5.81467 189.715 5.964C189.864 6.10267 189.939 6.27333 189.939 6.476V13.02L193.747 9.5C193.811 9.44667 193.88 9.39867 193.955 9.356C194.04 9.31333 194.131 9.292 194.227 9.292C194.504 9.292 194.691 9.372 194.787 9.532C194.883 9.68133 194.931 9.836 194.931 9.996C194.931 10.06 194.915 10.14 194.883 10.236C194.851 10.3213 194.776 10.4227 194.659 10.54L192.355 12.604L195.251 16.444C195.357 16.5827 195.411 16.7267 195.411 16.876C195.411 17.0893 195.341 17.26 195.203 17.388C195.064 17.516 194.888 17.58 194.675 17.58C194.451 17.58 194.253 17.4787 194.083 17.276L191.331 13.532L189.939 14.796V16.86C189.939 17.0627 189.864 17.2333 189.715 17.372C189.576 17.5107 189.405 17.58 189.203 17.58ZM197.89 7.676C197.666 7.676 197.474 7.596 197.314 7.436C197.154 7.276 197.074 7.084 197.074 6.86V6.796C197.074 6.572 197.154 6.38 197.314 6.22C197.474 6.06 197.666 5.98 197.89 5.98H197.986C198.21 5.98 198.402 6.06 198.562 6.22C198.722 6.38 198.802 6.572 198.802 6.796V6.86C198.802 7.084 198.722 7.276 198.562 7.436C198.402 7.596 198.21 7.676 197.986 7.676H197.89ZM197.922 17.58C197.719 17.58 197.548 17.5107 197.41 17.372C197.271 17.2333 197.202 17.0627 197.202 16.86V9.996C197.202 9.78267 197.271 9.60667 197.41 9.468C197.548 9.32933 197.719 9.26 197.922 9.26C198.135 9.26 198.311 9.32933 198.45 9.468C198.588 9.60667 198.658 9.78267 198.658 9.996V16.86C198.658 17.0627 198.588 17.2333 198.45 17.372C198.311 17.5107 198.135 17.58 197.922 17.58ZM208.718 17.66C208.078 17.66 207.459 17.4947 206.862 17.164C206.275 16.8333 205.79 16.3533 205.406 15.724C205.033 15.0947 204.846 14.3267 204.846 13.42C204.846 12.5133 205.033 11.7453 205.406 11.116C205.79 10.4867 206.275 10.0067 206.862 9.676C207.459 9.34533 208.078 9.18 208.718 9.18C209.283 9.18 209.79 9.28667 210.238 9.5C210.686 9.71333 211.091 10.012 211.454 10.396V6.476C211.454 6.26267 211.523 6.08667 211.662 5.948C211.811 5.80933 211.987 5.74 212.19 5.74C212.393 5.74 212.563 5.80933 212.702 5.948C212.841 6.08667 212.91 6.26267 212.91 6.476V16.86C212.91 17.0627 212.841 17.2333 212.702 17.372C212.563 17.5107 212.393 17.58 212.19 17.58C211.987 17.58 211.811 17.5107 211.662 17.372C211.523 17.2333 211.454 17.0627 211.454 16.86V16.444C211.091 16.828 210.686 17.1267 210.238 17.34C209.79 17.5533 209.283 17.66 208.718 17.66ZM208.926 16.3C209.449 16.3 209.923 16.188 210.35 15.964C210.777 15.7293 211.145 15.4413 211.454 15.1V11.74C211.145 11.3987 210.777 11.116 210.35 10.892C209.923 10.6573 209.449 10.54 208.926 10.54C208.169 10.54 207.539 10.7853 207.038 11.276C206.547 11.756 206.302 12.4707 206.302 13.42C206.302 14.3587 206.547 15.0733 207.038 15.564C207.539 16.0547 208.169 16.3 208.926 16.3ZM216.156 17.58C215.953 17.58 215.783 17.5107 215.644 17.372C215.505 17.2333 215.436 17.0627 215.436 16.86V6.476C215.436 6.26267 215.505 6.08667 215.644 5.948C215.783 5.80933 215.953 5.74 216.156 5.74C216.369 5.74 216.545 5.80933 216.684 5.948C216.823 6.08667 216.892 6.26267 216.892 6.476V16.86C216.892 17.0627 216.823 17.2333 216.684 17.372C216.545 17.5107 216.369 17.58 216.156 17.58ZM221.5 17.66C221.042 17.66 220.61 17.564 220.204 17.372C219.81 17.18 219.49 16.908 219.244 16.556C219.01 16.1933 218.892 15.7613 218.892 15.26C218.892 14.5027 219.191 13.884 219.788 13.404C220.396 12.9133 221.324 12.668 222.572 12.668H224.508V12.54C224.508 11.8253 224.332 11.3187 223.98 11.02C223.628 10.7107 223.09 10.556 222.364 10.556C221.916 10.556 221.522 10.5987 221.18 10.684C220.85 10.7587 220.535 10.844 220.236 10.94C220.151 10.9613 220.082 10.972 220.028 10.972C219.868 10.972 219.73 10.9133 219.612 10.796C219.495 10.6787 219.436 10.5347 219.436 10.364C219.436 10.076 219.575 9.87333 219.852 9.756C220.226 9.596 220.636 9.46267 221.084 9.356C221.543 9.23867 222.055 9.18 222.62 9.18C223.399 9.18 224.034 9.33467 224.524 9.644C225.015 9.95333 225.378 10.348 225.612 10.828C225.847 11.308 225.964 11.8093 225.964 12.332V16.86C225.964 17.0627 225.89 17.2333 225.74 17.372C225.602 17.5107 225.431 17.58 225.228 17.58C225.026 17.58 224.855 17.5107 224.716 17.372C224.578 17.2333 224.508 17.0627 224.508 16.86V16.444C224.22 16.7427 223.836 17.02 223.356 17.276C222.876 17.532 222.258 17.66 221.5 17.66ZM222.044 16.38C222.546 16.38 223.015 16.2573 223.452 16.012C223.89 15.7667 224.242 15.4893 224.508 15.18V13.836H222.764C222.018 13.836 221.426 13.932 220.988 14.124C220.562 14.316 220.348 14.6413 220.348 15.1C220.348 15.4413 220.466 15.74 220.7 15.996C220.946 16.252 221.394 16.38 222.044 16.38ZM235.937 17.66C235.297 17.66 234.678 17.4947 234.081 17.164C233.494 16.8333 233.009 16.3533 232.625 15.724C232.252 15.0947 232.065 14.3267 232.065 13.42C232.065 12.5133 232.252 11.7453 232.625 11.116C233.009 10.4867 233.494 10.0067 234.081 9.676C234.678 9.34533 235.297 9.18 235.937 9.18C236.502 9.18 237.009 9.28667 237.457 9.5C237.905 9.71333 238.31 10.012 238.673 10.396V6.476C238.673 6.26267 238.742 6.08667 238.881 5.948C239.03 5.80933 239.206 5.74 239.409 5.74C239.612 5.74 239.782 5.80933 239.921 5.948C240.06 6.08667 240.129 6.26267 240.129 6.476V16.86C240.129 17.0627 240.06 17.2333 239.921 17.372C239.782 17.5107 239.612 17.58 239.409 17.58C239.206 17.58 239.03 17.5107 238.881 17.372C238.742 17.2333 238.673 17.0627 238.673 16.86V16.444C238.31 16.828 237.905 17.1267 237.457 17.34C237.009 17.5533 236.502 17.66 235.937 17.66ZM236.145 16.3C236.668 16.3 237.142 16.188 237.569 15.964C237.996 15.7293 238.364 15.4413 238.673 15.1V11.74C238.364 11.3987 237.996 11.116 237.569 10.892C237.142 10.6573 236.668 10.54 236.145 10.54C235.388 10.54 234.758 10.7853 234.257 11.276C233.766 11.756 233.521 12.4707 233.521 13.42C233.521 14.3587 233.766 15.0733 234.257 15.564C234.758 16.0547 235.388 16.3 236.145 16.3ZM243.039 17.5C242.761 17.5 242.521 17.4307 242.319 17.292C242.127 17.1427 242.031 16.9293 242.031 16.652C242.031 16.4067 242.116 16.188 242.287 15.996L246.895 10.7H242.847C242.655 10.7 242.495 10.636 242.367 10.508C242.239 10.38 242.175 10.22 242.175 10.028C242.175 9.836 242.239 9.676 242.367 9.548C242.495 9.40933 242.655 9.34 242.847 9.34H247.695C247.972 9.34 248.196 9.42533 248.367 9.596C248.537 9.756 248.623 9.97467 248.623 10.252C248.623 10.4973 248.548 10.7107 248.399 10.892L243.919 16.14H248.031C248.223 16.14 248.383 16.2093 248.511 16.348C248.649 16.476 248.719 16.636 248.719 16.828C248.719 17.02 248.649 17.18 248.511 17.308C248.383 17.436 248.223 17.5 248.031 17.5H243.039ZM251.311 7.676C251.087 7.676 250.895 7.596 250.735 7.436C250.575 7.276 250.495 7.084 250.495 6.86V6.796C250.495 6.572 250.575 6.38 250.735 6.22C250.895 6.06 251.087 5.98 251.311 5.98H251.407C251.631 5.98 251.823 6.06 251.983 6.22C252.143 6.38 252.223 6.572 252.223 6.796V6.86C252.223 7.084 252.143 7.276 251.983 7.436C251.823 7.596 251.631 7.676 251.407 7.676H251.311ZM251.343 17.58C251.141 17.58 250.97 17.5107 250.831 17.372C250.693 17.2333 250.623 17.0627 250.623 16.86V9.996C250.623 9.78267 250.693 9.60667 250.831 9.468C250.97 9.32933 251.141 9.26 251.343 9.26C251.557 9.26 251.733 9.32933 251.871 9.468C252.01 9.60667 252.079 9.78267 252.079 9.996V16.86C252.079 17.0627 252.01 17.2333 251.871 17.372C251.733 17.5107 251.557 17.58 251.343 17.58ZM258.256 17.66C256.954 17.66 255.936 17.292 255.2 16.556C254.474 15.8093 254.112 14.764 254.112 13.42C254.112 12.6947 254.245 12.012 254.512 11.372C254.778 10.7213 255.194 10.1933 255.76 9.788C256.325 9.38267 257.05 9.18 257.936 9.18C258.757 9.18 259.45 9.372 260.016 9.756C260.581 10.1293 261.008 10.62 261.296 11.228C261.594 11.836 261.744 12.4973 261.744 13.212C261.744 13.4147 261.674 13.5853 261.536 13.724C261.408 13.8627 261.232 13.932 261.008 13.932H255.584C255.669 14.6467 255.941 15.2227 256.4 15.66C256.858 16.0867 257.52 16.3 258.384 16.3C258.864 16.3 259.269 16.2573 259.6 16.172C259.93 16.076 260.245 15.9533 260.544 15.804C260.629 15.7613 260.725 15.74 260.832 15.74C261.002 15.74 261.152 15.7987 261.28 15.916C261.408 16.0333 261.472 16.1827 261.472 16.364C261.472 16.492 261.429 16.6093 261.344 16.716C261.269 16.812 261.173 16.892 261.056 16.956C260.704 17.1587 260.32 17.3293 259.904 17.468C259.498 17.596 258.949 17.66 258.256 17.66ZM255.584 12.748H260.304C260.272 12.1933 260.128 11.7453 259.872 11.404C259.626 11.0627 259.328 10.812 258.976 10.652C258.624 10.492 258.277 10.412 257.936 10.412C257.594 10.412 257.248 10.492 256.896 10.652C256.544 10.812 256.245 11.0627 256 11.404C255.754 11.7453 255.616 12.1933 255.584 12.748ZM267.446 17.66C266.689 17.66 265.985 17.4947 265.334 17.164C264.684 16.8227 264.161 16.3373 263.766 15.708C263.372 15.068 263.174 14.3053 263.174 13.42C263.174 12.524 263.372 11.7613 263.766 11.132C264.161 10.5027 264.684 10.0227 265.334 9.692C265.985 9.35067 266.689 9.18 267.446 9.18C268.076 9.18 268.598 9.26533 269.014 9.436C269.441 9.596 269.788 9.76667 270.054 9.948C270.268 10.0867 270.374 10.2733 270.374 10.508C270.374 10.6573 270.316 10.8013 270.198 10.94C270.081 11.0787 269.937 11.148 269.766 11.148C269.649 11.148 269.532 11.116 269.414 11.052C269.137 10.9027 268.865 10.78 268.598 10.684C268.332 10.588 267.99 10.54 267.574 10.54C266.646 10.54 265.921 10.8067 265.398 11.34C264.886 11.8733 264.63 12.5667 264.63 13.42C264.63 14.2733 264.886 14.9667 265.398 15.5C265.921 16.0333 266.646 16.3 267.574 16.3C267.99 16.3 268.332 16.252 268.598 16.156C268.865 16.0493 269.137 15.9267 269.414 15.788C269.532 15.724 269.649 15.692 269.766 15.692C269.937 15.692 270.081 15.7613 270.198 15.9C270.316 16.0387 270.374 16.1827 270.374 16.332C270.374 16.5667 270.268 16.7533 270.054 16.892C269.788 17.0627 269.441 17.2333 269.014 17.404C268.598 17.5747 268.076 17.66 267.446 17.66ZM272.89 7.676C272.666 7.676 272.474 7.596 272.314 7.436C272.154 7.276 272.074 7.084 272.074 6.86V6.796C272.074 6.572 272.154 6.38 272.314 6.22C272.474 6.06 272.666 5.98 272.89 5.98H272.986C273.21 5.98 273.402 6.06 273.562 6.22C273.722 6.38 273.802 6.572 273.802 6.796V6.86C273.802 7.084 273.722 7.276 273.562 7.436C273.402 7.596 273.21 7.676 272.986 7.676H272.89ZM272.922 17.58C272.719 17.58 272.548 17.5107 272.41 17.372C272.271 17.2333 272.202 17.0627 272.202 16.86V9.996C272.202 9.78267 272.271 9.60667 272.41 9.468C272.548 9.32933 272.719 9.26 272.922 9.26C273.135 9.26 273.311 9.32933 273.45 9.468C273.588 9.60667 273.658 9.78267 273.658 9.996V16.86C273.658 17.0627 273.588 17.2333 273.45 17.372C273.311 17.5107 273.135 17.58 272.922 17.58Z" fill="#313131"/>
<path fill-rule="evenodd" clip-rule="evenodd" d="M331.864 14.6072L332.453 14.5V15.0991V16.42H331.453V15.6982L328.821 16.1768V20.3732V20.4439L331.453 19.9653V18.5H332.453V20.3826V20.7999L332.043 20.8745L328.41 21.5349L328.228 21.5681C327.976 21.7596 327.662 21.8732 327.321 21.8732H326.679C325.851 21.8732 325.179 21.2016 325.179 20.3732V15.7595V15.2595H325.679H328.276L331.864 14.6072ZM327.821 16.2595V20.3732C327.821 20.6494 327.597 20.8732 327.321 20.8732H326.679C326.403 20.8732 326.179 20.6494 326.179 20.3732V16.2595H327.821Z" fill="black"/>
<path d="M330.952 16.956C330.539 17.1945 330.398 17.7223 330.636 18.1352C330.874 18.5482 331.403 18.6902 331.816 18.4521L332.721 17.9291C332.96 17.7911 333.042 17.4852 332.904 17.2461L332.291 16.183L330.952 16.956Z" stroke="black"/>
<path d="M321.884 16.42V15.0991L325.516 15.7596V21.043L321.884 20.3826V18.5" stroke="black"/>
<path d="M322.885 16.956C323.298 17.1945 323.44 17.7223 323.201 18.1352C322.963 18.5482 322.435 18.6902 322.022 18.4521L321.116 17.9291C320.877 17.7911 320.795 17.4852 320.933 17.2461L321.547 16.183L322.885 16.956Z" stroke="black"/>
<path d="M322.5 9C323.5 8.5 325 7.84587 325 6C325 6.65924 325 8 331.5 8" stroke="black"/>
<path d="M327 2.5C329.685 2.5 331.79 4.8055 331.547 7.47947L331.538 7.58078C331.513 7.85984 331.466 8.13653 331.398 8.40838L331.106 9.57464C330.723 11.1091 331.051 12.7347 332 14" stroke="black"/>
<path d="M327 2.5C324.315 2.5 322.21 4.8055 322.453 7.47947L322.462 7.58078C322.487 7.85984 322.534 8.13653 322.602 8.40838L322.894 9.57464C323.277 11.1091 322.949 12.7347 322 14" stroke="black"/>
<path d="M324.095 8C324.033 8.2557 324 8.52376 324 8.8C324 10.5673 325.343 12 327 12C328.657 12 330 10.5673 330 8.8C330 8.52376 329.967 8.2557 329.905 8" stroke="black"/>
<path d="M326 12C326 14 324 13.5 323 15" stroke="black"/>
<path d="M328 12C328 14 330 13.5 331 15" stroke="black"/>
<path d="M349.272 17.58C349.069 17.58 348.899 17.5107 348.76 17.372C348.621 17.2333 348.552 17.0627 348.552 16.86V6.988C348.552 6.78533 348.621 6.61467 348.76 6.476C348.899 6.32667 349.069 6.252 349.272 6.252C349.475 6.252 349.645 6.32667 349.784 6.476C349.933 6.61467 350.008 6.78533 350.008 6.988V12.076L355.48 6.508C355.533 6.444 355.608 6.38533 355.704 6.332C355.8 6.27867 355.907 6.252 356.024 6.252C356.216 6.252 356.381 6.32133 356.52 6.46C356.659 6.588 356.717 6.748 356.696 6.94C356.675 7.14267 356.616 7.292 356.52 7.388L352.824 11.068L357.064 16.412C357.181 16.5613 357.24 16.716 357.24 16.876C357.251 17.068 357.187 17.2333 357.048 17.372C356.909 17.5107 356.739 17.58 356.536 17.58C356.291 17.58 356.099 17.484 355.96 17.292L351.832 12.028L350.008 13.868V16.86C350.008 17.0627 349.933 17.2333 349.784 17.372C349.645 17.5107 349.475 17.58 349.272 17.58ZM361.623 17.66C361.036 17.66 360.503 17.596 360.023 17.468C359.553 17.34 359.116 17.164 358.711 16.94C358.529 16.812 358.439 16.636 358.439 16.412C358.439 16.252 358.497 16.108 358.615 15.98C358.732 15.8413 358.881 15.772 359.063 15.772C359.159 15.772 359.255 15.7933 359.351 15.836C359.639 15.964 359.953 16.076 360.295 16.172C360.647 16.268 361.057 16.316 361.527 16.316C362.145 16.316 362.593 16.22 362.871 16.028C363.159 15.8253 363.303 15.5427 363.303 15.18C363.303 14.9453 363.185 14.764 362.951 14.636C362.727 14.508 362.428 14.4013 362.055 14.316C361.692 14.22 361.308 14.124 360.903 14.028C360.497 13.9213 360.108 13.7827 359.735 13.612C359.372 13.4307 359.073 13.1907 358.839 12.892C358.615 12.5827 358.503 12.188 358.503 11.708C358.503 10.9827 358.764 10.38 359.287 9.9C359.809 9.42 360.588 9.18 361.623 9.18C362.06 9.18 362.471 9.21733 362.855 9.292C363.249 9.36667 363.612 9.46267 363.943 9.58C364.092 9.62267 364.204 9.708 364.279 9.836C364.364 9.95333 364.407 10.0707 364.407 10.188C364.407 10.3587 364.343 10.508 364.215 10.636C364.097 10.764 363.948 10.828 363.767 10.828C363.724 10.828 363.687 10.828 363.655 10.828C363.623 10.8173 363.591 10.8067 363.559 10.796C363.303 10.7107 363.02 10.6413 362.711 10.588C362.412 10.5347 362.087 10.508 361.735 10.508C361.148 10.508 360.695 10.6147 360.375 10.828C360.055 11.0413 359.895 11.308 359.895 11.628C359.895 11.9053 360.007 12.1187 360.231 12.268C360.465 12.4173 360.764 12.54 361.127 12.636C361.5 12.7213 361.889 12.812 362.295 12.908C362.711 13.004 363.1 13.1427 363.463 13.324C363.836 13.4947 364.135 13.7347 364.359 14.044C364.593 14.3533 364.711 14.7693 364.711 15.292C364.711 15.9427 364.449 16.5027 363.927 16.972C363.415 17.4307 362.647 17.66 361.623 17.66ZM367.358 7.676C367.134 7.676 366.942 7.596 366.782 7.436C366.622 7.276 366.542 7.084 366.542 6.86V6.796C366.542 6.572 366.622 6.38 366.782 6.22C366.942 6.06 367.134 5.98 367.358 5.98H367.454C367.678 5.98 367.87 6.06 368.03 6.22C368.19 6.38 368.27 6.572 368.27 6.796V6.86C368.27 7.084 368.19 7.276 368.03 7.436C367.87 7.596 367.678 7.676 367.454 7.676H367.358ZM367.39 17.58C367.188 17.58 367.017 17.5107 366.878 17.372C366.74 17.2333 366.67 17.0627 366.67 16.86V9.996C366.67 9.78267 366.74 9.60667 366.878 9.468C367.017 9.32933 367.188 9.26 367.39 9.26C367.604 9.26 367.78 9.32933 367.918 9.468C368.057 9.60667 368.126 9.78267 368.126 9.996V16.86C368.126 17.0627 368.057 17.2333 367.918 17.372C367.78 17.5107 367.604 17.58 367.39 17.58ZM375.391 20.748C375.007 20.748 374.66 20.6307 374.351 20.396C374.052 20.1613 373.903 19.8307 373.903 19.404C373.903 18.9133 374.073 18.492 374.415 18.14C374.756 17.788 375.156 17.4947 375.615 17.26V16.444C375.327 16.7427 374.943 17.02 374.463 17.276C373.983 17.532 373.364 17.66 372.607 17.66C372.148 17.66 371.716 17.564 371.311 17.372C370.916 17.18 370.596 16.908 370.351 16.556C370.116 16.1933 369.999 15.7613 369.999 15.26C369.999 14.5027 370.297 13.884 370.895 13.404C371.503 12.9133 372.431 12.668 373.679 12.668H375.615V12.54C375.615 11.8253 375.439 11.3187 375.087 11.02C374.735 10.7107 374.196 10.556 373.471 10.556C373.023 10.556 372.628 10.5987 372.287 10.684C371.956 10.7587 371.641 10.844 371.343 10.94C371.257 10.9613 371.188 10.972 371.135 10.972C370.975 10.972 370.836 10.9133 370.719 10.796C370.601 10.6787 370.543 10.5347 370.543 10.364C370.543 10.076 370.681 9.87333 370.959 9.756C371.332 9.596 371.743 9.46267 372.191 9.356C372.649 9.23867 373.161 9.18 373.727 9.18C374.505 9.18 375.14 9.33467 375.631 9.644C376.121 9.95333 376.484 10.348 376.719 10.828C376.953 11.308 377.071 11.8093 377.071 12.332V16.86C377.071 17.1907 376.889 17.4253 376.527 17.564C376.057 17.7453 375.695 17.9747 375.439 18.252C375.193 18.54 375.071 18.8227 375.071 19.1C375.071 19.3347 375.135 19.516 375.263 19.644C375.391 19.7827 375.599 19.852 375.887 19.852C376.004 19.852 376.105 19.8413 376.191 19.82C376.287 19.7987 376.372 19.7773 376.447 19.756C376.511 19.7347 376.559 19.724 376.591 19.724C376.825 19.724 376.943 19.8413 376.943 20.076C376.943 20.1827 376.884 20.2787 376.767 20.364C376.596 20.4813 376.399 20.572 376.175 20.636C375.951 20.7107 375.689 20.748 375.391 20.748ZM373.151 16.38C373.652 16.38 374.121 16.2573 374.559 16.012C374.996 15.7667 375.348 15.4893 375.615 15.18V13.836H373.871C373.124 13.836 372.532 13.932 372.095 14.124C371.668 14.316 371.455 14.6413 371.455 15.1C371.455 15.4413 371.572 15.74 371.807 15.996C372.052 16.252 372.5 16.38 373.151 16.38ZM379.898 17.5C379.621 17.5 379.381 17.4307 379.178 17.292C378.986 17.1427 378.89 16.9293 378.89 16.652C378.89 16.4067 378.975 16.188 379.146 15.996L383.754 10.7H379.706C379.514 10.7 379.354 10.636 379.226 10.508C379.098 10.38 379.034 10.22 379.034 10.028C379.034 9.836 379.098 9.676 379.226 9.548C379.354 9.40933 379.514 9.34 379.706 9.34H384.554C384.831 9.34 385.055 9.42533 385.226 9.596C385.397 9.756 385.482 9.97467 385.482 10.252C385.482 10.4973 385.407 10.7107 385.258 10.892L380.778 16.14H384.89C385.082 16.14 385.242 16.2093 385.37 16.348C385.509 16.476 385.578 16.636 385.578 16.828C385.578 17.02 385.509 17.18 385.37 17.308C385.242 17.436 385.082 17.5 384.89 17.5H379.898ZM382.266 8.3C382.042 8.3 381.85 8.22 381.69 8.06C381.53 7.9 381.45 7.708 381.45 7.484C381.45 7.26 381.53 7.068 381.69 6.908C381.85 6.748 382.042 6.668 382.266 6.668C382.49 6.668 382.682 6.748 382.842 6.908C383.002 7.068 383.082 7.26 383.082 7.484C383.082 7.708 383.002 7.9 382.842 8.06C382.682 8.22 382.49 8.3 382.266 8.3ZM388.203 17.58C388 17.58 387.829 17.5107 387.691 17.372C387.552 17.2333 387.483 17.0627 387.483 16.86V6.476C387.483 6.27333 387.552 6.10267 387.691 5.964C387.829 5.81467 388 5.74 388.203 5.74C388.405 5.74 388.576 5.81467 388.715 5.964C388.864 6.10267 388.939 6.27333 388.939 6.476V13.02L392.747 9.5C392.811 9.44667 392.88 9.39867 392.955 9.356C393.04 9.31333 393.131 9.292 393.227 9.292C393.504 9.292 393.691 9.372 393.787 9.532C393.883 9.68133 393.931 9.836 393.931 9.996C393.931 10.06 393.915 10.14 393.883 10.236C393.851 10.3213 393.776 10.4227 393.659 10.54L391.355 12.604L394.251 16.444C394.357 16.5827 394.411 16.7267 394.411 16.876C394.411 17.0893 394.341 17.26 394.203 17.388C394.064 17.516 393.888 17.58 393.675 17.58C393.451 17.58 393.253 17.4787 393.083 17.276L390.331 13.532L388.939 14.796V16.86C388.939 17.0627 388.864 17.2333 388.715 17.372C388.576 17.5107 388.405 17.58 388.203 17.58ZM396.89 7.676C396.666 7.676 396.474 7.596 396.314 7.436C396.154 7.276 396.074 7.084 396.074 6.86V6.796C396.074 6.572 396.154 6.38 396.314 6.22C396.474 6.06 396.666 5.98 396.89 5.98H396.986C397.21 5.98 397.402 6.06 397.562 6.22C397.722 6.38 397.802 6.572 397.802 6.796V6.86C397.802 7.084 397.722 7.276 397.562 7.436C397.402 7.596 397.21 7.676 396.986 7.676H396.89ZM396.922 17.58C396.719 17.58 396.548 17.5107 396.41 17.372C396.271 17.2333 396.202 17.0627 396.202 16.86V9.996C396.202 9.78267 396.271 9.60667 396.41 9.468C396.548 9.32933 396.719 9.26 396.922 9.26C397.135 9.26 397.311 9.32933 397.45 9.468C397.588 9.60667 397.658 9.78267 397.658 9.996V16.86C397.658 17.0627 397.588 17.2333 397.45 17.372C397.311 17.5107 397.135 17.58 396.922 17.58ZM407.718 17.66C407.078 17.66 406.459 17.4947 405.862 17.164C405.275 16.8333 404.79 16.3533 404.406 15.724C404.033 15.0947 403.846 14.3267 403.846 13.42C403.846 12.5133 404.033 11.7453 404.406 11.116C404.79 10.4867 405.275 10.0067 405.862 9.676C406.459 9.34533 407.078 9.18 407.718 9.18C408.283 9.18 408.79 9.28667 409.238 9.5C409.686 9.71333 410.091 10.012 410.454 10.396V6.476C410.454 6.26267 410.523 6.08667 410.662 5.948C410.811 5.80933 410.987 5.74 411.19 5.74C411.393 5.74 411.563 5.80933 411.702 5.948C411.841 6.08667 411.91 6.26267 411.91 6.476V16.86C411.91 17.0627 411.841 17.2333 411.702 17.372C411.563 17.5107 411.393 17.58 411.19 17.58C410.987 17.58 410.811 17.5107 410.662 17.372C410.523 17.2333 410.454 17.0627 410.454 16.86V16.444C410.091 16.828 409.686 17.1267 409.238 17.34C408.79 17.5533 408.283 17.66 407.718 17.66ZM407.926 16.3C408.449 16.3 408.923 16.188 409.35 15.964C409.777 15.7293 410.145 15.4413 410.454 15.1V11.74C410.145 11.3987 409.777 11.116 409.35 10.892C408.923 10.6573 408.449 10.54 407.926 10.54C407.169 10.54 406.539 10.7853 406.038 11.276C405.547 11.756 405.302 12.4707 405.302 13.42C405.302 14.3587 405.547 15.0733 406.038 15.564C406.539 16.0547 407.169 16.3 407.926 16.3ZM415.156 17.58C414.953 17.58 414.783 17.5107 414.644 17.372C414.505 17.2333 414.436 17.0627 414.436 16.86V6.476C414.436 6.26267 414.505 6.08667 414.644 5.948C414.783 5.80933 414.953 5.74 415.156 5.74C415.369 5.74 415.545 5.80933 415.684 5.948C415.823 6.08667 415.892 6.26267 415.892 6.476V16.86C415.892 17.0627 415.823 17.2333 415.684 17.372C415.545 17.5107 415.369 17.58 415.156 17.58ZM420.5 17.66C420.042 17.66 419.61 17.564 419.204 17.372C418.81 17.18 418.49 16.908 418.244 16.556C418.01 16.1933 417.892 15.7613 417.892 15.26C417.892 14.5027 418.191 13.884 418.788 13.404C419.396 12.9133 420.324 12.668 421.572 12.668H423.508V12.54C423.508 11.8253 423.332 11.3187 422.98 11.02C422.628 10.7107 422.09 10.556 421.364 10.556C420.916 10.556 420.522 10.5987 420.18 10.684C419.85 10.7587 419.535 10.844 419.236 10.94C419.151 10.9613 419.082 10.972 419.028 10.972C418.868 10.972 418.73 10.9133 418.612 10.796C418.495 10.6787 418.436 10.5347 418.436 10.364C418.436 10.076 418.575 9.87333 418.852 9.756C419.226 9.596 419.636 9.46267 420.084 9.356C420.543 9.23867 421.055 9.18 421.62 9.18C422.399 9.18 423.034 9.33467 423.524 9.644C424.015 9.95333 424.378 10.348 424.612 10.828C424.847 11.308 424.964 11.8093 424.964 12.332V16.86C424.964 17.0627 424.89 17.2333 424.74 17.372C424.602 17.5107 424.431 17.58 424.228 17.58C424.026 17.58 423.855 17.5107 423.716 17.372C423.578 17.2333 423.508 17.0627 423.508 16.86V16.444C423.22 16.7427 422.836 17.02 422.356 17.276C421.876 17.532 421.258 17.66 420.5 17.66ZM421.044 16.38C421.546 16.38 422.015 16.2573 422.452 16.012C422.89 15.7667 423.242 15.4893 423.508 15.18V13.836H421.764C421.018 13.836 420.426 13.932 419.988 14.124C419.562 14.316 419.348 14.6413 419.348 15.1C419.348 15.4413 419.466 15.74 419.7 15.996C419.946 16.252 420.394 16.38 421.044 16.38ZM432.281 17.58C432.078 17.58 431.908 17.5107 431.769 17.372C431.63 17.2333 431.561 17.0627 431.561 16.86V9.996C431.561 9.79333 431.63 9.62267 431.769 9.484C431.908 9.33467 432.078 9.26 432.281 9.26C432.484 9.26 432.654 9.33467 432.793 9.484C432.942 9.62267 433.017 9.79333 433.017 9.996V10.684C433.305 10.3 433.657 9.95333 434.073 9.644C434.489 9.33467 434.974 9.18 435.529 9.18H435.609C435.812 9.18 435.977 9.24933 436.105 9.388C436.244 9.52667 436.313 9.69733 436.313 9.9C436.313 10.1027 436.244 10.268 436.105 10.396C435.966 10.524 435.79 10.588 435.577 10.588H435.497C434.974 10.588 434.5 10.7213 434.073 10.988C433.646 11.244 433.294 11.58 433.017 11.996V16.86C433.017 17.0627 432.942 17.2333 432.793 17.372C432.654 17.5107 432.484 17.58 432.281 17.58ZM441.052 17.66C440.23 17.66 439.51 17.484 438.892 17.132C438.273 16.7693 437.793 16.2733 437.452 15.644C437.121 15.004 436.956 14.2627 436.956 13.42C436.956 12.5773 437.121 11.8413 437.452 11.212C437.793 10.572 438.273 10.076 438.892 9.724C439.51 9.36133 440.23 9.18 441.052 9.18C441.873 9.18 442.588 9.36133 443.196 9.724C443.814 10.076 444.294 10.572 444.635 11.212C444.977 11.8413 445.148 12.5773 445.148 13.42C445.148 14.2627 444.977 15.004 444.635 15.644C444.294 16.2733 443.814 16.7693 443.196 17.132C442.588 17.484 441.873 17.66 441.052 17.66ZM441.052 16.332C441.457 16.332 441.862 16.236 442.268 16.044C442.673 15.852 443.009 15.5427 443.276 15.116C443.553 14.6787 443.692 14.108 443.692 13.404C443.692 12.7 443.553 12.1347 443.276 11.708C443.009 11.2813 442.673 10.9773 442.268 10.796C441.862 10.604 441.457 10.508 441.052 10.508C440.646 10.508 440.236 10.604 439.82 10.796C439.414 10.9773 439.078 11.2813 438.812 11.708C438.545 12.1347 438.412 12.7 438.412 13.404C438.412 14.108 438.545 14.6787 438.812 15.116C439.078 15.5427 439.414 15.852 439.82 16.044C440.236 16.236 440.646 16.332 441.052 16.332ZM450.562 17.66C449.922 17.66 449.303 17.4947 448.706 17.164C448.119 16.8333 447.634 16.3533 447.25 15.724C446.877 15.0947 446.69 14.3267 446.69 13.42C446.69 12.5133 446.877 11.7453 447.25 11.116C447.634 10.4867 448.119 10.0067 448.706 9.676C449.303 9.34533 449.922 9.18 450.562 9.18C451.127 9.18 451.634 9.28667 452.082 9.5C452.53 9.71333 452.935 10.012 453.298 10.396V6.476C453.298 6.26267 453.367 6.08667 453.506 5.948C453.655 5.80933 453.831 5.74 454.034 5.74C454.237 5.74 454.407 5.80933 454.546 5.948C454.685 6.08667 454.754 6.26267 454.754 6.476V16.86C454.754 17.0627 454.685 17.2333 454.546 17.372C454.407 17.5107 454.237 17.58 454.034 17.58C453.831 17.58 453.655 17.5107 453.506 17.372C453.367 17.2333 453.298 17.0627 453.298 16.86V16.444C452.935 16.828 452.53 17.1267 452.082 17.34C451.634 17.5533 451.127 17.66 450.562 17.66ZM450.77 16.3C451.293 16.3 451.767 16.188 452.194 15.964C452.621 15.7293 452.989 15.4413 453.298 15.1V11.74C452.989 11.3987 452.621 11.116 452.194 10.892C451.767 10.6573 451.293 10.54 450.77 10.54C450.013 10.54 449.383 10.7853 448.882 11.276C448.391 11.756 448.146 12.4707 448.146 13.42C448.146 14.3587 448.391 15.0733 448.882 15.564C449.383 16.0547 450.013 16.3 450.77 16.3ZM457.664 17.5C457.386 17.5 457.146 17.4307 456.944 17.292C456.752 17.1427 456.656 16.9293 456.656 16.652C456.656 16.4067 456.741 16.188 456.912 15.996L461.52 10.7H457.472C457.28 10.7 457.12 10.636 456.992 10.508C456.864 10.38 456.8 10.22 456.8 10.028C456.8 9.836 456.864 9.676 456.992 9.548C457.12 9.40933 457.28 9.34 457.472 9.34H462.32C462.597 9.34 462.821 9.42533 462.992 9.596C463.162 9.756 463.248 9.97467 463.248 10.252C463.248 10.4973 463.173 10.7107 463.024 10.892L458.544 16.14H462.656C462.848 16.14 463.008 16.2093 463.136 16.348C463.274 16.476 463.344 16.636 463.344 16.828C463.344 17.02 463.274 17.18 463.136 17.308C463.008 17.436 462.848 17.5 462.656 17.5H457.664ZM465.936 7.676C465.712 7.676 465.52 7.596 465.36 7.436C465.2 7.276 465.12 7.084 465.12 6.86V6.796C465.12 6.572 465.2 6.38 465.36 6.22C465.52 6.06 465.712 5.98 465.936 5.98H466.032C466.256 5.98 466.448 6.06 466.608 6.22C466.768 6.38 466.848 6.572 466.848 6.796V6.86C466.848 7.084 466.768 7.276 466.608 7.436C466.448 7.596 466.256 7.676 466.032 7.676H465.936ZM465.968 17.58C465.766 17.58 465.595 17.5107 465.456 17.372C465.318 17.2333 465.248 17.0627 465.248 16.86V9.996C465.248 9.78267 465.318 9.60667 465.456 9.468C465.595 9.32933 465.766 9.26 465.968 9.26C466.182 9.26 466.358 9.32933 466.496 9.468C466.635 9.60667 466.704 9.78267 466.704 9.996V16.86C466.704 17.0627 466.635 17.2333 466.496 17.372C466.358 17.5107 466.182 17.58 465.968 17.58ZM473.009 17.66C472.251 17.66 471.547 17.4947 470.897 17.164C470.246 16.8227 469.723 16.3373 469.329 15.708C468.934 15.068 468.737 14.3053 468.737 13.42C468.737 12.524 468.934 11.7613 469.329 11.132C469.723 10.5027 470.246 10.0227 470.897 9.692C471.547 9.35067 472.251 9.18 473.009 9.18C473.638 9.18 474.161 9.26533 474.577 9.436C475.003 9.596 475.35 9.76667 475.617 9.948C475.83 10.0867 475.937 10.2733 475.937 10.508C475.937 10.6573 475.878 10.8013 475.761 10.94C475.643 11.0787 475.499 11.148 475.329 11.148C475.211 11.148 475.094 11.116 474.977 11.052C474.699 10.9027 474.427 10.78 474.161 10.684C473.894 10.588 473.553 10.54 473.137 10.54C472.209 10.54 471.483 10.8067 470.961 11.34C470.449 11.8733 470.193 12.5667 470.193 13.42C470.193 14.2733 470.449 14.9667 470.961 15.5C471.483 16.0333 472.209 16.3 473.137 16.3C473.553 16.3 473.894 16.252 474.161 16.156C474.427 16.0493 474.699 15.9267 474.977 15.788C475.094 15.724 475.211 15.692 475.329 15.692C475.499 15.692 475.643 15.7613 475.761 15.9C475.878 16.0387 475.937 16.1827 475.937 16.332C475.937 16.5667 475.83 16.7533 475.617 16.892C475.35 17.0627 475.003 17.2333 474.577 17.404C474.161 17.5747 473.638 17.66 473.009 17.66ZM481.302 17.66C480.48 17.66 479.76 17.484 479.142 17.132C478.523 16.7693 478.043 16.2733 477.702 15.644C477.371 15.004 477.206 14.2627 477.206 13.42C477.206 12.5773 477.371 11.8413 477.702 11.212C478.043 10.572 478.523 10.076 479.142 9.724C479.76 9.36133 480.48 9.18 481.302 9.18C482.123 9.18 482.838 9.36133 483.446 9.724C484.064 10.076 484.544 10.572 484.885 11.212C485.227 11.8413 485.398 12.5773 485.398 13.42C485.398 14.2627 485.227 15.004 484.885 15.644C484.544 16.2733 484.064 16.7693 483.446 17.132C482.838 17.484 482.123 17.66 481.302 17.66ZM481.302 16.332C481.707 16.332 482.112 16.236 482.518 16.044C482.923 15.852 483.259 15.5427 483.526 15.116C483.803 14.6787 483.942 14.108 483.942 13.404C483.942 12.7 483.803 12.1347 483.526 11.708C483.259 11.2813 482.923 10.9773 482.518 10.796C482.112 10.604 481.707 10.508 481.302 10.508C480.896 10.508 480.486 10.604 480.07 10.796C479.664 10.9773 479.328 11.2813 479.062 11.708C478.795 12.1347 478.662 12.7 478.662 13.404C478.662 14.108 478.795 14.6787 479.062 15.116C479.328 15.5427 479.664 15.852 480.07 16.044C480.486 16.236 480.896 16.332 481.302 16.332ZM481.302 8.428C481.174 8.428 481.067 8.39067 480.982 8.316C480.907 8.23067 480.87 8.124 480.87 7.996C480.87 7.932 480.886 7.87333 480.918 7.82C480.95 7.756 480.971 7.71333 480.982 7.692L481.798 6.252C481.851 6.16667 481.915 6.09733 481.99 6.044C482.075 5.98 482.187 5.948 482.326 5.948C482.507 5.948 482.651 6.00133 482.758 6.108C482.864 6.21467 482.918 6.35867 482.918 6.54C482.918 6.68933 482.864 6.82267 482.758 6.94L481.654 8.252C481.558 8.36933 481.44 8.428 481.302 8.428ZM489.759 17.58C489.545 17.58 489.353 17.516 489.183 17.388C489.012 17.2493 488.895 17.0893 488.831 16.908L486.559 10.252C486.527 10.156 486.511 10.0653 486.511 9.98C486.511 9.77733 486.58 9.60667 486.719 9.468C486.857 9.32933 487.028 9.26 487.231 9.26C487.38 9.26 487.513 9.29733 487.631 9.372C487.759 9.44667 487.844 9.55333 487.887 9.692L489.759 15.852L491.615 9.836C491.668 9.66533 491.764 9.52667 491.903 9.42C492.052 9.31333 492.217 9.26 492.399 9.26C492.58 9.26 492.745 9.31333 492.895 9.42C493.044 9.52667 493.14 9.66533 493.183 9.836L495.039 15.852L496.911 9.692C496.953 9.55333 497.039 9.44667 497.167 9.372C497.295 9.29733 497.428 9.26 497.567 9.26C497.769 9.26 497.94 9.32933 498.079 9.468C498.217 9.60667 498.287 9.77733 498.287 9.98C498.287 10.0653 498.271 10.156 498.239 10.252L495.967 16.908C495.903 17.0893 495.785 17.2493 495.615 17.388C495.444 17.516 495.252 17.58 495.039 17.58C494.825 17.58 494.633 17.516 494.463 17.388C494.292 17.2493 494.169 17.084 494.095 16.892L492.399 11.596L490.703 16.892C490.628 17.084 490.505 17.2493 490.335 17.388C490.164 17.516 489.972 17.58 489.759 17.58Z" fill="#313131"/>
<path d="M556.056 14.0882H558.5C558.588 14.0882 558.673 14.1217 558.736 14.1813C558.798 14.2408 558.833 14.3216 558.833 14.4059V16.7353M550.5 16.7353V14.4059C550.5 14.3216 550.535 14.2408 550.598 14.1813C550.66 14.1217 550.745 14.0882 550.833 14.0882H553.833M550.5 16.7353H551.056C551.35 16.7353 551.633 16.8468 551.841 17.0454C552.05 17.244 552.167 17.5133 552.167 17.7941C552.167 18.0749 552.05 18.3443 551.841 18.5428C551.633 18.7414 551.35 18.8529 551.056 18.8529H550.5M558.833 16.7353H559.389C559.684 16.7353 559.966 16.8468 560.175 17.0454C560.383 17.244 560.5 17.5133 560.5 17.7941C560.5 18.0749 560.383 18.3443 560.175 18.5428C559.966 18.7414 559.684 18.8529 559.389 18.8529H558.833M556.056 14.0882V13.5588C556.056 13.278 555.938 13.0087 555.73 12.8101C555.522 12.6116 555.239 12.5 554.944 12.5C554.65 12.5 554.367 12.6116 554.159 12.8101C553.95 13.0087 553.833 13.278 553.833 13.5588V14.0882" fill="#313131"/>
<path d="M550.5 18.8529V21.1824C550.5 21.2666 550.535 21.3474 550.598 21.407C550.66 21.4665 550.745 21.5 550.833 21.5H558.5C558.588 21.5 558.673 21.4665 558.736 21.407C558.798 21.3474 558.833 21.2666 558.833 21.1824V18.8529H559.389C559.684 18.8529 559.966 18.7414 560.175 18.5428C560.383 18.3443 560.5 18.0749 560.5 17.7941C560.5 17.5133 560.383 17.244 560.175 17.0454C559.966 16.8468 559.684 16.7353 559.389 16.7353H558.833V14.4059C558.833 14.3216 558.798 14.2408 558.736 14.1813C558.673 14.1217 558.588 14.0882 558.5 14.0882H556.056V13.5588C556.056 13.278 555.938 13.0087 555.73 12.8101C555.522 12.6116 555.239 12.5 554.944 12.5C554.65 12.5 554.367 12.6116 554.159 12.8101C553.95 13.0087 553.833 13.278 553.833 13.5588V14.0882H550.833C550.745 14.0882 550.66 14.1217 550.598 14.1813C550.535 14.2408 550.5 14.3216 550.5 14.4059V16.7353H551.056C551.35 16.7353 551.633 16.8468 551.841 17.0454C552.05 17.244 552.167 17.5133 552.167 17.7941C552.167 18.0749 552.05 18.3443 551.841 18.5428C551.633 18.7414 551.35 18.8529 551.056 18.8529H550.5Z" stroke="black" stroke-linecap="round" stroke-linejoin="round"/>
<path d="M549.137 10.5892L551.36 9.57139C551.44 9.53458 551.503 9.46885 551.535 9.38866C551.567 9.30847 551.566 9.22039 551.53 9.14379L550.561 7.02591M542.984 10.4957L543.954 12.6136C543.989 12.6902 544.055 12.7491 544.136 12.7772C544.218 12.8053 544.309 12.8004 544.389 12.7636L547.117 11.5145M542.984 10.4957L543.489 10.2644C543.757 10.1417 543.967 9.92262 544.074 9.65532C544.181 9.38802 544.175 9.09442 544.058 8.83911C543.941 8.58379 543.723 8.38767 543.451 8.2939C543.179 8.20013 542.875 8.21638 542.607 8.33908L542.102 8.5704M550.561 7.02591L551.066 6.79459C551.334 6.67189 551.544 6.45279 551.651 6.18549C551.758 5.91819 551.752 5.62459 551.635 5.36927C551.518 5.11396 551.299 4.91784 551.027 4.82407C550.755 4.73029 550.452 4.74654 550.184 4.86924L549.679 5.10057M549.137 10.5892L549.358 11.0705C549.475 11.3259 549.48 11.6195 549.373 11.8868C549.267 12.1541 549.056 12.3732 548.788 12.4959C548.52 12.6186 548.217 12.6348 547.945 12.541C547.673 12.4473 547.454 12.2511 547.337 11.9958L547.117 11.5145" stroke="black" stroke-linecap="round" stroke-linejoin="round"/>
<path d="M573.272 17.58C573.069 17.58 572.899 17.5107 572.76 17.372C572.621 17.2333 572.552 17.0627 572.552 16.86V7.068C572.552 6.86533 572.621 6.69467 572.76 6.556C572.899 6.40667 573.069 6.332 573.272 6.332H576.92C577.731 6.332 578.408 6.43867 578.952 6.652C579.507 6.85467 579.944 7.132 580.264 7.484C580.595 7.82533 580.829 8.204 580.968 8.62C581.117 9.036 581.192 9.45733 581.192 9.884C581.192 10.3107 581.117 10.732 580.968 11.148C580.829 11.564 580.595 11.948 580.264 12.3C579.944 12.6413 579.507 12.9187 578.952 13.132C578.408 13.3347 577.731 13.436 576.92 13.436H574.008V16.86C574.008 17.0627 573.933 17.2333 573.784 17.372C573.645 17.5107 573.475 17.58 573.272 17.58ZM574.008 12.06H576.776C577.576 12.06 578.189 11.9533 578.616 11.74C579.043 11.516 579.336 11.2387 579.496 10.908C579.656 10.5667 579.736 10.2253 579.736 9.884C579.736 9.532 579.656 9.19067 579.496 8.86C579.336 8.52933 579.043 8.25733 578.616 8.044C578.189 7.82 577.576 7.708 576.776 7.708H574.008V12.06ZM585.689 17.66C585.081 17.66 584.563 17.5213 584.137 17.244C583.71 16.956 583.385 16.572 583.161 16.092C582.937 15.612 582.825 15.0893 582.825 14.524V9.98C582.825 9.77733 582.894 9.60667 583.033 9.468C583.182 9.32933 583.358 9.26 583.561 9.26C583.763 9.26 583.934 9.32933 584.073 9.468C584.211 9.60667 584.281 9.77733 584.281 9.98V14.364C584.281 14.972 584.419 15.452 584.697 15.804C584.974 16.1453 585.422 16.316 586.041 16.316C586.617 16.316 587.118 16.1613 587.545 15.852C587.971 15.532 588.345 15.1747 588.665 14.78V9.98C588.665 9.77733 588.734 9.60667 588.873 9.468C589.022 9.32933 589.198 9.26 589.401 9.26C589.603 9.26 589.774 9.32933 589.913 9.468C590.051 9.60667 590.121 9.77733 590.121 9.98V16.844C590.121 17.0467 590.051 17.2227 589.913 17.372C589.774 17.5107 589.603 17.58 589.401 17.58C589.198 17.58 589.022 17.5107 588.873 17.372C588.734 17.2227 588.665 17.0467 588.665 16.844V16.188C588.334 16.5507 587.934 16.8867 587.465 17.196C586.995 17.5053 586.403 17.66 585.689 17.66ZM593.039 17.5C592.761 17.5 592.521 17.4307 592.319 17.292C592.127 17.1427 592.031 16.9293 592.031 16.652C592.031 16.4067 592.116 16.188 592.287 15.996L596.895 10.7H592.847C592.655 10.7 592.495 10.636 592.367 10.508C592.239 10.38 592.175 10.22 592.175 10.028C592.175 9.836 592.239 9.676 592.367 9.548C592.495 9.40933 592.655 9.34 592.847 9.34H597.695C597.972 9.34 598.196 9.42533 598.367 9.596C598.537 9.756 598.623 9.97467 598.623 10.252C598.623 10.4973 598.548 10.7107 598.399 10.892L593.919 16.14H598.031C598.223 16.14 598.383 16.2093 598.511 16.348C598.649 16.476 598.719 16.636 598.719 16.828C598.719 17.02 598.649 17.18 598.511 17.308C598.383 17.436 598.223 17.5 598.031 17.5H593.039ZM601.007 17.5C600.73 17.5 600.49 17.4307 600.287 17.292C600.095 17.1427 599.999 16.9293 599.999 16.652C599.999 16.4067 600.085 16.188 600.255 15.996L604.863 10.7H600.815C600.623 10.7 600.463 10.636 600.335 10.508C600.207 10.38 600.143 10.22 600.143 10.028C600.143 9.836 600.207 9.676 600.335 9.548C600.463 9.40933 600.623 9.34 600.815 9.34H605.663C605.941 9.34 606.165 9.42533 606.335 9.596C606.506 9.756 606.591 9.97467 606.591 10.252C606.591 10.4973 606.517 10.7107 606.367 10.892L601.887 16.14H605.999C606.191 16.14 606.351 16.2093 606.479 16.348C606.618 16.476 606.687 16.636 606.687 16.828C606.687 17.02 606.618 17.18 606.479 17.308C606.351 17.436 606.191 17.5 605.999 17.5H601.007ZM609.312 17.58C609.109 17.58 608.939 17.5107 608.8 17.372C608.661 17.2333 608.592 17.0627 608.592 16.86V6.476C608.592 6.26267 608.661 6.08667 608.8 5.948C608.939 5.80933 609.109 5.74 609.312 5.74C609.525 5.74 609.701 5.80933 609.84 5.948C609.979 6.08667 610.048 6.26267 610.048 6.476V16.86C610.048 17.0627 609.979 17.2333 609.84 17.372C609.701 17.5107 609.525 17.58 609.312 17.58ZM616.225 17.66C614.923 17.66 613.905 17.292 613.169 16.556C612.443 15.8093 612.081 14.764 612.081 13.42C612.081 12.6947 612.214 12.012 612.481 11.372C612.747 10.7213 613.163 10.1933 613.729 9.788C614.294 9.38267 615.019 9.18 615.905 9.18C616.726 9.18 617.419 9.372 617.985 9.756C618.55 10.1293 618.977 10.62 619.265 11.228C619.563 11.836 619.713 12.4973 619.713 13.212C619.713 13.4147 619.643 13.5853 619.505 13.724C619.377 13.8627 619.201 13.932 618.977 13.932H613.553C613.638 14.6467 613.91 15.2227 614.369 15.66C614.827 16.0867 615.489 16.3 616.353 16.3C616.833 16.3 617.238 16.2573 617.569 16.172C617.899 16.076 618.214 15.9533 618.513 15.804C618.598 15.7613 618.694 15.74 618.801 15.74C618.971 15.74 619.121 15.7987 619.249 15.916C619.377 16.0333 619.441 16.1827 619.441 16.364C619.441 16.492 619.398 16.6093 619.312 16.716C619.238 16.812 619.142 16.892 619.025 16.956C618.673 17.1587 618.289 17.3293 617.873 17.468C617.467 17.596 616.918 17.66 616.225 17.66ZM613.553 12.748H618.273C618.241 12.1933 618.097 11.7453 617.841 11.404C617.595 11.0627 617.297 10.812 616.945 10.652C616.593 10.492 616.246 10.412 615.905 10.412C615.563 10.412 615.217 10.492 614.865 10.652C614.513 10.812 614.214 11.0627 613.969 11.404C613.723 11.7453 613.585 12.1933 613.553 12.748Z" fill="#313131"/>
<path d="M676.186 4.0625C675.872 4.06244 675.561 4.13247 675.277 4.26752C674.993 4.40258 674.743 4.59927 674.544 4.84336C674.345 5.08745 674.203 5.37283 674.128 5.67881C674.053 5.98479 674.046 6.30372 674.109 6.6125C674.126 6.69429 674.124 6.77896 674.102 6.85965C674.08 6.94033 674.04 7.01476 673.984 7.07687C673.929 7.13898 673.859 7.18703 673.781 7.21711C673.704 7.24719 673.62 7.25846 673.537 7.25C673.187 7.25 672.857 7.335 672.566 7.48588C672.407 7.16613 672.209 6.8677 671.976 6.59763C672.296 6.41611 672.645 6.29206 673.008 6.23106V6.1875C673.008 5.76891 673.09 5.35442 673.25 4.9677C673.41 4.58097 673.644 4.22958 673.939 3.9336C674.234 3.63761 674.585 3.40282 674.971 3.24263C675.356 3.08245 675.77 3 676.187 3C676.605 3 677.018 3.08245 677.404 3.24263C677.789 3.40282 678.14 3.63761 678.435 3.9336C678.73 4.22958 678.964 4.58097 679.124 4.9677C679.284 5.35442 679.366 5.76891 679.366 6.1875L679.365 6.23106C679.781 6.30356 680.179 6.45853 680.535 6.68693C680.891 6.91533 681.198 7.21257 681.438 7.56127C681.678 7.90997 681.846 8.30314 681.932 8.71779C682.019 9.13244 682.022 9.56026 681.942 9.97622C681.862 10.3922 681.7 10.788 681.466 11.1404C681.231 11.4928 680.929 11.7949 680.577 12.0288C680.224 12.2628 679.829 12.424 679.414 12.5031C678.999 12.5821 678.572 12.5774 678.159 12.4892L678.392 13.4529C678.458 13.7265 678.462 14.0116 678.402 14.2866C678.342 14.5617 678.221 14.8196 678.047 15.0408C677.873 15.262 677.652 15.4407 677.399 15.5636C677.147 15.6865 676.869 15.7502 676.589 15.75H675.781C675.5 15.7499 675.223 15.6859 674.971 15.5628C674.718 15.4397 674.497 15.2607 674.323 15.0393C674.15 14.8178 674.029 14.5598 673.969 14.2846C673.91 14.0095 673.913 13.7243 673.98 13.4508L674.457 11.483C674.473 11.4152 674.503 11.3513 674.544 11.2949C674.585 11.2386 674.636 11.1909 674.696 11.1546C674.755 11.1183 674.821 11.0941 674.89 11.0833C674.959 11.0726 675.029 11.0755 675.097 11.092C675.164 11.1085 675.228 11.1381 675.284 11.1793C675.34 11.2204 675.388 11.2723 675.424 11.3319C675.46 11.3915 675.485 11.4576 675.495 11.5266C675.506 11.5955 675.503 11.6659 675.487 11.7338L675.01 13.7026C674.981 13.8197 674.98 13.9418 675.005 14.0597C675.031 14.1775 675.083 14.288 675.157 14.3828C675.231 14.4776 675.326 14.5543 675.434 14.6071C675.542 14.6599 675.661 14.6874 675.781 14.6875H676.589C676.709 14.6877 676.828 14.6604 676.936 14.6078C677.045 14.5552 677.14 14.4785 677.214 14.3836C677.289 14.2888 677.341 14.1782 677.367 14.0602C677.392 13.9422 677.391 13.8199 677.362 13.7026L676.885 11.7327C676.861 11.6295 676.867 11.5213 676.905 11.422C676.942 11.3227 677.008 11.2368 677.094 11.1754C677.18 11.114 677.283 11.08 677.389 11.0776C677.495 11.0752 677.599 11.1047 677.688 11.1621C677.966 11.3416 678.283 11.4532 678.612 11.4879C678.941 11.5227 679.274 11.4796 679.584 11.3621C679.893 11.2446 680.171 11.056 680.395 10.8115C680.619 10.5669 680.782 10.2732 680.873 9.95377C680.963 9.63438 680.977 9.29823 680.915 8.97227C680.852 8.64632 680.714 8.33962 680.512 8.07677C680.309 7.81392 680.049 7.60222 679.75 7.45864C679.452 7.31507 679.124 7.24361 678.793 7.25C678.713 7.25161 678.635 7.23528 678.562 7.20221C678.49 7.16914 678.426 7.12018 678.375 7.05896C678.324 6.99773 678.288 6.92582 678.268 6.84853C678.249 6.77125 678.247 6.69058 678.263 6.6125C678.326 6.30372 678.319 5.98479 678.244 5.67881C678.169 5.37283 678.027 5.08745 677.828 4.84336C677.629 4.59927 677.379 4.40258 677.095 4.26752C676.811 4.13247 676.5 4.06244 676.186 4.0625ZM666.649 9.375C666.649 9.03829 666.729 8.7064 666.882 8.40668C667.035 8.10696 667.257 7.84799 667.529 7.65111C667.802 7.45423 668.117 7.32508 668.449 7.2743C668.781 7.22352 669.12 7.25257 669.439 7.35905C669.757 7.46553 670.046 7.64639 670.281 7.88672C670.516 8.12706 670.691 8.42 670.791 8.74139C670.891 9.06279 670.914 9.40344 670.857 9.73528C670.8 10.0671 670.665 10.3806 670.464 10.65C670.405 10.7289 670.369 10.8228 670.36 10.921C670.351 11.0193 670.37 11.1181 670.414 11.2063C670.458 11.2946 670.526 11.3688 670.609 11.4207C670.693 11.4725 670.789 11.5 670.888 11.5H671.418C671.558 11.5 671.693 11.556 671.792 11.6556C671.892 11.7552 671.947 11.8904 671.947 12.0312C671.947 12.1721 671.892 12.3073 671.792 12.4069C671.693 12.5065 671.558 12.5625 671.418 12.5625H670.245C670.17 12.5626 670.096 12.5785 670.027 12.6094C669.959 12.6403 669.898 12.6853 669.848 12.7415C669.799 12.7977 669.761 12.8639 669.739 12.9356C669.717 13.0073 669.71 13.0829 669.719 13.1575C670.039 15.7819 671.424 17.2885 672.199 17.9387C672.384 18.0939 672.477 18.2894 672.477 18.4583C672.477 18.5854 672.427 18.7073 672.337 18.7971C672.248 18.887 672.126 18.9375 671.999 18.9375H665.536C665.41 18.9372 665.289 18.8866 665.199 18.7968C665.11 18.7069 665.06 18.5852 665.06 18.4583C665.06 18.2883 665.153 18.0939 665.337 17.9387C666.113 17.2885 667.499 15.7819 667.818 13.1575C667.827 13.0829 667.82 13.0073 667.798 12.9356C667.775 12.8639 667.738 12.7977 667.689 12.7415C667.639 12.6853 667.578 12.6403 667.51 12.6094C667.441 12.5785 667.367 12.5626 667.292 12.5625H666.119C665.979 12.5625 665.844 12.5065 665.745 12.4069C665.645 12.3073 665.589 12.1721 665.589 12.0312C665.589 11.8904 665.645 11.7552 665.745 11.6556C665.844 11.556 665.979 11.5 666.119 11.5H666.649C666.748 11.5 666.844 11.4725 666.928 11.4207C667.011 11.3688 667.079 11.2946 667.123 11.2063C667.167 11.1181 667.186 11.0193 667.177 10.921C667.168 10.8228 667.132 10.7289 667.073 10.65C666.797 10.2826 666.648 9.83492 666.649 9.375ZM668.768 6.1875C668.257 6.18736 667.752 6.31116 667.298 6.54839C666.844 6.78561 666.454 7.12924 666.161 7.55005C665.868 7.97086 665.681 8.45641 665.615 8.96541C665.549 9.47441 665.607 9.99182 665.783 10.4736C665.4 10.5569 665.061 10.7793 664.831 11.0981C664.602 11.4169 664.498 11.8096 664.539 12.2006C664.581 12.5917 664.765 12.9534 665.057 13.2164C665.349 13.4793 665.727 13.6249 666.119 13.625H666.67C666.276 15.5354 665.237 16.6383 664.657 17.1238C664.29 17.4319 664 17.9058 664 18.4583C664 19.3094 664.689 20 665.538 20H672C672.848 20 673.537 19.3094 673.537 18.4583C673.537 17.9058 673.247 17.4319 672.88 17.1238C672.3 16.6383 671.261 15.5354 670.867 13.625H671.418C671.81 13.6249 672.188 13.4793 672.48 13.2164C672.771 12.9534 672.956 12.5917 672.997 12.2006C673.039 11.8096 672.935 11.4169 672.706 11.0981C672.476 10.7793 672.137 10.5569 671.753 10.4736C671.93 9.99182 671.988 9.47441 671.922 8.96541C671.856 8.45641 671.669 7.97086 671.376 7.55005C671.083 7.12924 670.693 6.78561 670.239 6.54839C669.785 6.31116 669.28 6.18736 668.768 6.1875Z" fill="#313131"/>
<path d="M695.272 17.58C695.069 17.58 694.899 17.5107 694.76 17.372C694.621 17.2333 694.552 17.0627 694.552 16.86V7.068C694.552 6.86533 694.621 6.69467 694.76 6.556C694.899 6.40667 695.069 6.332 695.272 6.332H698.92C699.731 6.332 700.408 6.43867 700.952 6.652C701.507 6.85467 701.944 7.132 702.264 7.484C702.595 7.82533 702.829 8.204 702.968 8.62C703.117 9.036 703.192 9.45733 703.192 9.884C703.192 10.3107 703.117 10.732 702.968 11.148C702.829 11.564 702.595 11.948 702.264 12.3C701.944 12.6413 701.507 12.9187 700.952 13.132C700.408 13.3347 699.731 13.436 698.92 13.436H696.008V16.86C696.008 17.0627 695.933 17.2333 695.784 17.372C695.645 17.5107 695.475 17.58 695.272 17.58ZM696.008 12.06H698.776C699.576 12.06 700.189 11.9533 700.616 11.74C701.043 11.516 701.336 11.2387 701.496 10.908C701.656 10.5667 701.736 10.2253 701.736 9.884C701.736 9.532 701.656 9.19067 701.496 8.86C701.336 8.52933 701.043 8.25733 700.616 8.044C700.189 7.82 699.576 7.708 698.776 7.708H696.008V12.06ZM705.64 17.58C705.438 17.58 705.267 17.5107 705.128 17.372C704.99 17.2333 704.92 17.0627 704.92 16.86V6.476C704.92 6.26267 704.99 6.08667 705.128 5.948C705.267 5.80933 705.438 5.74 705.64 5.74C705.854 5.74 706.03 5.80933 706.168 5.948C706.307 6.08667 706.376 6.26267 706.376 6.476V16.86C706.376 17.0627 706.307 17.2333 706.168 17.372C706.03 17.5107 705.854 17.58 705.64 17.58ZM710.985 17.66C710.526 17.66 710.094 17.564 709.689 17.372C709.294 17.18 708.974 16.908 708.729 16.556C708.494 16.1933 708.377 15.7613 708.377 15.26C708.377 14.5027 708.675 13.884 709.273 13.404C709.881 12.9133 710.809 12.668 712.057 12.668H713.993V12.54C713.993 11.8253 713.817 11.3187 713.465 11.02C713.113 10.7107 712.574 10.556 711.849 10.556C711.401 10.556 711.006 10.5987 710.665 10.684C710.334 10.7587 710.019 10.844 709.721 10.94C709.635 10.9613 709.566 10.972 709.513 10.972C709.353 10.972 709.214 10.9133 709.097 10.796C708.979 10.6787 708.921 10.5347 708.921 10.364C708.921 10.076 709.059 9.87333 709.337 9.756C709.71 9.596 710.121 9.46267 710.569 9.356C711.027 9.23867 711.539 9.18 712.105 9.18C712.883 9.18 713.518 9.33467 714.009 9.644C714.499 9.95333 714.862 10.348 715.097 10.828C715.331 11.308 715.449 11.8093 715.449 12.332V16.86C715.449 17.0627 715.374 17.2333 715.225 17.372C715.086 17.5107 714.915 17.58 714.713 17.58C714.51 17.58 714.339 17.5107 714.201 17.372C714.062 17.2333 713.993 17.0627 713.993 16.86V16.444C713.705 16.7427 713.321 17.02 712.841 17.276C712.361 17.532 711.742 17.66 710.985 17.66ZM711.529 16.38C712.03 16.38 712.499 16.2573 712.937 16.012C713.374 15.7667 713.726 15.4893 713.993 15.18V13.836H712.249C711.502 13.836 710.91 13.932 710.473 14.124C710.046 14.316 709.833 14.6413 709.833 15.1C709.833 15.4413 709.95 15.74 710.185 15.996C710.43 16.252 710.878 16.38 711.529 16.38ZM718.609 17.58C718.406 17.58 718.236 17.5107 718.097 17.372C717.958 17.2333 717.889 17.0627 717.889 16.86V9.996C717.889 9.78267 717.958 9.60667 718.097 9.468C718.236 9.32933 718.406 9.26 718.609 9.26C718.812 9.26 718.982 9.32933 719.121 9.468C719.27 9.60667 719.345 9.78267 719.345 9.996V10.652C719.686 10.2787 720.086 9.94267 720.545 9.644C721.014 9.33467 721.606 9.18 722.321 9.18C722.929 9.18 723.446 9.324 723.873 9.612C724.3 9.88933 724.625 10.268 724.849 10.748C725.073 11.2173 725.185 11.74 725.185 12.316V16.86C725.185 17.0627 725.11 17.2333 724.961 17.372C724.822 17.5107 724.652 17.58 724.449 17.58C724.246 17.58 724.076 17.5107 723.937 17.372C723.798 17.2333 723.729 17.0627 723.729 16.86V12.476C723.729 11.868 723.59 11.3933 723.313 11.052C723.046 10.7 722.598 10.524 721.969 10.524C721.393 10.524 720.892 10.6787 720.465 10.988C720.038 11.2973 719.665 11.6547 719.345 12.06V16.86C719.345 17.0627 719.27 17.2333 719.121 17.372C718.982 17.5107 718.812 17.58 718.609 17.58ZM730.279 17.66C729.692 17.66 729.159 17.596 728.679 17.468C728.21 17.34 727.772 17.164 727.367 16.94C727.186 16.812 727.095 16.636 727.095 16.412C727.095 16.252 727.154 16.108 727.271 15.98C727.388 15.8413 727.538 15.772 727.719 15.772C727.815 15.772 727.911 15.7933 728.007 15.836C728.295 15.964 728.61 16.076 728.951 16.172C729.303 16.268 729.714 16.316 730.183 16.316C730.802 16.316 731.25 16.22 731.527 16.028C731.815 15.8253 731.959 15.5427 731.959 15.18C731.959 14.9453 731.842 14.764 731.607 14.636C731.383 14.508 731.084 14.4013 730.711 14.316C730.348 14.22 729.964 14.124 729.559 14.028C729.154 13.9213 728.764 13.7827 728.391 13.612C728.028 13.4307 727.73 13.1907 727.495 12.892C727.271 12.5827 727.159 12.188 727.159 11.708C727.159 10.9827 727.42 10.38 727.943 9.9C728.466 9.42 729.244 9.18 730.279 9.18C730.716 9.18 731.127 9.21733 731.511 9.292C731.906 9.36667 732.268 9.46267 732.599 9.58C732.748 9.62267 732.86 9.708 732.935 9.836C733.02 9.95333 733.063 10.0707 733.063 10.188C733.063 10.3587 732.999 10.508 732.871 10.636C732.754 10.764 732.604 10.828 732.423 10.828C732.38 10.828 732.343 10.828 732.311 10.828C732.279 10.8173 732.247 10.8067 732.215 10.796C731.959 10.7107 731.676 10.6413 731.367 10.588C731.068 10.5347 730.743 10.508 730.391 10.508C729.804 10.508 729.351 10.6147 729.031 10.828C728.711 11.0413 728.551 11.308 728.551 11.628C728.551 11.9053 728.663 12.1187 728.887 12.268C729.122 12.4173 729.42 12.54 729.783 12.636C730.156 12.7213 730.546 12.812 730.951 12.908C731.367 13.004 731.756 13.1427 732.119 13.324C732.492 13.4947 732.791 13.7347 733.015 14.044C733.25 14.3533 733.367 14.7693 733.367 15.292C733.367 15.9427 733.106 16.5027 732.583 16.972C732.071 17.4307 731.303 17.66 730.279 17.66ZM735.711 17.5C735.433 17.5 735.193 17.4307 734.991 17.292C734.799 17.1427 734.703 16.9293 734.703 16.652C734.703 16.4067 734.788 16.188 734.959 15.996L739.567 10.7H735.519C735.327 10.7 735.167 10.636 735.039 10.508C734.911 10.38 734.847 10.22 734.847 10.028C734.847 9.836 734.911 9.676 735.039 9.548C735.167 9.40933 735.327 9.34 735.519 9.34H740.367C740.644 9.34 740.868 9.42533 741.039 9.596C741.209 9.756 741.295 9.97467 741.295 10.252C741.295 10.4973 741.22 10.7107 741.071 10.892L736.591 16.14H740.703C740.895 16.14 741.055 16.2093 741.183 16.348C741.321 16.476 741.391 16.636 741.391 16.828C741.391 17.02 741.321 17.18 741.183 17.308C741.055 17.436 740.895 17.5 740.703 17.5H735.711ZM746.895 17.66C746.074 17.66 745.354 17.484 744.735 17.132C744.117 16.7693 743.637 16.2733 743.295 15.644C742.965 15.004 742.799 14.2627 742.799 13.42C742.799 12.5773 742.965 11.8413 743.295 11.212C743.637 10.572 744.117 10.076 744.735 9.724C745.354 9.36133 746.074 9.18 746.895 9.18C747.717 9.18 748.431 9.36133 749.039 9.724C749.658 10.076 750.138 10.572 750.479 11.212C750.821 11.8413 750.991 12.5773 750.991 13.42C750.991 14.2627 750.821 15.004 750.479 15.644C750.138 16.2733 749.658 16.7693 749.039 17.132C748.431 17.484 747.717 17.66 746.895 17.66ZM746.895 16.332C747.301 16.332 747.706 16.236 748.111 16.044C748.517 15.852 748.853 15.5427 749.119 15.116C749.397 14.6787 749.535 14.108 749.535 13.404C749.535 12.7 749.397 12.1347 749.119 11.708C748.853 11.2813 748.517 10.9773 748.111 10.796C747.706 10.604 747.301 10.508 746.895 10.508C746.49 10.508 746.079 10.604 745.663 10.796C745.258 10.9773 744.922 11.2813 744.655 11.708C744.389 12.1347 744.255 12.7 744.255 13.404C744.255 14.108 744.389 14.6787 744.655 15.116C744.922 15.5427 745.258 15.852 745.663 16.044C746.079 16.236 746.49 16.332 746.895 16.332ZM746.895 8.428C746.767 8.428 746.661 8.39067 746.575 8.316C746.501 8.23067 746.463 8.124 746.463 7.996C746.463 7.932 746.479 7.87333 746.511 7.82C746.543 7.756 746.565 7.71333 746.575 7.692L747.391 6.252C747.445 6.16667 747.509 6.09733 747.583 6.044C747.669 5.98 747.781 5.948 747.919 5.948C748.101 5.948 748.245 6.00133 748.351 6.108C748.458 6.21467 748.511 6.35867 748.511 6.54C748.511 6.68933 748.458 6.82267 748.351 6.94L747.247 8.252C747.151 8.36933 747.034 8.428 746.895 8.428ZM755.352 17.58C755.139 17.58 754.947 17.516 754.776 17.388C754.606 17.2493 754.488 17.0893 754.424 16.908L752.152 10.252C752.12 10.156 752.104 10.0653 752.104 9.98C752.104 9.77733 752.174 9.60667 752.312 9.468C752.451 9.32933 752.622 9.26 752.824 9.26C752.974 9.26 753.107 9.29733 753.224 9.372C753.352 9.44667 753.438 9.55333 753.48 9.692L755.352 15.852L757.208 9.836C757.262 9.66533 757.358 9.52667 757.496 9.42C757.646 9.31333 757.811 9.26 757.992 9.26C758.174 9.26 758.339 9.31333 758.488 9.42C758.638 9.52667 758.734 9.66533 758.776 9.836L760.632 15.852L762.504 9.692C762.547 9.55333 762.632 9.44667 762.76 9.372C762.888 9.29733 763.022 9.26 763.16 9.26C763.363 9.26 763.534 9.32933 763.672 9.468C763.811 9.60667 763.88 9.77733 763.88 9.98C763.88 10.0653 763.864 10.156 763.832 10.252L761.56 16.908C761.496 17.0893 761.379 17.2493 761.208 17.388C761.038 17.516 760.846 17.58 760.632 17.58C760.419 17.58 760.227 17.516 760.056 17.388C759.886 17.2493 759.763 17.084 759.688 16.892L757.992 11.596L756.296 16.892C756.222 17.084 756.099 17.2493 755.928 17.388C755.758 17.516 755.566 17.58 755.352 17.58ZM766.312 17.58C766.109 17.58 765.939 17.5107 765.8 17.372C765.661 17.2333 765.592 17.0627 765.592 16.86V6.476C765.592 6.27333 765.661 6.10267 765.8 5.964C765.939 5.81467 766.109 5.74 766.312 5.74C766.515 5.74 766.685 5.81467 766.824 5.964C766.973 6.10267 767.048 6.27333 767.048 6.476V13.02L770.856 9.5C770.92 9.44667 770.989 9.39867 771.064 9.356C771.149 9.31333 771.24 9.292 771.336 9.292C771.613 9.292 771.8 9.372 771.896 9.532C771.992 9.68133 772.04 9.836 772.04 9.996C772.04 10.06 772.024 10.14 771.992 10.236C771.96 10.3213 771.885 10.4227 771.768 10.54L769.464 12.604L772.36 16.444C772.467 16.5827 772.52 16.7267 772.52 16.876C772.52 17.0893 772.451 17.26 772.312 17.388C772.173 17.516 771.997 17.58 771.784 17.58C771.56 17.58 771.363 17.4787 771.192 17.276L768.44 13.532L767.048 14.796V16.86C767.048 17.0627 766.973 17.2333 766.824 17.372C766.685 17.5107 766.515 17.58 766.312 17.58ZM774.999 7.676C774.775 7.676 774.583 7.596 774.423 7.436C774.263 7.276 774.183 7.084 774.183 6.86V6.796C774.183 6.572 774.263 6.38 774.423 6.22C774.583 6.06 774.775 5.98 774.999 5.98H775.095C775.319 5.98 775.511 6.06 775.671 6.22C775.831 6.38 775.911 6.572 775.911 6.796V6.86C775.911 7.084 775.831 7.276 775.671 7.436C775.511 7.596 775.319 7.676 775.095 7.676H774.999ZM775.031 17.58C774.828 17.58 774.658 17.5107 774.519 17.372C774.38 17.2333 774.311 17.0627 774.311 16.86V9.996C774.311 9.78267 774.38 9.60667 774.519 9.468C774.658 9.32933 774.828 9.26 775.031 9.26C775.244 9.26 775.42 9.32933 775.559 9.468C775.698 9.60667 775.767 9.78267 775.767 9.996V16.86C775.767 17.0627 775.698 17.2333 775.559 17.372C775.42 17.5107 775.244 17.58 775.031 17.58Z" fill="#313131"/>
<path d="M826 3.5H838C838.828 3.5 839.5 4.17157 839.5 5V12.3789C839.5 13.2073 838.828 13.8789 838 13.8789H837.366V17.1035L832.263 13.9541L832.142 13.8789H826C825.172 13.8789 824.5 13.2073 824.5 12.3789V5C824.5 4.17157 825.172 3.5 826 3.5Z" stroke="black"/>
<path d="M824.5 8H822.5C821.395 8 820.5 8.89543 820.5 10V15.7659C820.5 16.7232 821.276 17.4993 822.233 17.4993V20L826 17.4993H831.5C832.605 17.4993 833.5 16.6038 833.5 15.4993V15" stroke="black"/>
<path d="M832 5L832.898 7.76393H835.804L833.453 9.47214L834.351 12.2361L832 10.5279L829.649 12.2361L830.547 9.47214L828.196 7.76393H831.102L832 5Z" fill="black"/>
<path d="M852.272 17.58C852.069 17.58 851.899 17.5107 851.76 17.372C851.621 17.2333 851.552 17.0627 851.552 16.86V7.068C851.552 6.86533 851.621 6.69467 851.76 6.556C851.899 6.40667 852.069 6.332 852.272 6.332H855.92C856.731 6.332 857.408 6.43867 857.952 6.652C858.507 6.85467 858.944 7.132 859.264 7.484C859.595 7.82533 859.829 8.204 859.968 8.62C860.117 9.036 860.192 9.45733 860.192 9.884C860.192 10.3107 860.117 10.732 859.968 11.148C859.829 11.564 859.595 11.948 859.264 12.3C858.944 12.6413 858.507 12.9187 857.952 13.132C857.408 13.3347 856.731 13.436 855.92 13.436H853.008V16.86C853.008 17.0627 852.933 17.2333 852.784 17.372C852.645 17.5107 852.475 17.58 852.272 17.58ZM853.008 12.06H855.776C856.576 12.06 857.189 11.9533 857.616 11.74C858.043 11.516 858.336 11.2387 858.496 10.908C858.656 10.5667 858.736 10.2253 858.736 9.884C858.736 9.532 858.656 9.19067 858.496 8.86C858.336 8.52933 858.043 8.25733 857.616 8.044C857.189 7.82 856.576 7.708 855.776 7.708H853.008V12.06ZM865.395 17.66C864.574 17.66 863.854 17.484 863.235 17.132C862.617 16.7693 862.137 16.2733 861.795 15.644C861.465 15.004 861.299 14.2627 861.299 13.42C861.299 12.5773 861.465 11.8413 861.795 11.212C862.137 10.572 862.617 10.076 863.235 9.724C863.854 9.36133 864.574 9.18 865.395 9.18C866.217 9.18 866.931 9.36133 867.539 9.724C868.158 10.076 868.638 10.572 868.979 11.212C869.321 11.8413 869.491 12.5773 869.491 13.42C869.491 14.2627 869.321 15.004 868.979 15.644C868.638 16.2733 868.158 16.7693 867.539 17.132C866.931 17.484 866.217 17.66 865.395 17.66ZM865.395 16.332C865.801 16.332 866.206 16.236 866.611 16.044C867.017 15.852 867.353 15.5427 867.619 15.116C867.897 14.6787 868.035 14.108 868.035 13.404C868.035 12.7 867.897 12.1347 867.619 11.708C867.353 11.2813 867.017 10.9773 866.611 10.796C866.206 10.604 865.801 10.508 865.395 10.508C864.99 10.508 864.579 10.604 864.163 10.796C863.758 10.9773 863.422 11.2813 863.155 11.708C862.889 12.1347 862.755 12.7 862.755 13.404C862.755 14.108 862.889 14.6787 863.155 15.116C863.422 15.5427 863.758 15.852 864.163 16.044C864.579 16.236 864.99 16.332 865.395 16.332ZM872.25 17.58C872.047 17.58 871.876 17.5107 871.738 17.372C871.599 17.2333 871.53 17.0627 871.53 16.86V6.476C871.53 6.26267 871.599 6.08667 871.738 5.948C871.876 5.80933 872.047 5.74 872.25 5.74C872.463 5.74 872.639 5.80933 872.778 5.948C872.916 6.08667 872.986 6.26267 872.986 6.476V16.86C872.986 17.0627 872.916 17.2333 872.778 17.372C872.639 17.5107 872.463 17.58 872.25 17.58ZM879.162 17.66C877.861 17.66 876.842 17.292 876.106 16.556C875.381 15.8093 875.018 14.764 875.018 13.42C875.018 12.6947 875.151 12.012 875.418 11.372C875.685 10.7213 876.101 10.1933 876.666 9.788C877.231 9.38267 877.957 9.18 878.842 9.18C879.663 9.18 880.357 9.372 880.922 9.756C881.487 10.1293 881.914 10.62 882.202 11.228C882.501 11.836 882.65 12.4973 882.65 13.212C882.65 13.4147 882.581 13.5853 882.442 13.724C882.314 13.8627 882.138 13.932 881.914 13.932H876.49C876.575 14.6467 876.847 15.2227 877.306 15.66C877.765 16.0867 878.426 16.3 879.29 16.3C879.77 16.3 880.175 16.2573 880.506 16.172C880.837 16.076 881.151 15.9533 881.45 15.804C881.535 15.7613 881.631 15.74 881.738 15.74C881.909 15.74 882.058 15.7987 882.186 15.916C882.314 16.0333 882.378 16.1827 882.378 16.364C882.378 16.492 882.335 16.6093 882.25 16.716C882.175 16.812 882.079 16.892 881.962 16.956C881.61 17.1587 881.226 17.3293 880.81 17.468C880.405 17.596 879.855 17.66 879.162 17.66ZM876.49 12.748H881.21C881.178 12.1933 881.034 11.7453 880.778 11.404C880.533 11.0627 880.234 10.812 879.882 10.652C879.53 10.492 879.183 10.412 878.842 10.412C878.501 10.412 878.154 10.492 877.802 10.652C877.45 10.812 877.151 11.0627 876.906 11.404C876.661 11.7453 876.522 12.1933 876.49 12.748ZM888.353 17.66C887.595 17.66 886.891 17.4947 886.241 17.164C885.59 16.8227 885.067 16.3373 884.673 15.708C884.278 15.068 884.081 14.3053 884.081 13.42C884.081 12.524 884.278 11.7613 884.673 11.132C885.067 10.5027 885.59 10.0227 886.241 9.692C886.891 9.35067 887.595 9.18 888.353 9.18C888.982 9.18 889.505 9.26533 889.921 9.436C890.347 9.596 890.694 9.76667 890.961 9.948C891.174 10.0867 891.281 10.2733 891.281 10.508C891.281 10.6573 891.222 10.8013 891.105 10.94C890.987 11.0787 890.843 11.148 890.673 11.148C890.555 11.148 890.438 11.116 890.321 11.052C890.043 10.9027 889.771 10.78 889.505 10.684C889.238 10.588 888.897 10.54 888.481 10.54C887.553 10.54 886.827 10.8067 886.305 11.34C885.793 11.8733 885.537 12.5667 885.537 13.42C885.537 14.2733 885.793 14.9667 886.305 15.5C886.827 16.0333 887.553 16.3 888.481 16.3C888.897 16.3 889.238 16.252 889.505 16.156C889.771 16.0493 890.043 15.9267 890.321 15.788C890.438 15.724 890.555 15.692 890.673 15.692C890.843 15.692 890.987 15.7613 891.105 15.9C891.222 16.0387 891.281 16.1827 891.281 16.332C891.281 16.5667 891.174 16.7533 890.961 16.892C890.694 17.0627 890.347 17.2333 889.921 17.404C889.505 17.5747 888.982 17.66 888.353 17.66ZM895.188 17.66C894.729 17.66 894.297 17.564 893.892 17.372C893.497 17.18 893.177 16.908 892.932 16.556C892.697 16.1933 892.58 15.7613 892.58 15.26C892.58 14.5027 892.878 13.884 893.476 13.404C894.084 12.9133 895.012 12.668 896.26 12.668H898.196V12.54C898.196 11.8253 898.02 11.3187 897.668 11.02C897.316 10.7107 896.777 10.556 896.052 10.556C895.604 10.556 895.209 10.5987 894.868 10.684C894.537 10.7587 894.222 10.844 893.924 10.94C893.838 10.9613 893.769 10.972 893.716 10.972C893.556 10.972 893.417 10.9133 893.3 10.796C893.182 10.6787 893.124 10.5347 893.124 10.364C893.124 10.076 893.262 9.87333 893.54 9.756C893.913 9.596 894.324 9.46267 894.772 9.356C895.23 9.23867 895.742 9.18 896.308 9.18C897.086 9.18 897.721 9.33467 898.212 9.644C898.702 9.95333 899.065 10.348 899.3 10.828C899.534 11.308 899.652 11.8093 899.652 12.332V16.86C899.652 17.0627 899.577 17.2333 899.428 17.372C899.289 17.5107 899.118 17.58 898.916 17.58C898.713 17.58 898.542 17.5107 898.404 17.372C898.265 17.2333 898.196 17.0627 898.196 16.86V16.444C897.908 16.7427 897.524 17.02 897.044 17.276C896.564 17.532 895.945 17.66 895.188 17.66ZM895.732 16.38C896.233 16.38 896.702 16.2573 897.14 16.012C897.577 15.7667 897.929 15.4893 898.196 15.18V13.836H896.452C895.705 13.836 895.113 13.932 894.676 14.124C894.249 14.316 894.036 14.6413 894.036 15.1C894.036 15.4413 894.153 15.74 894.388 15.996C894.633 16.252 895.081 16.38 895.732 16.38ZM902.812 17.58C902.609 17.58 902.439 17.5107 902.3 17.372C902.161 17.2333 902.092 17.0627 902.092 16.86V9.996C902.092 9.79333 902.161 9.62267 902.3 9.484C902.439 9.33467 902.609 9.26 902.812 9.26C903.015 9.26 903.185 9.33467 903.324 9.484C903.473 9.62267 903.548 9.79333 903.548 9.996V10.652C903.697 10.4387 903.884 10.22 904.108 9.996C904.343 9.772 904.636 9.58 904.988 9.42C905.34 9.26 905.767 9.18 906.268 9.18C906.908 9.18 907.431 9.35067 907.836 9.692C908.252 10.0333 908.545 10.412 908.716 10.828C908.844 10.6253 909.025 10.396 909.26 10.14C909.495 9.884 909.804 9.66 910.188 9.468C910.583 9.276 911.073 9.18 911.66 9.18C912.289 9.18 912.801 9.34 913.196 9.66C913.591 9.96933 913.879 10.3587 914.06 10.828C914.241 11.2973 914.332 11.772 914.332 12.252V16.86C914.332 17.0627 914.257 17.2333 914.108 17.372C913.969 17.5107 913.799 17.58 913.596 17.58C913.393 17.58 913.223 17.5107 913.084 17.372C912.945 17.2333 912.876 17.0627 912.876 16.86V12.54C912.876 11.868 912.753 11.3667 912.508 11.036C912.273 10.6947 911.852 10.524 911.244 10.524C910.839 10.524 910.492 10.604 910.204 10.764C909.916 10.9133 909.671 11.1053 909.468 11.34C909.265 11.5747 909.089 11.8147 908.94 12.06V16.86C908.94 17.0627 908.865 17.2333 908.716 17.372C908.577 17.5107 908.407 17.58 908.204 17.58C908.001 17.58 907.831 17.5107 907.692 17.372C907.553 17.2333 907.484 17.0627 907.484 16.86V12.54C907.484 11.868 907.361 11.3667 907.116 11.036C906.881 10.6947 906.46 10.524 905.852 10.524C905.447 10.524 905.1 10.604 904.812 10.764C904.524 10.9133 904.279 11.1053 904.076 11.34C903.873 11.5747 903.697 11.8147 903.548 12.06V16.86C903.548 17.0627 903.473 17.2333 903.324 17.372C903.185 17.5107 903.015 17.58 902.812 17.58ZM918.463 21.26C918.271 21.26 918.106 21.1907 917.967 21.052C917.839 20.9133 917.775 20.748 917.775 20.556C917.775 20.46 917.791 20.3747 917.823 20.3L918.863 17.628L915.855 10.3C915.844 10.2573 915.828 10.2093 915.807 10.156C915.796 10.1027 915.791 10.0493 915.791 9.996C915.791 9.79333 915.86 9.62267 915.999 9.484C916.138 9.33467 916.308 9.26 916.511 9.26C916.66 9.26 916.794 9.30267 916.911 9.388C917.039 9.47333 917.13 9.58 917.183 9.708L919.647 15.82L922.159 9.74C922.223 9.59067 922.308 9.47333 922.415 9.388C922.532 9.30267 922.671 9.26 922.831 9.26C923.034 9.26 923.204 9.33467 923.343 9.484C923.482 9.62267 923.551 9.79333 923.551 9.996C923.551 10.092 923.535 10.1827 923.503 10.268L919.135 20.764C919.071 20.9027 918.986 21.02 918.879 21.116C918.772 21.212 918.634 21.26 918.463 21.26Z" fill="#313131"/>
<path fill-rule="evenodd" clip-rule="evenodd" d="M979.326 14.4121L976.028 12.9344L976.019 12.9302C975.848 12.857 975.661 12.8276 975.476 12.8447C975.29 12.8618 975.112 12.9249 974.957 13.0282C974.939 13.0403 974.922 13.0534 974.905 13.0674L973.201 14.5199C972.122 13.9956 971.007 12.8896 970.483 11.8242L971.937 10.0945C971.951 10.077 971.965 10.0595 971.977 10.0406C972.078 9.88612 972.14 9.70903 972.156 9.5251C972.172 9.34118 972.142 9.15612 972.07 8.9864V8.978L970.588 5.67466C970.492 5.45295 970.327 5.26825 970.117 5.14815C969.907 5.02804 969.664 4.97897 969.424 5.00826C968.476 5.13307 967.605 5.5989 966.975 6.31874C966.345 7.03857 965.998 7.96319 966 8.9199C966 14.4779 970.522 19 976.08 19C977.037 19.0017 977.961 18.6551 978.681 18.0249C979.401 17.3948 979.867 16.5241 979.992 15.5756C980.021 15.3358 979.972 15.0929 979.852 14.8833C979.732 14.6736 979.548 14.5083 979.326 14.4121ZM976.08 17.88C973.705 17.8774 971.427 16.9325 969.747 15.2528C968.067 13.573 967.123 11.2955 967.12 8.9199C967.117 8.23633 967.364 7.57518 967.813 7.05991C968.262 6.54465 968.883 6.2105 969.561 6.11987C969.561 6.12266 969.561 6.12548 969.561 6.12827L971.031 9.4183L969.584 11.1501C969.569 11.167 969.556 11.185 969.544 11.204C969.439 11.3657 969.377 11.5518 969.365 11.7443C969.352 11.9369 969.39 12.1293 969.474 12.303C970.108 13.6001 971.415 14.8973 972.726 15.5308C972.901 15.614 973.095 15.6503 973.288 15.6363C973.481 15.6224 973.668 15.5585 973.829 15.451C973.847 15.4389 973.864 15.4258 973.881 15.4118L975.582 13.9599L978.872 15.4335H978.88C978.791 16.1119 978.457 16.7346 977.942 17.1849C977.426 17.6352 976.764 17.8823 976.08 17.88ZM983.721 6.5H973.279L978.161 11.0065C978.352 11.1833 978.647 11.1833 978.839 11.0065L983.721 6.5ZM971.661 6.3674L971.661 6.3673C971.562 6.27595 971.5 6.1452 971.5 6C971.5 5.72393 971.724 5.50012 972 5.5C972 5.5 972 5.5 972 5.5H984C985.38 5.5 986.5 6.61929 986.5 8V13C986.5 14.3807 985.38 15.5 984 15.5H980.5V14.5H984C984.828 14.5 985.5 13.8284 985.5 13V8C985.5 7.50197 985.257 7.06063 984.883 6.78781L979.517 11.7413C978.943 12.2717 978.057 12.2717 977.482 11.7413L971.661 6.3674Z" fill="#313131"/>
<path d="M998.272 17.58C998.069 17.58 997.899 17.5107 997.76 17.372C997.621 17.2333 997.552 17.0627 997.552 16.86V6.988C997.552 6.78533 997.621 6.61467 997.76 6.476C997.899 6.32667 998.069 6.252 998.272 6.252C998.475 6.252 998.645 6.32667 998.784 6.476C998.933 6.61467 999.008 6.78533 999.008 6.988V12.076L1004.48 6.508C1004.53 6.444 1004.61 6.38533 1004.7 6.332C1004.8 6.27867 1004.91 6.252 1005.02 6.252C1005.22 6.252 1005.38 6.32133 1005.52 6.46C1005.66 6.588 1005.72 6.748 1005.7 6.94C1005.67 7.14267 1005.62 7.292 1005.52 7.388L1001.82 11.068L1006.06 16.412C1006.18 16.5613 1006.24 16.716 1006.24 16.876C1006.25 17.068 1006.19 17.2333 1006.05 17.372C1005.91 17.5107 1005.74 17.58 1005.54 17.58C1005.29 17.58 1005.1 17.484 1004.96 17.292L1000.83 12.028L999.008 13.868V16.86C999.008 17.0627 998.933 17.2333 998.784 17.372C998.645 17.5107 998.475 17.58 998.272 17.58ZM1011.58 17.66C1010.76 17.66 1010.04 17.484 1009.42 17.132C1008.8 16.7693 1008.32 16.2733 1007.98 15.644C1007.65 15.004 1007.49 14.2627 1007.49 13.42C1007.49 12.5773 1007.65 11.8413 1007.98 11.212C1008.32 10.572 1008.8 10.076 1009.42 9.724C1010.04 9.36133 1010.76 9.18 1011.58 9.18C1012.4 9.18 1013.12 9.36133 1013.73 9.724C1014.35 10.076 1014.83 10.572 1015.17 11.212C1015.51 11.8413 1015.68 12.5773 1015.68 13.42C1015.68 14.2627 1015.51 15.004 1015.17 15.644C1014.83 16.2733 1014.35 16.7693 1013.73 17.132C1013.12 17.484 1012.4 17.66 1011.58 17.66ZM1011.58 16.332C1011.99 16.332 1012.39 16.236 1012.8 16.044C1013.2 15.852 1013.54 15.5427 1013.81 15.116C1014.08 14.6787 1014.22 14.108 1014.22 13.404C1014.22 12.7 1014.08 12.1347 1013.81 11.708C1013.54 11.2813 1013.2 10.9773 1012.8 10.796C1012.39 10.604 1011.99 10.508 1011.58 10.508C1011.18 10.508 1010.77 10.604 1010.35 10.796C1009.95 10.9773 1009.61 11.2813 1009.34 11.708C1009.08 12.1347 1008.94 12.7 1008.94 13.404C1008.94 14.108 1009.08 14.6787 1009.34 15.116C1009.61 15.5427 1009.95 15.852 1010.35 16.044C1010.77 16.236 1011.18 16.332 1011.58 16.332ZM1018.44 17.58C1018.23 17.58 1018.06 17.5107 1017.93 17.372C1017.79 17.2333 1017.72 17.0627 1017.72 16.86V9.996C1017.72 9.78267 1017.79 9.60667 1017.93 9.468C1018.06 9.32933 1018.23 9.26 1018.44 9.26C1018.64 9.26 1018.81 9.32933 1018.95 9.468C1019.1 9.60667 1019.17 9.78267 1019.17 9.996V10.652C1019.51 10.2787 1019.91 9.94267 1020.37 9.644C1020.84 9.33467 1021.43 9.18 1022.15 9.18C1022.76 9.18 1023.27 9.324 1023.7 9.612C1024.13 9.88933 1024.45 10.268 1024.68 10.748C1024.9 11.2173 1025.01 11.74 1025.01 12.316V16.86C1025.01 17.0627 1024.94 17.2333 1024.79 17.372C1024.65 17.5107 1024.48 17.58 1024.28 17.58C1024.07 17.58 1023.9 17.5107 1023.77 17.372C1023.63 17.2333 1023.56 17.0627 1023.56 16.86V12.476C1023.56 11.868 1023.42 11.3933 1023.14 11.052C1022.87 10.7 1022.43 10.524 1021.8 10.524C1021.22 10.524 1020.72 10.6787 1020.29 10.988C1019.87 11.2973 1019.49 11.6547 1019.17 12.06V16.86C1019.17 17.0627 1019.1 17.2333 1018.95 17.372C1018.81 17.5107 1018.64 17.58 1018.44 17.58ZM1030.1 17.66C1029.9 17.66 1029.67 17.6387 1029.41 17.596C1029.15 17.564 1028.9 17.484 1028.64 17.356C1028.39 17.2173 1028.19 17.004 1028.02 16.716C1027.84 16.428 1027.76 16.0387 1027.76 15.548V10.588H1026.62C1026.42 10.588 1026.32 10.4867 1026.32 10.284C1026.32 10.1773 1026.37 10.0867 1026.46 10.012L1028.64 7.884C1028.66 7.86267 1028.69 7.836 1028.74 7.804C1028.79 7.76133 1028.85 7.74 1028.91 7.74C1029 7.74 1029.07 7.772 1029.12 7.836C1029.18 7.9 1029.22 7.97467 1029.22 8.06V9.34H1031.02C1031.2 9.34 1031.35 9.39867 1031.47 9.516C1031.59 9.63333 1031.65 9.78267 1031.65 9.964C1031.65 10.1347 1031.59 10.284 1031.47 10.412C1031.35 10.5293 1031.2 10.588 1031.02 10.588H1029.22V15.42C1029.22 15.7293 1029.27 15.9533 1029.39 16.092C1029.51 16.2307 1029.65 16.316 1029.81 16.348C1029.98 16.3693 1030.13 16.38 1030.26 16.38C1030.51 16.38 1030.7 16.3587 1030.82 16.316C1030.94 16.2627 1031.08 16.236 1031.22 16.236C1031.36 16.236 1031.5 16.2893 1031.62 16.396C1031.73 16.5027 1031.79 16.6413 1031.79 16.812C1031.79 17.0573 1031.67 17.244 1031.42 17.372C1031.23 17.4573 1031.02 17.5267 1030.8 17.58C1030.59 17.6333 1030.35 17.66 1030.1 17.66ZM1035.47 17.66C1035.01 17.66 1034.58 17.564 1034.17 17.372C1033.78 17.18 1033.46 16.908 1033.21 16.556C1032.98 16.1933 1032.86 15.7613 1032.86 15.26C1032.86 14.5027 1033.16 13.884 1033.76 13.404C1034.37 12.9133 1035.29 12.668 1036.54 12.668H1038.48V12.54C1038.48 11.8253 1038.3 11.3187 1037.95 11.02C1037.6 10.7107 1037.06 10.556 1036.33 10.556C1035.89 10.556 1035.49 10.5987 1035.15 10.684C1034.82 10.7587 1034.5 10.844 1034.21 10.94C1034.12 10.9613 1034.05 10.972 1034 10.972C1033.84 10.972 1033.7 10.9133 1033.58 10.796C1033.46 10.6787 1033.41 10.5347 1033.41 10.364C1033.41 10.076 1033.54 9.87333 1033.82 9.756C1034.19 9.596 1034.61 9.46267 1035.05 9.356C1035.51 9.23867 1036.02 9.18 1036.59 9.18C1037.37 9.18 1038 9.33467 1038.49 9.644C1038.98 9.95333 1039.35 10.348 1039.58 10.828C1039.82 11.308 1039.93 11.8093 1039.93 12.332V16.86C1039.93 17.0627 1039.86 17.2333 1039.71 17.372C1039.57 17.5107 1039.4 17.58 1039.2 17.58C1038.99 17.58 1038.82 17.5107 1038.69 17.372C1038.55 17.2333 1038.48 17.0627 1038.48 16.86V16.444C1038.19 16.7427 1037.81 17.02 1037.33 17.276C1036.85 17.532 1036.23 17.66 1035.47 17.66ZM1036.01 16.38C1036.51 16.38 1036.98 16.2573 1037.42 16.012C1037.86 15.7667 1038.21 15.4893 1038.48 15.18V13.836H1036.73C1035.99 13.836 1035.39 13.932 1034.96 14.124C1034.53 14.316 1034.32 14.6413 1034.32 15.1C1034.32 15.4413 1034.43 15.74 1034.67 15.996C1034.91 16.252 1035.36 16.38 1036.01 16.38ZM1043.09 17.58C1042.89 17.58 1042.72 17.5107 1042.58 17.372C1042.44 17.2333 1042.37 17.0627 1042.37 16.86V6.476C1042.37 6.27333 1042.44 6.10267 1042.58 5.964C1042.72 5.81467 1042.89 5.74 1043.09 5.74C1043.3 5.74 1043.47 5.81467 1043.61 5.964C1043.75 6.10267 1043.83 6.27333 1043.83 6.476V13.02L1047.64 9.5C1047.7 9.44667 1047.77 9.39867 1047.85 9.356C1047.93 9.31333 1048.02 9.292 1048.12 9.292C1048.39 9.292 1048.58 9.372 1048.68 9.532C1048.77 9.68133 1048.82 9.836 1048.82 9.996C1048.82 10.06 1048.81 10.14 1048.77 10.236C1048.74 10.3213 1048.67 10.4227 1048.55 10.54L1046.25 12.604L1049.14 16.444C1049.25 16.5827 1049.3 16.7267 1049.3 16.876C1049.3 17.0893 1049.23 17.26 1049.09 17.388C1048.95 17.516 1048.78 17.58 1048.57 17.58C1048.34 17.58 1048.14 17.4787 1047.97 17.276L1045.22 13.532L1043.83 14.796V16.86C1043.83 17.0627 1043.75 17.2333 1043.61 17.372C1043.47 17.5107 1043.3 17.58 1043.09 17.58ZM1053.91 17.66C1053.72 17.66 1053.49 17.6387 1053.22 17.596C1052.96 17.564 1052.71 17.484 1052.45 17.356C1052.21 17.2173 1052 17.004 1051.83 16.716C1051.66 16.428 1051.57 16.0387 1051.57 15.548V10.588H1050.44C1050.23 10.588 1050.13 10.4867 1050.13 10.284C1050.13 10.1773 1050.18 10.0867 1050.28 10.012L1052.45 7.884C1052.47 7.86267 1052.51 7.836 1052.55 7.804C1052.6 7.76133 1052.66 7.74 1052.72 7.74C1052.81 7.74 1052.88 7.772 1052.93 7.836C1053 7.9 1053.03 7.97467 1053.03 8.06V9.34H1054.84C1055.02 9.34 1055.17 9.39867 1055.28 9.516C1055.4 9.63333 1055.46 9.78267 1055.46 9.964C1055.46 10.1347 1055.4 10.284 1055.28 10.412C1055.17 10.5293 1055.02 10.588 1054.84 10.588H1053.03V15.42C1053.03 15.7293 1053.09 15.9533 1053.2 16.092C1053.32 16.2307 1053.46 16.316 1053.62 16.348C1053.79 16.3693 1053.94 16.38 1054.07 16.38C1054.32 16.38 1054.51 16.3587 1054.63 16.316C1054.76 16.2627 1054.89 16.236 1055.03 16.236C1055.18 16.236 1055.31 16.2893 1055.43 16.396C1055.55 16.5027 1055.6 16.6413 1055.6 16.812C1055.6 17.0573 1055.48 17.244 1055.24 17.372C1055.04 17.4573 1054.84 17.5267 1054.61 17.58C1054.4 17.6333 1054.16 17.66 1053.91 17.66Z" fill="#313131"/>
</svg>
