<svg width="526" height="105" viewBox="0 0 526 105" fill="none" xmlns="http://www.w3.org/2000/svg">
<path d="M3.02401 35.28C2.41601 35.28 1.90401 35.072 1.48801 34.656C1.07201 34.24 0.864008 33.728 0.864008 33.12V3.98403C0.864008 3.37603 1.07201 2.86403 1.48801 2.44803C1.90401 2.00003 2.41601 1.77603 3.02401 1.77603H12.672C16.32 1.77603 19.408 2.59203 21.936 4.22403C24.496 5.82403 26.416 7.90403 27.696 10.464C28.976 13.024 29.616 15.712 29.616 18.528C29.616 21.344 28.976 24.032 27.696 26.592C26.416 29.152 24.496 31.248 21.936 32.88C19.408 34.48 16.32 35.28 12.672 35.28H3.02401ZM12.144 31.2C14.768 31.2 17.072 30.672 19.056 29.616C21.04 28.528 22.576 27.04 23.664 25.152C24.752 23.232 25.296 21.024 25.296 18.528C25.296 16.032 24.752 13.84 23.664 11.952C22.576 10.032 21.04 8.54403 19.056 7.48803C17.072 6.40003 14.768 5.85603 12.144 5.85603H5.23201V31.2H12.144ZM37.785 35.52C37.177 35.52 36.665 35.312 36.249 34.896C35.833 34.48 35.625 33.968 35.625 33.36V2.20803C35.625 1.60003 35.833 1.08803 36.249 0.672029C36.665 0.224029 37.177 2.86102e-05 37.785 2.86102e-05C38.425 2.86102e-05 38.953 0.208028 39.369 0.624026C39.785 1.04003 39.993 1.56803 39.993 2.20803V33.36C39.993 33.968 39.769 34.48 39.321 34.896C38.905 35.312 38.393 35.52 37.785 35.52ZM53.8181 35.76C52.4101 35.76 51.0981 35.472 49.8821 34.896C48.6981 34.32 47.7541 33.488 47.0501 32.4C46.3461 31.28 45.9941 30 45.9941 28.56C45.9941 26.192 46.9221 24.304 48.7781 22.896C50.6661 21.488 53.4181 20.784 57.0341 20.784H62.8421V20.4C62.8421 18.288 62.3141 16.768 61.2581 15.84C60.2341 14.912 58.6181 14.448 56.4101 14.448C55.1941 14.448 54.1061 14.544 53.1461 14.736C52.2181 14.928 51.1781 15.216 50.0261 15.6C49.7701 15.664 49.5621 15.696 49.4021 15.696C48.9221 15.696 48.5061 15.52 48.1541 15.168C47.8021 14.816 47.6261 14.384 47.6261 13.872C47.6261 13.008 48.0421 12.4 48.8741 12.048C51.5941 10.896 54.3621 10.32 57.1781 10.32C59.3861 10.32 61.2421 10.768 62.7461 11.664C64.2821 12.56 65.4021 13.728 66.1061 15.168C66.8421 16.576 67.2101 18.112 67.2101 19.776V33.36C67.2101 33.968 66.9861 34.48 66.5381 34.896C66.1221 35.312 65.6101 35.52 65.0021 35.52C64.3941 35.52 63.8821 35.312 63.4661 34.896C63.0501 34.48 62.8421 33.968 62.8421 33.36V32.112C60.4741 34.544 57.4661 35.76 53.8181 35.76ZM55.4501 31.92C56.8581 31.92 58.2181 31.584 59.5301 30.912C60.8421 30.208 61.9461 29.344 62.8421 28.32V24.288H57.6101C52.7781 24.288 50.3621 25.552 50.3621 28.08C50.3621 29.232 50.7461 30.16 51.5141 30.864C52.3141 31.568 53.6261 31.92 55.4501 31.92ZM85.8593 35.76C83.5553 35.76 81.4273 35.248 79.4753 34.224C77.5233 33.2 75.9553 31.728 74.7713 29.808C73.6193 27.888 73.0433 25.632 73.0433 23.04C73.0433 20.448 73.6193 18.192 74.7713 16.272C75.9553 14.352 77.5233 12.88 79.4753 11.856C81.4273 10.832 83.5553 10.32 85.8593 10.32C87.5553 10.32 89.0113 10.544 90.2273 10.992C91.4753 11.408 92.6273 11.952 93.6833 12.624C94.3233 13.04 94.6433 13.6 94.6433 14.304C94.6433 14.784 94.4513 15.232 94.0673 15.648C93.7153 16.032 93.2993 16.224 92.8193 16.224C92.4673 16.224 92.1153 16.128 91.7633 15.936C90.7073 15.392 89.7953 15.008 89.0273 14.784C88.2913 14.528 87.3633 14.4 86.2433 14.4C83.4913 14.4 81.3313 15.2 79.7633 16.8C78.1953 18.368 77.4113 20.448 77.4113 23.04C77.4113 25.632 78.1953 27.728 79.7633 29.328C81.3313 30.896 83.4913 31.68 86.2433 31.68C87.3633 31.68 88.2913 31.568 89.0273 31.344C89.7953 31.088 90.7073 30.688 91.7633 30.144C92.1153 29.952 92.4673 29.856 92.8193 29.856C93.2993 29.856 93.7153 30.064 94.0673 30.48C94.4513 30.864 94.6433 31.296 94.6433 31.776C94.6433 32.48 94.3233 33.04 93.6833 33.456C92.6273 34.128 91.4753 34.688 90.2273 35.136C89.0113 35.552 87.5553 35.76 85.8593 35.76ZM101.277 35.28C100.413 35.28 99.693 35.056 99.117 34.608C98.541 34.16 98.253 33.536 98.253 32.736C98.253 32 98.509 31.344 99.021 30.768L112.845 14.88H100.701C100.125 14.88 99.645 14.688 99.261 14.304C98.877 13.92 98.685 13.44 98.685 12.864C98.685 12.288 98.877 11.808 99.261 11.424C99.645 11.008 100.125 10.8 100.701 10.8H115.245C116.077 10.8 116.749 11.056 117.261 11.568C117.773 12.08 118.029 12.736 118.029 13.536C118.029 14.272 117.805 14.912 117.357 15.456L103.917 31.2H116.253C116.829 31.2 117.309 31.408 117.693 31.824C118.109 32.208 118.317 32.688 118.317 33.264C118.317 33.84 118.109 34.32 117.693 34.704C117.309 35.088 116.829 35.28 116.253 35.28H101.277ZM134.975 35.76C131.071 35.76 128.015 34.656 125.807 32.448C123.631 30.208 122.543 27.072 122.543 23.04C122.543 20.768 122.959 18.672 123.791 16.752C124.623 14.832 125.903 13.28 127.631 12.096C129.359 10.912 131.487 10.32 134.015 10.32C136.383 10.32 138.431 10.88 140.159 12C141.887 13.088 143.199 14.56 144.095 16.416C144.991 18.24 145.439 20.24 145.439 22.416C145.439 23.024 145.231 23.536 144.815 23.952C144.431 24.368 143.903 24.576 143.231 24.576H126.959C127.215 26.816 128.047 28.56 129.455 29.808C130.863 31.056 132.831 31.68 135.359 31.68C136.703 31.68 137.871 31.552 138.863 31.296C139.887 31.04 140.879 30.672 141.839 30.192C142.095 30.064 142.383 30 142.703 30C143.215 30 143.663 30.176 144.047 30.528C144.431 30.88 144.623 31.328 144.623 31.872C144.623 32.576 144.207 33.168 143.375 33.648C142.127 34.352 140.895 34.88 139.679 35.232C138.463 35.584 136.895 35.76 134.975 35.76ZM141.119 21.024C141.023 19.456 140.607 18.144 139.871 17.088C139.167 16.032 138.287 15.264 137.231 14.784C136.175 14.272 135.103 14.016 134.015 14.016C132.927 14.016 131.855 14.272 130.799 14.784C129.743 15.264 128.863 16.032 128.159 17.088C127.455 18.144 127.055 19.456 126.959 21.024H141.119ZM162.643 46.8C160.787 46.8 158.915 46.56 157.027 46.08C155.139 45.6 153.587 45.008 152.371 44.304C151.795 43.952 151.507 43.392 151.507 42.624C151.507 42.112 151.683 41.648 152.035 41.232C152.419 40.848 152.883 40.656 153.427 40.656C153.683 40.656 153.971 40.72 154.291 40.848C156.723 42.064 159.363 42.672 162.211 42.672C167.107 42.672 169.555 40.064 169.555 34.848V31.632C167.283 34.064 164.547 35.28 161.347 35.28C159.459 35.28 157.619 34.816 155.827 33.888C154.067 32.928 152.611 31.52 151.459 29.664C150.307 27.776 149.731 25.488 149.731 22.8C149.731 20.112 150.307 17.84 151.459 15.984C152.611 14.096 154.067 12.688 155.827 11.76C157.619 10.8 159.459 10.32 161.347 10.32C164.547 10.32 167.283 11.536 169.555 13.968V12.768C169.555 12.16 169.763 11.648 170.179 11.232C170.595 10.784 171.107 10.56 171.715 10.56C172.323 10.56 172.835 10.784 173.251 11.232C173.699 11.648 173.923 12.16 173.923 12.768V34.224C173.923 38.256 172.947 41.36 170.995 43.536C169.043 45.712 166.259 46.8 162.643 46.8ZM162.259 31.296C163.763 31.296 165.091 30.976 166.243 30.336C167.395 29.696 168.499 28.832 169.555 27.744V17.856C168.499 16.768 167.395 15.904 166.243 15.264C165.091 14.624 163.763 14.304 162.259 14.304C159.859 14.304 157.891 15.04 156.355 16.512C154.851 17.952 154.099 20.048 154.099 22.8C154.099 25.552 154.851 27.664 156.355 29.136C157.891 30.576 159.859 31.296 162.259 31.296ZM192.3 35.76C189.836 35.76 187.676 35.232 185.82 34.176C183.964 33.12 182.524 31.632 181.5 29.712C180.508 27.76 180.012 25.536 180.012 23.04C180.012 20.544 180.508 18.336 181.5 16.416C182.524 14.464 183.964 12.96 185.82 11.904C187.676 10.848 189.836 10.32 192.3 10.32C194.732 10.32 196.876 10.848 198.732 11.904C200.588 12.96 202.028 14.464 203.052 16.416C204.076 18.336 204.588 20.544 204.588 23.04C204.588 25.536 204.076 27.76 203.052 29.712C202.028 31.632 200.588 33.12 198.732 34.176C196.876 35.232 194.732 35.76 192.3 35.76ZM192.3 31.776C193.612 31.776 194.86 31.472 196.044 30.864C197.26 30.256 198.252 29.296 199.02 27.984C199.82 26.672 200.22 25.008 200.22 22.992C200.22 21.008 199.82 19.36 199.02 18.048C198.252 16.736 197.26 15.792 196.044 15.216C194.86 14.608 193.612 14.304 192.3 14.304C190.956 14.304 189.676 14.608 188.46 15.216C187.276 15.792 186.3 16.736 185.532 18.048C184.764 19.36 184.38 21.008 184.38 22.992C184.38 25.008 184.764 26.672 185.532 27.984C186.3 29.296 187.276 30.256 188.46 30.864C189.676 31.472 190.956 31.776 192.3 31.776ZM230.468 35.52C229.828 35.52 229.252 35.328 228.74 34.944C228.228 34.56 227.876 34.08 227.684 33.504L220.868 13.536C220.772 13.248 220.724 12.976 220.724 12.72C220.724 12.112 220.932 11.6 221.348 11.184C221.764 10.768 222.276 10.56 222.884 10.56C223.332 10.56 223.732 10.688 224.084 10.944C224.468 11.168 224.724 11.472 224.852 11.856L230.468 30.336L236.036 12.288C236.196 11.776 236.484 11.36 236.9 11.04C237.348 10.72 237.844 10.56 238.388 10.56C238.932 10.56 239.412 10.72 239.828 11.04C240.276 11.36 240.58 11.776 240.74 12.288L246.308 30.336L251.924 11.856C252.052 11.472 252.292 11.168 252.644 10.944C253.028 10.688 253.444 10.56 253.892 10.56C254.5 10.56 255.012 10.768 255.428 11.184C255.844 11.6 256.052 12.112 256.052 12.72C256.052 12.976 256.004 13.248 255.908 13.536L249.092 33.504C248.9 34.08 248.548 34.56 248.036 34.944C247.524 35.328 246.948 35.52 246.308 35.52C245.668 35.52 245.092 35.328 244.58 34.944C244.068 34.56 243.7 34.064 243.476 33.456L238.388 17.568L233.3 33.456C233.076 34.064 232.708 34.56 232.196 34.944C231.684 35.328 231.108 35.52 230.468 35.52ZM267.146 35.76C265.738 35.76 264.426 35.472 263.21 34.896C262.026 34.32 261.082 33.488 260.378 32.4C259.674 31.28 259.322 30 259.322 28.56C259.322 26.192 260.25 24.304 262.106 22.896C263.994 21.488 266.746 20.784 270.362 20.784H276.17V20.4C276.17 18.288 275.642 16.768 274.586 15.84C273.562 14.912 271.946 14.448 269.738 14.448C268.522 14.448 267.434 14.544 266.474 14.736C265.546 14.928 264.506 15.216 263.354 15.6C263.098 15.664 262.89 15.696 262.73 15.696C262.25 15.696 261.834 15.52 261.482 15.168C261.13 14.816 260.954 14.384 260.954 13.872C260.954 13.008 261.37 12.4 262.202 12.048C264.922 10.896 267.69 10.32 270.506 10.32C272.714 10.32 274.57 10.768 276.074 11.664C277.61 12.56 278.73 13.728 279.434 15.168C280.17 16.576 280.538 18.112 280.538 19.776V33.36C280.538 33.968 280.314 34.48 279.866 34.896C279.45 35.312 278.938 35.52 278.33 35.52C277.722 35.52 277.21 35.312 276.794 34.896C276.378 34.48 276.17 33.968 276.17 33.36V32.112C273.802 34.544 270.794 35.76 267.146 35.76ZM268.778 31.92C270.186 31.92 271.546 31.584 272.858 30.912C274.17 30.208 275.274 29.344 276.17 28.32V24.288H270.938C266.106 24.288 263.69 25.552 263.69 28.08C263.69 29.232 264.074 30.16 264.842 30.864C265.642 31.568 266.954 31.92 268.778 31.92ZM290.019 35.52C289.411 35.52 288.899 35.312 288.483 34.896C288.067 34.48 287.859 33.968 287.859 33.36V12.768C287.859 12.16 288.067 11.648 288.483 11.232C288.899 10.784 289.411 10.56 290.019 10.56C290.627 10.56 291.139 10.784 291.555 11.232C292.003 11.648 292.227 12.16 292.227 12.768V14.832C294.467 11.824 296.979 10.32 299.763 10.32H300.003C300.611 10.32 301.107 10.528 301.491 10.944C301.907 11.36 302.115 11.872 302.115 12.48C302.115 13.088 301.907 13.584 301.491 13.968C301.075 14.352 300.547 14.544 299.907 14.544H299.667C298.131 14.544 296.723 14.928 295.443 15.696C294.163 16.432 293.091 17.456 292.227 18.768V33.36C292.227 33.968 292.003 34.48 291.555 34.896C291.139 35.312 290.627 35.52 290.019 35.52ZM314.682 35.76C310.01 35.76 307.674 33.648 307.674 29.424V14.544H304.266C304.01 14.544 303.786 14.464 303.594 14.304C303.434 14.112 303.354 13.888 303.354 13.632C303.354 13.312 303.498 13.04 303.786 12.816L310.314 6.43203C310.602 6.14403 310.874 6.00003 311.13 6.00003C311.386 6.00003 311.594 6.09603 311.754 6.28803C311.946 6.48003 312.042 6.70403 312.042 6.96003V10.8H317.466C318.01 10.8 318.458 10.976 318.81 11.328C319.162 11.68 319.338 12.128 319.338 12.672C319.338 13.184 319.162 13.632 318.81 14.016C318.458 14.368 318.01 14.544 317.466 14.544H312.042V29.04C312.042 30.288 312.33 31.088 312.906 31.44C313.514 31.76 314.266 31.92 315.162 31.92C315.802 31.92 316.442 31.824 317.082 31.632C317.21 31.6 317.338 31.568 317.466 31.536C317.626 31.504 317.818 31.488 318.042 31.488C318.49 31.488 318.89 31.664 319.242 32.016C319.594 32.336 319.77 32.736 319.77 33.216C319.77 33.952 319.402 34.512 318.666 34.896C317.418 35.472 316.09 35.76 314.682 35.76ZM335.034 35.76C332.57 35.76 330.41 35.232 328.554 34.176C326.698 33.12 325.258 31.632 324.234 29.712C323.242 27.76 322.746 25.536 322.746 23.04C322.746 20.544 323.242 18.336 324.234 16.416C325.258 14.464 326.698 12.96 328.554 11.904C330.41 10.848 332.57 10.32 335.034 10.32C337.466 10.32 339.61 10.848 341.466 11.904C343.322 12.96 344.762 14.464 345.786 16.416C346.81 18.336 347.322 20.544 347.322 23.04C347.322 25.536 346.81 27.76 345.786 29.712C344.762 31.632 343.322 33.12 341.466 34.176C339.61 35.232 337.466 35.76 335.034 35.76ZM335.034 31.776C336.346 31.776 337.594 31.472 338.778 30.864C339.994 30.256 340.986 29.296 341.754 27.984C342.554 26.672 342.954 25.008 342.954 22.992C342.954 21.008 342.554 19.36 341.754 18.048C340.986 16.736 339.994 15.792 338.778 15.216C337.594 14.608 336.346 14.304 335.034 14.304C333.69 14.304 332.41 14.608 331.194 15.216C330.01 15.792 329.034 16.736 328.266 18.048C327.498 19.36 327.114 21.008 327.114 22.992C327.114 25.008 327.498 26.672 328.266 27.984C329.034 29.296 330.01 30.256 331.194 30.864C332.41 31.472 333.69 31.776 335.034 31.776ZM373.202 35.52C372.562 35.52 371.986 35.328 371.474 34.944C370.962 34.56 370.61 34.08 370.418 33.504L363.602 13.536C363.506 13.248 363.458 12.976 363.458 12.72C363.458 12.112 363.666 11.6 364.082 11.184C364.498 10.768 365.01 10.56 365.618 10.56C366.066 10.56 366.466 10.688 366.818 10.944C367.202 11.168 367.458 11.472 367.586 11.856L373.202 30.336L378.77 12.288C378.93 11.776 379.218 11.36 379.634 11.04C380.082 10.72 380.578 10.56 381.122 10.56C381.666 10.56 382.146 10.72 382.562 11.04C383.01 11.36 383.314 11.776 383.474 12.288L389.042 30.336L394.658 11.856C394.786 11.472 395.026 11.168 395.378 10.944C395.762 10.688 396.178 10.56 396.626 10.56C397.234 10.56 397.746 10.768 398.162 11.184C398.578 11.6 398.786 12.112 398.786 12.72C398.786 12.976 398.738 13.248 398.642 13.536L391.826 33.504C391.634 34.08 391.282 34.56 390.77 34.944C390.258 35.328 389.682 35.52 389.042 35.52C388.402 35.52 387.826 35.328 387.314 34.944C386.802 34.56 386.434 34.064 386.21 33.456L381.122 17.568L376.034 33.456C375.81 34.064 375.442 34.56 374.93 34.944C374.418 35.328 373.842 35.52 373.202 35.52ZM409.394 46.56C408.818 46.56 408.322 46.352 407.906 45.936C407.522 45.52 407.33 45.024 407.33 44.448C407.33 44.192 407.378 43.936 407.474 43.68L410.594 35.664L401.57 13.68C401.442 13.36 401.378 13.056 401.378 12.768C401.378 12.16 401.586 11.648 402.002 11.232C402.418 10.784 402.93 10.56 403.538 10.56C403.986 10.56 404.386 10.688 404.738 10.944C405.122 11.2 405.394 11.52 405.554 11.904L412.946 30.24L420.482 12C420.898 11.04 421.57 10.56 422.498 10.56C423.106 10.56 423.618 10.784 424.034 11.232C424.45 11.648 424.658 12.16 424.658 12.768C424.658 13.056 424.61 13.328 424.514 13.584L411.41 45.072C410.962 46.064 410.29 46.56 409.394 46.56ZM442.279 35.76C439.143 35.76 436.407 34.544 434.071 32.112V33.36C434.071 33.968 433.847 34.48 433.399 34.896C432.983 35.312 432.471 35.52 431.863 35.52C431.255 35.52 430.743 35.312 430.327 34.896C429.911 34.48 429.703 33.968 429.703 33.36V2.20803C429.703 1.60003 429.911 1.08803 430.327 0.672029C430.743 0.224029 431.255 2.86102e-05 431.863 2.86102e-05C432.503 2.86102e-05 433.031 0.208028 433.447 0.624026C433.863 1.04003 434.071 1.56803 434.071 2.20803V13.968C436.407 11.536 439.143 10.32 442.279 10.32C444.263 10.32 446.135 10.832 447.895 11.856C449.687 12.848 451.127 14.32 452.215 16.272C453.335 18.192 453.895 20.448 453.895 23.04C453.895 25.632 453.335 27.904 452.215 29.856C451.127 31.776 449.687 33.248 447.895 34.272C446.135 35.264 444.263 35.76 442.279 35.76ZM441.655 31.68C444.023 31.68 445.927 30.928 447.367 29.424C448.807 27.92 449.527 25.792 449.527 23.04C449.527 20.288 448.807 18.16 447.367 16.656C445.927 15.152 444.023 14.4 441.655 14.4C440.183 14.4 438.791 14.736 437.479 15.408C436.199 16.048 435.063 16.912 434.071 18V28.08C435.063 29.168 436.199 30.048 437.479 30.72C438.791 31.36 440.183 31.68 441.655 31.68ZM462.144 35.52C461.536 35.52 461.024 35.312 460.608 34.896C460.192 34.48 459.984 33.968 459.984 33.36V12.768C459.984 12.16 460.192 11.648 460.608 11.232C461.024 10.784 461.536 10.56 462.144 10.56C462.752 10.56 463.264 10.784 463.68 11.232C464.128 11.648 464.352 12.16 464.352 12.768V14.832C466.592 11.824 469.104 10.32 471.888 10.32H472.128C472.736 10.32 473.232 10.528 473.616 10.944C474.032 11.36 474.24 11.872 474.24 12.48C474.24 13.088 474.032 13.584 473.616 13.968C473.2 14.352 472.672 14.544 472.032 14.544H471.792C470.256 14.544 468.848 14.928 467.568 15.696C466.288 16.432 465.216 17.456 464.352 18.768V33.36C464.352 33.968 464.128 34.48 463.68 34.896C463.264 35.312 462.752 35.52 462.144 35.52ZM484.599 35.76C483.191 35.76 481.879 35.472 480.663 34.896C479.479 34.32 478.535 33.488 477.831 32.4C477.127 31.28 476.775 30 476.775 28.56C476.775 26.192 477.703 24.304 479.559 22.896C481.447 21.488 484.199 20.784 487.815 20.784H493.623V20.4C493.623 18.288 493.095 16.768 492.039 15.84C491.015 14.912 489.399 14.448 487.191 14.448C485.975 14.448 484.887 14.544 483.927 14.736C482.999 14.928 481.959 15.216 480.807 15.6C480.551 15.664 480.343 15.696 480.183 15.696C479.703 15.696 479.287 15.52 478.935 15.168C478.583 14.816 478.407 14.384 478.407 13.872C478.407 13.008 478.823 12.4 479.655 12.048C482.375 10.896 485.143 10.32 487.959 10.32C490.167 10.32 492.023 10.768 493.527 11.664C495.063 12.56 496.183 13.728 496.887 15.168C497.623 16.576 497.991 18.112 497.991 19.776V33.36C497.991 33.968 497.767 34.48 497.319 34.896C496.903 35.312 496.391 35.52 495.783 35.52C495.175 35.52 494.663 35.312 494.247 34.896C493.831 34.48 493.623 33.968 493.623 33.36V32.112C491.255 34.544 488.247 35.76 484.599 35.76ZM486.231 31.92C487.639 31.92 488.999 31.584 490.311 30.912C491.623 30.208 492.727 29.344 493.623 28.32V24.288H488.391C483.559 24.288 481.143 25.552 481.143 28.08C481.143 29.232 481.527 30.16 482.295 30.864C483.095 31.568 484.407 31.92 486.231 31.92ZM516.641 35.76C514.337 35.76 512.209 35.248 510.257 34.224C508.305 33.2 506.737 31.728 505.553 29.808C504.401 27.888 503.825 25.632 503.825 23.04C503.825 20.448 504.401 18.192 505.553 16.272C506.737 14.352 508.305 12.88 510.257 11.856C512.209 10.832 514.337 10.32 516.641 10.32C518.337 10.32 519.793 10.544 521.009 10.992C522.257 11.408 523.409 11.952 524.465 12.624C525.105 13.04 525.425 13.6 525.425 14.304C525.425 14.784 525.233 15.232 524.849 15.648C524.497 16.032 524.081 16.224 523.601 16.224C523.249 16.224 522.897 16.128 522.545 15.936C521.489 15.392 520.577 15.008 519.809 14.784C519.073 14.528 518.145 14.4 517.025 14.4C514.273 14.4 512.113 15.2 510.545 16.8C508.977 18.368 508.193 20.448 508.193 23.04C508.193 25.632 508.977 27.728 510.545 29.328C512.113 30.896 514.273 31.68 517.025 31.68C518.145 31.68 519.073 31.568 519.809 31.344C520.577 31.088 521.489 30.688 522.545 30.144C522.897 29.952 523.249 29.856 523.601 29.856C524.081 29.856 524.497 30.064 524.849 30.48C525.233 30.864 525.425 31.296 525.425 31.776C525.425 32.48 525.105 33.04 524.465 33.456C523.409 34.128 522.257 34.688 521.009 35.136C519.793 35.552 518.337 35.76 516.641 35.76ZM515.825 8.06403C515.441 8.06403 515.121 7.95203 514.865 7.72803C514.641 7.47203 514.529 7.15203 514.529 6.76803C514.529 6.48003 514.641 6.17603 514.865 5.85603L517.313 1.53603C517.633 0.928027 518.161 0.624026 518.897 0.624026C519.409 0.624026 519.825 0.784027 520.145 1.10403C520.497 1.42403 520.673 1.85603 520.673 2.40003C520.673 2.84803 520.513 3.24803 520.193 3.60003L516.881 7.53603C516.593 7.88803 516.241 8.06403 515.825 8.06403ZM2.16001 93.52C1.55201 93.52 1.04001 93.312 0.624008 92.896C0.208008 92.48 7.98702e-06 91.968 7.98702e-06 91.36V70.768C7.98702e-06 70.16 0.208008 69.648 0.624008 69.232C1.04001 68.784 1.55201 68.56 2.16001 68.56C2.76801 68.56 3.28001 68.784 3.69601 69.232C4.14401 69.648 4.36801 70.16 4.36801 70.768V72.736C5.58401 71.392 6.89601 70.32 8.30401 69.52C9.71201 68.72 11.376 68.32 13.296 68.32C15.056 68.32 16.576 68.736 17.856 69.568C19.168 70.4 20.16 71.536 20.832 72.976C21.536 74.416 21.888 76 21.888 77.728V91.36C21.888 91.968 21.664 92.48 21.216 92.896C20.8 93.312 20.288 93.52 19.68 93.52C19.072 93.52 18.56 93.312 18.144 92.896C17.728 92.48 17.52 91.968 17.52 91.36V78.208C17.52 74.304 15.76 72.352 12.24 72.352C10.64 72.352 9.20001 72.768 7.92001 73.6C6.67201 74.432 5.48801 75.552 4.36801 76.96V91.36C4.36801 91.968 4.14401 92.48 3.69601 92.896C3.28001 93.312 2.76801 93.52 2.16001 93.52ZM35.49 93.76C34.082 93.76 32.77 93.472 31.554 92.896C30.37 92.32 29.426 91.488 28.722 90.4C28.018 89.28 27.666 88 27.666 86.56C27.666 84.192 28.594 82.304 30.45 80.896C32.338 79.488 35.09 78.784 38.706 78.784H44.514V78.4C44.514 76.288 43.986 74.768 42.93 73.84C41.906 72.912 40.29 72.448 38.082 72.448C36.866 72.448 35.778 72.544 34.818 72.736C33.89 72.928 32.85 73.216 31.698 73.6C31.442 73.664 31.234 73.696 31.074 73.696C30.594 73.696 30.178 73.52 29.826 73.168C29.474 72.816 29.298 72.384 29.298 71.872C29.298 71.008 29.714 70.4 30.546 70.048C33.266 68.896 36.034 68.32 38.85 68.32C41.058 68.32 42.914 68.768 44.418 69.664C45.954 70.56 47.074 71.728 47.778 73.168C48.514 74.576 48.882 76.112 48.882 77.776V91.36C48.882 91.968 48.658 92.48 48.21 92.896C47.794 93.312 47.282 93.52 46.674 93.52C46.066 93.52 45.554 93.312 45.138 92.896C44.722 92.48 44.514 91.968 44.514 91.36V90.112C42.146 92.544 39.138 93.76 35.49 93.76ZM37.122 89.92C38.53 89.92 39.89 89.584 41.202 88.912C42.514 88.208 43.618 87.344 44.514 86.32V82.288H39.282C34.45 82.288 32.034 83.552 32.034 86.08C32.034 87.232 32.418 88.16 33.186 88.864C33.986 89.568 35.298 89.92 37.122 89.92ZM64.1231 93.76C60.9231 93.76 58.0111 93.04 55.3871 91.6C54.8431 91.216 54.5711 90.688 54.5711 90.016C54.5711 89.504 54.7471 89.056 55.0991 88.672C55.4511 88.288 55.8991 88.096 56.4431 88.096C56.7311 88.096 57.0191 88.16 57.3071 88.288C58.3311 88.736 59.3551 89.088 60.3791 89.344C61.4031 89.6 62.5551 89.728 63.8351 89.728C67.3871 89.728 69.1631 88.592 69.1631 86.32C69.1631 85.584 68.7471 85.024 67.9151 84.64C67.1151 84.256 65.7871 83.824 63.9311 83.344C62.0431 82.896 60.4751 82.432 59.2271 81.952C58.0111 81.472 56.9551 80.752 56.0591 79.792C55.1951 78.8 54.7631 77.504 54.7631 75.904C54.7631 73.664 55.5631 71.84 57.1631 70.432C58.7951 69.024 61.1151 68.32 64.1231 68.32C66.5871 68.32 68.9071 68.72 71.0831 69.52C71.5311 69.648 71.8671 69.888 72.0911 70.24C72.3471 70.592 72.4751 70.96 72.4751 71.344C72.4751 71.856 72.2831 72.304 71.8991 72.688C71.5471 73.072 71.0991 73.264 70.5551 73.264C70.3951 73.264 70.1871 73.232 69.9311 73.168C68.0751 72.592 66.2511 72.304 64.4591 72.304C62.7311 72.304 61.3711 72.624 60.3791 73.264C59.4191 73.872 58.9391 74.672 58.9391 75.664C58.9391 76.624 59.3871 77.328 60.2831 77.776C61.1791 78.224 62.5711 78.656 64.4591 79.072C66.3471 79.552 67.8831 80.032 69.0671 80.512C70.2511 80.96 71.2591 81.68 72.0911 82.672C72.9551 83.664 73.3871 84.992 73.3871 86.656C73.3871 88.704 72.5711 90.4 70.9391 91.744C69.3391 93.088 67.0671 93.76 64.1231 93.76ZM80.4176 93.28C79.5536 93.28 78.8336 93.056 78.2576 92.608C77.6816 92.16 77.3936 91.536 77.3936 90.736C77.3936 90 77.6496 89.344 78.1616 88.768L91.9856 72.88H79.8416C79.2656 72.88 78.7856 72.688 78.4016 72.304C78.0176 71.92 77.8256 71.44 77.8256 70.864C77.8256 70.288 78.0176 69.808 78.4016 69.424C78.7856 69.008 79.2656 68.8 79.8416 68.8H94.3856C95.2176 68.8 95.8896 69.056 96.4016 69.568C96.9136 70.08 97.1696 70.736 97.1696 71.536C97.1696 72.272 96.9456 72.912 96.4976 73.456L83.0576 89.2H95.3936C95.9696 89.2 96.4496 89.408 96.8336 89.824C97.2496 90.208 97.4576 90.688 97.4576 91.264C97.4576 91.84 97.2496 92.32 96.8336 92.704C96.4496 93.088 95.9696 93.28 95.3936 93.28H80.4176ZM123.561 93.76C120.361 93.76 117.449 93.04 114.825 91.6C114.281 91.216 114.009 90.688 114.009 90.016C114.009 89.504 114.185 89.056 114.537 88.672C114.889 88.288 115.337 88.096 115.881 88.096C116.169 88.096 116.457 88.16 116.745 88.288C117.769 88.736 118.793 89.088 119.817 89.344C120.841 89.6 121.993 89.728 123.273 89.728C126.825 89.728 128.601 88.592 128.601 86.32C128.601 85.584 128.185 85.024 127.353 84.64C126.553 84.256 125.225 83.824 123.369 83.344C121.481 82.896 119.913 82.432 118.665 81.952C117.449 81.472 116.393 80.752 115.497 79.792C114.633 78.8 114.201 77.504 114.201 75.904C114.201 73.664 115.001 71.84 116.601 70.432C118.233 69.024 120.553 68.32 123.561 68.32C126.025 68.32 128.345 68.72 130.521 69.52C130.969 69.648 131.305 69.888 131.529 70.24C131.785 70.592 131.913 70.96 131.913 71.344C131.913 71.856 131.721 72.304 131.337 72.688C130.985 73.072 130.537 73.264 129.993 73.264C129.833 73.264 129.625 73.232 129.369 73.168C127.513 72.592 125.689 72.304 123.897 72.304C122.169 72.304 120.809 72.624 119.817 73.264C118.857 73.872 118.377 74.672 118.377 75.664C118.377 76.624 118.825 77.328 119.721 77.776C120.617 78.224 122.009 78.656 123.897 79.072C125.785 79.552 127.321 80.032 128.505 80.512C129.689 80.96 130.697 81.68 131.529 82.672C132.393 83.664 132.825 84.992 132.825 86.656C132.825 88.704 132.009 90.4 130.377 91.744C128.777 93.088 126.505 93.76 123.561 93.76ZM140.863 93.52C140.255 93.52 139.743 93.312 139.327 92.896C138.911 92.48 138.703 91.968 138.703 91.36V60.208C138.703 59.6 138.911 59.088 139.327 58.672C139.743 58.224 140.255 58 140.863 58C141.471 58 141.983 58.224 142.399 58.672C142.847 59.088 143.071 59.6 143.071 60.208V79.84L154.495 69.28C154.975 68.864 155.455 68.656 155.935 68.656C156.671 68.656 157.199 68.864 157.519 69.28C157.871 69.696 158.047 70.192 158.047 70.768C158.047 71.312 157.775 71.856 157.231 72.4L150.319 78.592L159.007 90.112C159.327 90.528 159.487 90.96 159.487 91.408C159.487 92.048 159.279 92.56 158.863 92.944C158.447 93.328 157.919 93.52 157.279 93.52C156.959 93.52 156.639 93.44 156.319 93.28C155.999 93.12 155.727 92.896 155.503 92.608L147.247 81.376L143.071 85.168V91.36C143.071 91.968 142.847 92.48 142.399 92.896C141.983 93.312 141.471 93.52 140.863 93.52ZM167.019 93.52C166.411 93.52 165.899 93.312 165.483 92.896C165.067 92.48 164.859 91.968 164.859 91.36V60.208C164.859 59.6 165.067 59.088 165.483 58.672C165.899 58.224 166.411 58 167.019 58C167.659 58 168.187 58.208 168.603 58.624C169.019 59.04 169.227 59.568 169.227 60.208V91.36C169.227 91.968 169.003 92.48 168.555 92.896C168.139 93.312 167.627 93.52 167.019 93.52ZM187.757 93.76C183.853 93.76 180.797 92.656 178.589 90.448C176.413 88.208 175.325 85.072 175.325 81.04C175.325 78.768 175.741 76.672 176.573 74.752C177.405 72.832 178.685 71.28 180.413 70.096C182.141 68.912 184.269 68.32 186.797 68.32C189.165 68.32 191.213 68.88 192.941 70C194.669 71.088 195.981 72.56 196.877 74.416C197.773 76.24 198.221 78.24 198.221 80.416C198.221 81.024 198.013 81.536 197.597 81.952C197.213 82.368 196.685 82.576 196.013 82.576H179.741C179.997 84.816 180.829 86.56 182.237 87.808C183.645 89.056 185.613 89.68 188.141 89.68C189.485 89.68 190.653 89.552 191.645 89.296C192.669 89.04 193.661 88.672 194.621 88.192C194.877 88.064 195.165 88 195.485 88C195.997 88 196.445 88.176 196.829 88.528C197.213 88.88 197.405 89.328 197.405 89.872C197.405 90.576 196.989 91.168 196.157 91.648C194.909 92.352 193.677 92.88 192.461 93.232C191.245 93.584 189.677 93.76 187.757 93.76ZM193.901 79.024C193.805 77.456 193.389 76.144 192.653 75.088C191.949 74.032 191.069 73.264 190.013 72.784C188.957 72.272 187.885 72.016 186.797 72.016C185.709 72.016 184.637 72.272 183.581 72.784C182.525 73.264 181.645 74.032 180.941 75.088C180.237 76.144 179.837 77.456 179.741 79.024H193.901ZM206.16 104.56C205.552 104.56 205.04 104.336 204.624 103.888C204.208 103.472 204 102.96 204 102.352V70.72C204 70.112 204.208 69.6 204.624 69.184C205.04 68.768 205.552 68.56 206.16 68.56C206.768 68.56 207.28 68.768 207.696 69.184C208.144 69.6 208.368 70.112 208.368 70.72V71.968C210.704 69.536 213.44 68.32 216.576 68.32C218.56 68.32 220.432 68.832 222.192 69.856C223.984 70.848 225.424 72.32 226.512 74.272C227.632 76.192 228.192 78.448 228.192 81.04C228.192 83.632 227.632 85.904 226.512 87.856C225.424 89.776 223.984 91.248 222.192 92.272C220.432 93.264 218.56 93.76 216.576 93.76C213.44 93.76 210.704 92.544 208.368 90.112V102.352C208.368 102.992 208.16 103.52 207.744 103.936C207.328 104.352 206.8 104.56 206.16 104.56ZM215.952 89.68C218.32 89.68 220.224 88.928 221.664 87.424C223.104 85.92 223.824 83.792 223.824 81.04C223.824 78.288 223.104 76.16 221.664 74.656C220.224 73.152 218.32 72.4 215.952 72.4C214.48 72.4 213.088 72.736 211.776 73.408C210.496 74.048 209.36 74.912 208.368 76V86.08C209.36 87.168 210.496 88.048 211.776 88.72C213.088 89.36 214.48 89.68 215.952 89.68ZM240.535 84.352C239.927 84.352 239.415 84.176 238.999 83.824C238.615 83.44 238.423 82.992 238.423 82.48C238.423 81.04 238.679 79.776 239.191 78.688C239.703 77.6 240.295 76.704 240.967 76C241.671 75.264 242.599 74.432 243.751 73.504C244.967 72.544 245.863 71.712 246.439 71.008C247.015 70.304 247.303 69.504 247.303 68.608C247.303 65.12 245.015 63.376 240.439 63.376C239.319 63.376 238.215 63.52 237.127 63.808C236.071 64.064 235.127 64.448 234.295 64.96C233.911 65.216 233.511 65.344 233.095 65.344C232.583 65.344 232.135 65.152 231.751 64.768C231.367 64.384 231.175 63.936 231.175 63.424C231.175 62.688 231.575 62.08 232.375 61.6C233.687 60.768 235.015 60.176 236.359 59.824C237.703 59.472 239.191 59.296 240.823 59.296C244.087 59.296 246.695 60.112 248.647 61.744C250.631 63.376 251.623 65.584 251.623 68.368C251.623 69.616 251.399 70.72 250.951 71.68C250.503 72.608 249.959 73.408 249.319 74.08C248.679 74.72 247.831 75.456 246.775 76.288C245.399 77.376 244.359 78.368 243.655 79.264C242.983 80.128 242.647 81.2 242.647 82.48C242.647 82.992 242.439 83.44 242.023 83.824C241.607 84.176 241.111 84.352 240.535 84.352ZM240.439 93.472C239.671 93.472 238.999 93.2 238.423 92.656C237.879 92.08 237.607 91.392 237.607 90.592C237.607 89.824 237.879 89.168 238.423 88.624C238.999 88.048 239.671 87.76 240.439 87.76C241.239 87.76 241.911 88.048 242.455 88.624C243.031 89.168 243.319 89.824 243.319 90.592C243.319 91.392 243.031 92.08 242.455 92.656C241.911 93.2 241.239 93.472 240.439 93.472Z" fill="#313131"/>
</svg>
