<svg width="125" height="24" viewBox="0 0 125 24" fill="none" xmlns="http://www.w3.org/2000/svg">
<path d="M1.44 23.264C1.03466 23.264 0.69333 23.1253 0.415996 22.848C0.138663 22.5707 -3.8147e-06 22.2293 -3.8147e-06 21.824V2.72C-3.8147e-06 2.144 0.202663 1.65334 0.607996 1.248C1.01333 0.821337 1.504 0.608004 2.08 0.608004H2.496C3.17866 0.608004 3.76533 0.928003 4.256 1.568L16.576 19.36V2.08C16.576 1.67467 16.7147 1.33334 16.992 1.056C17.2693 0.757337 17.6107 0.608004 18.016 0.608004C18.4213 0.608004 18.7627 0.757337 19.04 1.056C19.3387 1.33334 19.488 1.67467 19.488 2.08V21.184C19.488 21.76 19.2747 22.2507 18.848 22.656C18.4427 23.0613 17.952 23.264 17.376 23.264H16.992C16.6507 23.264 16.3307 23.1893 16.032 23.04C15.7333 22.8693 15.488 22.656 15.296 22.4L2.912 4.512V21.824C2.912 22.2293 2.76266 22.5707 2.464 22.848C2.18666 23.1253 1.84533 23.264 1.44 23.264ZM31.874 23.424C30.2313 23.424 28.7913 23.072 27.554 22.368C26.3167 21.664 25.3567 20.672 24.674 19.392C24.0127 18.0907 23.682 16.608 23.682 14.944C23.682 13.28 24.0127 11.808 24.674 10.528C25.3567 9.22667 26.3167 8.224 27.554 7.52C28.7913 6.816 30.2313 6.464 31.874 6.464C33.4953 6.464 34.9247 6.816 36.162 7.52C37.3993 8.224 38.3593 9.22667 39.042 10.528C39.7247 11.808 40.066 13.28 40.066 14.944C40.066 16.608 39.7247 18.0907 39.042 19.392C38.3593 20.672 37.3993 21.664 36.162 22.368C34.9247 23.072 33.4953 23.424 31.874 23.424ZM31.874 20.768C32.7487 20.768 33.5807 20.5653 34.37 20.16C35.1807 19.7547 35.842 19.1147 36.354 18.24C36.8873 17.3653 37.154 16.256 37.154 14.912C37.154 13.5893 36.8873 12.4907 36.354 11.616C35.842 10.7413 35.1807 10.112 34.37 9.728C33.5807 9.32267 32.7487 9.12 31.874 9.12C30.978 9.12 30.1247 9.32267 29.314 9.728C28.5247 10.112 27.874 10.7413 27.362 11.616C26.85 12.4907 26.594 13.5893 26.594 14.912C26.594 16.256 26.85 17.3653 27.362 18.24C27.874 19.1147 28.5247 19.7547 29.314 20.16C30.1247 20.5653 30.978 20.768 31.874 20.768ZM48.788 23.264C48.3613 23.264 47.9773 23.136 47.636 22.88C47.2947 22.624 47.06 22.304 46.932 21.92L42.388 8.608C42.324 8.416 42.292 8.23467 42.292 8.064C42.292 7.65867 42.4307 7.31734 42.708 7.04C42.9853 6.76267 43.3267 6.624 43.732 6.624C44.0307 6.624 44.2973 6.70934 44.532 6.88C44.788 7.02934 44.9587 7.232 45.044 7.488L48.788 19.808L52.5 7.776C52.6067 7.43467 52.7987 7.15734 53.076 6.944C53.3747 6.73067 53.7053 6.624 54.068 6.624C54.4307 6.624 54.7507 6.73067 55.028 6.944C55.3267 7.15734 55.5293 7.43467 55.636 7.776L59.348 19.808L63.092 7.488C63.1773 7.232 63.3373 7.02934 63.572 6.88C63.828 6.70934 64.1053 6.624 64.404 6.624C64.8093 6.624 65.1507 6.76267 65.428 7.04C65.7053 7.31734 65.844 7.65867 65.844 8.064C65.844 8.23467 65.812 8.416 65.748 8.608L61.204 21.92C61.076 22.304 60.8413 22.624 60.5 22.88C60.1587 23.136 59.7747 23.264 59.348 23.264C58.9213 23.264 58.5373 23.136 58.196 22.88C57.8547 22.624 57.6093 22.2933 57.46 21.888L54.068 11.296L50.676 21.888C50.5267 22.2933 50.2813 22.624 49.94 22.88C49.5987 23.136 49.2147 23.264 48.788 23.264ZM76.249 23.424C74.6063 23.424 73.1663 23.072 71.929 22.368C70.6917 21.664 69.7317 20.672 69.049 19.392C68.3877 18.0907 68.057 16.608 68.057 14.944C68.057 13.28 68.3877 11.808 69.049 10.528C69.7317 9.22667 70.6917 8.224 71.929 7.52C73.1663 6.816 74.6063 6.464 76.249 6.464C77.8703 6.464 79.2997 6.816 80.537 7.52C81.7743 8.224 82.7343 9.22667 83.417 10.528C84.0997 11.808 84.441 13.28 84.441 14.944C84.441 16.608 84.0997 18.0907 83.417 19.392C82.7343 20.672 81.7743 21.664 80.537 22.368C79.2997 23.072 77.8703 23.424 76.249 23.424ZM76.249 20.768C77.1237 20.768 77.9557 20.5653 78.745 20.16C79.5557 19.7547 80.217 19.1147 80.729 18.24C81.2623 17.3653 81.529 16.256 81.529 14.912C81.529 13.5893 81.2623 12.4907 80.729 11.616C80.217 10.7413 79.5557 10.112 78.745 9.728C77.9557 9.32267 77.1237 9.12 76.249 9.12C75.353 9.12 74.4997 9.32267 73.689 9.728C72.8997 10.112 72.249 10.7413 71.737 11.616C71.225 12.4907 70.969 13.5893 70.969 14.912C70.969 16.256 71.225 17.3653 71.737 18.24C72.249 19.1147 72.8997 19.7547 73.689 20.16C74.4997 20.5653 75.353 20.768 76.249 20.768ZM93.7977 23.424C91.6644 23.424 89.7231 22.944 87.9737 21.984C87.6111 21.728 87.4297 21.376 87.4297 20.928C87.4297 20.5867 87.5471 20.288 87.7817 20.032C88.0164 19.776 88.3151 19.648 88.6777 19.648C88.8697 19.648 89.0617 19.6907 89.2537 19.776C89.9364 20.0747 90.6191 20.3093 91.3017 20.48C91.9844 20.6507 92.7524 20.736 93.6057 20.736C95.9737 20.736 97.1577 19.9787 97.1577 18.464C97.1577 17.9733 96.8804 17.6 96.3257 17.344C95.7924 17.088 94.9071 16.8 93.6697 16.48C92.4111 16.1813 91.3657 15.872 90.5337 15.552C89.7231 15.232 89.0191 14.752 88.4217 14.112C87.8457 13.4507 87.5577 12.5867 87.5577 11.52C87.5577 10.0267 88.0911 8.81067 89.1577 7.872C90.2457 6.93334 91.7924 6.464 93.7977 6.464C95.4404 6.464 96.9871 6.73067 98.4377 7.264C98.7364 7.34934 98.9604 7.50934 99.1097 7.744C99.2804 7.97867 99.3657 8.224 99.3657 8.48C99.3657 8.82134 99.2377 9.12 98.9817 9.376C98.7471 9.632 98.4484 9.76 98.0857 9.76C97.9791 9.76 97.8404 9.73867 97.6697 9.696C96.4324 9.312 95.2164 9.12 94.0217 9.12C92.8697 9.12 91.9631 9.33334 91.3017 9.76C90.6617 10.1653 90.3417 10.6987 90.3417 11.36C90.3417 12 90.6404 12.4693 91.2377 12.768C91.8351 13.0667 92.7631 13.3547 94.0217 13.632C95.2804 13.952 96.3044 14.272 97.0937 14.592C97.8831 14.8907 98.5551 15.3707 99.1097 16.032C99.6857 16.6933 99.9737 17.5787 99.9737 18.688C99.9737 20.0533 99.4297 21.184 98.3417 22.08C97.2751 22.976 95.7604 23.424 93.7977 23.424ZM93.5737 4.96C93.3177 4.96 93.1044 4.88534 92.9337 4.736C92.7844 4.56534 92.7097 4.352 92.7097 4.096C92.7097 3.904 92.7844 3.70134 92.9337 3.488L94.5657 0.608004C94.7791 0.202669 95.1311 1.90735e-06 95.6217 1.90735e-06C95.9631 1.90735e-06 96.2404 0.106669 96.4537 0.320004C96.6884 0.533337 96.8057 0.821336 96.8057 1.184C96.8057 1.48267 96.6991 1.74934 96.4857 1.984L94.2777 4.608C94.0857 4.84267 93.8511 4.96 93.5737 4.96ZM111.445 23.424C109.909 23.424 108.49 23.0827 107.189 22.4C105.887 21.7173 104.842 20.736 104.053 19.456C103.285 18.176 102.901 16.672 102.901 14.944C102.901 13.216 103.285 11.712 104.053 10.432C104.842 9.152 105.887 8.17067 107.189 7.488C108.49 6.80534 109.909 6.464 111.445 6.464C112.575 6.464 113.546 6.61334 114.357 6.912C115.189 7.18934 115.957 7.552 116.661 8C117.087 8.27734 117.301 8.65067 117.301 9.12C117.301 9.44 117.173 9.73867 116.917 10.016C116.682 10.272 116.405 10.4 116.085 10.4C115.85 10.4 115.615 10.336 115.381 10.208C114.677 9.84534 114.069 9.58934 113.557 9.44C113.066 9.26934 112.447 9.184 111.701 9.184C109.866 9.184 108.426 9.71734 107.381 10.784C106.335 11.8293 105.813 13.216 105.813 14.944C105.813 16.672 106.335 18.0693 107.381 19.136C108.426 20.1813 109.866 20.704 111.701 20.704C112.447 20.704 113.066 20.6293 113.557 20.48C114.069 20.3093 114.677 20.0427 115.381 19.68C115.615 19.552 115.85 19.488 116.085 19.488C116.405 19.488 116.682 19.6267 116.917 19.904C117.173 20.16 117.301 20.448 117.301 20.768C117.301 21.2373 117.087 21.6107 116.661 21.888C115.957 22.336 115.189 22.7093 114.357 23.008C113.546 23.2853 112.575 23.424 111.445 23.424ZM122.331 3.456C121.883 3.456 121.499 3.296 121.179 2.976C120.859 2.656 120.699 2.272 120.699 1.824V1.696C120.699 1.248 120.859 0.864002 121.179 0.544003C121.499 0.224003 121.883 0.064003 122.331 0.064003H122.523C122.971 0.064003 123.355 0.224003 123.675 0.544003C123.995 0.864002 124.155 1.248 124.155 1.696V1.824C124.155 2.272 123.995 2.656 123.675 2.976C123.355 3.296 122.971 3.456 122.523 3.456H122.331ZM122.395 23.264C121.99 23.264 121.649 23.1253 121.371 22.848C121.094 22.5707 120.955 22.2293 120.955 21.824V8.096C120.955 7.69067 121.094 7.34934 121.371 7.072C121.649 6.77334 121.99 6.624 122.395 6.624C122.822 6.624 123.174 6.76267 123.451 7.04C123.729 7.31734 123.867 7.66934 123.867 8.096V21.824C123.867 22.2293 123.718 22.5707 123.419 22.848C123.142 23.1253 122.801 23.264 122.395 23.264Z" fill="#313131"/>
</svg>
