<svg width="202" height="30" viewBox="0 0 202 30" fill="none" xmlns="http://www.w3.org/2000/svg">
<path d="M1.8 29.6C1.29333 29.6 0.866662 29.4267 0.519995 29.08C0.173329 28.7334 -4.76837e-06 28.3067 -4.76837e-06 27.8V3.92002C-4.76837e-06 3.20002 0.253329 2.58669 0.759995 2.08002C1.26666 1.54669 1.88 1.28002 2.6 1.28002H3.12C3.97333 1.28002 4.70666 1.68002 5.32 2.48002L20.72 24.72V3.12002C20.72 2.61336 20.8933 2.18669 21.24 1.84002C21.5867 1.46669 22.0133 1.28002 22.52 1.28002C23.0267 1.28002 23.4533 1.46669 23.8 1.84002C24.1733 2.18669 24.36 2.61336 24.36 3.12002V27C24.36 27.72 24.0933 28.3334 23.56 28.84C23.0533 29.3467 22.44 29.6 21.72 29.6H21.24C20.8133 29.6 20.4133 29.5067 20.04 29.32C19.6667 29.1067 19.36 28.84 19.12 28.52L3.64 6.16002V27.8C3.64 28.3067 3.45333 28.7334 3.08 29.08C2.73333 29.4267 2.30666 29.6 1.8 29.6ZM39.9625 29.8C36.7092 29.8 34.1625 28.88 32.3225 27.04C30.5092 25.1734 29.6025 22.56 29.6025 19.2C29.6025 17.3067 29.9492 15.56 30.6425 13.96C31.3358 12.36 32.4025 11.0667 33.8425 10.08C35.2825 9.09336 37.0558 8.60002 39.1625 8.60002C41.1358 8.60002 42.8425 9.06669 44.2825 10C45.7225 10.9067 46.8158 12.1334 47.5625 13.68C48.3092 15.2 48.6825 16.8667 48.6825 18.68C48.6825 19.1867 48.5092 19.6134 48.1625 19.96C47.8425 20.3067 47.4025 20.48 46.8425 20.48H33.2825C33.4958 22.3467 34.1892 23.8 35.3625 24.84C36.5358 25.88 38.1758 26.4 40.2825 26.4C41.4025 26.4 42.3758 26.2934 43.2025 26.08C44.0558 25.8667 44.8825 25.56 45.6825 25.16C45.8958 25.0534 46.1358 25 46.4025 25C46.8292 25 47.2025 25.1467 47.5225 25.44C47.8425 25.7334 48.0025 26.1067 48.0025 26.56C48.0025 27.1467 47.6558 27.64 46.9625 28.04C45.9225 28.6267 44.8958 29.0667 43.8825 29.36C42.8692 29.6534 41.5625 29.8 39.9625 29.8ZM45.0825 17.52C45.0025 16.2134 44.6558 15.12 44.0425 14.24C43.4558 13.36 42.7225 12.72 41.8425 12.32C40.9625 11.8934 40.0692 11.68 39.1625 11.68C38.2558 11.68 37.3625 11.8934 36.4825 12.32C35.6025 12.72 34.8692 13.36 34.2825 14.24C33.6958 15.12 33.3625 16.2134 33.2825 17.52H45.0825ZM59.3834 29.6C58.8501 29.6 58.3701 29.44 57.9434 29.12C57.5168 28.8 57.2234 28.4 57.0634 27.92L51.3834 11.28C51.3034 11.04 51.2634 10.8134 51.2634 10.6C51.2634 10.0934 51.4368 9.66669 51.7834 9.32002C52.1301 8.97336 52.5568 8.80002 53.0634 8.80002C53.4368 8.80002 53.7701 8.90669 54.0634 9.12002C54.3834 9.30669 54.5968 9.56002 54.7034 9.88002L59.3834 25.28L64.0234 10.24C64.1568 9.81336 64.3968 9.46669 64.7434 9.20002C65.1168 8.93336 65.5301 8.80002 65.9834 8.80002C66.4368 8.80002 66.8368 8.93336 67.1834 9.20002C67.5568 9.46669 67.8101 9.81336 67.9434 10.24L72.5834 25.28L77.2634 9.88002C77.3701 9.56002 77.5701 9.30669 77.8634 9.12002C78.1834 8.90669 78.5301 8.80002 78.9034 8.80002C79.4101 8.80002 79.8368 8.97336 80.1834 9.32002C80.5301 9.66669 80.7034 10.0934 80.7034 10.6C80.7034 10.8134 80.6634 11.04 80.5834 11.28L74.9034 27.92C74.7434 28.4 74.4501 28.8 74.0234 29.12C73.5968 29.44 73.1168 29.6 72.5834 29.6C72.0501 29.6 71.5701 29.44 71.1434 29.12C70.7168 28.8 70.4101 28.3867 70.2234 27.88L65.9834 14.64L61.7434 27.88C61.5568 28.3867 61.2501 28.8 60.8234 29.12C60.3968 29.44 59.9168 29.6 59.3834 29.6ZM91.5831 29.8C88.9165 29.8 86.4898 29.2 84.3031 28C83.8498 27.68 83.6231 27.24 83.6231 26.68C83.6231 26.2534 83.7698 25.88 84.0631 25.56C84.3565 25.24 84.7298 25.08 85.1831 25.08C85.4231 25.08 85.6631 25.1334 85.9031 25.24C86.7565 25.6134 87.6098 25.9067 88.4631 26.12C89.3165 26.3334 90.2765 26.44 91.3431 26.44C94.3031 26.44 95.7831 25.4934 95.7831 23.6C95.7831 22.9867 95.4365 22.52 94.7431 22.2C94.0765 21.88 92.9698 21.52 91.4231 21.12C89.8498 20.7467 88.5431 20.36 87.5031 19.96C86.4898 19.56 85.6098 18.96 84.8631 18.16C84.1431 17.3334 83.7831 16.2534 83.7831 14.92C83.7831 13.0534 84.4498 11.5334 85.7831 10.36C87.1431 9.18669 89.0765 8.60002 91.5831 8.60002C93.6365 8.60002 95.5698 8.93336 97.3831 9.60002C97.7565 9.70669 98.0365 9.90669 98.2231 10.2C98.4365 10.4934 98.5431 10.8 98.5431 11.12C98.5431 11.5467 98.3831 11.92 98.0631 12.24C97.7698 12.56 97.3965 12.72 96.9431 12.72C96.8098 12.72 96.6365 12.6934 96.4231 12.64C94.8765 12.16 93.3565 11.92 91.8631 11.92C90.4231 11.92 89.2898 12.1867 88.4631 12.72C87.6631 13.2267 87.2631 13.8934 87.2631 14.72C87.2631 15.52 87.6365 16.1067 88.3831 16.48C89.1298 16.8534 90.2898 17.2134 91.8631 17.56C93.4365 17.96 94.7165 18.36 95.7031 18.76C96.6898 19.1334 97.5298 19.7334 98.2231 20.56C98.9431 21.3867 99.3031 22.4934 99.3031 23.88C99.3031 25.5867 98.6231 27 97.2631 28.12C95.9298 29.24 94.0365 29.8 91.5831 29.8ZM106.002 29.6C105.495 29.6 105.069 29.4267 104.722 29.08C104.375 28.7334 104.202 28.3067 104.202 27.8V1.84002C104.202 1.33336 104.375 0.906691 104.722 0.560024C105.069 0.18669 105.495 2.38419e-05 106.002 2.38419e-05C106.535 2.38419e-05 106.975 0.173357 107.322 0.520022C107.669 0.866689 107.842 1.30669 107.842 1.84002V27.8C107.842 28.3067 107.655 28.7334 107.282 29.08C106.935 29.4267 106.509 29.6 106.002 29.6ZM123.283 29.8C120.029 29.8 117.483 28.88 115.643 27.04C113.829 25.1734 112.923 22.56 112.923 19.2C112.923 17.3067 113.269 15.56 113.963 13.96C114.656 12.36 115.723 11.0667 117.163 10.08C118.603 9.09336 120.376 8.60002 122.483 8.60002C124.456 8.60002 126.163 9.06669 127.603 10C129.043 10.9067 130.136 12.1334 130.883 13.68C131.629 15.2 132.003 16.8667 132.003 18.68C132.003 19.1867 131.829 19.6134 131.483 19.96C131.163 20.3067 130.723 20.48 130.163 20.48H116.603C116.816 22.3467 117.509 23.8 118.683 24.84C119.856 25.88 121.496 26.4 123.603 26.4C124.723 26.4 125.696 26.2934 126.523 26.08C127.376 25.8667 128.203 25.56 129.003 25.16C129.216 25.0534 129.456 25 129.723 25C130.149 25 130.523 25.1467 130.843 25.44C131.163 25.7334 131.323 26.1067 131.323 26.56C131.323 27.1467 130.976 27.64 130.283 28.04C129.243 28.6267 128.216 29.0667 127.203 29.36C126.189 29.6534 124.883 29.8 123.283 29.8ZM128.403 17.52C128.323 16.2134 127.976 15.12 127.363 14.24C126.776 13.36 126.043 12.72 125.163 12.32C124.283 11.8934 123.389 11.68 122.483 11.68C121.576 11.68 120.683 11.8934 119.803 12.32C118.923 12.72 118.189 13.36 117.603 14.24C117.016 15.12 116.683 16.2134 116.603 17.52H128.403ZM143.859 29.8C139.966 29.8 138.019 28.04 138.019 24.52V12.12H135.179C134.966 12.12 134.779 12.0534 134.619 11.92C134.486 11.76 134.419 11.5734 134.419 11.36C134.419 11.0934 134.539 10.8667 134.779 10.68L140.219 5.36002C140.459 5.12002 140.686 5.00002 140.899 5.00002C141.112 5.00002 141.286 5.08002 141.419 5.24002C141.579 5.40002 141.659 5.58669 141.659 5.80002V9.00002H146.179C146.632 9.00002 147.006 9.14669 147.299 9.44002C147.592 9.73336 147.739 10.1067 147.739 10.56C147.739 10.9867 147.592 11.36 147.299 11.68C147.006 11.9734 146.632 12.12 146.179 12.12H141.659V24.2C141.659 25.24 141.899 25.9067 142.379 26.2C142.886 26.4667 143.512 26.6 144.259 26.6C144.792 26.6 145.326 26.52 145.859 26.36C145.966 26.3334 146.072 26.3067 146.179 26.28C146.312 26.2534 146.472 26.24 146.659 26.24C147.032 26.24 147.366 26.3867 147.659 26.68C147.952 26.9467 148.099 27.28 148.099 27.68C148.099 28.2934 147.792 28.76 147.179 29.08C146.139 29.56 145.032 29.8 143.859 29.8ZM159.132 29.8C155.239 29.8 153.292 28.04 153.292 24.52V12.12H150.452C150.239 12.12 150.052 12.0534 149.892 11.92C149.759 11.76 149.692 11.5734 149.692 11.36C149.692 11.0934 149.812 10.8667 150.052 10.68L155.492 5.36002C155.732 5.12002 155.959 5.00002 156.172 5.00002C156.386 5.00002 156.559 5.08002 156.692 5.24002C156.852 5.40002 156.932 5.58669 156.932 5.80002V9.00002H161.452C161.906 9.00002 162.279 9.14669 162.572 9.44002C162.866 9.73336 163.012 10.1067 163.012 10.56C163.012 10.9867 162.866 11.36 162.572 11.68C162.279 11.9734 161.906 12.12 161.452 12.12H156.932V24.2C156.932 25.24 157.172 25.9067 157.652 26.2C158.159 26.4667 158.786 26.6 159.532 26.6C160.066 26.6 160.599 26.52 161.132 26.36C161.239 26.3334 161.346 26.3067 161.452 26.28C161.586 26.2534 161.746 26.24 161.932 26.24C162.306 26.24 162.639 26.3867 162.932 26.68C163.226 26.9467 163.372 27.28 163.372 27.68C163.372 28.2934 163.066 28.76 162.452 29.08C161.412 29.56 160.306 29.8 159.132 29.8ZM176.212 29.8C172.959 29.8 170.412 28.88 168.572 27.04C166.759 25.1734 165.852 22.56 165.852 19.2C165.852 17.3067 166.199 15.56 166.892 13.96C167.586 12.36 168.652 11.0667 170.092 10.08C171.532 9.09336 173.306 8.60002 175.412 8.60002C177.386 8.60002 179.092 9.06669 180.532 10C181.972 10.9067 183.066 12.1334 183.812 13.68C184.559 15.2 184.932 16.8667 184.932 18.68C184.932 19.1867 184.759 19.6134 184.412 19.96C184.092 20.3067 183.652 20.48 183.092 20.48H169.532C169.746 22.3467 170.439 23.8 171.612 24.84C172.786 25.88 174.426 26.4 176.532 26.4C177.652 26.4 178.626 26.2934 179.452 26.08C180.306 25.8667 181.132 25.56 181.932 25.16C182.146 25.0534 182.386 25 182.652 25C183.079 25 183.452 25.1467 183.772 25.44C184.092 25.7334 184.252 26.1067 184.252 26.56C184.252 27.1467 183.906 27.64 183.212 28.04C182.172 28.6267 181.146 29.0667 180.132 29.36C179.119 29.6534 177.812 29.8 176.212 29.8ZM181.332 17.52C181.252 16.2134 180.906 15.12 180.292 14.24C179.706 13.36 178.972 12.72 178.092 12.32C177.212 11.8934 176.319 11.68 175.412 11.68C174.506 11.68 173.612 11.8934 172.732 12.32C171.852 12.72 171.119 13.36 170.532 14.24C169.946 15.12 169.612 16.2134 169.532 17.52H181.332ZM191.549 29.6C191.042 29.6 190.615 29.4267 190.269 29.08C189.922 28.7334 189.749 28.3067 189.749 27.8V10.64C189.749 10.1334 189.922 9.70669 190.269 9.36002C190.615 8.98669 191.042 8.80002 191.549 8.80002C192.055 8.80002 192.482 8.98669 192.829 9.36002C193.202 9.70669 193.389 10.1334 193.389 10.64V12.36C195.255 9.85336 197.349 8.60002 199.669 8.60002H199.869C200.375 8.60002 200.789 8.77336 201.109 9.12002C201.455 9.46669 201.629 9.89336 201.629 10.4C201.629 10.9067 201.455 11.32 201.109 11.64C200.762 11.96 200.322 12.12 199.789 12.12H199.589C198.309 12.12 197.135 12.44 196.069 13.08C195.002 13.6934 194.109 14.5467 193.389 15.64V27.8C193.389 28.3067 193.202 28.7334 192.829 29.08C192.482 29.4267 192.055 29.6 191.549 29.6Z" fill="white"/>
</svg>
