<svg width="167" height="23" viewBox="0 0 167 23" fill="none" xmlns="http://www.w3.org/2000/svg">
<path d="M11.2 22.976C9.06666 22.976 7.14666 22.5173 5.43999 21.6C3.75466 20.6613 2.42132 19.328 1.43999 17.6C0.47999 15.8507 -9.65595e-06 13.8133 -9.65595e-06 11.488C-9.65595e-06 9.16267 0.47999 7.136 1.43999 5.408C2.42132 3.65867 3.75466 2.32534 5.43999 1.408C7.14666 0.469339 9.06666 5.72205e-06 11.2 5.72205e-06C12.6507 5.72205e-06 13.9413 0.170672 15.072 0.512005C16.224 0.853338 17.3653 1.344 18.496 1.984C18.9653 2.24001 19.2 2.64534 19.2 3.2C19.2 3.52 19.0827 3.808 18.848 4.064C18.6133 4.29867 18.304 4.416 17.92 4.416C17.7067 4.416 17.5147 4.37334 17.344 4.28801C16.4053 3.79734 15.488 3.42401 14.592 3.168C13.696 2.912 12.6613 2.784 11.488 2.784C9.65332 2.784 8.08532 3.168 6.78399 3.936C5.50399 4.68267 4.53332 5.71734 3.87199 7.04C3.23199 8.34134 2.91199 9.82401 2.91199 11.488C2.91199 13.152 3.23199 14.6453 3.87199 15.968C4.53332 17.2693 5.50399 18.304 6.78399 19.072C8.08532 19.8187 9.65332 20.192 11.488 20.192C12.6613 20.192 13.696 20.064 14.592 19.808C15.488 19.552 16.4053 19.1787 17.344 18.688C17.5147 18.6027 17.7067 18.56 17.92 18.56C18.304 18.56 18.6133 18.6773 18.848 18.912C19.0827 19.1467 19.2 19.4347 19.2 19.776C19.2 20.3307 18.9653 20.736 18.496 20.992C17.3653 21.632 16.224 22.1227 15.072 22.464C13.9413 22.8053 12.6507 22.976 11.2 22.976ZM23.85 22.656C23.338 22.656 22.9007 22.4747 22.538 22.112C22.1753 21.7493 21.994 21.312 21.994 20.8C21.994 20.3307 22.122 19.936 22.378 19.616L35.754 3.10401H23.434C23.05 3.10401 22.7193 2.97601 22.442 2.72001C22.186 2.44267 22.058 2.112 22.058 1.728C22.058 1.344 22.186 1.01334 22.442 0.736004C22.7193 0.458672 23.05 0.320005 23.434 0.320005H37.322C37.9193 0.320005 38.3887 0.512005 38.73 0.896006C39.0927 1.28 39.274 1.74934 39.274 2.304C39.274 2.51734 39.2207 2.74134 39.114 2.97601C39.0287 3.21067 38.9113 3.41334 38.762 3.58401L25.546 19.936H38.09C38.474 19.936 38.794 20.0747 39.05 20.352C39.3273 20.608 39.466 20.928 39.466 21.312C39.466 21.696 39.3273 22.016 39.05 22.272C38.794 22.528 38.474 22.656 38.09 22.656H23.85ZM45.4402 22.656C45.0349 22.656 44.6936 22.5173 44.4162 22.24C44.1389 21.9627 44.0002 21.6213 44.0002 21.216V1.79201C44.0002 1.38667 44.1389 1.04534 44.4162 0.768005C44.6936 0.469339 45.0349 0.320005 45.4402 0.320005H58.2722C58.6562 0.320005 58.9762 0.458672 59.2322 0.736004C59.5096 0.992004 59.6482 1.312 59.6482 1.696C59.6482 2.08001 59.5096 2.40001 59.2322 2.65601C58.9762 2.91201 58.6562 3.04 58.2722 3.04H46.9122V10.112H57.1202C57.5042 10.112 57.8242 10.2507 58.0802 10.528C58.3576 10.784 58.4962 11.104 58.4962 11.488C58.4962 11.872 58.3576 12.192 58.0802 12.448C57.8242 12.704 57.5042 12.832 57.1202 12.832H46.9122V19.936H58.2722C58.6562 19.936 58.9762 20.0747 59.2322 20.352C59.5096 20.608 59.6482 20.928 59.6482 21.312C59.6482 21.696 59.5096 22.016 59.2322 22.272C58.9762 22.528 58.6562 22.656 58.2722 22.656H45.4402ZM65.8465 22.816C65.4412 22.816 65.0998 22.6773 64.8225 22.4C64.5452 22.1227 64.4065 21.7813 64.4065 21.376V1.79201C64.4065 1.38667 64.5452 1.04534 64.8225 0.768005C65.0998 0.469339 65.4412 0.320005 65.8465 0.320005H73.3025C76.2038 0.320005 78.3798 0.917339 79.8305 2.11201C81.2812 3.30667 82.0065 4.87467 82.0065 6.816C82.0065 8.096 81.6438 9.26934 80.9185 10.336C80.2145 11.3813 79.1798 12.1387 77.8145 12.608C79.3505 13.0133 80.3958 13.9733 80.9505 15.488C81.5265 16.9813 81.8145 18.4533 81.8145 19.904V21.376C81.8145 21.7813 81.6758 22.1227 81.3985 22.4C81.1212 22.6773 80.7798 22.816 80.3745 22.816C79.9265 22.816 79.5638 22.688 79.2865 22.432C79.0305 22.1547 78.9025 21.8027 78.9025 21.376V20.416C78.9025 19.3493 78.8065 18.368 78.6145 17.472C78.4225 16.5547 77.9638 15.744 77.2385 15.04C76.5132 14.3147 75.4145 13.952 73.9425 13.952H67.3185V21.376C67.3185 21.7813 67.1692 22.1227 66.8705 22.4C66.5932 22.6773 66.2518 22.816 65.8465 22.816ZM73.1105 11.2C74.9452 11.2 76.3958 10.8373 77.4625 10.112C78.5505 9.38667 79.0945 8.36267 79.0945 7.04C79.0945 5.76 78.6252 4.77867 77.6865 4.096C76.7692 3.41334 75.1905 3.072 72.9505 3.072H67.3185V11.2H73.1105ZM93.2357 22.816C92.8091 22.816 92.4251 22.6987 92.0837 22.464C91.7637 22.208 91.5184 21.8453 91.3477 21.376L85.0757 2.11201C85.0117 1.87734 84.9797 1.696 84.9797 1.568C84.9584 1.16267 85.0757 0.832005 85.3317 0.576004C85.6091 0.298672 85.9611 0.160006 86.3877 0.160006C86.7291 0.160006 87.0277 0.266672 87.2837 0.480005C87.5397 0.693338 87.7211 0.970671 87.8277 1.312L93.2037 18.976L98.6117 1.37601C98.7184 1.01334 98.9211 0.725338 99.2197 0.512005C99.5397 0.277339 99.8917 0.160006 100.276 0.160006C100.66 0.160006 101.001 0.277339 101.3 0.512005C101.62 0.725338 101.833 1.01334 101.94 1.37601L107.348 18.976L112.724 1.312C112.83 0.970671 113.012 0.693338 113.268 0.480005C113.524 0.266672 113.822 0.160006 114.164 0.160006C114.59 0.160006 114.932 0.298672 115.188 0.576004C115.465 0.832005 115.593 1.16267 115.572 1.568C115.572 1.696 115.54 1.87734 115.476 2.11201L109.204 21.376C109.033 21.8453 108.777 22.208 108.436 22.464C108.116 22.6987 107.742 22.816 107.316 22.816C106.889 22.816 106.494 22.688 106.132 22.432C105.79 22.1547 105.556 21.8027 105.428 21.376L100.276 5.05601L95.1237 21.376C94.9957 21.8027 94.7504 22.1547 94.3877 22.432C94.0464 22.688 93.6624 22.816 93.2357 22.816ZM120.971 22.816C120.566 22.816 120.225 22.6773 119.947 22.4C119.67 22.1227 119.531 21.7813 119.531 21.376V1.63201C119.531 1.22667 119.67 0.885338 119.947 0.608006C120.225 0.309339 120.566 0.160006 120.971 0.160006C121.377 0.160006 121.718 0.309339 121.995 0.608006C122.294 0.885338 122.443 1.22667 122.443 1.63201V21.376C122.443 21.7813 122.294 22.1227 121.995 22.4C121.718 22.6773 121.377 22.816 120.971 22.816ZM130.096 22.656C129.691 22.656 129.35 22.5173 129.072 22.24C128.795 21.9627 128.656 21.6213 128.656 21.216V1.79201C128.656 1.38667 128.795 1.04534 129.072 0.768005C129.35 0.469339 129.691 0.320005 130.096 0.320005H142.928C143.312 0.320005 143.632 0.458672 143.888 0.736004C144.166 0.992004 144.304 1.312 144.304 1.696C144.304 2.08001 144.166 2.40001 143.888 2.65601C143.632 2.91201 143.312 3.04 142.928 3.04H131.568V10.112H141.776C142.16 10.112 142.48 10.2507 142.736 10.528C143.014 10.784 143.152 11.104 143.152 11.488C143.152 11.872 143.014 12.192 142.736 12.448C142.48 12.704 142.16 12.832 141.776 12.832H131.568V19.936H142.928C143.312 19.936 143.632 20.0747 143.888 20.352C144.166 20.608 144.304 20.928 144.304 21.312C144.304 21.696 144.166 22.016 143.888 22.272C143.632 22.528 143.312 22.656 142.928 22.656H130.096ZM158.7 22.976C156.567 22.976 154.647 22.5173 152.94 21.6C151.255 20.6613 149.921 19.328 148.94 17.6C147.98 15.8507 147.5 13.8133 147.5 11.488C147.5 9.16267 147.98 7.136 148.94 5.408C149.921 3.65867 151.255 2.32534 152.94 1.408C154.647 0.469339 156.567 5.72205e-06 158.7 5.72205e-06C160.151 5.72205e-06 161.441 0.170672 162.572 0.512005C163.724 0.853338 164.865 1.344 165.996 1.984C166.465 2.24001 166.7 2.64534 166.7 3.2C166.7 3.52 166.583 3.808 166.348 4.064C166.113 4.29867 165.804 4.416 165.42 4.416C165.207 4.416 165.015 4.37334 164.844 4.28801C163.905 3.79734 162.988 3.42401 162.092 3.168C161.196 2.912 160.161 2.784 158.988 2.784C157.153 2.784 155.585 3.168 154.284 3.936C153.004 4.68267 152.033 5.71734 151.372 7.04C150.732 8.34134 150.412 9.82401 150.412 11.488C150.412 13.152 150.732 14.6453 151.372 15.968C152.033 17.2693 153.004 18.304 154.284 19.072C155.585 19.8187 157.153 20.192 158.988 20.192C160.161 20.192 161.196 20.064 162.092 19.808C162.988 19.552 163.905 19.1787 164.844 18.688C165.015 18.6027 165.207 18.56 165.42 18.56C165.804 18.56 166.113 18.6773 166.348 18.912C166.583 19.1467 166.7 19.4347 166.7 19.776C166.7 20.3307 166.465 20.736 165.996 20.992C164.865 21.632 163.724 22.1227 162.572 22.464C161.441 22.8053 160.151 22.976 158.7 22.976Z" fill="#313131"/>
</svg>
